<svg id="Capa_1" enable-background="new 0 0 512 512" height="512" viewBox="0 0 512 512" width="512" xmlns="http://www.w3.org/2000/svg"><g><g><path d="m509 384.018h-507l-2-7.808v-95.197c0-19.363 15.697-35.06 35.06-35.06h5.123l62.314 7.771 62.314-7.771h28.876l62.806 9.271 61.821-9.271h28.876l62.867 9.271 61.76-9.271h5.123c19.363 0 35.06 15.697 35.06 35.06v95.197z" fill="#d5c6e4"/></g><path d="m486.543 247.295c.638 2.645.985 5.404.985 8.245v128.478h21.472l3-7.808v-95.197c0-16.033-10.764-29.541-25.457-33.718z" fill="#beb9dd"/><g><path d="m300.314 325.69h-13.745l-30.569-9.108-30.569 9.108h-13.745c-9.941 0-18-8.059-18-18v-61.738h124.627v61.738c.001 9.941-8.058 18-17.999 18z" fill="#365e7d"/></g><g><path d="m146.811 325.69h-13.745l-30.569-10.705-30.569 10.705h-13.745c-9.941 0-18-8.059-18-18v-61.738h124.627v61.738c.001 9.941-8.058 18-17.999 18z" fill="#365e7d"/></g><g><path d="m453.817 325.69h-13.745l-30.569-10.514-30.569 10.514h-13.745c-9.941 0-18-8.059-18-18v-61.738h124.627v61.738c.001 9.941-8.058 18-17.999 18z" fill="#365e7d"/></g><g><path d="m295.004 245.952v61.738c0 6.426-3.367 12.065-8.432 15.25-2.772 1.743-6.052-.25-9.568-.25l9.565 3h13.745c9.941 0 18-8.059 18-18v-61.738z" fill="#2b4d66"/></g><g><path d="m141.501 245.952v61.738c0 6.426-3.367 12.065-8.433 15.25-2.772 1.743-6.052.75-9.567.75l9.565 2h13.745c9.941 0 18-8.059 18-18v-61.738z" fill="#2b4d66"/></g><g><path d="m448.507 245.952v61.738c0 6.426-3.367 12.065-8.433 15.25-2.772 1.742-6.052-.25-9.567-.25l9.565 3h13.745c9.941 0 18-8.059 18-18v-61.738z" fill="#2b4d66"/></g><g><path d="m476.94 437.853h-441.88c-19.363 0-35.06-15.697-35.06-35.06v-26.584h512v26.584c0 19.363-15.697 35.06-35.06 35.06z" fill="#407093"/></g><g><path d="m225.431 175.036h61.138v150.654h-61.138z" fill="#efecef"/></g><g><path d="m71.928 175.036h61.138v150.654h-61.138z" fill="#efecef"/></g><g><path d="m378.934 175.036h61.138v150.654h-61.138z" fill="#efecef"/></g><g><path d="m264.378 175.036h22.191v150.654h-22.191z" fill="#dddaec"/></g><g><path d="m110.875 175.036h22.191v150.654h-22.191z" fill="#dddaec"/></g><g><path d="m417.875 175.036h22.197v150.654h-22.197z" fill="#dddaec"/></g><g><path d="m283.69 210.494h-61.598c-10.493 0-19-8.507-19-19v-98.347c0-10.493 8.507-19 19-19h72.577c11.328 0 20.139 9.85 18.883 21.108l-10.978 98.347c-1.074 9.618-9.206 16.892-18.884 16.892z" fill="#d5c6e4"/></g><g><path d="m130.187 210.494h-61.598c-10.493 0-19-8.507-19-19v-98.347c0-10.493 8.507-19 19-19h72.577c11.328 0 20.139 9.85 18.883 21.108l-10.978 98.347c-1.075 9.618-9.206 16.892-18.884 16.892z" fill="#d5c6e4"/></g><g><path d="m378.373 93.147v31.611c0 11.311-4.161 22.228-11.691 30.669l-3.265 3.66c-3.105 3.481-4.821 7.983-4.821 12.648v19.759c0 10.493 8.507 19 19 19h64.816c10.493 0 19-8.507 19-19v-98.347c0-10.493-8.507-19-19-19h-45.038c-10.495 0-19.001 8.506-19.001 19z" fill="#d5c6e4"/></g><g><path d="m296.672 74.253c.139 1.336.139 2.71-.017 4.105l-10.978 98.347c-1.074 9.618-9.205 16.892-18.883 16.892h-61.598c-.675 0-1.341-.038-1.997-.106.999 9.554 9.075 17.003 18.894 17.003h61.598c9.678 0 17.809-7.274 18.883-16.892l10.978-98.347c1.181-10.585-6.538-19.923-16.88-21.002z" fill="#beb9dd"/></g><g><path d="m143.169 74.253c.139 1.336.139 2.71-.017 4.105l-10.978 98.347c-1.074 9.618-9.205 16.892-18.883 16.892h-61.598c-.675 0-1.341-.038-1.997-.106.999 9.554 9.075 17.003 18.894 17.003h61.598c9.678 0 17.809-7.274 18.883-16.892l10.978-98.347c1.181-10.585-6.538-19.923-16.88-21.002z" fill="#beb9dd"/></g><g><path d="m444.408 74.253c.069.657.106 1.322.106 1.997v98.347c0 10.494-8.507 19-19 19h-64.816c-.675 0-1.341-.038-1.997-.106.999 9.554 9.075 17.003 18.894 17.003h64.816c10.493 0 19-8.507 19-19v-98.347c0-9.819-7.449-17.895-17.003-18.894z" fill="#beb9dd"/></g><g><path d="m435.838 133.253h-32.619c-4.143 0-7.5-3.357-7.5-7.5s3.357-7.5 7.5-7.5h32.619c4.143 0 7.5 3.357 7.5 7.5s-3.357 7.5-7.5 7.5z" fill="#407093"/></g><g><path d="m435.838 164.53h-32.619c-4.143 0-7.5-3.357-7.5-7.5s3.357-7.5 7.5-7.5h32.619c4.143 0 7.5 3.357 7.5 7.5s-3.357 7.5-7.5 7.5z" fill="#407093"/></g><g><path d="m283.336 133.253h-54.672c-4.143 0-7.5-3.357-7.5-7.5s3.357-7.5 7.5-7.5h54.672c4.143 0 7.5 3.357 7.5 7.5s-3.357 7.5-7.5 7.5z" fill="#407093"/></g><g><path d="m283.336 164.531h-54.672c-4.143 0-7.5-3.357-7.5-7.5s3.357-7.5 7.5-7.5h54.672c4.143 0 7.5 3.357 7.5 7.5s-3.357 7.5-7.5 7.5z" fill="#407093"/></g><g><path d="m129.832 164.531h-54.671c-4.143 0-7.5-3.357-7.5-7.5s3.357-7.5 7.5-7.5h54.671c4.143 0 7.5 3.357 7.5 7.5s-3.357 7.5-7.5 7.5z" fill="#407093"/></g><g><path d="m129.832 133.253h-54.671c-4.143 0-7.5-3.357-7.5-7.5s3.357-7.5 7.5-7.5h54.671c4.143 0 7.5 3.357 7.5 7.5s-3.357 7.5-7.5 7.5z" fill="#407093"/></g><path d="m487.528 376.209v14.516c0 11.96-9.696 21.656-21.656 21.656h-455.284c-3.332 0-6.55-.475-9.604-1.343 3.71 15.383 17.554 26.815 34.076 26.815h441.88c19.363 0 35.06-15.697 35.06-35.06v-26.584z" fill="#365e7d"/></g></svg>