<svg id="Capa_1" enable-background="new 0 0 512 512" height="512" viewBox="0 0 512 512" width="512" xmlns="http://www.w3.org/2000/svg"><g><g><g><g><g><g><g><path d="m363.291 118.365c0-59.17-48.036-107.137-107.291-107.137s-107.291 47.967-107.291 107.137c0 49.832 34.071 91.718 80.221 103.697v29.92h54.14v-29.92c46.15-11.979 80.221-53.864 80.221-103.697z" fill="#fff59b"/></g></g></g></g></g></g><g><g><g><g><g><g><g><g><path d="m236.85 257h38.3v162.627h-38.3z" fill="#fff59b" transform="matrix(-1 0 0 -1 512 676.627)"/></g></g></g></g></g></g><g fill="#020288"><path d="m422.442 117.599h-11.033c-5.523 0-10 4.478-10 10s4.477 10 10 10h11.033c5.523 0 10-4.478 10-10s-4.477-10-10-10z"/><path d="m100.591 117.599h-11.033c-5.523 0-10 4.478-10 10s4.477 10 10 10h11.033c5.523 0 10-4.478 10-10s-4.477-10-10-10z"/><path d="m366.624 2.926-7.801 7.795c-3.907 3.904-3.909 10.235-.005 14.143 1.953 1.954 4.513 2.932 7.074 2.932 2.558 0 5.116-.976 7.068-2.926l7.801-7.795c3.907-3.904 3.909-10.235.005-14.143-3.903-3.907-10.235-3.91-14.142-.006z"/><path d="m139.04 230.33-7.801 7.795c-3.907 3.904-3.909 10.235-.005 14.143 1.953 1.954 4.513 2.932 7.074 2.932 2.558 0 5.116-.976 7.068-2.926l7.801-7.795c3.907-3.904 3.909-10.235.005-14.143-3.903-3.906-10.234-3.909-14.142-.006z"/><path d="m372.959 230.33c-3.907-3.902-10.239-3.9-14.142.006-3.904 3.907-3.901 10.238.005 14.143l7.801 7.795c1.953 1.95 4.51 2.926 7.068 2.926 2.561 0 5.121-.978 7.074-2.932 3.904-3.907 3.901-10.238-.005-14.143z"/><path d="m145.376 2.926c-3.907-3.902-10.239-3.9-14.142.006-3.904 3.907-3.901 10.238.005 14.143l7.801 7.795c1.953 1.95 4.51 2.926 7.068 2.926 2.561 0 5.121-.978 7.074-2.932 3.904-3.907 3.901-10.238-.005-14.143z"/><path d="m248.934 189.665c1.952 1.949 4.509 2.924 7.066 2.924s5.114-.975 7.066-2.924l25.258-25.222c3.908-3.902 3.913-10.234.01-14.143-3.903-3.906-10.234-3.912-14.142-.01l-18.192 18.167-18.192-18.166c-3.907-3.902-10.24-3.896-14.142.01-3.902 3.908-3.898 10.24.01 14.143z"/><path d="m324.445 420.522c0-.019.04-.823.04-.904v-162.618c0-5.522-4.477-10-10-10h-116.971c-5.523 0-10 4.478-10 10v162.618c0 .082.035.806.035.848 0 2.582 1.904 5.08 1.933 5.119l25.896 34.912c.159.288 32.382 47.17 32.382 47.17 1.866 2.713 4.947 4.333 8.24 4.333s6.374-1.62 8.239-4.333c0 0 32.224-46.882 32.382-47.17l25.873-34.881c.005-.006 1.951-2.084 1.951-5.094zm-41.731 25.152h-53.429l-11.903-16.047h77.234zm-75.2-36.047v-19.421h96.972v19.421zm96.972-142.627v103.206h-96.972v-103.206zm-48.486 217.353-12.847-18.68h25.694z"/></g></g></g></g></svg>