<?xml version="1.0" encoding="UTF-8"?>
<!-- Generator: Adobe Illustrator 25.3.1, SVG Export Plug-In . SVG Version: 6.00 Build 0)  -->
<svg xmlns="http://www.w3.org/2000/svg" xmlns:xlink="http://www.w3.org/1999/xlink" version="1.1" id="Capa_1" x="0px" y="0px" viewBox="0 0 512 512" style="enable-background:new 0 0 512 512;" xml:space="preserve" width="512" height="512">
<g>
	<g>
		<g>
			<g>
				<path style="fill:#FFFFFF;" d="M107.372,62.92c0,0-12.125-9.307-17.62-1.316s16.666,13.334,13.531,7.25      c-1.353-2.625-13.165,6.161-9.399,12.105C97.65,86.903,118.919,72.546,107.372,62.92z"/>
			</g>
			<g>
				<path style="fill:#241726;" d="M96.896,83.478L96.896,83.478c-2.269,0-3.406-1.043-3.959-1.918      c-2.089-3.294-0.366-7.108,2.299-10.006c-2.983-1.064-6.148-2.979-7.159-5.64c-0.616-1.625-0.357-3.336,0.75-4.946      c1.701-2.473,4.11-3.726,7.163-3.726c5.763,0,11.812,4.592,12.067,4.788c3.518,2.933,4.656,6.69,3.235,10.608      C109.118,78.643,101.639,83.478,96.896,83.478z M97.698,72.255c-2.398,2.264-4.454,5.597-2.865,8.104      c0.366,0.581,1.061,0.875,2.063,0.875l0,0c3.921,0.001,10.493-4.407,12.286-9.361c1.105-3.049,0.254-5.771-2.527-8.092      c-0.02-0.014-5.671-4.295-10.664-4.295c-2.302,0-4.04,0.901-5.313,2.753c-0.69,1.004-0.855,1.946-0.5,2.879      c0.695,1.832,3.501,3.713,6.92,4.676c1.576-1.291,3.656-2.54,5.241-2.54c0.879,0,1.587,0.396,1.942,1.085      c0.682,1.323,0.43,2.252,0.096,2.798C103.496,72.581,100.964,72.954,97.698,72.255z M100.166,70.343      c1.541,0.088,2.238-0.281,2.295-0.374c0.011-0.02,0.028-0.204-0.175-0.602C101.867,69.445,101.095,69.766,100.166,70.343z"/>
			</g>
		</g>
		<g>
			<g>
				<path style="fill:#FFFFFF;" d="M114.443,57.202c0,0,3.563-14.864,12.862-12.115c9.299,2.75-4.556,20.852-5.949,14.151      c-0.601-2.892,14.107-3.5,14.923,3.489S111.531,71.949,114.443,57.202z"/>
			</g>
			<g>
				<path style="fill:#241726;" d="M125.952,69.285c-4.759,0-8.741-1.524-10.927-4.182c-1.758-2.139-2.326-4.872-1.683-8.119      c0.14-0.589,3.299-13.359,11.722-13.359c0.833,0,1.694,0.13,2.558,0.386c1.874,0.555,3.152,1.72,3.696,3.372      c0.892,2.703-0.362,6.182-2.01,8.886c3.895,0.574,7.632,2.454,8.086,6.327c0.136,1.165-0.252,2.297-1.122,3.274      C134.426,67.945,130.375,69.285,125.952,69.285z M125.064,45.87c-6.672,0-9.502,11.477-9.531,11.593      c-0.495,2.513-0.085,4.618,1.225,6.215c1.732,2.105,5.169,3.362,9.193,3.362c3.693,0,7.249-1.095,8.643-2.662      c0.445-0.499,0.629-0.996,0.568-1.521c-0.342-2.948-4.038-4.242-7.325-4.492c-1.07,1.322-3.113,3.472-5.077,3.473      c-0.603,0-2.058-0.231-2.503-2.372c-0.123-0.59,0.031-1.184,0.43-1.675c1.295-1.594,4.87-1.718,5.936-1.718      c0.044,0,0.088,0.001,0.134,0.001c2.049-2.901,3.045-6.126,2.431-7.989c-0.313-0.948-1.032-1.577-2.201-1.922      C126.329,45.968,125.682,45.87,125.064,45.87z M122.432,59.212c0.066,0,0.169,0.381,0.329,0.381c0.331,0,1.039-0.335,1.942-1.15      c-1.346,0.189-2.126,0.547-2.28,0.769C122.425,59.212,122.427,59.212,122.432,59.212z"/>
			</g>
		</g>
		<g>
			<path style="fill:#F5D450;" d="M113.651,72.731c0,0-4.998,7.236-0.543,13.164c4.456,5.928,11.611,9.926,15.039,5.804     c3.428-4.123,4.851-12.665-0.839-17.665C121.617,69.033,114.872,70.418,113.651,72.731z"/>
		</g>
		<g>
			<g>
				<path style="fill:#241726;" d="M111.813,81.566c-0.427,0-0.835-0.245-1.024-0.661c-0.254-0.566-0.002-1.23,0.563-1.485      c5.806-2.616,12.477-6.137,13.123-7.266c0.309-0.54,1-0.721,1.532-0.414c0.537,0.308,0.723,0.994,0.414,1.532      c-1.309,2.281-11.159,6.85-14.149,8.196C112.125,81.534,111.969,81.566,111.813,81.566z"/>
			</g>
		</g>
		<g>
			<g>
				<path style="fill:#241726;" d="M113.828,87.539c-0.414,0-0.815-0.231-1.008-0.63c-0.272-0.558-0.042-1.23,0.517-1.5      c5.798-2.828,14.39-7.564,15.333-9.242c0.302-0.543,0.982-0.734,1.528-0.43c0.539,0.304,0.732,0.987,0.427,1.528      c-1.626,2.899-13.868,8.973-16.306,10.161C114.161,87.503,113.995,87.539,113.828,87.539z"/>
			</g>
		</g>
		<g>
			<g>
				<path style="fill:#FFFFFF;" d="M108.415,59.361c0,0-3.43-8.377-12.937-7.696"/>
			</g>
			<g>
				<path style="fill:#241726;" d="M108.414,60.482c-0.441,0-0.857-0.262-1.037-0.693c-0.132-0.311-3.31-7.615-11.819-7.007      c-0.605,0.037-1.155-0.419-1.201-1.039c-0.044-0.618,0.421-1.155,1.041-1.199c10.155-0.755,14.015,8.299,14.055,8.391      c0.235,0.572-0.039,1.225-0.612,1.461C108.701,60.455,108.557,60.482,108.414,60.482z"/>
			</g>
		</g>
		<g>
			<g>
				<path style="fill:#241726;" d="M118.072,91.701c-0.447,0-0.87-0.27-1.043-0.711c-0.228-0.576,0.055-1.227,0.631-1.455      c4.029-1.587,10.822-4.92,11.904-7.11c0.274-0.558,0.951-0.779,1.504-0.509c0.555,0.275,0.783,0.948,0.509,1.504      c-1.819,3.678-11.944,7.751-13.092,8.203C118.348,91.676,118.21,91.701,118.072,91.701z"/>
			</g>
		</g>
		<g>
			<g>
				<path style="fill:#FFFFFF;" d="M111.64,43.282c0,0-6.208,5.836-0.607,15.445"/>
			</g>
			<g>
				<path style="fill:#241726;" d="M111.034,59.849c-0.386,0-0.761-0.199-0.969-0.557c-5.984-10.263,0.739-16.764,0.807-16.829      c0.452-0.423,1.162-0.404,1.587,0.049c0.423,0.45,0.403,1.158-0.046,1.583c-0.235,0.226-5.462,5.399-0.41,14.066      c0.313,0.536,0.132,1.223-0.403,1.535C111.422,59.8,111.226,59.849,111.034,59.849z"/>
			</g>
		</g>
	</g>
	<g>
		<g>
			<g>
				<path style="fill:#FFFFFF;" d="M486.164,315.6c0,0,3.23-14.94-6.343-16.491c-9.572-1.551-4.929,20.767-0.77,15.331      c1.795-2.346-11.198-9.267-14.961-3.321C460.327,317.064,482.398,330.153,486.164,315.6z"/>
			</g>
			<g>
				<path style="fill:#241726;" d="M477.942,323.349L477.942,323.349c-6.021,0-12.54-4.224-14.627-8.013      c-0.967-1.757-1.028-3.468-0.173-4.819c1.758-2.777,5.589-3.564,10.026-2.196c-0.311-3.024,0.018-6.441,1.745-8.551      c1.212-1.482,2.915-2.125,5.087-1.77c2.426,0.393,4.331,1.582,5.662,3.53c3.522,5.165,1.679,13.935,1.598,14.306      C486.004,320.697,482.698,323.349,477.942,323.349z M469.04,309.889c-1.887,0-3.233,0.616-4,1.83      c-0.41,0.647-0.329,1.499,0.241,2.535c1.745,3.167,7.654,6.851,12.661,6.851l0,0c3.742,0,6.142-1.946,7.135-5.787      c0.009-0.036,1.71-8.162-1.271-12.526c-0.984-1.439-2.345-2.281-4.165-2.576c-1.298-0.215-2.275,0.102-2.99,0.975      c-1.418,1.732-1.572,5.193-1.094,8.058c2.096,0.991,4.292,2.522,4.713,4.13c0.164,0.633,0.048,1.252-0.327,1.743      c-0.82,1.071-1.677,1.295-2.249,1.295c-2.468,0-3.665-3.728-4.105-5.573C472.008,310.226,470.41,309.889,469.04,309.889z       M476.373,312.262c0.533,1.322,1.1,1.91,1.322,1.91c0.029,0,0.204-0.073,0.465-0.414      C478.08,313.643,477.519,313.013,476.373,312.262z"/>
			</g>
		</g>
		<g>
			<g>
				<path style="fill:#FFFFFF;" d="M494.356,319.547c0,0,14.961-3.134,16.45,6.448c1.49,9.582-20.798,4.795-15.336,0.671      c2.357-1.78,9.195,11.257,3.225,14.982C492.727,345.374,479.779,323.219,494.356,319.547z"/>
			</g>
			<g>
				<path style="fill:#241726;" d="M497.209,343.192c-4.301,0-9.723-7.04-10.548-13.696c-0.701-5.65,2.003-9.672,7.422-11.036      c0.145-0.031,2.532-0.524,5.535-0.524c7.139,0,11.508,2.801,12.299,7.888c0.267,1.722-0.114,3.242-1.103,4.396      c-1.657,1.932-5.182,2.801-9.261,2.371c1.146,3.766,1.046,7.947-2.262,10.012C498.662,342.992,497.963,343.192,497.209,343.192z       M499.618,320.18c-2.757,0-5.009,0.461-5.03,0.466c-5.412,1.364-6.091,5.416-5.699,8.574c0.804,6.488,6.602,13.111,9.215,11.477      c2.516-1.571,2.106-5.466,0.927-8.544c-1.846-0.447-5.015-1.512-5.491-3.623c-0.129-0.578-0.138-1.705,1.254-2.757      c0.342-0.258,0.747-0.392,1.175-0.392c2.163,0,3.967,3.324,4.667,4.816c0.997,0.173,2.021,0.264,2.992,0.264      c2.56,0,4.557-0.62,5.484-1.7c0.563-0.66,0.756-1.507,0.587-2.592C508.929,321.219,503.791,320.18,499.618,320.18z       M495.951,327.622c-0.145,0.197-0.228,0.378-0.219,0.415c0.061,0.274,0.666,0.809,1.883,1.314      C496.861,328.212,496.194,327.662,495.951,327.622z"/>
			</g>
		</g>
		<g>
			<path style="fill:#F5D450;" d="M479.98,325.471c0,0-8.678-1.425-12.132,5.137c-3.454,6.562-4.01,14.74,1.183,16.076     c5.192,1.336,13.523-1.029,15.611-8.311C486.728,331.091,482.592,325.585,479.98,325.471z"/>
		</g>
		<g>
			<g>
				<path style="fill:#241726;" d="M484.571,337.511c-0.031,0-0.061-0.001-0.09-0.003c-2.624-0.208-10.964-7.16-13.458-9.286      c-0.471-0.402-0.528-1.11-0.127-1.581c0.406-0.475,1.113-0.528,1.583-0.126c4.846,4.131,10.883,8.653,12.178,8.756      c0.618,0.049,1.081,0.59,1.03,1.208C485.64,337.065,485.149,337.511,484.571,337.511z"/>
			</g>
		</g>
		<g>
			<g>
				<path style="fill:#241726;" d="M482.705,342.389c-0.028,0-0.055-0.001-0.081-0.003c-3.319-0.233-14.042-8.703-16.157-10.399      c-0.484-0.388-0.561-1.094-0.175-1.577c0.392-0.484,1.1-0.562,1.578-0.174c5.035,4.034,12.989,9.776,14.912,9.912      c0.618,0.043,1.085,0.58,1.041,1.198C483.782,341.938,483.288,342.389,482.705,342.389z"/>
			</g>
		</g>
		<g>
			<g>
				<path style="fill:#FFFFFF;" d="M489.827,315.021c0,0,6.106-6.682,1.427-14.985"/>
			</g>
			<g>
				<path style="fill:#241726;" d="M489.829,316.142c-0.27,0-0.541-0.096-0.756-0.292c-0.458-0.416-0.491-1.126-0.077-1.585      c0.226-0.25,5.489-6.211,1.28-13.679c-0.305-0.54-0.114-1.224,0.427-1.529c0.53-0.302,1.221-0.117,1.528,0.426      c5.022,8.908-1.51,16.22-1.576,16.294C490.434,316.021,490.131,316.142,489.829,316.142z"/>
			</g>
		</g>
		<g>
			<g>
				<path style="fill:#241726;" d="M478.172,346.083c-0.007,0-0.013,0-0.02,0c-4.103-0.072-12.115-7.485-13.014-8.33      c-0.454-0.424-0.476-1.134-0.05-1.586c0.427-0.454,1.138-0.472,1.585-0.05c3.156,2.964,9.075,7.679,11.519,7.722      c0.62,0.011,1.113,0.523,1.103,1.142C479.283,345.593,478.784,346.083,478.172,346.083z"/>
			</g>
		</g>
		<g>
			<g>
				<path style="fill:#FFFFFF;" d="M505.742,311.062c0,0-7.93-3.117-14.222,6.055"/>
			</g>
			<g>
				<path style="fill:#241726;" d="M491.521,318.239c-0.219,0-0.441-0.064-0.636-0.197c-0.511-0.35-0.64-1.049-0.289-1.56      c6.72-9.8,15.471-6.5,15.556-6.464c0.576,0.227,0.861,0.878,0.636,1.455c-0.228,0.575-0.881,0.861-1.453,0.635      c-0.313-0.121-7.218-2.618-12.889,5.643C492.229,318.069,491.878,318.239,491.521,318.239z"/>
			</g>
		</g>
	</g>
	<g>
		<path style="fill:#241726;" d="M36.51,245.097c-0.831,0-1.618,0-3.805-8.709c-7.38-1.419-8.005-2.258-8.244-2.58    c-0.208-0.279-0.298-0.792-0.202-1.128c0.134-0.473,0.443-1.569,8.875-4.969c3.029-7.894,4.055-7.894,4.739-7.894    c0.353,0,0.842,0.254,1.054,0.539c0.541,0.727,1.032,2.617,1.778,5.643c0.232,0.947,0.513,2.09,0.675,2.593    c0.443,0.198,1.418,0.548,2.227,0.837c4.338,1.555,5.456,2.083,5.66,3.119c0.075,0.388-0.123,0.955-0.416,1.219    c-0.881,0.79-5.072,2.345-7.271,3.128c-3.571,8.124-4.333,8.164-5.006,8.2C36.554,245.097,36.527,245.097,36.51,245.097z     M27.317,232.843c1.475,0.425,4.165,1.036,6.51,1.473c0.432,0.081,0.778,0.408,0.883,0.835c0.601,2.43,1.383,5.198,1.949,6.779    c0.818-1.472,2.056-4.076,3.06-6.377c0.125-0.286,0.362-0.507,0.655-0.61c2.006-0.705,4.27-1.572,5.679-2.189    c-0.989-0.415-2.332-0.898-3.202-1.21c-2.477-0.888-2.944-1.08-3.262-1.508c-0.276-0.373-0.449-0.996-1.065-3.499    c-0.23-0.941-0.587-2.386-0.903-3.468c-0.734,1.403-1.762,3.789-2.562,5.901c-0.112,0.294-0.342,0.528-0.633,0.644    C31.821,230.652,28.864,231.977,27.317,232.843z"/>
	</g>
	<g>
		<path style="fill:#241726;" d="M417.946,361.135c-0.831,0-1.618,0-3.805-8.71c-7.378-1.421-8.025-2.287-8.242-2.578    c-0.21-0.281-0.3-0.795-0.204-1.13c0.134-0.473,0.443-1.569,8.875-4.968c3.029-7.895,4.055-7.895,4.739-7.895    c0.355,0,0.842,0.254,1.054,0.539c0.541,0.728,1.032,2.617,1.775,5.643c0.235,0.947,0.515,2.09,0.677,2.593    c0.443,0.197,1.418,0.547,2.227,0.837c4.338,1.555,5.456,2.085,5.66,3.12c0.075,0.388-0.123,0.955-0.416,1.219    c-0.879,0.788-5.07,2.345-7.268,3.128c-3.571,8.124-4.333,8.164-5.009,8.2C417.99,361.135,417.966,361.135,417.946,361.135z     M408.753,348.88c1.475,0.425,4.165,1.036,6.51,1.473c0.432,0.081,0.778,0.408,0.883,0.835c0.601,2.431,1.385,5.201,1.949,6.781    c0.818-1.471,2.056-4.076,3.062-6.379c0.125-0.286,0.362-0.507,0.655-0.61c2.003-0.706,4.268-1.572,5.677-2.189    c-0.986-0.416-2.332-0.899-3.205-1.211c-2.473-0.887-2.939-1.08-3.257-1.506c-0.278-0.375-0.452-0.998-1.067-3.502    c-0.232-0.941-0.587-2.386-0.903-3.467c-0.734,1.403-1.762,3.789-2.562,5.901c-0.112,0.294-0.342,0.528-0.633,0.644    C413.258,346.69,410.303,348.014,408.753,348.88z"/>
	</g>
	<g>
		<path style="fill:#241726;" d="M155.081,359.684c-0.829,0-1.615,0-3.803-8.709c-7.378-1.421-8.025-2.288-8.242-2.58    c-0.21-0.279-0.3-0.793-0.204-1.129c0.134-0.472,0.443-1.568,8.875-4.968c3.029-7.895,4.055-7.895,4.739-7.895    c0.353,0,0.842,0.254,1.054,0.538c0.541,0.729,1.032,2.618,1.775,5.643c0.235,0.948,0.515,2.091,0.677,2.595    c0.443,0.197,1.42,0.547,2.231,0.838c4.336,1.554,5.454,2.083,5.655,3.118c0.077,0.388-0.121,0.953-0.414,1.218    c-0.881,0.791-5.072,2.346-7.271,3.129c-3.571,8.124-4.333,8.164-5.009,8.2C155.127,359.684,155.1,359.684,155.081,359.684z     M145.89,347.43c1.475,0.425,4.165,1.036,6.51,1.473c0.432,0.081,0.778,0.408,0.883,0.835c0.601,2.431,1.385,5.2,1.949,6.78    c0.818-1.471,2.056-4.076,3.062-6.379c0.125-0.286,0.362-0.507,0.655-0.61c2.006-0.705,4.268-1.572,5.679-2.189    c-0.989-0.415-2.332-0.898-3.202-1.21c-2.477-0.888-2.944-1.08-3.262-1.508c-0.278-0.373-0.452-0.996-1.067-3.502    c-0.232-0.941-0.587-2.385-0.903-3.465c-0.734,1.403-1.762,3.789-2.562,5.901c-0.112,0.294-0.342,0.528-0.633,0.644    C150.394,345.239,147.439,346.564,145.89,347.43z"/>
	</g>
	<g>
		<path style="fill:#241726;" d="M266.065,49.143c-0.831,0-1.618,0-3.805-8.71c-7.378-1.421-8.025-2.287-8.242-2.578    c-0.21-0.281-0.3-0.795-0.204-1.131c0.134-0.472,0.443-1.568,8.875-4.967c3.029-7.895,4.055-7.895,4.739-7.895    c0.355,0,0.842,0.254,1.054,0.539c0.541,0.728,1.032,2.617,1.775,5.643c0.235,0.947,0.515,2.09,0.677,2.593    c0.443,0.197,1.418,0.547,2.227,0.837c4.338,1.555,5.458,2.085,5.66,3.12c0.077,0.387-0.121,0.953-0.414,1.218    c-0.881,0.79-5.072,2.346-7.271,3.129c-3.571,8.124-4.333,8.164-5.009,8.2C266.109,49.143,266.082,49.143,266.065,49.143z     M256.872,36.889c1.475,0.424,4.165,1.035,6.51,1.472c0.432,0.081,0.778,0.408,0.883,0.835c0.601,2.431,1.385,5.201,1.949,6.781    c0.818-1.471,2.056-4.076,3.062-6.379c0.125-0.286,0.362-0.507,0.655-0.61c2.003-0.706,4.268-1.572,5.677-2.189    c-0.986-0.416-2.332-0.899-3.202-1.211c-2.475-0.887-2.942-1.08-3.259-1.506c-0.278-0.375-0.452-0.998-1.067-3.502    c-0.232-0.941-0.587-2.386-0.903-3.468c-0.734,1.404-1.762,3.79-2.562,5.902c-0.112,0.294-0.342,0.528-0.633,0.644    C261.376,34.699,258.422,36.023,256.872,36.889z"/>
	</g>
	<g>
		<path style="fill:#241726;" d="M482.53,227.564h-0.033c-4.279-0.018-7.744-3.514-7.727-7.795c0.018-4.261,3.498-7.727,7.759-7.727    c2.106,0.009,4.053,0.824,5.513,2.297c1.458,1.471,2.258,3.424,2.249,5.495C490.272,224.096,486.789,227.564,482.53,227.564z     M482.554,214.287c-3.053,0-5.526,2.464-5.539,5.491c-0.013,3.042,2.451,5.528,5.491,5.541h0.024l0,0    c3.027,0,5.502-2.464,5.517-5.493c0.007-1.473-0.561-2.86-1.6-3.906C485.41,214.873,484.027,214.294,482.554,214.287z"/>
	</g>
	<g>
		<path style="fill:#241726;" d="M345.333,54.616H345.3c-4.279-0.018-7.744-3.514-7.727-7.795c0.018-4.261,3.498-7.727,7.759-7.727    c2.106,0.009,4.053,0.824,5.513,2.297c1.458,1.471,2.258,3.424,2.249,5.495C353.075,51.148,349.592,54.616,345.333,54.616z     M345.357,41.339c-3.053,0-5.526,2.464-5.539,5.491c-0.013,3.042,2.451,5.528,5.491,5.541h0.024l0,0    c3.027,0,5.502-2.464,5.517-5.493c0.007-1.473-0.561-2.86-1.6-3.906C348.213,41.924,346.83,41.346,345.357,41.339z"/>
	</g>
	<g>
		<path style="fill:#241726;" d="M340.15,486.997h-0.033c-4.279-0.018-7.744-3.514-7.727-7.795c0.018-4.261,3.498-7.727,7.759-7.727    c2.106,0.009,4.053,0.824,5.513,2.297c1.458,1.471,2.258,3.424,2.249,5.495C347.892,483.529,344.409,486.997,340.15,486.997z     M340.174,473.72c-3.053,0-5.526,2.464-5.539,5.491c-0.013,3.042,2.451,5.528,5.491,5.541l0,0h0.024    c3.027,0,5.502-2.464,5.517-5.493c0.007-1.473-0.561-2.86-1.6-3.906C343.03,474.306,341.647,473.727,340.174,473.72z"/>
	</g>
	<g>
		<path style="fill:#241726;" d="M40.379,408.25h-0.033c-4.279-0.018-7.744-3.514-7.727-7.795c0.018-4.261,3.498-7.727,7.759-7.727    c2.106,0.009,4.053,0.824,5.513,2.297c1.458,1.471,2.258,3.424,2.249,5.495C48.121,404.782,44.638,408.25,40.379,408.25z     M40.403,394.973c-3.053,0-5.526,2.464-5.539,5.491c-0.013,3.042,2.451,5.528,5.491,5.541h0.024l0,0    c3.027,0,5.502-2.464,5.517-5.493c0.007-1.473-0.561-2.86-1.6-3.906C43.259,395.558,41.876,394.98,40.403,394.973z"/>
	</g>
	<g>
		<g>
			<path d="M72.789,134.218h-0.007c-0.62-0.004-1.12-0.509-1.116-1.129l0.112-18.888c0.004-0.618,0.506-1.116,1.122-1.116h0.007     c0.62,0.004,1.12,0.509,1.116,1.129l-0.112,18.888C73.907,133.72,73.405,134.218,72.789,134.218z"/>
		</g>
		<g>
			<path d="M65.174,130.095c-0.353,0-0.701-0.167-0.921-0.48c-0.355-0.509-0.23-1.208,0.278-1.563l15.598-10.874     c0.502-0.351,1.206-0.232,1.563,0.278c0.355,0.509,0.23,1.208-0.278,1.563l-15.598,10.874     C65.621,130.029,65.397,130.095,65.174,130.095z"/>
		</g>
		<g>
			<path d="M78.869,130.888c-0.298,0-0.594-0.118-0.815-0.351l-11.793-12.461c-0.425-0.449-0.406-1.162,0.044-1.587     c0.452-0.427,1.16-0.403,1.587,0.044l11.793,12.461c0.425,0.449,0.406,1.162-0.044,1.587     C79.424,130.788,79.145,130.888,78.869,130.888z"/>
		</g>
		<g>
			<path d="M63.041,124.573c-0.616,0-1.116-0.495-1.122-1.111c-0.007-0.62,0.491-1.127,1.111-1.133l18.167-0.173h0.007     c0.62,0,1.12,0.495,1.127,1.111c0.007,0.62-0.491,1.127-1.111,1.133l-18.167,0.173H63.041z"/>
		</g>
	</g>
	<g>
		<g>
			<path d="M366.215,374.014h-0.007c-0.62-0.004-1.12-0.509-1.116-1.129l0.112-18.888c0.004-0.618,0.506-1.116,1.122-1.116h0.007     c0.62,0.004,1.12,0.509,1.116,1.129l-0.112,18.888C367.332,373.516,366.83,374.014,366.215,374.014z"/>
		</g>
		<g>
			<path d="M358.6,369.891c-0.353,0-0.701-0.167-0.921-0.48c-0.355-0.509-0.23-1.208,0.278-1.563l15.598-10.874     c0.502-0.351,1.206-0.232,1.563,0.278c0.355,0.509,0.23,1.208-0.278,1.563l-15.598,10.874     C359.047,369.825,358.823,369.891,358.6,369.891z"/>
		</g>
		<g>
			<path d="M372.295,370.684c-0.298,0-0.594-0.118-0.815-0.351l-11.793-12.461c-0.425-0.449-0.405-1.162,0.044-1.587     c0.452-0.427,1.16-0.403,1.587,0.044l11.793,12.461c0.425,0.449,0.406,1.162-0.044,1.587     C372.85,370.583,372.571,370.684,372.295,370.684z"/>
		</g>
		<g>
			<path d="M356.467,364.369c-0.616,0-1.116-0.495-1.122-1.111c-0.007-0.62,0.491-1.127,1.111-1.133l18.167-0.173h0.007     c0.62,0,1.12,0.495,1.127,1.111c0.007,0.62-0.491,1.127-1.111,1.133l-18.167,0.173H356.467z"/>
		</g>
	</g>
	<g>
		<g>
			<path d="M77.026,456.051h-0.007c-0.62-0.004-1.12-0.509-1.116-1.129l0.112-18.888c0.004-0.618,0.506-1.116,1.122-1.116h0.007     c0.62,0.004,1.12,0.509,1.116,1.129l-0.112,18.888C78.144,455.554,77.642,456.051,77.026,456.051z"/>
		</g>
		<g>
			<path d="M69.411,451.928c-0.353,0-0.701-0.167-0.921-0.48c-0.355-0.509-0.23-1.208,0.278-1.563l15.598-10.874     c0.502-0.351,1.206-0.232,1.563,0.278c0.355,0.509,0.23,1.208-0.278,1.563l-15.598,10.874     C69.858,451.863,69.634,451.928,69.411,451.928z"/>
		</g>
		<g>
			<path d="M83.106,452.722c-0.298,0-0.594-0.118-0.815-0.351L70.498,439.91c-0.425-0.449-0.406-1.162,0.044-1.587     c0.452-0.427,1.16-0.403,1.587,0.044l11.793,12.461c0.425,0.449,0.406,1.162-0.044,1.587     C83.661,452.621,83.382,452.722,83.106,452.722z"/>
		</g>
		<g>
			<path d="M67.278,446.407c-0.616,0-1.116-0.495-1.122-1.111c-0.007-0.62,0.491-1.127,1.111-1.133l18.167-0.173h0.007     c0.62,0,1.12,0.495,1.127,1.111c0.007,0.62-0.491,1.127-1.111,1.133l-18.167,0.173H67.278z"/>
		</g>
	</g>
	<g>
		<g>
			<path d="M494.875,169.212h-0.007c-0.62-0.004-1.12-0.509-1.116-1.129l0.112-18.888c0.004-0.618,0.506-1.116,1.122-1.116h0.007     c0.62,0.004,1.12,0.509,1.116,1.129l-0.112,18.888C495.993,168.715,495.491,169.212,494.875,169.212z"/>
		</g>
		<g>
			<path d="M487.26,165.089c-0.353,0-0.701-0.167-0.921-0.48c-0.355-0.509-0.23-1.208,0.278-1.563l15.598-10.874     c0.502-0.351,1.206-0.232,1.563,0.278c0.355,0.509,0.23,1.208-0.278,1.563l-15.598,10.874     C487.707,165.023,487.483,165.089,487.26,165.089z"/>
		</g>
		<g>
			<path d="M500.955,165.883c-0.298,0-0.594-0.118-0.815-0.351l-11.793-12.461c-0.425-0.449-0.406-1.162,0.044-1.587     c0.452-0.427,1.16-0.403,1.587,0.044l11.793,12.461c0.425,0.449,0.406,1.162-0.044,1.587     C501.51,165.782,501.231,165.883,500.955,165.883z"/>
		</g>
		<g>
			<path d="M485.127,159.568c-0.616,0-1.116-0.495-1.122-1.111c-0.007-0.62,0.491-1.127,1.111-1.133l18.167-0.173h0.007     c0.62,0,1.12,0.495,1.127,1.111c0.007,0.62-0.491,1.127-1.111,1.133l-18.167,0.173H485.127z"/>
		</g>
	</g>
	<g>
		<path d="M194.862,410.28c-0.844,0-1.455-0.595-1.488-1.447c0.009-0.185,0.421-4.628,1.092-10.064    c-6.986-2.446-8.11-3.852-8.257-5.005c-0.042-0.33-0.035-1.165,0.925-1.792c1.775-1.16,6.03-2.607,8.807-3.483    c1.828-10.738,3.207-11.644,4.572-11.644c0.285,0,0.717,0.078,1.146,0.45c1.361,1.179,4.347,4.726,6.841,7.844    c2.751-0.594,6.236-1.234,8.5-1.234c1.458,0,2.323,0.264,2.803,0.856c0.309,0.38,0.421,0.86,0.318,1.354    c-0.09,0.426-0.353,1.69-5.425,7.164c6.017,8.358,5.638,9.568,5.432,10.225c-0.138,0.445-0.467,0.787-0.901,0.937    c-0.235,0.081-0.517,0.119-0.892,0.119c-2.087,0-7.674-1.194-12.501-2.424C197.104,410.279,195.421,410.28,194.862,410.28z     M196.635,399.5c-0.421,3.462-0.734,6.465-0.896,8.094c1.221-0.747,3.595-2.537,7.523-6.135    C200.899,400.818,198.652,400.154,196.635,399.5z M207.768,400.308c4.294,1.057,8.145,1.822,9.976,1.978    c-0.397-0.932-1.506-2.996-4.614-7.342C211.459,396.69,209.618,398.533,207.768,400.308z M196.92,397.232    c2.459,0.809,5.291,1.637,8.281,2.422c2.264-2.142,4.564-4.43,6.587-6.555c-1.291-1.754-2.716-3.618-4.171-5.462    c-3.108,0.712-6.497,1.618-9.688,2.586C197.591,392.318,197.253,394.667,196.92,397.232z M188.679,393.659    c0.522,0.435,1.999,1.372,6.076,2.831c0.259-1.973,0.519-3.817,0.783-5.515C192.348,392.014,189.886,392.976,188.679,393.659z     M210.054,387.107c1.144,1.462,2.258,2.925,3.294,4.325c2.569-2.797,3.821-4.441,4.316-5.253    c-0.169-0.016-0.386-0.029-0.664-0.029C215.519,386.151,213.088,386.487,210.054,387.107z M200.563,379.339    c-0.397,0.686-1.186,2.679-2.216,8.416c2.558-0.756,5.21-1.463,7.718-2.06C203.72,382.792,201.657,380.412,200.563,379.339z"/>
	</g>
	<g>
		<path d="M450.784,106.634c-0.123,0-0.344-0.037-0.458-0.077c-1.694-0.572-7.321-7.648-9.178-10.024    c-3.474,0.317-6.495,0.484-8.766,0.484c-3.908,0-4.914-0.47-5.331-1.282c-0.25-0.486-0.195-1.06,0.147-1.538    c0.118-0.14,3.163-3.402,7.023-7.289c-3.976-6.137-4.042-7.938-3.498-8.951c0.316-0.585,0.914-0.922,1.646-0.922    c2.315,0.179,6.58,1.641,9.314,2.649c6.468-5.943,8.513-6.76,9.655-6.76c0.888,0,1.545,0.541,1.721,1.413    c0.353,1.766,0.541,6.397,0.605,10.391c8.858,4.229,9.057,5.715,9.154,6.439c0.072,0.552-0.132,1.081-0.563,1.448    c-0.331,0.282-1.313,1.119-8.676,2.342c-0.373,10.795-1.442,11.674-2.793,11.676C450.784,106.634,450.784,106.634,450.784,106.634    z M443.796,96.27c3.194,4.034,5.543,6.628,6.674,7.679c0.259-0.977,0.647-3.287,0.85-8.636    C448.932,95.671,446.347,95.999,443.796,96.27z M429.829,94.662c1.379,0.158,5.098,0.138,9.699-0.241    c-1.473-1.953-2.841-3.852-4.038-5.606C433.04,91.292,430.956,93.473,429.829,94.662z M437.106,87.197    c1.451,2.147,3.183,4.537,5.061,6.985c3.106-0.306,6.326-0.707,9.224-1.149c0.053-2.178,0.068-4.523,0.046-6.872    c-2.893-1.34-6.129-2.7-9.246-3.888C440.646,83.72,438.939,85.372,437.106,87.197z M453.688,87.234    c0.009,1.855-0.007,3.695-0.044,5.436c3.746-0.638,5.741-1.172,6.628-1.51C459.67,90.591,458.035,89.37,453.688,87.234z     M432.777,79.325c0.147,0.663,0.741,2.308,3.069,5.958c1.414-1.402,2.751-2.7,3.996-3.88    C436.685,80.272,434.151,79.526,432.777,79.325z M444.035,80.578c2.486,0.969,5.015,2.033,7.365,3.097    c-0.079-3.732-0.25-6.876-0.46-8.395C450.207,75.579,448.364,76.671,444.035,80.578z"/>
	</g>
	<g>
		<g>
			<path style="fill:#FFFFFF;" d="M16.409,297.815c0,0-2.215-16.812,13.968-11.372s10.91,20.833,4.74,15.565     c-6.17-5.267,5.406-23.133,17.79-15.178s9.614,23.391,0.83,24.53c-8.784,1.139,5.317-17.973,16.383-6.17     c11.065,11.803-13.094,33.323-22.974,25.411c-9.88-7.912-2.148-20.682,0.222-12.899s-4.021,15.415-21.545,15.113     s-9.547-27.261-3.422-19.414c6.125,7.847-4.044,16.705-16.405,7.46S7.736,292.504,16.409,297.815z"/>
		</g>
		<g>
			<path style="fill:#241726;" d="M26.822,333.946l-1.019-0.009c-5.743-0.099-9.787-3.041-11.21-8.111     c-3.023-0.383-6.21-1.778-9.27-4.066c-4.842-3.622-6.484-9.121-4.5-15.086c2.034-6.11,7.446-10.897,12.325-10.897     c0.701,0,1.383,0.094,2.036,0.281c-0.022-2.34,0.338-6.323,2.711-9.027c2.65-3.023,7.016-3.607,12.838-1.652     c2.247,0.755,4.213,1.735,5.863,2.921c2.784-2.937,6.337-4.602,9.888-4.602c2.402,0,4.767,0.736,7.03,2.189     c5.351,3.438,8.599,8.725,8.866,14.323c3.141,0.09,6.017,1.506,8.557,4.215c3.444,3.674,4.079,8.611,1.786,13.902     c-3.485,8.046-13.003,15.104-20.367,15.104c-2.306,0.001-4.296-0.656-5.914-1.952c-0.772-0.618-1.471-1.288-2.087-1.998     C40.488,332.405,34.463,333.946,26.822,333.946z M16.971,325.913c1.002,2.833,3.376,5.686,8.871,5.78l0.98,0.009     c8.809,0,13.621-2.066,16.205-4.029c-2.468-3.993-2.28-8.356-0.905-11.059c0.791-1.561,1.944-2.456,3.159-2.456     c0.813,0,2.308,0.418,3.161,3.219c1.188,3.898,0.307,7.709-2.409,10.608c0.53,0.617,1.14,1.201,1.815,1.743     c1.21,0.968,2.727,1.46,4.511,1.459c6.464,0,15.19-6.555,18.309-13.751c1.352-3.126,2.216-7.654-1.368-11.476     c-2.109-2.25-4.454-3.428-6.973-3.505c-0.528,5.375-3.893,9.43-8.446,10.02c-2.974,0.381-3.956-1.166-4.013-2.603     c-0.129-3.167,4.436-8.489,10.274-9.499c-0.213-4.892-3.088-9.546-7.841-12.597c-4.673-3.006-10.03-2.113-13.967,1.956     c3.823,3.639,4.535,8.115,3.468,11.102c-0.743,2.083-2.339,3.378-4.16,3.378l0,0c-1.092,0-2.216-0.467-3.253-1.35     c-3.404-2.908-2.304-8.585,0.772-12.832c-1.442-1.013-3.167-1.86-5.14-2.523c-4.89-1.645-8.391-1.324-10.431,0.997     c-2.801,3.187-2.074,9.106-2.065,9.166c0.055,0.429-0.14,0.852-0.504,1.087c-0.359,0.237-0.826,0.241-1.195,0.015     c-0.815-0.498-1.714-0.751-2.676-0.751c-3.904,0-8.478,4.2-10.195,9.362c-0.785,2.36-1.995,8.31,3.715,12.58     c2.494,1.866,5.048,3.067,7.47,3.521c-0.498-4.355,0.835-8.598,2.591-10.779c0.98-1.214,2.122-1.857,3.303-1.857     c0.82,0,2.049,0.323,3.253,1.863c2.177,2.788,2.67,5.931,1.355,8.625C23.345,323.996,20.443,325.71,16.971,325.913z      M45.28,316.402c-0.206,0-0.704,0.333-1.157,1.229c-1.006,1.978-1.17,5.334,0.583,8.47c1.931-2.264,2.497-5.085,1.587-8.071     C45.931,316.844,45.479,316.402,45.28,316.402z M20.033,313.093c-0.471,0-1.026,0.362-1.556,1.02     c-1.495,1.858-2.593,5.827-2.047,9.574c2.845-0.046,5.208-1.315,6.194-3.335c0.925-1.893,0.519-4.175-1.109-6.26     C21.16,313.637,20.614,313.093,20.033,313.093z M60.04,302.677c-4.706,1.044-8.001,5.366-7.93,7.103     c0.009,0.215,0.02,0.507,0.914,0.507c0.175,0,0.364-0.013,0.568-0.039C56.961,309.811,59.486,306.775,60.04,302.677z      M36.891,291.459c-2.652,3.697-3.161,7.89-1.046,9.695c1.598,1.362,3.148,0.864,3.842-1.075     C40.495,297.818,39.894,294.381,36.891,291.459z"/>
		</g>
	</g>
	<g>
		<g>
			<path style="fill:#FFFFFF;" d="M411.364,147.057c0,0-2.215-16.812,13.968-11.372c16.183,5.44,10.91,20.833,4.74,15.565     c-6.169-5.267,5.406-23.133,17.79-15.178c12.383,7.955,9.614,23.391,0.83,24.53c-8.784,1.139,5.317-17.973,16.383-6.17     c11.065,11.803-13.094,33.323-22.974,25.411s-2.148-20.682,0.222-12.899s-4.021,15.415-21.545,15.113     c-17.523-0.302-9.547-27.261-3.422-19.414c6.125,7.847-4.044,16.705-16.405,7.46C388.59,160.858,402.691,141.746,411.364,147.057     z"/>
		</g>
		<g>
			<path style="fill:#241726;" d="M421.778,183.188l-1.019-0.009c-5.745-0.099-9.787-3.041-11.212-8.111     c-3.023-0.382-6.21-1.778-9.27-4.066c-4.842-3.622-6.484-9.121-4.5-15.086c2.034-6.11,7.446-10.897,12.325-10.897     c0.701,0,1.383,0.094,2.036,0.281c-0.022-2.34,0.338-6.323,2.711-9.027c2.65-3.022,7.014-3.609,12.838-1.652     c2.247,0.755,4.213,1.735,5.863,2.921c2.784-2.937,6.337-4.602,9.888-4.602c2.402,0,4.767,0.736,7.03,2.189     c5.351,3.438,8.599,8.725,8.866,14.324c3.141,0.089,6.017,1.505,8.557,4.214c3.444,3.674,4.079,8.611,1.789,13.901     c-3.485,8.047-13.005,15.105-20.37,15.105c-2.306,0.001-4.296-0.656-5.914-1.952c-0.772-0.618-1.471-1.288-2.087-1.998     C435.442,181.648,429.417,183.188,421.778,183.188z M411.927,175.155c1,2.833,3.376,5.686,8.871,5.78l0.98,0.009     c8.807,0,13.619-2.066,16.203-4.029c-2.468-3.993-2.28-8.355-0.905-11.058c0.793-1.562,1.944-2.457,3.159-2.457     c0.815,0,2.308,0.419,3.163,3.218c1.186,3.899,0.307,7.71-2.411,10.609c0.53,0.617,1.14,1.201,1.815,1.743     c1.21,0.968,2.727,1.46,4.511,1.459c6.466,0,15.192-6.555,18.309-13.752c1.355-3.126,2.216-7.653-1.366-11.475     c-2.111-2.25-4.456-3.428-6.975-3.505c-0.528,5.375-3.893,9.43-8.446,10.02c-0.309,0.039-0.594,0.058-0.857,0.058l0,0     c-2.249,0-3.106-1.374-3.159-2.661c-0.127-3.166,4.436-8.489,10.276-9.499c-0.213-4.892-3.088-9.546-7.841-12.597     c-4.673-3.004-10.03-2.113-13.967,1.956c3.823,3.639,4.535,8.115,3.468,11.102c-0.743,2.083-2.337,3.378-4.158,3.378h-0.002     c-1.092,0-2.216-0.467-3.251-1.35c-3.406-2.908-2.306-8.585,0.769-12.832c-1.442-1.013-3.167-1.86-5.14-2.523     c-4.888-1.645-8.389-1.326-10.431,0.997c-2.801,3.187-2.074,9.106-2.065,9.166c0.055,0.429-0.14,0.852-0.504,1.087     c-0.362,0.237-0.829,0.241-1.195,0.015c-0.815-0.498-1.714-0.751-2.676-0.751c-3.904,0-8.478,4.2-10.195,9.362     c-0.785,2.36-1.995,8.31,3.715,12.58c2.494,1.866,5.05,3.067,7.47,3.521c-0.498-4.354,0.835-8.598,2.591-10.778     c0.98-1.215,2.122-1.858,3.303-1.858c0.82,0,2.049,0.323,3.253,1.863c2.177,2.788,2.67,5.931,1.357,8.625     C418.299,173.238,415.399,174.952,411.927,175.155z M440.234,165.644c-0.206,0-0.704,0.334-1.157,1.23     c-1.006,1.977-1.17,5.333,0.583,8.469c1.933-2.264,2.499-5.085,1.589-8.071C440.887,166.085,440.436,165.644,440.234,165.644z      M414.987,162.335c-0.471,0-1.026,0.363-1.556,1.021c-1.495,1.857-2.593,5.826-2.045,9.573c2.843-0.046,5.208-1.314,6.192-3.335     c0.925-1.893,0.52-4.175-1.109-6.26C416.114,162.879,415.568,162.335,414.987,162.335z M454.995,151.919     c-4.706,1.046-8.001,5.367-7.933,7.104c0.009,0.214,0.022,0.506,0.916,0.506l0,0c0.173,0,0.364-0.013,0.568-0.039     C451.915,159.053,454.44,156.017,454.995,151.919z M431.845,140.701c-2.652,3.697-3.159,7.89-1.046,9.695     c1.6,1.363,3.148,0.863,3.842-1.074C435.449,147.059,434.851,143.623,431.845,140.701z"/>
		</g>
	</g>
	<g>
		<g>
			<g>
				<path style="fill:#FFFFFF;" d="M120.742,349.661c0,0,44.224,68.067,43.059,73.938c-1.165,5.871-1.097,51.651-5.209,49.309      c-4.112-2.342-28.3-11.466-34.652-18.639c-13.106-14.802-49.997-69.859-44.731-81.019S113.997,352.899,120.742,349.661z"/>
			</g>
			<g>
				<path style="fill:#241726;" d="M158.892,474.117c-0.296,0-0.583-0.079-0.855-0.233c-1.013-0.576-3.415-1.634-6.453-2.972      c-9.403-4.139-23.612-10.395-28.484-15.899c-10.929-12.343-50.851-69.64-44.906-82.241c4.377-9.28,23.886-16.9,35.54-21.454      c2.893-1.13,5.18-2.023,6.521-2.668c0.513-0.24,1.12-0.073,1.427,0.4c7.426,11.43,44.413,68.753,43.221,74.767      c-0.355,1.788-0.605,7.8-0.894,14.762C162.822,467.143,161.819,474.117,158.892,474.117z M120.327,351.084      c-1.418,0.621-3.395,1.394-5.776,2.325c-10.6,4.141-30.33,11.849-34.328,20.32c-4.66,9.878,29.951,63.301,44.556,79.795      c4.548,5.137,19.046,11.52,27.708,15.334c2.878,1.267,5.041,2.219,6.265,2.86c1.758-3.006,2.571-22.556,3.014-33.233      c0.305-7.346,0.546-13.148,0.936-15.105C163.294,419.188,137.251,377.17,120.327,351.084z"/>
			</g>
		</g>
		<g>
			<path style="fill:#E5554A;" d="M123.1,455.012c0,0-2.923-24.294,0.888-24.116c3.811,0.178,14.85,9.431,19.912,6.512     c4.318-2.49-2.027-18.307,3.263-18.353c5.29-0.046,16.73,7.547,17.767,3.876c2.524-8.937-48.129-85.982-50.461-86.385     s-55.554,25.012-53.289,29.965C63.447,371.465,120.3,461.491,123.1,455.012z"/>
		</g>
		<g>
			<path style="fill:#E5554A;" d="M136.686,464.009l26.808-14.246c0,0,3.036,24.355-0.782,27.162     C158.083,480.329,136.686,464.009,136.686,464.009z"/>
		</g>
		<g>
			<path style="fill:#241726;" d="M145.909,421.882c-0.373,0-0.739-0.187-0.951-0.528l-47.002-75.353     c-0.329-0.526-0.169-1.219,0.357-1.546c0.522-0.322,1.217-0.167,1.545,0.358l47.002,75.353c0.329,0.526,0.169,1.219-0.357,1.546     C146.319,421.828,146.113,421.882,145.909,421.882z"/>
		</g>
		<g>
			<path style="fill:#241726;" d="M123.988,432.019c-0.379,0-0.75-0.194-0.962-0.544l-45.522-75.577     c-0.318-0.53-0.147-1.22,0.384-1.54c0.526-0.319,1.219-0.148,1.541,0.383l45.522,75.577c0.318,0.53,0.147,1.22-0.384,1.54     C124.387,431.967,124.185,432.019,123.988,432.019z"/>
		</g>
	</g>
	<g>
		<g>
			<g>
				<path style="fill:#FFFFFF;" d="M410.34,480.052c0,0-72.684-36.138-74.665-41.786c-1.981-5.648-25.31-45.038-20.579-45.111      c4.731-0.074,30.2-4.511,39.316-1.562c18.81,6.085,78.566,34.747,79.704,47.034S414.502,473.835,410.34,480.052z"/>
			</g>
			<g>
				<path style="fill:#241726;" d="M410.34,481.174c-0.169,0-0.34-0.038-0.5-0.117c-12.205-6.068-73.195-36.634-75.225-42.419      c-0.603-1.717-3.441-7.016-6.727-13.153c-11.021-20.578-15.696-30.172-14.252-32.626c0.305-0.516,0.829-0.816,1.442-0.826      c1.164-0.018,3.768-0.328,7.065-0.72c6.565-0.781,15.556-1.852,22.993-1.852c4.257,0,7.404,0.349,9.62,1.065      c15.685,5.073,79.193,34.124,80.477,47.998c0.945,10.217-11.979,26.695-19.701,36.541c-1.918,2.444-3.433,4.375-4.261,5.612      C411.059,480.997,410.704,481.174,410.34,481.174z M315.563,394.262c0.013,3.482,9.254,20.738,14.302,30.163      c3.468,6.474,6.208,11.588,6.867,13.469c1.622,3.911,45.406,26.859,73.241,40.722c0.905-1.256,2.214-2.925,3.792-4.937      c7.023-8.954,20.096-25.622,19.232-34.949c-1.006-10.875-57.97-39.288-78.934-46.069c-1.96-0.635-4.965-0.956-8.928-0.956      c-7.304,0-16.218,1.061-22.728,1.836C319.287,393.912,316.942,394.192,315.563,394.262z"/>
			</g>
		</g>
		<g>
			<path style="fill:#876486;" d="M352.174,389.925c0,0,17.449,20.036,14.076,21.819s-16.118-1.977-19.693,4.233     c-2.916,5.064,10.286,15.016,5.754,17.745s-18.128,1.125-17.696,4.915c1.161,10.189,86.432,50.325,88.644,49.487     c2.213-0.838,32.639-48.098,28.17-51.212C446.961,433.797,351.293,382.922,352.174,389.925z"/>
		</g>
		<g>
			<path style="fill:#876486;" d="M338.61,389.682l-15.765,26.295c0,0-14.834-22.789-13.184-25.395     C311.758,387.272,338.61,389.682,338.61,389.682z"/>
		</g>
		<g>
			<path style="fill:#241726;" d="M431.304,473.739c-0.175,0-0.353-0.041-0.517-0.127l-78.778-41     c-0.55-0.286-0.765-0.963-0.478-1.514c0.287-0.549,0.971-0.759,1.512-0.477l78.778,41c0.55,0.286,0.765,0.963,0.478,1.514     C432.1,473.519,431.707,473.739,431.304,473.739z"/>
		</g>
		<g>
			<path style="fill:#241726;" d="M443.87,454.813c-0.182,0-0.364-0.043-0.533-0.135l-77.621-41.946     c-0.546-0.295-0.75-0.975-0.454-1.521c0.294-0.548,0.98-0.749,1.519-0.454l77.621,41.946c0.546,0.295,0.75,0.975,0.454,1.521     C444.655,454.6,444.269,454.813,443.87,454.813z"/>
		</g>
	</g>
	<g>
		<path style="fill:#241726;" d="M60.06,197.147c-0.579,0-1.07-0.446-1.116-1.033c-0.05-0.618,0.412-1.158,1.028-1.208    c1.416-0.112,2.825-0.366,4.189-0.755c0.601-0.175,1.217,0.176,1.385,0.772c0.171,0.596-0.175,1.218-0.772,1.387    c-1.504,0.429-3.06,0.709-4.623,0.834C60.121,197.146,60.091,197.147,60.06,197.147z M55.584,197.074    c-0.042,0-0.083-0.002-0.125-0.007c-1.51-0.168-3.051-0.471-4.579-0.904c-0.596-0.168-0.945-0.788-0.776-1.385    c0.169-0.596,0.791-0.95,1.385-0.774c1.409,0.398,2.828,0.678,4.215,0.832c0.618,0.069,1.061,0.624,0.993,1.24    C56.634,196.65,56.147,197.074,55.584,197.074z M68.639,194.711c-0.408,0-0.802-0.225-1-0.614    c-0.283-0.552-0.061-1.229,0.491-1.509c1.238-0.629,2.464-1.395,3.639-2.275c0.493-0.369,1.197-0.271,1.572,0.226    c0.37,0.496,0.27,1.2-0.226,1.572c-1.278,0.957-2.613,1.791-3.967,2.479C68.986,194.672,68.81,194.711,68.639,194.711z     M46.968,194.683c-0.149,0-0.302-0.03-0.447-0.093l-0.732-0.33c-1.199-0.558-2.328-1.13-3.384-1.714    c-0.541-0.3-0.739-0.983-0.438-1.526c0.298-0.541,0.982-0.738,1.526-0.438c1.013,0.56,2.093,1.108,3.246,1.643l0.677,0.307    c0.568,0.247,0.829,0.907,0.583,1.476C47.814,194.431,47.399,194.683,46.968,194.683z M39.14,190.318    c-0.224,0-0.449-0.066-0.644-0.204c-1.315-0.924-2.529-1.903-3.61-2.911c-0.454-0.423-0.478-1.133-0.055-1.586    c0.419-0.454,1.135-0.478,1.585-0.056c1.006,0.938,2.139,1.852,3.369,2.716c0.509,0.356,0.629,1.057,0.274,1.564    C39.839,190.152,39.493,190.318,39.14,190.318z M75.805,189.367c-0.283,0-0.566-0.106-0.785-0.32    c-0.443-0.433-0.452-1.143-0.018-1.587c0.993-1.015,1.938-2.125,2.81-3.301c0.37-0.498,1.074-0.599,1.569-0.232    c0.498,0.369,0.603,1.072,0.232,1.569c-0.932,1.257-1.944,2.446-3.007,3.533C76.388,189.254,76.096,189.367,75.805,189.367z     M32.648,184.178c-0.34,0-0.677-0.156-0.899-0.449c-0.964-1.289-1.778-2.653-2.413-4.056c-0.256-0.564-0.007-1.23,0.557-1.485    c0.566-0.255,1.23-0.007,1.486,0.558c0.57,1.255,1.3,2.479,2.168,3.638c0.37,0.496,0.27,1.2-0.226,1.572    C33.119,184.104,32.882,184.178,32.648,184.178z M81.16,182.184c-0.189,0-0.377-0.046-0.552-0.145    c-0.539-0.305-0.73-0.99-0.425-1.529c0.723-1.28,1.361-2.595,1.896-3.91c0.232-0.574,0.886-0.855,1.462-0.616    c0.574,0.233,0.85,0.888,0.616,1.462c-0.57,1.403-1.249,2.805-2.019,4.167C81.931,181.979,81.55,182.184,81.16,182.184z     M96.679,176.462c-1.436,0-2.847-0.062-4.195-0.184c-0.618-0.056-1.072-0.602-1.017-1.219c0.057-0.619,0.644-1.077,1.219-1.017    c1.282,0.116,2.626,0.175,3.994,0.175l0.381-0.001c0.002,0,0.007,0,0.009,0c0.616,0,1.118,0.496,1.122,1.112    c0.004,0.62-0.493,1.127-1.114,1.132L96.679,176.462z M101.54,176.19c-0.557,0-1.039-0.413-1.111-0.98    c-0.079-0.615,0.357-1.177,0.971-1.256c1.458-0.186,2.871-0.484,4.202-0.888c0.59-0.18,1.219,0.157,1.398,0.749    c0.18,0.593-0.156,1.22-0.75,1.4c-1.449,0.439-2.985,0.764-4.566,0.967C101.637,176.187,101.589,176.19,101.54,176.19z     M28.998,176.065c-0.526,0-0.997-0.373-1.1-0.91c-0.245-1.279-0.37-2.607-0.37-3.949c0-0.258,0.004-0.515,0.013-0.77    c0.024-0.619,0.454-1.121,1.164-1.081c0.618,0.022,1.103,0.542,1.081,1.162c-0.009,0.229-0.013,0.458-0.013,0.689    c0,1.199,0.112,2.385,0.331,3.524c0.116,0.609-0.283,1.198-0.89,1.315C29.141,176.059,29.07,176.065,28.998,176.065z     M88.152,175.618c-0.079,0-0.158-0.008-0.237-0.025c-1.574-0.336-3.077-0.774-4.467-1.299c-0.581-0.219-0.872-0.867-0.653-1.447    c0.129-0.342,0.408-0.583,0.732-0.68c0.331-1.369,0.533-2.679,0.601-3.897c0.035-0.616,0.524-1.061,1.184-1.058    c0.618,0.034,1.092,0.563,1.057,1.183c-0.075,1.355-0.298,2.8-0.66,4.303c0.857,0.269,1.754,0.502,2.676,0.7    c0.607,0.129,0.993,0.726,0.864,1.332C89.134,175.258,88.669,175.618,88.152,175.618z M110.069,173.568    c-0.401,0-0.791-0.217-0.993-0.597c-0.289-0.548-0.079-1.227,0.469-1.517c1.258-0.665,2.444-1.46,3.529-2.361    c0.473-0.391,1.186-0.33,1.58,0.147c0.397,0.476,0.331,1.184-0.147,1.58c-1.201,0.998-2.519,1.88-3.915,2.617    C110.426,173.526,110.247,173.568,110.069,173.568z M79.825,172.385c-0.206,0-0.414-0.056-0.601-0.174    c-1.486-0.941-2.718-1.999-3.658-3.143c-0.395-0.479-0.327-1.186,0.153-1.58c0.473-0.392,1.184-0.329,1.578,0.153    c0.791,0.961,1.843,1.86,3.128,2.674c0.524,0.332,0.68,1.025,0.346,1.549C80.559,172.201,80.195,172.385,79.825,172.385z     M116.923,167.875c-0.245,0-0.491-0.08-0.699-0.243c-0.484-0.386-0.566-1.092-0.18-1.577c0.875-1.101,1.655-2.306,2.315-3.583    c0.285-0.552,0.962-0.762,1.515-0.48c0.55,0.285,0.765,0.962,0.48,1.512c-0.728,1.405-1.587,2.732-2.551,3.947    C117.581,167.729,117.252,167.875,116.923,167.875z M29.259,167.156c-0.081,0-0.167-0.009-0.25-0.028    c-0.605-0.138-0.982-0.74-0.844-1.344c0.333-1.461,0.807-2.957,1.405-4.446c0.23-0.576,0.881-0.854,1.46-0.623    c0.574,0.231,0.855,0.884,0.623,1.46c-0.555,1.38-0.993,2.763-1.3,4.109C30.234,166.804,29.772,167.156,29.259,167.156z     M74.735,165.422c-0.007,0-0.013,0-0.022,0c-0.62-0.012-1.111-0.524-1.1-1.144c0.039-2.024,1.265-3.598,3.362-4.318    c0.587-0.197,1.223,0.112,1.425,0.698c0.202,0.586-0.11,1.224-0.697,1.426c-1.203,0.413-1.826,1.166-1.846,2.238    C75.846,164.934,75.344,165.422,74.735,165.422z M84.765,165.02c-0.467,0-0.903-0.294-1.063-0.761    c-0.441-1.295-1.184-2.087-2.209-2.353c-0.598-0.156-0.96-0.768-0.804-1.368c0.156-0.598,0.752-0.966,1.37-0.804    c1.775,0.46,3.08,1.775,3.77,3.802c0.199,0.586-0.114,1.224-0.701,1.424C85.007,165.002,84.886,165.02,84.765,165.02z     M121.042,159.957c-0.107,0-0.219-0.015-0.329-0.049c-0.592-0.181-0.925-0.808-0.745-1.401c0.079-0.256,0.153-0.514,0.224-0.774    c-0.068-0.014-0.134-0.028-0.199-0.043c-0.605-0.135-0.986-0.734-0.853-1.339c0.134-0.604,0.73-0.98,1.339-0.853    c0.064,0.014,0.129,0.029,0.193,0.043c0.07-0.408,0.129-0.818,0.18-1.227c0.072-0.617,0.684-1.048,1.245-0.982    c0.616,0.073,1.057,0.631,0.982,1.247c-0.053,0.448-0.116,0.895-0.193,1.341c0.605,0.081,1.232,0.147,1.876,0.197    c0.618,0.049,1.081,0.59,1.03,1.207c-0.048,0.62-0.59,1.076-1.206,1.031c-0.747-0.059-1.475-0.137-2.177-0.235    c-0.092,0.35-0.189,0.697-0.294,1.041C121.967,159.646,121.522,159.957,121.042,159.957z M32.562,158.836    c-0.189,0-0.379-0.047-0.552-0.146c-0.539-0.306-0.73-0.99-0.425-1.53c1.359-2.398,2.538-3.847,2.589-3.908    c0.392-0.479,1.098-0.548,1.578-0.158c0.48,0.392,0.55,1.099,0.158,1.579c-0.011,0.013-1.114,1.375-2.369,3.594    C33.332,158.631,32.952,158.836,32.562,158.836z M129.154,158.487c-0.612,0-1.113-0.491-1.122-1.105    c-0.009-0.619,0.484-1.13,1.105-1.14c0.41-0.007,0.829-0.018,1.252-0.034c1.052-0.041,2.078-0.144,3.051-0.306    c0.592-0.113,1.188,0.311,1.291,0.922c0.103,0.612-0.311,1.19-0.923,1.292c-1.065,0.179-2.188,0.29-3.33,0.334    c-0.443,0.019-0.879,0.03-1.306,0.036C129.165,158.487,129.161,158.487,129.154,158.487z M137.937,156.937    c-0.443,0-0.864-0.265-1.041-0.703c-0.232-0.574,0.046-1.229,0.62-1.461c1.32-0.533,2.549-1.22,3.65-2.044    c0.495-0.374,1.201-0.272,1.572,0.227c0.37,0.496,0.27,1.199-0.226,1.571c-1.258,0.94-2.657,1.724-4.154,2.329    C138.22,156.911,138.078,156.937,137.937,156.937z M115.99,156.304c-0.162,0-0.327-0.035-0.482-0.109    c-1.618-0.769-2.955-1.728-3.974-2.852c-0.416-0.458-0.384-1.168,0.077-1.585c0.458-0.414,1.168-0.382,1.585,0.077    c0.822,0.904,1.925,1.689,3.277,2.332c0.559,0.266,0.798,0.936,0.53,1.496C116.812,156.067,116.408,156.304,115.99,156.304z     M145.035,151.623c-0.243,0-0.489-0.079-0.695-0.24c-0.487-0.384-0.57-1.089-0.186-1.576c0.842-1.07,1.58-2.282,2.196-3.604    c0.263-0.562,0.934-0.802,1.491-0.542c0.563,0.262,0.807,0.929,0.544,1.492c-0.688,1.477-1.519,2.837-2.468,4.042    C145.695,151.476,145.366,151.623,145.035,151.623z M122.052,151.085c-0.576,0-1.067-0.444-1.116-1.029    c-0.125-1.508-0.416-2.878-0.868-4.072c-0.219-0.581,0.075-1.227,0.653-1.447c0.583-0.221,1.23,0.075,1.447,0.653    c0.524,1.39,0.861,2.963,1.004,4.679c0.053,0.618-0.408,1.161-1.026,1.211C122.116,151.084,122.085,151.085,122.052,151.085z     M110.422,149.74c-0.546,0-1.026-0.4-1.107-0.957c-0.061-0.409-0.092-0.814-0.092-1.215c0.002-1.323,0.322-2.642,0.923-3.819    c0.285-0.551,0.958-0.767,1.51-0.489c0.552,0.283,0.772,0.958,0.489,1.51c-0.441,0.864-0.675,1.831-0.677,2.8    c0,0.289,0.022,0.585,0.066,0.882c0.092,0.613-0.331,1.184-0.945,1.276C110.534,149.736,110.477,149.74,110.422,149.74z     M148.851,143.571c-0.09,0-0.182-0.011-0.272-0.034c-0.603-0.15-0.967-0.76-0.818-1.361c0.338-1.346,0.579-2.777,0.715-4.253    c0.057-0.618,0.614-1.073,1.221-1.015c0.618,0.057,1.072,0.604,1.015,1.221c-0.147,1.591-0.408,3.137-0.772,4.593    C149.811,143.231,149.355,143.571,148.851,143.571z M118.594,143.071c-0.232,0-0.467-0.071-0.669-0.22    c-0.129-0.095-0.261-0.183-0.397-0.261c-0.899-0.513-1.863-0.607-2.799-0.271c-0.587,0.214-1.225-0.091-1.438-0.675    c-0.21-0.583,0.092-1.225,0.675-1.436c1.558-0.562,3.205-0.41,4.68,0.435c0.21,0.122,0.416,0.255,0.616,0.403    c0.498,0.368,0.603,1.072,0.235,1.569C119.275,142.915,118.936,143.071,118.594,143.071z M149.706,134.662    c-0.601,0-1.098-0.476-1.122-1.081c-0.053-1.423-0.191-2.882-0.414-4.338c-0.094-0.613,0.327-1.186,0.938-1.279    c0.625-0.089,1.186,0.326,1.28,0.939c0.237,1.541,0.384,3.086,0.441,4.594c0.022,0.619-0.463,1.14-1.081,1.163    C149.732,134.662,149.719,134.662,149.706,134.662z M148.356,125.803c-0.498,0-0.951-0.331-1.085-0.833    c-0.377-1.416-0.833-2.813-1.35-4.153c-0.226-0.578,0.061-1.227,0.64-1.452c0.579-0.219,1.227,0.062,1.451,0.641    c0.55,1.415,1.03,2.89,1.429,4.385c0.16,0.598-0.197,1.214-0.796,1.373C148.549,125.791,148.45,125.803,148.356,125.803z     M145.101,117.451c-0.401,0-0.789-0.217-0.991-0.596c-0.695-1.312-1.462-2.551-2.28-3.686c-0.364-0.503-0.25-1.204,0.254-1.567    c0.498-0.362,1.201-0.249,1.565,0.254c0.879,1.218,1.699,2.546,2.442,3.947c0.292,0.548,0.083,1.227-0.465,1.518    C145.458,117.409,145.278,117.451,145.101,117.451z M139.836,110.22c-0.285,0-0.57-0.107-0.787-0.323    c-1.057-1.041-2.17-1.931-3.31-2.643c-0.524-0.329-0.684-1.021-0.355-1.546c0.329-0.526,1.021-0.683,1.548-0.356    c1.278,0.8,2.519,1.792,3.691,2.948c0.443,0.435,0.447,1.145,0.013,1.587C140.414,110.108,140.125,110.22,139.836,110.22z"/>
	</g>
	<g>
		<g>
			<g>
				<circle style="fill:#EA7933;" cx="288.283" cy="140.775" r="77.437"/>
			</g>
			<g>
				<path style="fill:#241726;" d="M269.067,211.096c-0.079,0-0.16-0.009-0.241-0.026c-0.607-0.134-0.989-0.733-0.855-1.338      l32.145-145.529c0.134-0.604,0.732-0.98,1.337-0.854c0.607,0.134,0.989,0.733,0.855,1.338l-32.145,145.529      C270.047,210.74,269.582,211.096,269.067,211.096z"/>
			</g>
			<g>
				<path style="fill:#241726;" d="M232.673,187.979c-0.232,0-0.467-0.071-0.666-0.22c-0.5-0.368-0.605-1.071-0.237-1.569      c0.329-0.445,32.829-45.338,26.818-117.399c-0.053-0.617,0.408-1.16,1.024-1.211c0.598-0.077,1.162,0.404,1.212,1.025      c3.178,38.106-4.384,68.384-11.286,87.076c-7.492,20.284-15.878,31.732-15.962,31.844      C233.355,187.822,233.015,187.979,232.673,187.979z"/>
			</g>
			<g>
				<path style="fill:#241726;" d="M323.079,211.951c-0.506,0-0.964-0.343-1.089-0.855C304.792,140.922,341.5,86.255,341.873,85.71      c0.351-0.511,1.052-0.639,1.558-0.292c0.513,0.351,0.642,1.049,0.292,1.561c-0.366,0.536-36.505,54.413-19.554,123.581      c0.149,0.603-0.219,1.21-0.822,1.358C323.257,211.941,323.167,211.951,323.079,211.951z"/>
			</g>
			<g>
				<path style="fill:#241726;" d="M364.402,156.119c-0.079,0-0.16-0.009-0.241-0.026L213.447,122.8      c-0.607-0.134-0.989-0.733-0.855-1.338c0.134-0.604,0.726-0.981,1.337-0.854l150.713,33.292      c0.607,0.134,0.989,0.733,0.855,1.338C365.382,155.763,364.917,156.119,364.402,156.119z"/>
			</g>
		</g>
		<g>
			<g>
				<g>
					<path style="fill:#FFFFFF;" d="M192.924,182.867c0,0-22.607-77.961-19.791-83.242c2.816-5.282,16.014-49.118,19.271-45.685       s23.765,19.173,27.766,27.88c8.255,17.964,27.612,81.349,19.34,90.504S200.317,181.722,192.924,182.867z"/>
				</g>
				<g>
					<path style="fill:#241726;" d="M192.924,183.989c-0.493,0-0.938-0.324-1.078-0.81c-3.796-13.091-22.588-78.673-19.703-84.083       c0.857-1.607,2.839-7.288,5.131-13.866c9.029-25.901,12.056-32.605,14.723-32.605c0.456,0,0.89,0.193,1.221,0.541       c0.802,0.845,2.795,2.551,5.315,4.713c7.799,6.687,19.587,16.79,22.656,23.47c6.885,14.981,28.493,81.388,19.153,91.725       c-6.878,7.613-27.754,9.255-40.229,10.237c-3.097,0.243-5.546,0.436-7.019,0.664       C193.038,183.985,192.981,183.989,192.924,183.989z M191.846,54.973c-2.312,1.911-8.886,20.764-12.452,30.996       c-2.42,6.941-4.331,12.424-5.269,14.184c-1.782,3.84,10.968,51.601,19.609,81.472c1.539-0.184,3.654-0.351,6.205-0.551       c11.343-0.893,32.458-2.555,38.738-9.504c7.321-8.102-10.328-69.264-19.526-89.282c-2.865-6.234-14.892-16.544-22.079-22.704       C194.636,57.496,192.817,55.936,191.846,54.973z"/>
				</g>
			</g>
			<g>
				<path style="fill:#E57C91;" d="M221.189,81.35c0,0-4.241,24.1-7.837,22.825c-3.596-1.275-11.296-12.986-16.914-11.017      c-5.515,1.933-3.622,17.124-8.698,15.635c-5.077-1.489-14.407-12.716-15.774-9.155c-4.872,12.698,22.209,95.504,24.324,96.565      c2.115,1.061,56.935-6.901,56.202-12.298C251.76,178.508,225.747,75.96,221.189,81.35z"/>
			</g>
			<g>
				<path style="fill:#E57C91;" d="M210.559,68.579l-29.553,6.097c0,0,4.316-25.989,8.444-26.569      C193.83,47.491,210.559,68.579,210.559,68.579z"/>
			</g>
			<g>
				<path style="fill:#241726;" d="M212.588,194.387c-0.495,0-0.949-0.329-1.083-0.83l-23.153-85.739      c-0.162-0.598,0.193-1.214,0.791-1.377c0.596-0.157,1.214,0.193,1.374,0.791l23.153,85.739c0.162,0.598-0.193,1.214-0.791,1.377      C212.783,194.375,212.685,194.387,212.588,194.387z"/>
			</g>
			<g>
				<path style="fill:#241726;" d="M235.025,190.822c-0.502,0-0.96-0.339-1.087-0.846l-21.672-85.525      c-0.153-0.602,0.21-1.212,0.811-1.364c0.603-0.15,1.214,0.214,1.363,0.812l21.672,85.525c0.153,0.602-0.21,1.212-0.811,1.364      C235.209,190.811,235.115,190.822,235.025,190.822z"/>
			</g>
		</g>
		<g>
			<g>
				<g>
					<path style="fill:#FFFFFF;" d="M323.878,162.321c0,0,26.038-47.577,29.463-43.677c3.425,3.9,16.777,5.273,15.244,9.358       c-1.533,4.085-24.605,42.09-29.502,50.142C337.018,181.539,323.878,162.321,323.878,162.321z"/>
				</g>
				<g>
					<path style="fill:#241726;" d="M338.375,179.668c-3.707,0-12.742-12.793-15.425-16.714c-0.237-0.349-0.261-0.802-0.057-1.173       c5.712-10.436,24.751-44.488,29.942-44.488c0.526,0,1.004,0.216,1.35,0.608c1.282,1.462,4.583,2.669,7.496,3.734       c3.735,1.364,6.962,2.544,7.887,4.563c0.322,0.698,0.344,1.458,0.066,2.197c-1.519,4.054-23.035,39.548-29.593,50.33       C339.677,179.325,339.07,179.668,338.375,179.668z M325.192,162.254c4.967,7.184,11.148,14.683,13.029,15.146       c13.434-22.091,28.162-46.724,29.313-49.793c0.079-0.212,0.055-0.342-0.004-0.471c-0.537-1.168-3.908-2.401-6.62-3.392       c-3.2-1.17-6.508-2.379-8.231-4.162C349.477,120.766,336.367,141.894,325.192,162.254z"/>
				</g>
			</g>
			<g>
				<path d="M273.755,237.121c0,0,53.234-90.513,57.544-90.487c4.31,0.026,19.237,8.412,20.942,11.44      c1.706,3.027-45.817,93.467-52.334,102.048C293.391,268.702,265.071,247.844,273.755,237.121z"/>
			</g>
			<g>
				<g>
					<path style="fill:#FFFFFF;" d="M347.816,118.668c-3.028-8.942-8.86-33.34,5.64-41.989c18.6-11.094,36.552-21.977,41.92-18.712       c5.368,3.265,12.759,33.798,7.886,50.474C394.46,138.559,353.564,135.639,347.816,118.668z"/>
				</g>
				<g>
					<path style="fill:#241726;" d="M371.556,132.443c-11.929,0-22.13-5.516-24.804-13.415c-1.865-5.509-10.335-33.492,6.129-43.312       l1.429-0.854c16.036-9.568,31.18-18.605,38.541-18.605c1.243,0,2.288,0.253,3.108,0.752c6.102,3.71,13.228,35.154,8.378,51.747       C399.234,126.221,384.057,132.443,371.556,132.443z M392.851,58.502c-6.74,0-22.323,9.297-37.39,18.287l-1.431,0.854       c-15.298,9.126-6.234,37.465-5.151,40.666c2.372,7,11.696,11.889,22.678,11.889c11.687,0,25.871-5.798,30.628-22.071       c4.678-16.007-2.571-46.27-7.391-49.2C394.328,58.644,393.675,58.502,392.851,58.502z"/>
				</g>
			</g>
			<g>
				<path style="fill:#876486;" d="M364.011,69.113c0,0-5.411,12.339-1.127,16.675s11.859-1.006,16.341,6.132      c4.483,7.138,2.276,15.745,9.177,14.925s17.067-7.009,18.401-13.897s-0.241-34.544-7.316-37.757      C389.386,50.605,372.993,62.594,364.011,69.113z"/>
			</g>
			<g>
				<path style="fill:#241726;" d="M359.301,108.869c-0.555,0-1.037-0.411-1.111-0.975c-0.112-0.858-2.654-21.085,7.819-27.149      c1.131-0.655,2.271-1.303,3.406-1.95c8.939-5.09,17.382-9.896,21.959-17.543c0.318-0.533,1.008-0.705,1.539-0.387      c0.533,0.319,0.706,1.008,0.386,1.54c-4.879,8.153-13.976,13.332-22.772,18.34c-1.133,0.644-2.266,1.29-3.391,1.942      c-9.182,5.315-6.745,24.718-6.718,24.914c0.079,0.615-0.353,1.178-0.967,1.259C359.4,108.866,359.352,108.869,359.301,108.869z"/>
			</g>
			<g>
				<path style="fill:#241726;" d="M379.248,124.935c-0.452,0-0.877-0.273-1.048-0.72c-0.053-0.135-5.028-13.656,8.487-23.666      c9.662-7.154,9.596-16.64,9.522-27.624c-0.022-3.124-0.044-6.353,0.169-9.629c0.042-0.618,0.572-1.093,1.192-1.048      c0.618,0.041,1.087,0.574,1.048,1.192c-0.208,3.196-0.186,6.385-0.164,9.469c0.077,11.113,0.149,21.609-10.429,29.443      c-12.115,8.973-7.913,20.572-7.727,21.062c0.217,0.579-0.072,1.226-0.651,1.447      C379.515,124.912,379.379,124.935,379.248,124.935z"/>
			</g>
		</g>
		<g>
			<g>
				<path style="fill:#F5D450;" d="M172.078,164.215c0,0,195.606,7.057,204.727,8.622c9.121,1.565,22.283,178.592-91.924,194.482      C173.531,382.811,132.528,236.964,172.078,164.215z"/>
			</g>
			<g>
				<path style="fill:#F5D450;" d="M285.297,315.641c0,0-8.77,92.945-5.691,103.968s59.32,40.559,48.129,41.4      c-11.191,0.841-130.827-3.672-140.453-11.952c-9.626-8.28,52.203-24.182,53.601-35.541s-0.856-101.225,5.691-103.968      C253.12,306.805,285.297,315.641,285.297,315.641z"/>
			</g>
			<g>
				<path style="fill:#F5D450;" d="M170.862,190.081c0,0-57.473-24.533-91.262,34.911c-47.1,82.859,111.918,89.382,124.446,111.872      c12.529,22.49,32.583-21.934,19.869-29.387c-12.714-7.453-88.049-20.442-106.024-48.062s26.838-51.19,46.969-29.351      S170.862,190.081,170.862,190.081z"/>
			</g>
			<g>
				<path style="fill:#F5D450;" d="M380.02,198.998c0,0,59.722-18.391,87.113,44.258c38.181,87.328-120.647,77.194-135.458,98.252      c-14.811,21.057-30.112-25.22-16.688-31.303s89.703-11.127,110.467-36.717c20.763-25.59-21.34-53.715-43.644-34.1      C359.507,259.004,380.02,198.998,380.02,198.998z"/>
			</g>
			<g>
				<path style="fill:#241726;" d="M298.133,189.627c-91.038,0-110.868-14.665-111.83-15.425c-0.487-0.385-0.57-1.09-0.186-1.577      c0.386-0.484,1.094-0.566,1.572-0.189l0,0c0.285,0.221,30.407,22.037,181.797,12.483c0.607-0.048,1.151,0.431,1.19,1.05      c0.039,0.618-0.432,1.151-1.05,1.19C341.937,188.907,318.281,189.627,298.133,189.627z"/>
			</g>
			<g>
				<path style="fill:#241726;" d="M355.895,318.888c-0.21-0.007-0.421-0.073-0.607-0.202c-0.508-0.356-0.629-1.056-0.274-1.563      c23.125-32.992,25.164-86.345,25.182-86.88c0.021-0.62,0.539-1.105,1.159-1.084c0.62,0.021,1.105,0.539,1.084,1.159      c-0.018,0.542-2.084,54.56-25.587,88.092C356.626,318.733,356.261,318.9,355.895,318.888z"/>
			</g>
			<g>
				<path style="fill:#241726;" d="M178.099,309.863c-0.313,0-0.625-0.13-0.846-0.385c-20.232-23.228-22.63-92.772-22.722-95.721      c-0.02-0.619,0.467-1.138,1.087-1.156c0.647-0.037,1.138,0.468,1.157,1.086c0.022,0.715,2.464,71.691,22.169,94.316      c0.408,0.468,0.359,1.177-0.11,1.584C178.623,309.772,178.36,309.863,178.099,309.863z"/>
			</g>
			<g>
				<path style="fill:#241726;" d="M453.12,237.653c-0.46,0-0.892-0.285-1.057-0.743c-9.23-25.713-30.948-23.38-31.161-23.356      c-0.609,0.069-1.177-0.363-1.249-0.98c-0.075-0.615,0.364-1.174,0.978-1.249c0.252-0.023,23.719-2.545,33.545,24.827      c0.208,0.583-0.094,1.226-0.677,1.436C453.375,237.633,453.245,237.653,453.12,237.653z"/>
			</g>
			<g>
				<g>
					<path style="fill:#241726;" d="M351.079,289.116c-0.32,0-0.638-0.137-0.859-0.401c-0.397-0.473-0.338-1.177,0.134-1.577       c0.046-0.039,2.183-1.943,4.789-7.556c0.259-0.562,0.927-0.81,1.491-0.546c0.561,0.261,0.804,0.928,0.544,1.491       c-2.867,6.178-5.276,8.242-5.377,8.327C351.59,289.029,351.333,289.116,351.079,289.116z"/>
				</g>
				<g>
					<path style="fill:#241726;" d="M351.397,303.406c-0.32,0-0.638-0.137-0.859-0.401c-0.397-0.473-0.338-1.178,0.134-1.577       c0.048-0.043,2.185-1.946,4.789-7.556c0.259-0.562,0.932-0.808,1.488-0.546c0.563,0.261,0.807,0.928,0.546,1.491       c-2.867,6.179-5.276,8.243-5.377,8.327C351.908,303.32,351.651,303.406,351.397,303.406z"/>
				</g>
				<g>
					<path style="fill:#241726;" d="M338.059,296.42c-0.32,0-0.638-0.137-0.859-0.401c-0.397-0.473-0.338-1.177,0.134-1.577       c0.046-0.039,2.183-1.943,4.789-7.557c0.259-0.561,0.929-0.808,1.488-0.546c0.563,0.261,0.807,0.928,0.546,1.491       c-2.867,6.179-5.276,8.243-5.377,8.328C338.57,296.334,338.313,296.42,338.059,296.42z"/>
				</g>
				<g>
					<path style="fill:#241726;" d="M336.152,310.393c-0.32,0-0.638-0.137-0.861-0.402c-0.395-0.473-0.335-1.177,0.136-1.576       c0.024-0.021,2.172-1.914,4.787-7.556c0.263-0.561,0.936-0.809,1.491-0.546c0.563,0.261,0.807,0.928,0.548,1.491       c-2.867,6.179-5.278,8.243-5.379,8.327C336.663,310.307,336.406,310.393,336.152,310.393z"/>
				</g>
				<g>
					<path style="fill:#241726;" d="M343.776,318.332c-0.32,0-0.638-0.137-0.859-0.401c-0.397-0.473-0.338-1.178,0.134-1.577       c0.048-0.043,2.185-1.946,4.789-7.556c0.259-0.56,0.934-0.809,1.488-0.546c0.563,0.261,0.807,0.928,0.546,1.491       c-2.867,6.179-5.276,8.243-5.377,8.327C344.286,318.246,344.03,318.332,343.776,318.332z"/>
				</g>
				<g>
					<path style="fill:#241726;" d="M332.632,324.172c-0.388,0-0.767-0.203-0.973-0.566c-0.307-0.536-0.123-1.218,0.41-1.528       c0.046-0.027,2.49-1.519,6.05-6.59c0.359-0.507,1.059-0.631,1.563-0.274c0.509,0.356,0.631,1.055,0.274,1.563       c-3.913,5.576-6.65,7.181-6.767,7.247C333.013,324.125,332.823,324.172,332.632,324.172z"/>
				</g>
				<g>
					<path style="fill:#241726;" d="M350.444,275.801c-0.263,0-0.528-0.092-0.741-0.278c-0.463-0.408-0.511-1.112-0.107-1.578       c0.026-0.032,1.857-2.231,3.582-8.198c0.171-0.597,0.798-0.938,1.39-0.767c0.596,0.172,0.938,0.795,0.767,1.39       c-1.892,6.544-3.959,8.951-4.046,9.051C351.066,275.671,350.755,275.801,350.444,275.801z"/>
				</g>
				<g>
					<path style="fill:#241726;" d="M362.497,271.476c-0.239,0-0.478-0.075-0.679-0.23c-0.491-0.374-0.587-1.074-0.217-1.567       c0.042-0.057,1.705-2.386,3.003-8.425c0.132-0.607,0.723-0.99,1.335-0.861c0.605,0.13,0.991,0.727,0.861,1.333       c-1.434,6.66-3.33,9.204-3.411,9.309C363.168,271.324,362.835,271.476,362.497,271.476z"/>
				</g>
				<g>
					<path style="fill:#241726;" d="M361.546,285.132c-0.237,0-0.476-0.075-0.68-0.229c-0.491-0.374-0.587-1.074-0.217-1.567       c0.037-0.052,1.701-2.379,3.001-8.426c0.132-0.608,0.726-0.99,1.335-0.861c0.605,0.13,0.991,0.727,0.861,1.333       c-1.434,6.66-3.327,9.203-3.408,9.308C362.219,284.979,361.883,285.132,361.546,285.132z"/>
				</g>
			</g>
			<g>
				<path style="fill:#241726;" d="M83.748,247.765c-0.094,0-0.191-0.012-0.287-0.037c-0.601-0.16-0.956-0.774-0.798-1.373      c6.677-25.131,19.607-36.429,29.278-41.482c10.541-5.509,19.388-5.016,19.765-4.989c0.618,0.039,1.085,0.572,1.048,1.19      c-0.039,0.618-0.579,1.064-1.19,1.05c-1.396-0.089-34.416-1.557-46.73,44.808C84.7,247.433,84.246,247.765,83.748,247.765z"/>
			</g>
			<g>
				<path style="fill:#241726;" d="M98.715,276.195c-0.057,0-0.112-0.004-0.169-0.012c-5.432-0.815-9.261-2.868-11.383-6.101      c-2.7-4.118-1.556-8.578-1.506-8.766c0.16-0.596,0.767-0.955,1.37-0.795c0.598,0.158,0.956,0.77,0.8,1.37      c-0.009,0.036-0.929,3.72,1.227,6.984c1.76,2.662,5.066,4.374,9.824,5.087c0.614,0.092,1.035,0.664,0.943,1.277      C99.739,275.796,99.261,276.195,98.715,276.195z"/>
			</g>
			<g>
				<path style="fill:#241726;" d="M273.123,369.841c-8.049,0-12.152-1.572-12.472-1.7c-0.574-0.23-0.853-0.881-0.625-1.455      c0.226-0.576,0.879-0.852,1.455-0.63c0.145,0.058,15.03,5.66,44.84-5.247c0.587-0.212,1.227,0.088,1.44,0.669      c0.213,0.582-0.088,1.226-0.669,1.44C292.085,368.408,280.806,369.841,273.123,369.841z"/>
			</g>
			<g>
				<path style="fill:#241726;" d="M300.568,316.68c-4.423,0-27.654-15.379-33.6-19.364c-4.23,2.086-28.785,14.012-36.789,14.012      c-1.344,0-2.282-0.318-2.865-0.972c-0.313-0.353-0.664-0.975-0.555-1.938c0.807-6.948,12.007-29.092,14.217-33.411      c-6.788-7.407-17.448-19.571-16.939-22.407c0.085-0.476,0.373-0.87,0.789-1.084c2.418-1.235,24.458-1.75,30.249-1.865      c3.628-5.206,18.02-25.316,23.811-25.316c1.133,0,2.012,0.619,2.477,1.745c1.295,3.134,2.565,8.77,3.794,14.221      c1.26,5.592,3.165,14.043,4.397,14.889c0.829,0.541,4.862,1.775,8.761,2.969c14.09,4.312,20.499,6.69,21.231,9.387      c1.089,4.018-12.957,12.276-21.998,17.121c5.149,20.192,6.4,30.924,3.718,31.898c-0.206,0.076-0.441,0.114-0.695,0.114H300.568z       M300.568,314.44v1.118l0.015-1.123C300.579,314.437,300.575,314.438,300.568,314.44z M267.053,294.9      c0.219,0,0.438,0.065,0.627,0.191c10.901,7.33,29.142,18.873,32.688,19.331c0.916-2.488-1.933-17.287-5.215-30.049      c-0.129-0.502,0.103-1.027,0.561-1.27c11.801-6.27,21.722-13.135,21.661-14.992c-0.644-1.967-13.526-5.909-19.716-7.804      c-5.263-1.61-8.29-2.554-9.333-3.236c-1.887-1.234-3.266-6.988-5.359-16.274c-1.208-5.359-2.457-10.901-3.678-13.857      c-0.149-0.357-0.267-0.357-0.403-0.357c-3.527,0-15.159,14.515-22.294,24.822c-0.206,0.297-0.541,0.477-0.901,0.483      c-12.356,0.232-26.163,0.816-29.317,1.48c1.083,2.72,9.094,12.341,16.786,20.701c0.318,0.346,0.388,0.856,0.171,1.275      c-0.136,0.262-13.513,26.193-14.34,33.337c0.002,0.189,0.228,0.407,1.188,0.407c8.062,0,36.092-13.925,36.375-14.066      C266.712,294.94,266.883,294.9,267.053,294.9z"/>
			</g>
		</g>
	</g>
	<g>
		<path style="fill:#241726;" d="M471.585,472.062c-0.623,0.035-1.243-0.024-1.87-0.081c-0.618-0.055-1.074-0.598-1.019-1.217    c0.053-0.618,0.616-1.084,1.217-1.019c0.559,0.048,1.07,0.128,1.67,0.072c0.846,0,1.705-0.059,2.558-0.175    c0.603-0.078,1.179,0.346,1.263,0.961c0.083,0.614-0.346,1.179-0.96,1.264C473.492,471.997,472.53,472.062,471.585,472.062z     M465.426,471.096c-0.114,0-0.23-0.018-0.344-0.054c-1.464-0.471-2.915-1.11-4.307-1.899c-0.539-0.306-0.73-0.991-0.425-1.53    c0.309-0.54,0.997-0.727,1.53-0.423c1.26,0.714,2.569,1.291,3.891,1.715c0.59,0.19,0.914,0.822,0.723,1.412    C466.342,470.793,465.902,471.096,465.426,471.096z M478.641,470.803c-0.46,0-0.892-0.285-1.057-0.742    c-0.208-0.584,0.094-1.226,0.677-1.437c1.313-0.472,2.611-1.087,3.853-1.828c0.524-0.318,1.219-0.146,1.539,0.39    c0.318,0.533,0.142,1.221-0.39,1.539c-1.366,0.813-2.795,1.491-4.244,2.012C478.895,470.782,478.768,470.803,478.641,470.803z     M457.645,466.73c-0.254,0-0.509-0.085-0.719-0.26c-0.399-0.333-0.798-0.682-1.192-1.047c-0.456-0.421-0.484-1.131-0.064-1.586    c0.421-0.454,1.133-0.483,1.585-0.065c0.368,0.339,0.737,0.663,1.109,0.972c0.476,0.397,0.539,1.104,0.145,1.58    C458.285,466.592,457.967,466.73,457.645,466.73z M486.324,466.255c-0.313,0-0.627-0.132-0.848-0.387    c-0.405-0.468-0.355-1.177,0.114-1.584c1.076-0.934,2.087-1.968,3.005-3.077c0.395-0.478,1.105-0.543,1.578-0.149    c0.478,0.396,0.546,1.103,0.149,1.58c-0.995,1.203-2.093,2.328-3.264,3.343C486.848,466.165,486.585,466.255,486.324,466.255z     M492.03,459.369c-0.195,0-0.39-0.049-0.57-0.155c-0.533-0.315-0.712-1.003-0.397-1.537c0.726-1.233,1.357-2.537,1.876-3.875    c0.224-0.578,0.877-0.865,1.451-0.64c0.579,0.225,0.866,0.875,0.64,1.453c-0.563,1.45-1.247,2.864-2.034,4.2    C492.788,459.172,492.413,459.369,492.03,459.369z M495.269,451.033c-0.077,0-0.156-0.008-0.232-0.024    c-0.607-0.127-0.995-0.722-0.868-1.329c0.296-1.405,0.476-2.84,0.535-4.263c0.026-0.619,0.506-1.139,1.168-1.074    c0.62,0.026,1.1,0.549,1.076,1.168c-0.066,1.546-0.261,3.105-0.583,4.632C496.253,450.67,495.789,451.033,495.269,451.033z     M495.642,442.104c-0.557,0-1.041-0.415-1.111-0.983c-0.178-1.417-0.473-2.835-0.877-4.214c-0.175-0.594,0.164-1.218,0.761-1.393    c0.594-0.175,1.219,0.165,1.392,0.762c0.438,1.493,0.758,3.029,0.951,4.567c0.077,0.615-0.359,1.176-0.973,1.253    C495.736,442.101,495.69,442.104,495.642,442.104z M493.11,433.538c-0.41,0-0.804-0.226-1.002-0.618    c-0.647-1.284-1.425-2.462-2.308-3.498c-0.403-0.471-0.346-1.18,0.125-1.583c0.469-0.398,1.179-0.347,1.58,0.125    c1.002,1.174,1.878,2.502,2.606,3.948c0.278,0.553,0.057,1.227-0.498,1.507C493.452,433.5,493.281,433.538,493.11,433.538z     M487.35,426.815c-0.224,0-0.449-0.066-0.644-0.204c-1.109-0.78-2.326-1.446-3.715-2.034c-0.57-0.242-0.837-0.901-0.594-1.471    c0.241-0.572,0.905-0.834,1.471-0.596c1.517,0.642,2.904,1.405,4.127,2.264c0.509,0.357,0.629,1.057,0.274,1.564    C488.049,426.649,487.703,426.815,487.35,426.815z M479.174,423.245c-0.094,0-0.189-0.012-0.285-0.036    c-1.269-0.332-2.676-0.631-4.303-0.913c-0.609-0.106-1.019-0.687-0.912-1.298c0.105-0.61,0.673-1.023,1.298-0.914    c1.686,0.293,3.154,0.605,4.485,0.952c0.601,0.157,0.96,0.77,0.802,1.37C480.127,422.91,479.674,423.245,479.174,423.245z     M470.336,421.631c-0.053,0-0.107-0.003-0.16-0.011l-0.533-0.076c-1.331-0.189-2.648-0.376-3.935-0.585    c-0.614-0.1-1.028-0.677-0.927-1.289c0.101-0.614,0.704-1.026,1.287-0.927c1.274,0.208,2.576,0.392,3.891,0.579l0.533,0.076    c0.614,0.088,1.041,0.655,0.953,1.269C471.366,421.227,470.884,421.631,470.336,421.631z M461.485,420.085    c-0.092,0-0.184-0.011-0.278-0.035c-1.699-0.434-3.148-0.938-4.43-1.541c-0.561-0.264-0.802-0.933-0.537-1.494    c0.263-0.561,0.936-0.8,1.493-0.538c1.153,0.543,2.47,1,4.031,1.398c0.601,0.153,0.962,0.765,0.809,1.364    C462.443,419.747,461.987,420.085,461.485,420.085z M453.563,416.123c-0.281,0-0.563-0.105-0.78-0.317    c-1.155-1.119-2.089-2.462-2.771-3.988c-0.254-0.566,0-1.23,0.566-1.483c0.563-0.25,1.227-0.002,1.482,0.567    c0.574,1.282,1.322,2.36,2.284,3.293c0.445,0.431,0.456,1.141,0.026,1.587C454.148,416.009,453.857,416.123,453.563,416.123z     M449.791,408.186c-0.541,0-1.017-0.393-1.107-0.946c-0.151-0.951-0.228-1.922-0.228-2.886c0-0.636,0.033-1.263,0.096-1.877    c0.064-0.618,0.625-1.059,1.23-1.003c0.616,0.064,1.065,0.615,1.002,1.231c-0.055,0.54-0.083,1.09-0.083,1.649    c0,0.845,0.068,1.698,0.202,2.533c0.096,0.612-0.32,1.187-0.932,1.284C449.909,408.182,449.85,408.186,449.791,408.186z     M460.922,401.423c-0.035,0-0.068-0.001-0.103-0.004c-1.491-0.135-3.056-0.522-4.654-1.15c-0.576-0.227-0.859-0.879-0.631-1.455    c0.228-0.578,0.881-0.855,1.455-0.633c1.396,0.55,2.753,0.888,4.031,1.003c0.618,0.056,1.072,0.602,1.017,1.219    C461.985,400.984,461.496,401.423,460.922,401.423z M465.308,400.781c-0.412,0-0.811-0.229-1.006-0.625    c-0.274-0.556-0.046-1.229,0.509-1.504c1.083-0.535,1.723-1.426,1.905-2.647c0.09-0.613,0.68-1.031,1.273-0.946    c0.614,0.091,1.037,0.661,0.945,1.275c-0.289,1.964-1.372,3.462-3.128,4.33C465.645,400.743,465.476,400.781,465.308,400.781z     M450.712,399.362c-0.134,0-0.27-0.023-0.401-0.073c-0.579-0.221-0.868-0.87-0.647-1.449c0.145-0.381,0.302-0.758,0.473-1.129    c-0.62-0.504-1.221-1.04-1.793-1.606c-0.443-0.435-0.447-1.145-0.013-1.587c0.438-0.442,1.149-0.446,1.587-0.011    c0.419,0.412,0.853,0.807,1.298,1.184c0.219-0.357,0.452-0.708,0.695-1.05c0.357-0.505,1.061-0.621,1.563-0.265    c0.506,0.358,0.625,1.06,0.265,1.565c-0.256,0.363-0.5,0.734-0.726,1.116c0.07,0.049,0.142,0.098,0.215,0.146    c0.517,0.343,0.658,1.04,0.313,1.556c-0.34,0.515-1.037,0.653-1.552,0.315c-0.081,0.187-0.158,0.377-0.23,0.567    C451.588,399.088,451.163,399.362,450.712,399.362z M467.175,392.902c-0.441,0-0.857-0.261-1.037-0.693    c-0.526-1.269-1.328-2.11-2.387-2.499c-0.581-0.214-0.879-0.859-0.666-1.441c0.217-0.582,0.857-0.88,1.442-0.665    c1.646,0.605,2.92,1.9,3.685,3.746c0.237,0.572-0.035,1.229-0.607,1.466C467.464,392.874,467.32,392.902,467.175,392.902z     M455.869,392.13c-0.324,0-0.647-0.14-0.868-0.411c-0.392-0.48-0.322-1.187,0.158-1.579c1.339-1.097,2.799-1.933,4.222-2.418    c0.59-0.204,1.223,0.113,1.425,0.7c0.199,0.586-0.114,1.224-0.701,1.424c-1.17,0.399-2.389,1.101-3.525,2.03    C456.371,392.047,456.119,392.13,455.869,392.13z M446.251,391.997c-0.355,0-0.706-0.169-0.923-0.483    c-0.888-1.281-1.659-2.657-2.299-4.089c-0.252-0.567,0.002-1.23,0.57-1.482c0.557-0.254,1.23,0,1.482,0.568    c0.581,1.305,1.284,2.559,2.093,3.725c0.353,0.51,0.226,1.209-0.285,1.562C446.696,391.933,446.472,391.997,446.251,391.997z     M442.606,383.851c-0.506,0-0.964-0.343-1.089-0.855c-0.366-1.487-0.609-3.038-0.728-4.611c-0.046-0.618,0.419-1.156,1.037-1.202    c0.605-0.037,1.155,0.416,1.203,1.036c0.107,1.449,0.331,2.876,0.666,4.242c0.149,0.603-0.219,1.21-0.822,1.358    C442.783,383.841,442.693,383.851,442.606,383.851z M441.898,374.942c-0.022,0-0.044-0.001-0.068-0.002    c-0.618-0.037-1.089-0.57-1.052-1.188c0.099-1.625,0.309-3.177,0.622-4.612c0.132-0.605,0.73-0.986,1.337-0.856    c0.605,0.133,0.989,0.731,0.855,1.336c-0.289,1.322-0.482,2.757-0.574,4.268C442.983,374.483,442.487,374.942,441.898,374.942z     M443.903,366.256c-0.16,0-0.32-0.033-0.473-0.104c-0.561-0.261-0.804-0.928-0.544-1.491c0.699-1.506,1.574-2.859,2.604-4.021    c0.41-0.468,1.122-0.507,1.583-0.098c0.465,0.411,0.509,1.12,0.096,1.584c-0.883,1.001-1.64,2.171-2.249,3.48    C444.732,366.016,444.326,366.256,443.903,366.256z M449.786,359.676c-0.384,0-0.761-0.198-0.969-0.556    c-0.313-0.535-0.134-1.222,0.401-1.535c1.335-0.78,2.828-1.385,4.436-1.795c0.607-0.157,1.212,0.209,1.366,0.81    s-0.208,1.211-0.809,1.364c-1.407,0.359-2.705,0.883-3.858,1.558C450.174,359.627,449.979,359.676,449.786,359.676z     M462.848,357.694c-0.075,0-0.151-0.008-0.228-0.023c-0.018-0.003-1.762-0.353-4.206-0.284c-0.642,0.055-1.14-0.464-1.162-1.083    c-0.02-0.619,0.465-1.139,1.083-1.16c2.707-0.103,4.669,0.312,4.743,0.329c0.607,0.127,0.993,0.72,0.868,1.327    C463.837,357.33,463.368,357.694,462.848,357.694z"/>
	</g>
</g>















</svg>
