<?xml version="1.0" encoding="UTF-8"?>
<!-- Generator: Adobe Illustrator 25.3.1, SVG Export Plug-In . SVG Version: 6.00 Build 0)  -->
<svg xmlns="http://www.w3.org/2000/svg" xmlns:xlink="http://www.w3.org/1999/xlink" version="1.1" id="Capa_1" x="0px" y="0px" viewBox="0 0 512 512" style="enable-background:new 0 0 512 512;" xml:space="preserve" width="512" height="512">
<g>
	<g>
		<g>
			<g>
				<g>
					<g>
						<path style="fill:#FF8EDE;" d="M82.884,313.884c-14.332-0.783-26.805-5.5-33.861-10.349c-0.839-0.577-1.049-1.071-1.209-1.83        c-0.846-4.013-2.272-7.912-2.694-11.997c-0.38-3.688-2.092-11.317-2.054-21.823c0.021-5.79,0.337-10.968,2.435-16.391        c1.266-3.273,3.755-5.115,7.084-5.972c9.741-2.509,14.429,0.941,24.269,0.63c5.509-0.174,11.26-0.414,17.362-2.454        c3.228-1.079,9.138-2.71,14.744-6.325c4.72-3.043,9.837-5.413,15.429-5.854c2.799-0.221,5.209,0.744,7.205,2.729        c7.233,7.197,11.267,20.688,13.84,30.33c1.094,4.101,1.774,8.269,2.645,12.405c0.375,1.783,0.505,3.618,0.741,5.431        c0.077,0.588-0.087,1.081-0.44,1.586c-8.089,11.566-20.768,20.281-34.065,25.19        C110.407,310.632,93.221,314.449,82.884,313.884z"/>
					</g>
				</g>
				<g>
					<g>
						<path style="fill:#FF8EDE;" d="M70.963,153.584c-6.916,1.09-4.103,0.638-5.96,1.04c-8.219,1.782-27.343,2.529-40.913,0.323        c-4.682-0.761-8.997-2.47-12.823-5.33c-4.003-2.992-5.516-9.377-0.695-15.044c1.793-2.108,4.415-4.328,9.168-6.576        c1.334-0.631,0.74-1.446,1.404-4.273c1.641-6.993,7.778-13.947,17.466-16.813c2.907-0.86,4.005,0.105,4.072-1.462        c0.099-2.287-0.464-7.676,3.269-13.616c2.385-3.796,5.657-6.612,10.277-7.444c0.746-0.134,1.489-0.287,2.233-0.438        c9.065-1.846,16.848,4.724,20.313,13.234c0.614,1.508,0.672,2.058,1.947,1.543c3.48-1.407,13.06-1.645,20.756,3.757        c6.731,4.725,4.904,7.918,8.01,8.029c13.06,0.465,18.399,8.052,16.594,14.239c-1.049,3.597-4.167,6.905-7.03,9.447        c-7.953,7.059-32.7,16.521-42.341,18.158c-1.93,0.328-3.845,0.746-5.766,1.123C70.95,153.515,70.956,153.55,70.963,153.584z"/>
					</g>
				</g>
			</g>
			<g>
				<g>
					<path style="fill:#FFCF00;" d="M103.82,225.565c-0.364,0.5-0.757,0.851-1.207,0.392c-0.72-0.697-7.687-10.269-18.028-9.656       c-2.218,0.128-4.116,1.1-5.909,2.343c-4.366,3.05-6.992,7.368-8.764,12.288c-0.144,0.405-0.244,0.853-0.423,1.247       c-0.199,0.467-0.677,0.561-1.388,0.342c-5.349-1.602-23.233-21.149-21.011-35.968c1.499-10.054,13.739-7.804,20.588-1.274       c0.397,0.367,1.458,1.408,1.881,1.034c0.783-0.719-3.94-7.409-2.317-20.228c1.572-12.38,11.611-15.142,18.622,2.314       c1.098,2.712,2.602,10.275,2.525,12.585c-0.018,0.432,0.12,0.867,0.22,1.292c0.045,0.231,0.487,0.298,0.616,0.084       c1.583-2.572,1.859-4.304,5.406-7.946c3.117-3.216,7.42-5.192,11.004-3.774c1.168,0.456,2.269,1.266,3.233,2.515       C115.323,191.592,113,213.041,103.82,225.565z"/>
				</g>
			</g>
			<g style="opacity:0.5;">
				<g>
					<path style="fill:#FD8A02;" d="M103.82,225.565c-0.364,0.5-0.757,0.851-1.207,0.392c-0.72-0.697-7.687-10.269-18.028-9.656       c-2.218,0.128-4.116,1.1-5.909,2.343c-4.366,3.05-6.992,7.368-8.764,12.288c-0.144,0.405-0.244,0.853-0.423,1.247       c-0.199,0.467-0.677,0.561-1.388,0.342l-0.027-0.662l0.871-0.188c0,0-5.434-21.19,16.408-25.485       c16.633-3.271,19.74-18.47,20.284-25.546c1.168,0.456,2.269,1.266,3.233,2.515C115.323,191.592,113,213.041,103.82,225.565z"/>
				</g>
			</g>
			<g>
				<g>
					<g>
						<path style="fill:#00B0C4;" d="M67.824,233.348c2.075,0.948,0.247,1.954,0.459,7.837c0.127,3.51,0.95,3.765-3.192,3.072        c-14.397-2.41-14.572,3.961-16.243-0.61c-5.196-14.213-30.223-84.161-30.254-84.247c-3.861-10.774-3.416-1.2,29.336-2.339        c12.458-0.433,24.696-2.425,35.222-5.536c27.892-8.245,37.551-17.645,37.625-17.68c1.304-0.611,0.908-1.602,2.852,44.111        c2.367,55.641,3.118,52.713,0.747,52.767c-5.05,0.114-9.36,2.349-13.654,4.652c-4.392,2.356-1.639,1.044-5.937-6.087        c-0.732-1.214-1.268-1.829-0.166-3.375c11.45-16.062,8.199-35.17,8.209-35.349c-0.801-2.585-1.429-5.225-3.049-7.494        c-4.899-6.865-13.117-3.193-17.72,3.125c-1.099,1.508-1.295,2.123-2.121,2.894c-0.25,0.234-0.876,0.026-0.878-0.598        c-0.026-7.018-5.892-22.004-13.876-23.184c-3.143-0.464-5.6,1.938-6.982,4.801c-2.684,5.56-2.489,13.246-1.393,19.354        c0.373,2.079,1.515,3.627,0.555,4.073c-0.396,0.184-0.681-0.204-0.983-0.423c-6.981-5.06-17.19-6.711-19.724,1.815        C43.152,206.72,57.392,228.58,67.824,233.348z"/>
					</g>
				</g>
				<g>
					<g>
						<path style="fill:#00B0C4;" d="M118.696,110.261c-0.202,1.447-0.701,0.991-4.799-0.006c-3.955-0.962-5.066,0.08-5.933-1.636        c-2.601-5.15-5.035-4.626-4.74-7.247c2.552-22.675-20.029-47.826-46.898-45.885c-24.853,1.795-43.108,28.857-38.132,51.931        c0.97,4.498,2.578,8.487,3.438,9.991c1.311,2.295-1.074,2.429-1.668,8.449c-0.237,2.395-2.402,1.401-7.738,5.912        c-0.42,0.355-1.027,0.586-1.309,0.086c-25.301-44.804,4.72-100.998,52.127-96.632c22.144,2.04,42.626,17.437,51.765,42.422        C118.256,87.068,120.102,100.207,118.696,110.261z"/>
					</g>
				</g>
				<g>
					<g>
						<path style="fill:#00B0C4;" d="M106.802,335.067c-4.597,0.904-8.292,1.957-17.021,2.492        c-12.896,0.791-27.02-0.21-38.309-6.495c-4.334-2.413-8.831-7.078-9.649-12.242c-0.197-1.246-0.625-2.463-0.565-3.74        c0.205-4.378,2.075-7.865,5.622-10.46c0.625-0.457,1.197-0.651,1.902-0.215c31.395,19.415,74.402,10.576,96.971-15.732        c3.251-3.789,3.265-5.058,5.023-4.531c9.609,2.882,12.4,12.033,8.883,20.899c-6.051,15.254-32.142,25.859-48.197,29.182        c-1.546,0.32-3.097,0.613-4.646,0.917C106.812,335.117,106.806,335.092,106.802,335.067z"/>
					</g>
				</g>
			</g>
			<g>
				<g>
					<path style="fill:#FD8A02;" d="M105.19,202.061c0.466,2.716,0.317,4.834-0.104,6.955c-1.029,5.133-4.097,10.428-6.109,12.211       c-0.367,0.312-0.693,0.222-1.047-0.017c-0.02-0.013-0.04-0.026-0.06-0.04c-0.217-0.146-0.443-0.341-0.683-0.516       c-2.343-1.731-4.85-3.07-7.368-3.773c-0.365-0.117-0.741-0.197-1.116-0.277c-0.303-0.06-0.586-0.108-0.886-0.151       c-0.283-0.047-0.579-0.075-0.876-0.101c-2.503-0.193-4.992,0.297-7.339,1.683c-0.304,0.196-0.624,0.397-0.925,0.61       c-0.105,0.072-0.211,0.144-0.314,0.233c-0.555,0.4-1.087,0.83-1.582,1.27c-0.133,0.112-0.264,0.223-0.377,0.348       c-0.232,0.217-0.462,0.433-0.691,0.667c-0.248,0.22-0.456,0.466-0.651,0.693c-0.109,0.141-0.238,0.27-0.347,0.411       c-0.096,0.122-0.208,0.247-0.301,0.385c-0.108,0.141-0.205,0.263-0.297,0.401c-0.583,0.782-1.089,1.601-1.738,2.568       c-0.013,0.02-0.039,0.06-0.056,0.063c-0.013,0.019-0.04,0.059-0.036,0.075c-0.917,1.344-1.102,1.364-2.598,0.459       c-0.447-0.272-0.898-0.56-1.338-0.884c-5.747-3.972-12.285-11.624-10.15-17.746c1.058-3.067,3.247-4.559,6.686-4.482       c1.98,0.056,3.826,0.737,5.683,1.382c0.569,0.196,1.193,0.844,1.705,0.401c0.384-0.315-0.088-1.062-0.129-1.618       c-0.207-3.315-1.105-6.666,0.68-11.777c1.253-3.551,4.799-5.721,8.244-4.138c4.76,2.18,7.177,8.725,8.103,13.868       c0.097,0.494,0.456,0.578,0.813,0.217c3.392-3.39,7.028-5.971,10.448-4.862c1.003,0.316,1.987,0.962,2.942,1.99       C104.42,199.712,105.081,201.072,105.19,202.061z"/>
				</g>
			</g>
			<g>
				<g>
					<path style="fill:#FFFFFF;" d="M90.537,217.927c6.479,2.32,12.618,7.951,15.997,16.916c0.975,2.588,0.527,2.872-1.457,3.833       c-10.798,5.229-22.481,7.395-34.485,6.392c-0.72-0.06-1.185-0.442-1.269-1.17c-0.932-8.072,1.28-16.235,7.083-22.343       C78.374,219.485,85.378,216.08,90.537,217.927z"/>
				</g>
			</g>
			<g style="opacity:0.5;">
				<g>
					<g>
						<path style="fill:#FC09B2;" d="M71.109,153.561c-7.714,1.207-24.612,4.802-47.075,1.387c-1.333-0.203-2.901-0.501-2.069-1.498        c7.032-8.432,14.848-6.169,33.632-9.006c10.239-1.546,22.33-6.645,24.835-16.73c1.141-4.593-1.76-6.391-5.127-9.762        c-8.91-8.92-14.301-21.531-6.502-31.428c0.468-0.593,0.648-0.655,1.257-0.282c3.754,2.297,7.095,6.784,8.72,10.949        c0.642,1.645,0.814,2.032,1.777,1.61c6.363-2.791,22.005,0.218,26.767,10.291c1.001,2.118,2.168,0.981,6.692,1.952        c16.652,3.576,15.817,17.029,1.029,26.055c-10.062,6.141-25.097,12.641-43.956,16.349        C71.095,153.486,71.102,153.524,71.109,153.561z"/>
					</g>
				</g>
				<g>
					<g>
						<path style="fill:#FC09B2;" d="M123.393,276.707c5.086-16.324-2.165-32.107,4.33-44.045c0.325-0.596,0.612-0.669,1.248-0.312        c11.319,6.352,16.509,32.713,19.117,44.618c0.391,1.786,0.306,3.644,0.723,5.436c0.133,0.572-0.07,1.08-0.424,1.587        c-15.934,22.832-50.588,36.965-84.666,26.447c-2.467-0.761-3.171-1.023-1.452-2.663        C78.031,292.735,115.349,302.525,123.393,276.707z"/>
					</g>
				</g>
			</g>
			<g style="opacity:0.18;">
				<g>
					<path style="fill:#000E3F;" d="M88.974,218.583c-0.04-0.185-0.116-0.368-0.121-0.553c-0.008-0.295,0.159-0.492,0.462-0.432       c5.553,1.099,13.775,7.507,17.089,16.966c1.122,3.204,1.007,2.958-1.743,4.297c-6.175,3.008-12.002,4.905-22.461,6.222       c-0.457,0.058-1.44-0.083-1.109-0.535c0.517-0.706,9.917-7.513,9.361-18.784C90.194,220.528,89.429,220.674,88.974,218.583z"/>
				</g>
			</g>
			<g style="opacity:0.25;">
				<g>
					<g>
						<path style="fill:#000E3F;" d="M51.422,330.991c-1.003-0.668-2.072-0.648-1.979-1.496c0.078-0.711,1.03-0.855,1.669-1.058        c11.417-3.637,12.176-1.107,32.272-1.194c14.274-0.062,28.691-2.957,39.721-12.174c3.771-3.151,6.658-6.088,7.991-11.63        c1.124-4.67,5.325-3.681,14.592-14.698c3.279-3.898,3.386-5.137,5.183-4.578c13.596,4.227,16.194,22.869-7.214,37.446        C115.148,339.361,68.378,342.282,51.422,330.991z"/>
					</g>
				</g>
				<g>
					<g>
						<path style="fill:#000E3F;" d="M112.832,190.47c-0.867-2.545-1.372-5.112-2.956-7.248c-3.587-4.837-5.376-2.633-5.414-5.034        c-0.391-24.664,1.9-29.363,11.652-40.359c1.308-1.475,2.995-2.512,4.424-3.85c0.462-0.433,1.046-0.214,1.11,0.414        c0.26,2.551,4.15,93.818,4.154,93.905c0.161,3.722-0.73,1.537-6.66,3.333c-9.785,2.962-10.681,6.998-11.726,3.473        c-0.789-2.661-2.492-5.753-3.113-6.67c-1.202-1.774,0.479-1.639,3.796-8.405c3.329-6.79,5.453-15.566,5.193-24.777        C113.245,193.611,112.709,192.018,112.832,190.47z"/>
					</g>
				</g>
				<g>
					<g>
						<path style="fill:#000E3F;" d="M60.652,53.901c14.069-2.426,26.713,1.618,37.283,13.494        c6.676,7.501,10.19,19.406,16.971,24.934c2.294,1.87,3.785,1.2,3.908,2.9c0.56,7.742,0.376,9.572-0.037,14.366        c-0.29,3.367-1.312,0.422-8.905,0.14c-2.601-0.097-1.568-2.597-5.641-5.955c-2.427-2.001,0.645-4.089-2.16-15.078        c-3.73-14.614-16.508-28.55-34.358-32.423c-8.034-1.743-10.474-0.231-10.67-1.231c-0.012-0.062,0.519-0.265,0.815-0.345        C58.711,54.473,59.469,53.953,60.652,53.901z"/>
					</g>
				</g>
				<g>
					<g>
						<path style="fill:#000E3F;" d="M68.852,234.47c-0.03,0.317-0.029,0.763-0.12,1.189c-1.71,8.019,1.754,9.335-2.608,8.729        c-4.227-0.587-10.854-1.076-14.746,0.647c-0.546,0.242-1.238,0.593-1.78,0.065c-0.635-0.618-0.119-1.291,0.118-1.921        c1.109-2.943,2.992-5.373,5.077-7.673c1.976-2.18,4.458-3.678,6.913-5.218c0.675-0.423,1.275-0.399,1.893,0.137        c0.617,0.535,1.315,0.977,1.925,1.519c0.721,0.64,1.585,1.019,2.409,1.477C68.314,233.633,68.705,233.865,68.852,234.47z"/>
					</g>
				</g>
			</g>
			<g>
				<g>
					<g>
						<path style="fill:#FC09B2;" d="M22.023,128.808c30.041,8.36,59.873,1.97,85.009-16.061c1.66-1.2,3.631,1.058,2.213,2.543        c-22.013,22.952-60.538,30.216-88.361,16.476C19.162,130.916,20.164,128.289,22.023,128.808z"/>
					</g>
				</g>
				<g>
					<g>
						<path style="fill:#FC09B2;" d="M67.638,103.226l6.644-2.409c1.655-0.608,3.071,1.347,1.967,2.738        c-6.604,8.212-20.743,11.718-29.398,5.073c-1.293-0.993-0.494-3.063,1.126-2.938        C50.383,105.529,55.772,107.343,67.638,103.226z"/>
					</g>
				</g>
				<g>
					<g>
						<path style="fill:#FC09B2;" d="M67.772,294.809c-4.259-0.976-5.722-4.061-4.414-6.725c3.843-7.828,20.736-7.969,19.301,0.111        C81.962,292.124,74.562,296.365,67.772,294.809z"/>
					</g>
				</g>
				<g>
					<g>
						<path style="fill:#FC09B2;" d="M127.511,283.062c3.572-2.516,3.758-5.926,1.539-7.896c-6.521-5.79-22.209,0.476-17.822,7.411        C113.36,285.949,121.815,287.073,127.511,283.062z"/>
					</g>
				</g>
			</g>
			<g style="opacity:0.5;">
				<g>
					<g>
						<path style="fill:#FFFFFF;" d="M13.907,87.412c-2.291,9.487-1.408,17.254-1.421,17.084c0.146,1.99-2.696,2.551-3.308,0.642        c-7.554-23.614,9.887-54.511,34.916-59.223c1.843-0.346,2.666,2.245,0.956,3.021C28.72,56.355,17.945,71.069,13.907,87.412z"/>
					</g>
				</g>
				<g>
					<g>
						<path style="fill:#FFFFFF;" d="M56.784,264.426c-1.083,18.195,1.425,30.499,1.403,30.331c0.248,1.846-2.231,2.711-3.183,1.099        c-7.122-12.114-6.697-30.095-0.546-42.607c0.773-1.571,3.155-0.952,3.067,0.797C57.37,257.118,56.996,261.22,56.784,264.426z"/>
					</g>
				</g>
				<g>
					<g>
						<path style="fill:#FFFFFF;" d="M32.21,162.224c4.717,6.742,9.71,20.33,10.296,29.096c0.064,0.96-0.662,1.791-1.623,1.855        c-1.082,0.073-1.733-0.923-1.573-0.783c-4.89-7.064-9.558-20.642-10.092-29.122C29.114,161.612,31.259,160.87,32.21,162.224z"/>
					</g>
				</g>
				<g>
					<g>
						<path style="fill:#FFFFFF;" d="M31.285,126.927l-0.092,0.14c-0.864,1.328-2.883,0.962-3.254-0.559        c-0.802-3.318,0.421-7.757,3.76-11.042c5.203-5.133,13.047-4.796,12.284-1.618C43.485,115.929,38.473,115.881,31.285,126.927z        "/>
					</g>
				</g>
				<g>
					<g>
						<path style="fill:#FFFFFF;" d="M58.748,93.148c-6.453,4.87-6.213,10.483-9.177,8.54c-2.533-1.66-1.584-11.575,6.74-13.94        c1.738-0.475,3.5-0.565,5.185-0.107c1.399,0.38,1.733,2.193,0.607,3.06C60.654,91.816,59.793,92.33,58.748,93.148z"/>
					</g>
				</g>
			</g>
			<g style="opacity:0.18;">
				<g>
					<path style="fill:#000E3F;" d="M105.19,202.061c0.466,2.716,0.317,4.834-0.104,6.955c-1.029,5.133-4.097,10.428-6.109,12.211       c-0.367,0.312-0.693,0.222-1.047-0.017c-0.02-0.013-0.04-0.026-0.06-0.04c-2.087-1.73-4.822-3.452-8.052-4.289       c-0.365-0.117-0.741-0.197-1.116-0.277c-0.289-0.08-0.589-0.124-0.886-0.151c-0.286-0.064-0.582-0.091-0.876-0.101       c-0.77-0.088-1.544-0.108-2.355-0.051c-1.846,0.106-3.455,0.799-4.984,1.733c-0.304,0.196-0.624,0.397-0.925,0.61       c-0.105,0.072-0.211,0.144-0.314,0.233c-0.555,0.4-1.087,0.83-1.582,1.27c-0.133,0.112-0.264,0.223-0.377,0.348       c-0.232,0.217-0.462,0.433-0.691,0.667c-0.211,0.23-0.44,0.463-0.651,0.693c-0.109,0.141-0.238,0.27-0.347,0.411       c-0.096,0.122-0.208,0.247-0.301,0.385c-0.79,0.943-1.482,1.953-2.092,3.031c-0.013,0.019-0.04,0.059-0.036,0.075       c-0.917,1.344-1.102,1.364-2.598,0.459c-0.447-0.272-0.898-0.56-1.338-0.884c0.19-6.612,2.942-16.382,17.004-19.147       c7.352-1.446,12.069-5.232,15.079-9.608c1.003,0.316,1.987,0.962,2.942,1.99C104.42,199.712,105.081,201.072,105.19,202.061z"/>
				</g>
			</g>
		</g>
		<g>
			<g>
				<g>
					<path style="fill:#000E3F;" d="M152.269,282.722c-1.475-0.54-1.666-1.361-2.444-5.625c-0.552-3.04-1.386-7.633-3.294-14.837       c-5.152-19.434-11.266-30.228-18.175-32.084c-0.688-0.187-0.729-0.196-0.812-3.51c-0.022-0.974-0.053-2.207-0.119-3.779       c-1.383-33.581-2.364-54.248-3.013-67.924c-1.061-22.358-1.063-22.579-0.179-23.526c0.073-0.08,0.153-0.165,0.237-0.266       c3.563-4.2,4.644-8.306,3.212-12.201c-1.151-3.142-3.442-5.717-6.451-7.255c-0.831-0.424-0.799-0.969-0.54-3.212       c0.308-2.631,0.821-7.037-0.221-15.018c-3.503-26.849-20.006-48.653-43.069-56.898c-20.248-7.24-41.7-2.771-57.37,11.954       C5.05,62.617-2.217,84.28,0.595,106.493c1.378,10.903,4.844,18.335,8.512,26.202l0.179,0.383l-0.344,0.509       c-0.342,0.501-0.683,1.003-1.008,1.514c-3.922,6.145-2.093,12.155,1.267,15.14c1.851,1.645,3.091,2.308,3.997,2.79       c1.068,0.572,1.512,0.807,1.931,2.18c0.046,0.157,31.967,88.928,32.222,89.609c0.296,0.792,0.106,0.981-0.598,1.681       c-0.799,0.799-2.141,2.131-3.345,5.45c-4.503,12.393-1.126,37.345,2.575,50.307c0.165,0.577-0.16,0.855-0.751,1.296       c-0.17,0.128-0.339,0.254-0.482,0.387c-5.373,4.976-6.754,11.446-3.888,18.223c3.348,7.916,11.903,13.422,24.739,15.919       c5.089,0.991,10.758,1.485,16.775,1.485c7.492,0,15.525-0.765,23.639-2.287c14.967-2.803,28.831-7.899,39.033-14.35       c11.465-7.243,17.663-15.75,17.928-24.599C163.189,291.089,159.185,285.253,152.269,282.722z M40.849,103.254       c0.014,1.332-0.029,1.337-0.552,1.417c-4.857,0.727-11.891,3.888-17.068,10.574l-0.112,0.15       c-0.056,0.078-0.153,0.208-0.235,0.303c-5.356-12.003-4.392-26.209,2.587-38.033c8.834-14.967,21.978-20.26,33.942-20.26       c3.835,0,7.55,0.545,10.961,1.487c15.578,4.304,31.238,18.586,31.105,40.792c0,0.305-0.017,0.468-0.031,0.552       c-0.191-0.061-0.584-0.276-0.966-0.484c-0.695-0.378-1.747-0.952-3.243-1.584c-6.499-2.759-12.221-2.023-14.97-1.669       c-0.724,0.09-1.485,0.191-1.611,0.148c-0.095-0.095-0.354-0.603-0.606-1.095c-1.235-2.417-4.125-8.081-10.021-11.399       c-6.085-3.425-12.945-3.399-18.834,0.073c-6.448,3.805-10.414,11.036-10.348,18.868L40.849,103.254z M117.872,108.45       c-0.097,1.235-0.218,1.502-0.278,1.548c-0.056,0.029-0.308-0.044-0.487-0.095l-0.099-0.027       c-3.171-0.862-4.992-1.008-6.196-1.105c-1.339-0.109-1.618-0.131-2.09-1c-1.303-2.388-2.466-3.478-3.316-4.275       c-0.848-0.797-1.235-1.16-1.148-2.231c0.894-10.82-3.142-22.162-11.072-31.122c-8.563-9.675-20.323-15.28-33.113-15.782       c-0.477-0.019-0.954-0.029-1.432-0.029c-13.497,0-26.328,7.5-34.55,20.277c-8.723,13.558-10.048,30.105-3.457,43.185       c0.458,0.911,0.264,1.318-0.203,2.296c-0.477,0.996-1.199,2.502-1.473,5.424c-0.087,0.932-0.492,1.134-1.696,1.737       c-1.081,0.54-2.716,1.356-5.014,3.239c-0.131,0.106-0.528,0.434-0.632,0.438c-0.114-0.053-0.373-0.562-0.458-0.729       c-2.301-4.554-4.62-9.597-5.971-15.609C1.654,98.882,2.647,83.716,8.063,70.735c4.963-11.901,13.296-21.472,24.097-27.677       c8.386-4.818,17.358-7.185,26.311-7.185c13.522,0,26.992,5.402,38.304,15.922C111.666,65.64,119.553,86.819,117.872,108.45z        M19.654,129.243c1.899-0.833,2.052-2.049,2.26-3.735c0.247-1.967,0.584-4.663,3.757-8.749       c3.411-4.389,8.641-7.781,13.648-8.856c0.77-0.165,1.393-0.271,1.899-0.358c2.204-0.378,2.488-0.521,2.495-3.028       c0.017-8.626,3.701-15.319,10.106-18.361c2.214-1.051,4.602-1.567,6.979-1.567c3.672,0,7.316,1.231,10.246,3.607       c4.251,3.449,5.811,7.172,6.846,9.636c0.189,0.451,0.361,0.857,0.526,1.211c0.564,1.223,1.727,0.923,2.744,0.661       c0.184-0.046,0.375-0.095,0.569-0.138c6.761-1.509,13.153-0.266,19.03,3.687c3.52,2.366,4.619,4.447,5.424,5.966       c0.717,1.357,1.238,2.34,3.057,2.34c0.036-0.003,0.08,0,0.123,0c3.541,0,8.609,1.107,12.032,3.595       c3.004,2.185,4.293,5.109,3.827,8.692c-0.235,1.807-1.247,3.331-2.265,4.738c-9.522,13.165-58.143,32.827-99.65,25.139       c-4.021-0.746-7.708-2.311-11.269-4.782c-3.372-2.34-4.094-6.632-3.064-9.665C10.449,134.931,15.4,131.106,19.654,129.243z        M108.013,143.08c7.589-3.699,10.515-6.107,11.923-7.262c0.303-0.249,0.545-0.451,0.744-0.589       c0.213,1.783,0.547,9.643,1.676,36.32c0.419,9.905,0.949,22.441,1.63,38.304c0.186,4.394,0.356,7.831,0.487,10.52       c0.315,6.422,0.434,8.825,0.061,9.229c-0.063,0.068-0.223,0.078-0.499,0.085c-0.155,0.005-0.327,0.012-0.518,0.031       c-4.607,0.511-9.287,2.231-13.914,5.113c-0.548,0.342-0.746,0.371-0.833,0.349c-0.17-0.058-0.383-0.647-0.608-1.269       c-0.422-1.158-1.122-3.091-2.791-5.673c-0.543-0.838-0.385-1.061,0.492-2.301c0.567-0.802,1.344-1.902,2.272-3.706       c8.931-17.39,7.531-35.664,0.62-41.821c-3.328-2.967-7.652-2.931-12.167,0.09c-3.752,2.509-5.283,4.929-6.107,6.23       c-0.172,0.269-0.358,0.564-0.475,0.722l-0.131-0.632c-0.242-1.153-0.484-2.308-0.693-3.469       c-1.378-7.669-6.814-17.099-12.707-18.918c-2.529-0.768-4.92-0.09-6.95,1.972c-3.229,3.292-4.423,9.309-4.467,13.463       c-0.053,5.109,0.09,5.828,0.894,9.832c0.121,0.601,0.254,1.277,0.407,2.052c-0.254-0.114-0.671-0.354-1.049-0.574       c-0.921-0.535-2.182-1.267-3.791-1.887c-4.329-1.681-8.125-1.887-10.966-0.605c-2.156,0.969-3.733,2.766-4.69,5.344       c-0.15,0.404-0.281,0.838-0.392,1.286c-3.294,13.354,12.921,35.16,21.878,38.983c0.472,0.203,0.504,0.247,0.283,1.504       c-0.204,1.175-0.548,3.142-0.317,6.572c0.034,0.526-0.005,0.845-0.116,0.947c-0.189,0.179-0.935,0.068-1.885-0.075       c-1.591-0.238-4.251-0.644-8.267-0.366c-3.144,0.213-4.883,0.792-5.922,1.136c-0.921,0.308-0.933,0.31-1.039,0.002       c-0.77-2.168-6.303-17.581-12.712-35.431c-8.82-24.558-18.814-52.395-19.044-53.105c-0.007-0.022-0.012-0.039-0.017-0.056       c0.201,0.041,0.494,0.121,0.799,0.201c2.219,0.591,7.415,1.977,19.284,2.456C61.495,159.05,86.244,153.694,108.013,143.08z        M48.954,193.779c1.105-2.042,3.025-3.067,5.729-3.067c0.925,0,1.943,0.121,3.05,0.361c4.905,1.066,8.367,4.176,9.67,5.346       c0.206,0.187,0.354,0.32,0.441,0.383c1.136,0.848,1.873,0.659,2.221,0.468c0.434-0.242,0.681-0.737,0.632-1.255       c-0.058-0.61-0.368-1.509-0.765-2.645c-0.547-1.577-1.231-3.539-1.512-5.55c-0.468-3.35-1.625-14.645,3.154-19.437       c1.298-1.306,2.912-1.633,4.682-0.94c5.07,1.979,10.617,11.637,11.128,24.371c0.056,1.437,0.826,1.747,1.156,1.814       c0.736,0.143,1.509-0.346,1.911-1.194c3.539-7.473,8.999-11.942,13.701-11.104c3.886,0.695,6.453,4.91,7.042,11.562       c0.874,9.888-0.962,19.245-5.455,27.816c-0.533,1.015-1.207,1.991-1.858,2.933c-0.269,0.388-0.535,0.775-0.794,1.165       c-0.02,0.029-0.034,0.051-0.049,0.07c-0.119-0.107-0.315-0.342-0.506-0.572c-0.681-0.809-1.945-2.318-4.525-4.326       c-4.697-3.658-9.573-5.22-14.047-4.564c-4.263,0.637-7.994,3.193-11.094,7.601c-2.742,3.9-3.563,6.429-4.007,7.788       c-0.131,0.407-0.266,0.829-0.303,0.884c-0.007,0-0.075-0.007-0.281-0.138c-2.284-1.448-4.515-3.243-6.635-5.334       C51.503,216.219,45.338,200.455,48.954,193.779z M72.032,244.146l-0.334-0.02c-0.773-0.036-1.151-0.082-1.313-0.719       c-0.717-2.827-0.228-9.924,3.1-16.174c2.335-4.389,5.574-7.34,9.629-8.766c0.785-0.276,1.666-0.409,2.614-0.409       c2.679,0,5.886,1.071,8.924,3.057c4.98,3.256,8.977,8.619,11.254,15.101c0.237,0.678,0.24,0.736-0.414,1.046       C93.515,242.93,83.511,244.975,72.032,244.146z M50.4,247.421c2.631-1.291,5.787-1.727,8.938-1.727       c3.292,0,6.579,0.477,9.253,0.952c14.369,2.563,32.103-2.594,41.49-8.733c2.054-1.344,9.268-5.692,15.67-5.336       c3.057,0.177,5.971,2.442,8.66,6.739v-0.002c7.272,11.62,9.733,24.025,12.337,37.161c0.31,1.558,0.62,3.12,0.938,4.687       c0.223,1.083,0.031,1.945-0.635,2.89c-13.776,19.568-45.239,34.983-78.75,26.561c-9.525-2.391-15.181-5.789-17.598-7.24       c-0.288-0.174-0.535-0.322-0.741-0.441c-1.228-0.707-1.809-3.663-2.277-6.036c-0.095-0.482-0.184-0.947-0.279-1.378       C44.03,279.854,40.861,252.099,50.4,247.421z M47.954,305.194c0.07,0,0.131,0.019,0.189,0.048l0.383,0.177       c0.332,0.15,0.647,0.295,0.932,0.475c11.862,7.446,28.93,11.017,45.625,9.568c21.455-1.868,43.847-14.19,54.454-29.962       c0.264-0.388,0.511-0.458,1.054-0.308c3.958,1.121,6.846,3.51,8.352,6.908c1.788,4.038,1.482,9.212-0.816,13.841       c-4.697,9.464-17.741,18.298-35.783,24.24c-17.511,5.77-37.309,7.87-52.969,5.622c-20.917-3.001-25.594-12.734-26.636-16.78       c-1.33-5.172,0.55-10.426,4.905-13.708C47.767,305.225,47.869,305.194,47.954,305.194z"/>
				</g>
			</g>
			<g>
				<g>
					<path style="fill:#000E3F;" d="M94.555,283.802c-1.819,0-3.604-0.523-5.273-1.56c-3.117-1.935-5.453-5.516-6.092-9.343       c-0.148-0.879,0.446-1.71,1.323-1.856c0.86-0.162,1.708,0.443,1.855,1.323c0.487,2.895,2.296,5.697,4.617,7.136       c1.201,0.751,3.147,1.497,5.518,0.778c4.624-1.398,6.182-6.7,5.302-10.983c-0.179-0.872,0.383-1.725,1.255-1.904       c0.858-0.174,1.722,0.38,1.904,1.255c1.168,5.68-1.075,12.768-7.529,14.718C96.476,283.657,95.509,283.802,94.555,283.802z"/>
				</g>
			</g>
			<g>
				<g>
					<path style="fill:#000E3F;" d="M114.919,268.699c-1.257,0-2.505-0.363-3.682-1.083c-2.526-1.54-4.447-4.559-5.014-7.877       c-0.15-0.877,0.441-1.71,1.318-1.86c0.867-0.174,1.71,0.438,1.86,1.318c0.402,2.352,1.814,4.629,3.515,5.668       c1.01,0.615,2.037,0.763,3.074,0.438c2.938-0.928,3.825-4.842,3.168-8.054c-0.179-0.872,0.383-1.722,1.257-1.901       c0.86-0.172,1.722,0.38,1.902,1.257c0.94,4.59-0.62,10.278-5.356,11.775C116.283,268.592,115.6,268.699,114.919,268.699z"/>
				</g>
			</g>
			<g>
				<g>
					<path style="fill:#000E3F;" d="M71.266,277.284c-1.257,0-2.505-0.363-3.682-1.083c-2.527-1.543-4.447-4.561-5.012-7.877       c-0.15-0.879,0.441-1.71,1.318-1.86c0.87-0.16,1.71,0.441,1.86,1.318c0.4,2.352,1.812,4.629,3.515,5.668       c1.01,0.62,2.042,0.763,3.072,0.439c2.938-0.928,3.825-4.842,3.168-8.054c-0.179-0.872,0.383-1.722,1.257-1.901       c0.857-0.162,1.722,0.383,1.901,1.257c0.94,4.59-0.62,10.278-5.356,11.775C72.63,277.177,71.947,277.284,71.266,277.284z"/>
				</g>
			</g>
		</g>
	</g>
	<g>
		<g>
			<g>
				<g>
					<g>
						<path style="fill:#FFCF00;" d="M310.984,478.132c-41.094,54.744-126.585,31.031-164.588-22.927        c-6.47-9.191-11.565-19.242-14.822-29.931c-9.432-30.904,1.572-64.65,25.365-85.243        c23.836-20.612,58.312-15.977,79.475-43.769c6.671-8.735,9.094-19.987,13.645-29.833        c10.834-23.466,31.744-39.303,57.787-40.841c34.514-2.03,71.012,23.25,80.533,56.595c4.463,15.678,3.312,29.785-1.717,42.398        c-6.518,16.311-19.519,30.169-35.276,41.792C312.23,395.282,337.906,442.272,310.984,478.132z"/>
					</g>
				</g>
				<g>
					<g>
						<path style="fill:#FFCF00;" d="M484.886,130.089c-1.273,2.097-2.831,4.427-4.703,7.09c-2.836,4.005-6.426,8.742-10.862,14.479        c-1.596,2.105-3.348,4.327-5.206,6.717c-3.4,4.374-7.197,9.274-11.423,14.749c-2.922,3.777-5.805,3.831-13.639,3.039        c-4.399-0.42-10.351-1.092-18.723-1.539c-3.839-0.193-6.253-0.588-7.539-3.186c-2.098-4.178-5.112-12.402-7.448-19.275        c-1.172-3.362-2.161-6.417-2.826-8.487c-0.172-0.531-0.272-1.032-0.345-1.558c-0.447-2.431,0.132-4.563,1.776-6.666        c4.225-5.475,7.999-10.376,11.374-14.776c1.834-2.391,3.561-4.639,5.183-6.743c4.435-5.713,8.097-10.371,11.267-14.136        c2.087-2.502,3.981-4.593,5.684-6.37c5.472-5.561,9.404-7.723,14.084-7.909c15.756-0.697,30.823,9.823,36.171,24.446        c0.523,1.467,0.968,2.98,1.29,4.486C489.987,119.021,488.897,123.387,484.886,130.089z"/>
					</g>
				</g>
			</g>
			<g>
				<g>
					<g>
						<path style="fill:#FD8A02;" d="M467.91,153.499c-2.497,3.227-5.231,6.74-8.234,10.613c-0.902,1.147-1.805,2.318-2.734,3.513        c-1.355,1.769-2.788,3.585-4.251,5.498c-2.922,3.777-5.805,3.831-13.639,3.039c-0.544-0.027-1.113-0.081-1.73-0.161        c-0.495-0.05-1.014-0.101-1.557-0.153c-0.445-0.047-0.89-0.095-1.36-0.142c-0.94-0.073-1.928-0.172-2.966-0.274        c-0.248-0.012-0.52-0.05-0.793-0.064c-0.592-0.055-1.236-0.112-1.878-0.169c-0.224-0.011-0.445-0.047-0.668-0.059        c-0.568-0.053-1.164-0.083-1.782-0.139c-1.855-0.143-3.836-0.268-5.991-0.376c-3.839-0.193-6.253-0.588-7.539-3.186        c-0.293-0.586-0.608-1.247-0.943-1.984c-0.245-0.559-0.512-1.168-0.778-1.828c-0.309-0.76-0.641-1.547-0.974-2.359        c-0.13-0.379-0.283-0.784-0.462-1.19c-0.967-2.483-1.948-5.19-2.883-7.844c-0.435-1.238-0.846-2.451-1.259-3.615        c-0.066-0.152-0.11-0.303-0.151-0.455c-1.172-3.362-2.161-6.417-2.826-8.487c-0.172-0.531-0.272-1.032-0.345-1.558        c-0.447-2.431,0.132-4.563,1.776-6.666c5.872-7.602,10.844-14.108,15.148-19.677l0.023,0.026        c-0.159,0.215-0.344,0.429-0.506,0.669c-1.645,2.103-2.225,4.234-1.775,6.667c0.073,0.525,0.171,1.027,0.344,1.557        c1.543,4.847,4.912,14.901,7.802,22.124c0.881,2.23,1.727,4.185,2.471,5.663c1.287,2.573,3.701,2.968,7.54,3.162        c23.332,1.249,27.819,4.381,32.362-1.5c0.161-0.24,0.346-0.454,0.506-0.67L467.91,153.499z"/>
					</g>
				</g>
				<g>
					<g>
						<path style="fill:#FD8A02;" d="M302.703,380.804c-12.392,15.251-36.8,17.368-51.712,4.605        c-10.441-7.225-15.677-18.73-15.558-30.208c0.107-12.62,6.642-25.203,19.734-31.98c17.857-9.262,38.71-1.765,49.562,14.581        c0.885,1.343,1.675,2.744,2.38,4.185C313.152,354.458,311.601,369.837,302.703,380.804z"/>
					</g>
				</g>
				<g>
					<g>
						<path style="fill:#FD8A02;" d="M439.052,176.162c-4.821,6.488-9.595,13.003-14.417,19.491        c-3.758,5.076-7.54,10.15-11.369,15.173c-27.126,35.615-55.096,70.741-81.168,107.104c-4.085,5.681-15.19,1.793-24.282-5.072        l-0.024-0.001l-0.597-0.477c-7.142-5.649-12.733-12.985-12.457-18.459c0.018-0.347,0.06-0.717,0.128-1.062        c0.199-0.984,0.593-1.908,1.28-2.717c28.628-34.398,55.547-70.345,83.174-105.538c8.521-10.896,17.332-21.628,26.023-32.442        c2.336,6.873,5.35,15.096,7.448,19.275c1.286,2.598,3.7,2.993,7.539,3.186C428.701,175.07,434.653,175.742,439.052,176.162z"/>
					</g>
				</g>
			</g>
			<g>
				<g>
					<g>
						<path style="fill:#FC09B2;" d="M164.714,425.689c6.716-0.773,15.286,3.631,18.808,11.903        c2.893,6.795-1.047,14.283-12.552,10.651C157.516,443.995,152.916,427.047,164.714,425.689z"/>
					</g>
				</g>
				<g>
					<g>
						<path style="fill:#FC09B2;" d="M214.661,464.289c6.716-0.773,15.286,3.631,18.808,11.903        c2.893,6.795-1.047,14.283-12.552,10.65C207.463,482.595,202.863,465.647,214.661,464.289z"/>
					</g>
				</g>
				<g>
					<g>
						<path style="fill:#FC09B2;" d="M176.773,352.119l0.074,6.943c0.005,0.474,0.243,0.915,0.636,1.18l5.762,3.875        c0.991,0.666,0.787,2.179-0.344,2.56l-6.581,2.216c-0.449,0.151-0.795,0.514-0.925,0.97l-1.905,6.677        c-0.328,1.148-1.829,1.422-2.541,0.464l-4.141-5.574c-0.283-0.38-0.734-0.597-1.208-0.58l-6.939,0.251        c-1.193,0.043-1.918-1.3-1.226-2.273l4.021-5.661c0.275-0.386,0.341-0.883,0.179-1.328l-2.384-6.522        c-0.41-1.121,0.644-2.225,1.783-1.869l6.627,2.075c0.453,0.142,0.946,0.052,1.319-0.241l5.466-4.282        C175.385,350.264,176.761,350.925,176.773,352.119z"/>
					</g>
				</g>
			</g>
			<g style="opacity:0.75;">
				<g>
					<path style="fill:#FFFFFF;" d="M271.94,268.742c-2.357,3.121-7.903,14.223-7.798,14.039c-1.179,2.066-4.357,0.84-3.847-1.483       c3.222-14.633,8.518-24.643,20.611-33.106c12.044-8.114,27.203-9.799,38.477-6.732c2.175,0.592,1.801,3.804-0.453,3.878       C294.919,246.13,282.402,254.927,271.94,268.742z"/>
				</g>
			</g>
			<g>
				<g>
					<g>
						<path style="fill:#00B0C4;" d="M506.761,152.376c-2.922,3.777-8.372,4.471-12.173,1.548c-2.557-1.991-3.667-5.102-3.242-8.111        l-11.163-8.634c1.872-2.663,3.43-4.993,4.703-7.09l11.666,9.007c2.79-1.176,6.104-0.885,8.662,1.081        C509.014,143.126,509.709,148.575,506.761,152.376z"/>
					</g>
				</g>
				<g>
					<g>
						<path style="fill:#00B0C4;" d="M490.502,173.413c-2.922,3.777-8.371,4.471-12.173,1.548c-2.558-1.967-3.667-5.102-3.242-8.111        l-10.973-8.475c1.858-2.39,3.609-4.612,5.206-6.717l10.973,8.475c2.791-1.176,6.104-0.885,8.662,1.082        C492.756,164.163,493.451,169.612,490.502,173.413z"/>
					</g>
				</g>
				<g>
					<g>
						<path style="fill:#00B0C4;" d="M437.456,93.427c-1.703,1.777-3.597,3.867-5.684,6.37l-11.165-8.634        c-2.79,1.151-6.104,0.885-8.661-1.107c-3.803-2.923-4.495-8.397-1.548-12.173c2.923-3.802,8.372-4.496,12.175-1.573        c2.557,1.991,3.666,5.128,3.242,8.111L437.456,93.427z"/>
					</g>
				</g>
				<g>
					<g>
						<path style="fill:#00B0C4;" d="M420.504,113.933c-1.622,2.104-3.349,4.352-5.183,6.743l-10.973-8.476        c-2.79,1.151-6.105,0.885-8.662-1.107c-3.801-2.923-4.496-8.373-1.548-12.173c2.923-3.802,8.373-4.496,12.175-1.573        c2.557,1.991,3.666,5.127,3.243,8.111L420.504,113.933z"/>
					</g>
				</g>
				<g>
					<g>
						<path style="fill:#00B0C4;" d="M249.773,436.574c-27.25-7.881-46.806-28.344-54.646-51.35        c-0.428-1.253-1.076-2.939-1.625-4.787c-1.318-4.366-2.053-9.52,2.175-11.102c17.988-6.736,33.36,13.788,35.887,29.446        c1.632,10.064,0.139,10.36,5.073,9.772c9.987-1.191,18.309-1.797,29.269,3.326c2.134,0.99,4.111,2.149,5.902,3.481        c6.773,4.944,10.708,12.097,8.98,20.882C279.148,444.569,254.081,437.821,249.773,436.574z"/>
					</g>
				</g>
			</g>
			<g style="opacity:0.25;">
				<g>
					<path style="fill:#000E3F;" d="M249.773,436.574c-27.25-7.881-46.806-28.344-54.646-51.35       c-0.428-1.253-1.076-2.939-1.625-4.787c3.929,3.273,8.562,7.644,14.032,13.321c32.237,33.452,53.828,28.262,64.273,21.601       c6.773,4.944,10.708,12.097,8.98,20.882C279.148,444.569,254.081,437.821,249.773,436.574z"/>
				</g>
			</g>
			<g>
				<g>
					<g>
						<path style="fill:#FFFFFF;" d="M161.425,383.346l0.064,6.003c0.005,0.41,0.21,0.791,0.55,1.02l4.981,3.35        c0.856,0.576,0.68,1.884-0.298,2.213l-5.689,1.916c-0.388,0.131-0.687,0.444-0.8,0.838l-1.647,5.773        c-0.283,0.992-1.582,1.229-2.197,0.401l-3.58-4.819c-0.244-0.329-0.635-0.517-1.045-0.502l-5.999,0.217        c-1.031,0.038-1.658-1.124-1.06-1.965l3.477-4.894c0.237-0.334,0.295-0.764,0.154-1.148l-2.061-5.639        c-0.354-0.969,0.557-1.924,1.541-1.616l5.729,1.794c0.391,0.122,0.817,0.045,1.14-0.208l4.726-3.702        C160.224,381.743,161.413,382.315,161.425,383.346z"/>
					</g>
				</g>
				<g>
					<g>
						<path style="fill:#FFFFFF;" d="M211.299,338.759l-3.516,4.866c-0.24,0.332-0.301,0.761-0.164,1.147l2.015,5.655        c0.347,0.972-0.572,1.919-1.555,1.603l-5.714-1.84c-0.39-0.126-0.817-0.051-1.142,0.199l-4.755,3.664        c-0.817,0.63-2.002,0.049-2.005-0.983l-0.015-6.003c-0.001-0.41-0.204-0.793-0.542-1.024l-4.954-3.39        c-0.852-0.583-0.665-1.889,0.315-2.211l5.705-1.87c0.389-0.128,0.691-0.439,0.807-0.832l1.694-5.759        c0.291-0.99,1.591-1.216,2.2-0.383l3.541,4.848c0.242,0.331,0.631,0.522,1.04,0.51l6.001-0.169        C211.287,336.756,211.904,337.922,211.299,338.759z"/>
					</g>
				</g>
			</g>
			<g style="opacity:0.18;">
				<g>
					<g>
						<path style="fill:#000E3F;" d="M302.703,380.804c-12.392,15.251-36.8,17.368-51.712,4.605        c-10.441-7.225-15.677-18.73-15.558-30.208c35.793,37.07,61.195,5.122,71.676-13.215        C313.152,354.458,311.601,369.837,302.703,380.804z"/>
					</g>
				</g>
				<g>
					<g>
						<path style="fill:#000E3F;" d="M332.109,317.924c-4.087,5.698-15.201,1.8-24.304-5.077l-0.013,0.016l-0.611-0.472l0.013-0.016        c-7.609-6.012-13.489-13.956-12.328-19.516c29.983-4.556,78.033-54.319,98.105-80.292        c13.453-17.408,24.681-18.773,31.671-16.904c-3.765,5.077-7.547,10.14-11.377,15.166        C386.146,246.431,358.18,281.563,332.109,317.924z"/>
					</g>
				</g>
				<g>
					<g>
						<path style="fill:#000E3F;" d="M467.91,153.499c-2.497,3.227-5.231,6.74-8.234,10.613c-0.902,1.147-1.805,2.318-2.734,3.513        c-1.355,1.769-2.788,3.585-4.251,5.498c-2.922,3.777-5.805,3.831-13.639,3.039c-0.544-0.027-1.113-0.081-1.73-0.161        c-0.495-0.05-1.014-0.101-1.557-0.153c-0.445-0.047-0.89-0.095-1.36-0.142c-0.94-0.073-1.928-0.172-2.966-0.274        c-0.248-0.012-0.52-0.05-0.793-0.064c-0.592-0.055-1.236-0.112-1.878-0.169c-0.224-0.011-0.445-0.047-0.668-0.059        c-0.568-0.053-1.164-0.083-1.782-0.139c-1.855-0.143-3.836-0.268-5.991-0.376c-3.839-0.193-6.253-0.588-7.539-3.186        c-0.293-0.586-0.608-1.247-0.943-1.984c-0.245-0.559-0.512-1.168-0.778-1.828c-0.309-0.76-0.641-1.547-0.974-2.359        c-0.13-0.379-0.283-0.784-0.462-1.19c-0.967-2.483-1.948-5.19-2.883-7.844c-0.435-1.238-0.846-2.451-1.259-3.615        c-0.066-0.152-0.11-0.303-0.151-0.455c-1.172-3.362-2.161-6.417-2.826-8.487c-0.172-0.531-0.272-1.032-0.345-1.558        c7.887,4.172,15.487,5.648,22.812,4.7c0.881,2.23,1.727,4.185,2.471,5.663c1.287,2.573,3.701,2.968,7.54,3.162        c23.332,1.249,27.819,4.381,32.362-1.5c0.161-0.24,0.346-0.454,0.506-0.67L467.91,153.499z"/>
					</g>
				</g>
			</g>
			<g style="opacity:0.5;">
				<g>
					<g>
						<path style="fill:#FD8A02;" d="M310.984,478.132c-41.094,54.744-126.585,31.031-164.588-22.927        c40.916,35.046,76.659,45.511,104.118,36.342c50.613-16.894,38.275-43.56,59.674-102.797        c15.454-42.746,55.416-58.646,76.474-64.169c-6.518,16.311-19.519,30.169-35.276,41.792        C312.23,395.282,337.906,442.272,310.984,478.132z"/>
					</g>
				</g>
				<g>
					<g>
						<path style="fill:#FD8A02;" d="M467.91,153.499l-0.048-0.027c-0.16,0.216-0.344,0.43-0.506,0.67        c-4.543,5.881-9.03,2.749-32.362,1.5c-3.839-0.193-6.253-0.588-7.54-3.162c-0.744-1.478-1.59-3.433-2.471-5.663        c11.997-1.506,23.151-9.464,33.248-22.541c10.971-14.175,21.29-13.954,29.48-14.312c0.523,1.467,0.968,2.98,1.29,4.486        C490.811,122.887,485.603,130.622,467.91,153.499z"/>
					</g>
				</g>
			</g>
		</g>
		<g>
			<g>
				<g>
					<path style="fill:#000E3F;" d="M215.346,450.626c-0.734-0.5-1.738-0.315-2.242,0.416c-1.573,2.293-3.968,3.8-6.745,4.247       c-2.71,0.438-5.477-0.242-7.595-1.855c-2.145-1.631-3.536-4.146-3.822-6.899c-0.292-2.828,0.561-5.555,2.4-7.677       c0.584-0.672,0.512-1.692-0.162-2.274c-0.672-0.579-1.691-0.514-2.273,0.162c-2.395,2.761-3.55,6.45-3.17,10.119       c0.375,3.637,2.225,6.966,5.075,9.132c2.086,1.587,4.636,2.494,7.265,2.626c0.927,0.047,1.865-0.003,2.795-0.153       c3.658-0.589,6.817-2.579,8.892-5.604C216.268,452.132,216.08,451.129,215.346,450.626z"/>
				</g>
			</g>
			<g>
				<g>
					<path style="fill:#000E3F;" d="M193.265,429.386c0.201,0.1,0.417,0.154,0.63,0.165c0.622,0.031,1.235-0.304,1.527-0.901       c2.521-5.122,1.85-10.964-1.669-14.537c-2.03-2.061-4.796-3.091-7.698-3.151l-1.398-6.797       c-0.177-0.872-1.019-1.441-1.904-1.253c-0.872,0.179-1.432,1.031-1.253,1.904l1.335,6.493       c-0.443,0.102-0.884,0.219-1.322,0.367l-3.67-5.659c-0.489-0.747-1.482-0.962-2.232-0.476c-0.747,0.486-0.96,1.485-0.476,2.232       l3.432,5.293c-0.588,0.365-1.17,0.747-1.717,1.206c-0.681,0.572-0.771,1.589-0.199,2.272c0.572,0.684,1.586,0.774,2.272,0.199       c3.965-3.319,9.469-3.474,12.534-0.368c2.557,2.598,2.989,6.961,1.074,10.854C192.136,428.026,192.466,428.994,193.265,429.386       z"/>
				</g>
			</g>
			<g>
				<g>
					<path style="fill:#000E3F;" d="M251.571,456.093c-0.045-0.892-0.812-1.547-1.694-1.526l-6.933,0.362       c-0.791-2.794-2.483-5.212-4.988-6.657c-4.356-2.502-10.175-1.676-14.489,2.055c-0.674,0.582-0.747,1.6-0.166,2.274       c0.582,0.674,1.6,0.745,2.274,0.165c3.281-2.838,7.609-3.522,10.769-1.699c3.785,2.182,5.019,7.551,2.809,12.222       c-0.38,0.805-0.038,1.766,0.767,2.146c0.196,0.095,0.403,0.144,0.608,0.154c0.632,0.032,1.25-0.313,1.538-0.922       c0.305-0.645,0.529-1.305,0.732-1.966l5.988,1.987c0.143,0.048,0.287,0.075,0.427,0.082c0.706,0.035,1.378-0.401,1.61-1.105       c0.282-0.844-0.176-1.755-1.023-2.035l-6.403-2.125c0.033-0.461,0.034-0.918,0.021-1.373l6.624-0.346       C250.935,457.739,251.618,456.983,251.571,456.093z"/>
				</g>
			</g>
			<g>
				<g>
					<path style="fill:#000E3F;" d="M506.197,138.911c-2.773-2.151-6.274-2.651-9.379-1.664l-0.025-0.001l-9.825-7.598       c3.675-6.397,4.642-10.818,3.613-15.515c-0.34-1.631-0.807-3.22-1.351-4.737C483.55,93.935,467.65,83.2,451.472,83.901       c-4.804,0.205-8.856,2.261-14.132,7.41l-9.801-7.597c0.031-0.619,0.012-1.216-0.081-1.842       c-0.334-2.724-1.728-5.154-3.904-6.828c-2.174-1.699-4.894-2.407-7.594-2.072c-2.75,0.359-5.155,1.752-6.854,3.927       c-3.455,4.495-2.638,10.968,1.857,14.424c1.722,1.329,3.748,2.026,5.754,2.127c1.238,0.062,2.464-0.099,3.625-0.463       l9.131,7.066c-2.697,3.242-5.721,7.088-9.252,11.605l-8.941-6.908c0.164-3.27-1.212-6.519-3.984-8.67       c-4.495-3.479-10.969-2.638-14.449,1.856c-3.455,4.496-2.638,10.97,1.857,14.424c1.72,1.353,3.747,2.051,5.753,2.152       c1.238,0.062,2.464-0.099,3.625-0.463l0.025,0.001l8.94,6.908c-0.398,0.501-0.796,1.028-1.196,1.554       c-13.192,17.294-13.542,14.392-8.331,29.334c-2.517,3.127-5.008,6.23-7.496,9.284c-5.932,7.326-12.051,14.916-17.97,22.466       c-8.441,10.776-16.835,21.604-25.203,32.434c-3.613,4.686-7.252,9.37-10.917,14.103c-10.871-4.57-22.604-6.851-34.187-6.166       c-25.657,1.514-47.779,17.14-59.151,41.776c-1.562,3.399-2.885,6.983-4.177,10.444c-2.471,6.656-5.027,13.506-9.282,19.104       c-11.594,15.212-26.953,20.35-43.221,25.789c-12.454,4.167-25.337,8.485-36.035,17.732       c-24.774,21.453-35.176,56.395-25.836,86.942c3.195,10.542,8.268,20.757,15.036,30.386       c21.951,31.157,60.427,52.764,96.671,54.589c1.164,0.059,2.329,0.117,3.471,0.125c19.506,0.287,46.941-4.963,67.066-31.741       c12.3-16.394,13.856-34.967,15.357-52.947c1.858-22.085,3.628-42.932,24.702-58.486c17.722-13.091,29.767-27.386,35.818-42.504       c5.46-13.732,6.071-28.33,1.764-43.424c-2.343-8.239-6.298-16.014-11.457-23.029c3.905-5.068,7.785-10.114,11.665-15.134       c8.158-10.592,16.339-21.157,24.424-31.777c3.83-5.048,7.611-10.098,11.37-15.199l4.956-6.68       c2.932-3.975,5.917-8.022,8.928-12.068c12.436,1.117,11.557,0.302,24.586-17.24l8.965,6.934       c-0.165,3.27,1.211,6.543,3.985,8.669c1.719,1.353,3.746,2.051,5.753,2.152c3.27,0.165,6.543-1.211,8.694-3.983       c3.455-4.495,2.638-10.969-1.856-14.449c-2.773-2.151-6.274-2.65-9.379-1.664l-0.024-0.001l-8.964-6.933       c3.505-4.518,6.459-8.417,8.942-11.868l9.108,7.04c-0.165,3.27,1.211,6.543,3.984,8.669c1.72,1.353,3.747,2.051,5.778,2.154       c3.245,0.163,6.52-1.236,8.67-3.984C511.507,148.865,510.691,142.391,506.197,138.911z M416.731,90.223       c-1.337-0.092-2.68-0.558-3.804-1.433c-1.48-1.167-2.439-2.83-2.693-4.706c-0.228-1.874,0.262-3.737,1.429-5.218       c1.144-1.507,2.831-2.44,4.681-2.695c0.45-0.052,0.872-0.055,1.293-0.034c1.413,0.071,2.779,0.562,3.95,1.465       c1.1,0.85,1.935,2.01,2.366,3.323c0,0,0,0-0.001,0.025c0.152,0.43,0.254,0.882,0.305,1.332       c0.124,0.975,0.053,1.915-0.216,2.821c-0.218,0.858-0.632,1.682-1.189,2.398c-0.584,0.741-1.259,1.328-2.027,1.786       C419.573,89.993,418.141,90.319,416.731,90.223z M423.504,91.359c0.695-0.511,1.348-1.149,1.906-1.866       c0.558-0.716,0.994-1.489,1.334-2.317l8.343,6.456c-1.128,1.185-2.286,2.492-3.527,3.945L423.504,91.359z M401.888,111.232       c-0.474,0.051-0.947,0.077-1.417,0.028c-1.362-0.093-2.679-0.582-3.802-1.433c-1.481-1.167-2.44-2.83-2.694-4.705       c-0.228-1.874,0.262-3.712,1.43-5.218c1.461-1.888,3.72-2.843,5.949-2.73c1.387,0.07,2.779,0.537,3.974,1.467       c1.148,0.877,1.958,2.061,2.365,3.348c0.454,1.339,0.506,2.782,0.089,4.152c-0.215,0.834-0.605,1.659-1.189,2.399       c-0.557,0.717-1.233,1.329-2.002,1.787C403.773,110.805,402.864,111.107,401.888,111.232z M407.245,112.396       c0.696-0.511,1.349-1.149,1.907-1.866c0.558-0.717,0.994-1.514,1.333-2.317l7.769,6.004c-1.035,1.339-2.124,2.725-3.24,4.183       L407.245,112.396z M355.384,217.995c8.394-10.828,16.762-21.658,25.202-32.409c5.892-7.527,12.01-15.091,17.943-22.417       c2.065-2.554,4.132-5.107,6.223-7.684c0.803,2.275,1.654,4.628,2.508,6.906l-56.915,71.816l-2.016,2.556l-50.151,63.266       c-1.483-2.608-2.132-5-1.74-6.868c0.162-0.762,0.468-1.392,0.944-1.989c15.518-18.641,30.723-37.992,45.543-57.09       c0.664-0.86,1.355-1.745,2.044-2.605C348.451,226.96,351.931,222.466,355.384,217.995z M305.668,342.702       c5.872,12.118,4.219,26.687-4.227,37.091c-5.587,6.896-14.257,11.353-23.712,12.217c-3.619,0.34-7.208,0.109-10.675-0.587       l37.819-50.202C305.171,341.709,305.42,342.193,305.668,342.702z M305.257,312.879l-9.883,12.789       c-2.898-2.132-6.039-3.855-9.302-5.162l11.908-15.022C300.104,308.198,302.706,310.763,305.257,312.879z M305.109,335.547       c-2.11-2.988-4.561-5.62-7.228-7.865l9.936-12.862c2.683,1.973,5.792,3.843,8.976,5.221L305.109,335.547z M250.823,383.28       c-3.11-2.342-5.775-5.158-7.902-8.32l41.054-51.802c3.318,1.21,6.485,2.91,9.433,5.044L250.823,383.28z M240.827,377.611       c2.201,3.141,4.916,5.935,8.03,8.228l-14.824,19.172c-0.035-0.3-0.072-0.55-0.106-0.85c-0.178-1.4-0.383-3.248-0.76-5.626       c-0.417-2.579-1.192-5.425-2.339-8.313L240.827,377.611z M251.415,387.805c3.061,2.365,6.52,4.178,10.205,5.456l-9.82,13.041       c-4.921-0.446-9.76-0.02-15.158,0.628L251.415,387.805z M253.382,385.247l42.533-55.031c2.668,2.27,5.09,4.95,7.17,8.035       l-39.414,52.283C259.953,389.377,256.467,387.613,253.382,385.247z M241.159,371.989c-2.725-5.055-4.174-10.815-4.123-16.773       c0.113-13.083,7.17-24.5,18.876-30.566c5.456-2.83,11.403-4.021,17.299-3.724c2.503,0.126,5.016,0.526,7.466,1.196       L241.159,371.989z M227.813,391.41L227.813,391.41c0.361,1.55,1.71,2.6,2.891,13.135c1.244,10.654,4.712,2.901,22.563,5.185       c14.053,1.909,28.828,11.549,25.951,26.192c-0.134,0.688-0.532,1.19-1.224,1.627c-1.692,1.032-4.661,1.305-8.128,1.13       c-6.491-0.327-14.765-2.233-19.636-3.646c-25.311-7.334-45.326-26.125-53.57-50.333l-0.437-1.189       c-0.37-1.037-0.78-2.25-1.187-3.537c-2.108-6.986-0.315-8.559,1.204-9.129c2.48-0.918,4.934-1.317,7.411-1.192       C214.677,370.209,223.704,381.025,227.813,391.41z M370.208,249.141l-1.918,2.561l-49.501,65.683       c-2.872-1.163-5.963-2.908-9.008-5.098l51.62-66.793l1.941-2.535l52.099-67.414c1.982,0.667,3.79,0.59,9.488,0.974       L370.208,249.141z M360.835,240.97l-1.991,2.557l-51.62,66.793c-2.908-2.406-5.338-4.963-7.176-7.439l51.132-64.508       l2.015-2.531l55.404-69.931c1.309,3.237,2.775,6.874,4.015,8.05L360.835,240.97z M386.828,282.612       c4.092,14.413,3.541,28.318-1.661,41.368c-5.825,14.559-17.498,28.376-34.728,41.094       c-22.261,16.438-24.168,38.993-26.012,60.83c-0.739,8.755-1.484,17.659-3.511,26.324c-2.027,8.69-5.332,17.117-11.214,24.942       c-19.3,25.702-45.683,30.756-64.443,30.458c-36.134-0.553-75.463-21.98-97.554-53.342       c-6.558-9.346-11.473-19.254-14.583-29.495c-8.955-29.336,1.031-62.908,24.869-83.538c10.205-8.824,22.23-12.863,34.938-17.116       c16.015-5.353,32.587-10.902,44.768-26.903c4.571-5.954,7.189-13.05,9.746-19.925c1.264-3.413,2.558-6.924,4.09-10.2       c10.871-23.544,31.964-38.476,56.4-39.903c2.441-0.15,4.9-0.15,7.329-0.028c8.373,0.422,16.744,2.383,24.629,5.586       c-14.659,18.857-29.678,37.945-44.984,56.348c-0.819,1.002-1.375,2.166-1.612,3.421c-0.657,3.171,0.555,6.734,2.764,10.197       l-13.206,16.646c-9.344-2.83-19.484-2.223-28.435,2.417c-12.776,6.609-20.483,19.086-20.606,33.385       c-0.055,7.026,1.766,13.774,5.148,19.582l-9.599,12.109c-3.239-6.695-8.347-13.285-15.104-17.202       c-6.178-3.59-12.777-4.22-19.13-1.832c-4.252,1.574-5.317,5.966-3.166,13.053c0.403,1.362,0.861,2.627,1.231,3.688l0.413,1.163       c8.591,25.195,29.412,44.771,55.728,52.379c2.544,0.749,12.025,3.337,20.127,3.745c4.113,0.207,7.855-0.126,10.212-1.572       c1.46-0.895,2.395-2.189,2.697-3.739c1.73-8.73-1.691-16.725-9.598-22.488c-1.843-1.384-3.941-2.608-6.175-3.639       c-3.978-1.865-7.622-3.017-11.117-3.639l9.474-12.562c2.404,0.593,4.893,0.967,7.42,1.094c1.883,0.095,3.748,0.064,5.644-0.114       c5.165-0.46,10.105-1.9,14.541-4.186c4.412-2.286,8.32-5.418,11.391-9.187c9.24-11.382,11.034-27.286,4.599-40.55       c-0.472-0.992-0.995-1.937-1.545-2.859l12.962-17.204c1.809,0.588,3.602,0.951,5.287,1.036       c0.867,0.044,1.738,0.013,2.565-0.119c2.426-0.35,4.295-1.473,5.604-3.269c13.889-19.368,28.496-38.651,43.006-57.516       C381.088,267.869,384.676,275.029,386.828,282.612z M428.273,188.012l-4.931,6.681c-3.758,5.076-7.538,10.126-11.368,15.148       c-8.085,10.621-16.241,21.187-24.399,31.754c-3.694,4.805-7.439,9.634-11.16,14.488c-0.664,0.861-1.329,1.721-1.993,2.582       c-14.698,19.129-29.54,38.647-43.617,58.305c-0.801,1.102-1.926,1.74-3.479,1.985c-1.476,0.223-3.281,0.059-5.289-0.49       l48.493-64.392l1.943-2.585l56.264-74.68c2.771,0.214,5.19,0.485,7.341,0.693C433.443,181.021,430.857,184.541,428.273,188.012       z M482.753,161.077c0.425-0.053,0.848-0.057,1.269-0.035l0.099,0.005c1.386,0.095,2.703,0.583,3.851,1.461       c1.481,1.142,2.439,2.83,2.694,4.681c0.229,1.874-0.262,3.737-1.43,5.243c-1.143,1.483-2.831,2.44-4.705,2.669       c-1.876,0.254-3.712-0.261-5.219-1.405c-1.122-0.876-1.934-2.034-2.365-3.347c0,0,0,0,0.001-0.025       c-0.152-0.429-0.253-0.882-0.305-1.331c-0.124-0.975-0.053-1.915,0.217-2.821c0.217-0.858,0.629-1.657,1.188-2.399       c0.583-0.716,1.259-1.327,2.028-1.785C480.893,161.529,481.803,161.202,482.753,161.077z M477.398,159.913       c-0.698,0.536-1.351,1.174-1.908,1.891c-0.558,0.717-0.994,1.49-1.333,2.292l-7.769-6.004c1.117-1.459,2.205-2.844,3.216-4.185       L477.398,159.913z M469.037,149.383c-0.639,0.837-1.277,1.675-1.967,2.558c-19.788,25.594-15.225,23.839-30.284,22.393       c-25.586-2.759-20.632,1.716-26.536-13.108l0,0v-0.002v0.001l0.001-0.024c-8.527-25.55-10.256-17.825,4.159-36.722       c0.399-0.526,0.798-1.052,1.196-1.554c0.664-0.861,1.328-1.721,1.966-2.559c1.117-1.459,2.205-2.844,3.241-4.183       c0.665-0.885,1.303-1.723,1.965-2.533c3.533-4.566,6.559-8.412,9.229-11.631c0.715-0.883,1.402-1.693,2.087-2.478       c1.242-1.478,2.425-2.784,3.526-3.945c0.813-0.853,1.571-1.609,2.303-2.319c4.437-4.271,7.851-5.987,11.683-6.142       c0.997-0.049,2.014-0.047,3.005,0.003c13.775,0.694,26.735,10.138,31.583,23.371c0.502,1.367,0.901,2.827,1.225,4.284       c0.805,3.741-0.005,7.5-3.009,12.887c-0.491,0.869-1.033,1.786-1.654,2.773c-0.839,1.374-1.808,2.84-2.931,4.423       c-0.564,0.84-1.203,1.703-1.871,2.637C475.524,140.894,472.57,144.818,469.037,149.383z M482.384,136.843       c1.073-1.586,2.066-3.05,2.929-4.423l8.343,6.455c-0.699,0.536-1.352,1.174-1.909,1.891c-0.558,0.717-0.993,1.49-1.332,2.292       L482.384,136.843z M505.495,151.368c-1.143,1.507-2.831,2.465-4.705,2.694c-1.874,0.228-3.712-0.262-5.219-1.405       c-1.124-0.876-1.935-2.035-2.365-3.348c0,0,0,0,0.001-0.025c-0.152-0.43-0.254-0.882-0.305-1.332       c-0.126-0.975-0.053-1.915,0.216-2.82c0.217-0.858,0.63-1.658,1.189-2.399c0.582-0.715,1.259-1.327,2.026-1.785       c0.819-0.456,1.729-0.782,2.679-0.909c0.425-0.053,0.847-0.057,1.269-0.036l0.098,0.005c1.388,0.095,2.703,0.583,3.851,1.461       c1.483,1.143,2.442,2.805,2.695,4.681C507.153,148.024,506.663,149.887,505.495,151.368z"/>
				</g>
			</g>
			<g>
				<g>
					<path style="fill:#000E3F;" d="M451.468,109.63c1.674-2.176,1.259-5.276-0.892-6.95c-2.176-1.674-5.276-1.284-6.95,0.892       c-1.673,2.151-1.284,5.275,0.892,6.95C446.67,112.196,449.795,111.781,451.468,109.63z"/>
				</g>
			</g>
			<g>
				<g>
					<path style="fill:#000E3F;" d="M426.423,128.562c0.215,1.153,0.831,2.227,1.835,2.998c2.152,1.673,5.277,1.26,6.95-0.892       c1.011-1.34,1.269-2.991,0.822-4.479c-0.3-0.959-0.878-1.808-1.714-2.471c-0.478-0.371-1.01-0.647-1.55-0.798       c-1.687-0.532-3.57-0.13-4.874,1.121c-0.182,0.165-0.366,0.354-0.526,0.569c-0.902,1.147-1.197,2.573-0.942,3.927       L426.423,128.562z"/>
				</g>
			</g>
			<g>
				<g>
					<path style="fill:#000E3F;" d="M472.641,119.737c-2.151-1.673-5.275-1.284-6.95,0.892c-1.673,2.151-1.259,5.276,0.892,6.949       c2.176,1.675,5.276,1.259,6.95-0.892C475.207,124.51,474.816,121.411,472.641,119.737z"/>
				</g>
			</g>
			<g>
				<g>
					<path style="fill:#000E3F;" d="M456.382,140.774c-0.406-0.318-0.865-0.565-1.33-0.738l-0.024-0.001       c-1.975-0.72-4.241-0.114-5.595,1.631c-1.674,2.151-1.26,5.277,0.892,6.95c1.816,1.408,4.303,1.334,6.034,0.006       c0.334-0.232,0.648-0.538,0.915-0.898C458.947,145.548,458.558,142.448,456.382,140.774z"/>
				</g>
			</g>
		</g>
	</g>
	<g>
		<g>
			<g>
				<g>
					<path style="fill:#91D728;" d="M491.253,454.209c-22.803,26.676-58.113,40.343-92.483,43.053       c-7.619,0.604-13.684-0.336-18.363-2.492c-17.026-7.839-16.058-31.968-6.755-58.72c4.78-13.735,12.662-26.392,23.17-36.477       c10.82-10.403,16.498-6.425,22.389,6.49c1.655,3.663,4.318-7.855,42.693-31.473c29.758-18.32,48.963-21.671,48.475-6.543       c-0.198,6.109-3.611,15.231-10.853,27.619c-13.394,22.934-28.258,35.392-31.984,41.247c9.203-3.036,21.988-8.884,31.524-6.348       C509.197,433.257,494.238,450.708,491.253,454.209z"/>
				</g>
			</g>
			<g style="opacity:0.25;">
				<g>
					<path style="fill:#000E3F;" d="M491.253,454.209c-22.803,26.676-58.113,40.343-92.483,43.053       c-7.619,0.604-13.684-0.336-18.363-2.492c21.727-64.898,104.848-113.331,129.972-126.724       c-0.198,6.109-3.611,15.231-10.853,27.619c-13.394,22.934-28.258,35.392-31.984,41.247c9.203-3.036,21.988-8.884,31.524-6.348       C509.197,433.257,494.238,450.708,491.253,454.209z"/>
				</g>
			</g>
			<g style="opacity:0.75;">
				<g>
					<path style="fill:#FFFFFF;" d="M383.238,461.726l-0.039,0.165c-0.532,2.258-3.811,2.089-4.114-0.213       c-2.661-20.759,11.79-42.414,27.504-51.87c1.866-1.125,3.912,1.192,2.567,2.907       C404.542,419.922,390.02,432.932,383.238,461.726z"/>
				</g>
			</g>
		</g>
		<g>
			<g>
				<g>
					<path style="fill:#000E3F;" d="M391.242,498.95c-4.365-0.29-8.216-1.197-11.511-2.715       c-15.961-7.352-18.661-28.912-7.602-60.715c4.949-14.227,13.101-27.059,23.575-37.112c5.2-5,9.458-6.965,13.347-6.233       c4.164,0.794,7.56,4.53,11.272,12.444c0.498-0.453,1.172-1.126,1.869-1.823c4.78-4.78,14.727-14.725,38.866-29.582       c15.932-9.807,36.914-20.341,46.447-14.82c2.15,1.248,4.673,3.943,4.487,9.701c-0.216,6.637-3.941,16.185-11.071,28.381       c-9.241,15.823-19.147,26.674-25.701,33.854c-1.055,1.156-2.03,2.224-2.895,3.199c8.431-3.03,18.87-6.739,27.158-4.525       c2.872,0.764,3.972,2.512,4.388,3.846c1.391,4.457-2.317,11.766-11.335,22.338l-0.055,0.067       c-21.107,24.691-55.217,40.586-93.584,43.613C396.196,499.083,393.642,499.11,391.242,498.95z M407.833,395.265       c-2.644-0.176-5.891,1.621-9.895,5.469c-10.108,9.704-17.98,22.098-22.762,35.843c-6.046,17.388-13.318,47.876,5.906,56.727       c4.596,2.117,10.508,2.91,17.558,2.348c37.522-2.957,70.831-18.447,91.386-42.492l0,0.003l0.056-0.067       c11.053-12.957,11.172-17.804,10.709-19.285c-0.164-0.526-0.564-1.273-2.138-1.691c-7.374-1.954-17.406,1.632-25.457,4.522       c-1.803,0.647-3.531,1.268-5.15,1.801c-0.648,0.212-1.36,0-1.777-0.541c-0.418-0.538-0.454-1.283-0.088-1.856       c1.255-1.973,3.52-4.454,6.657-7.889c6.462-7.081,16.227-17.779,25.295-33.308c6.856-11.726,10.436-20.764,10.635-26.859       c0.109-3.391-0.833-5.617-2.883-6.805c-6.262-3.633-21.983,1.752-43.137,14.773c-23.817,14.659-33.585,24.425-38.279,29.118       c-2.468,2.47-3.528,3.518-4.932,3.228c-0.782-0.142-1.388-0.675-1.796-1.583c-3.32-7.276-6.187-10.787-9.296-11.38       C408.245,395.305,408.04,395.279,407.833,395.265z M491.252,454.208l0.024,0.002L491.252,454.208z"/>
				</g>
			</g>
			<g>
				<g>
					<path style="fill:#000E3F;" d="M387.202,480.826c-0.23-0.015-0.461-0.081-0.676-0.2c-0.777-0.43-1.059-1.413-0.626-2.193       c13.616-24.549,25.999-41.19,59.533-69.376c8.306-6.983,17.201-13.41,25.803-19.626c4.994-3.61,10.158-7.34,15.121-11.123       c0.713-0.535,1.721-0.398,2.262,0.306c0.538,0.711,0.403,1.721-0.306,2.262c-4.999,3.804-10.179,7.548-15.187,11.167       c-8.556,6.182-17.401,12.576-25.619,19.483c-36.183,30.411-47.189,47.563-58.789,68.473       C388.406,480.561,387.804,480.866,387.202,480.826z"/>
				</g>
			</g>
		</g>
	</g>
	<g>
		<g>
			<g>
				<g>
					<g>
						<g>
							<g>
								<path style="fill:#00B0C4;" d="M351.207,103.106c-18.23,0-40.632-4.925-55.74-12.25c-1.078-0.513-2.144-1.063-3.156-1.625          c-1.378-0.748-2.04-2.398-1.562-3.917c0.095-0.259,0.172-0.472,0.32-0.698c0.419-0.756,1.209-1.456,2.352-2.042          c1.383-0.722,3.108-1.201,4.367-1.553c0.356-0.097,0.681-0.189,0.952-0.271c8.812-2.757,25.284-5.979,42.674-5.979          c4.634,0,9.001,0.242,12.986,0.72l0.436,0.053c6.652,0.79,14.19,1.686,17.681,8.013c1.141,2.054,1.674,4.385,1.54,6.734          c-0.368,5.85-4.813,10.838-10.571,11.862C359.917,102.786,355.787,103.106,351.207,103.106z"/>
							</g>
						</g>
						<g style="opacity:0.25;">
							<g>
								<path style="fill:#000E3F;" d="M363.203,100.568c-17.612,3.113-47.9-1.886-67.034-11.164          c-1.056-0.503-2.093-1.038-3.077-1.584c-0.725-0.395-1.046-1.261-0.807-2.022l69.836,3.842l10.326,0.561          C372.135,95.14,368.46,99.63,363.203,100.568z"/>
							</g>
						</g>
						<g style="opacity:0.5;">
							<g>
								<path style="fill:#FFFFFF;" d="M347.037,84.397c-2.804-0.255-8.301-0.428-11.552-0.645          c-3.198-0.168-4.205-0.347-3.999-0.318c-0.732-0.1-1.245-0.775-1.145-1.507c0.379-2.781,23.451-5.575,32.858,2.537          c0.991,0.856,0.137,2.47-1.128,2.132C362.071,86.595,351.812,84.679,347.037,84.397z"/>
							</g>
						</g>
					</g>
					<g>
						<g>
							<path style="fill:#000E3F;" d="M373.925,82.772c-3.883-7.042-12.205-8.033-18.892-8.829l-0.442-0.053         c-4.046-0.484-8.478-0.73-13.174-0.73c-17.575,0-34.237,3.261-43.166,6.053c-0.252,0.078-0.564,0.164-0.908,0.26         c-1.325,0.369-3.14,0.874-4.683,1.68c-1.358,0.691-2.38,1.603-3.013,2.697c-0.197,0.327-0.304,0.613-0.352,0.746         c-0.042,0.099-0.053,0.135-0.086,0.239c-0.705,2.25,0.281,4.697,2.345,5.819c1.04,0.577,2.135,1.14,3.23,1.662         c15.29,7.415,37.975,12.403,56.428,12.403c4.673,0,8.897-0.328,12.554-0.974c6.482-1.157,11.485-6.766,11.901-13.34         C375.816,87.728,375.214,85.096,373.925,82.772z M363.203,100.568c-3.547,0.627-7.612,0.925-11.993,0.925         c-17.37,0-39.761-4.679-55.041-12.089c-1.056-0.503-2.093-1.038-3.078-1.584c-0.01-0.006-0.014-0.015-0.024-0.02         l60.082,2.961c0.027,0,0.053,0.003,0.082,0.003c0.853,0,1.565-0.671,1.609-1.533c0.044-0.889-0.642-1.647-1.531-1.691         l-60.04-2.959c0.264-0.204,0.55-0.4,0.883-0.569c1.624-0.849,3.843-1.344,5.061-1.72c9.99-3.124,26.532-5.906,42.2-5.906         c4.388,0,8.705,0.217,12.794,0.707c6.391,0.764,13.736,1.513,16.897,7.244c1.05,1.893,1.452,3.915,1.342,5.865         C372.134,95.14,368.461,99.63,363.203,100.568z"/>
						</g>
					</g>
				</g>
				<g>
					<g>
						<g>
							<g>
								<path style="fill:#00B0C4;" d="M322.846,152.804c-2.815,0-5.499-1.039-7.56-2.924          c-11.571-10.627-23.995-34.007-27.694-52.121c-0.211-0.998-0.392-2.013-0.535-2.996c-0.225-1.429,0.613-2.842,1.996-3.345          c0.249-0.078,0.463-0.145,0.737-0.16c0.027-0.012,0.211-0.024,0.4-0.024c0.72,0,1.47,0.191,2.292,0.586          c1.223,0.569,2.451,1.495,3.348,2.173l0.681,0.504c10.033,7.085,24.424,21.416,32.51,35.094l0.191,0.322          c2.795,4.726,6.279,10.607,3.747,16.365c-0.816,1.875-2.148,3.481-3.849,4.636          C327.259,152.153,325.096,152.804,322.846,152.804z"/>
							</g>
						</g>
						<g style="opacity:0.25;">
							<g>
								<path style="fill:#000E3F;" d="M316.375,148.691c-11.247-10.329-23.57-33.463-27.203-51.254          c-0.207-0.978-0.381-1.958-0.522-2.909c-0.109-0.696,0.313-1.363,0.953-1.596l33.622,49.355l4.976,7.294          C324.69,151.933,319.738,151.771,316.375,148.691z"/>
							</g>
						</g>
						<g style="opacity:0.5;">
							<g>
								<path style="fill:#FFFFFF;" d="M318.956,129.339c-1.282-2.034-4.016-5.852-5.555-8.169          c-1.545-2.256-1.947-3.032-1.859-2.877c-0.312-0.548-0.12-1.246,0.428-1.558c2.082-1.186,15.946,13.013,15.325,23.6          c-0.066,1.117-1.604,1.374-2.031,0.341C325.264,140.675,321.241,132.724,318.956,129.339z"/>
							</g>
						</g>
					</g>
					<g>
						<g>
							<path style="fill:#000E3F;" d="M330.597,129.095l-0.191-0.324c-8.201-13.874-22.793-28.408-32.969-35.592         c-0.181-0.127-0.397-0.292-0.637-0.473c-0.954-0.72-2.261-1.707-3.654-2.356c-1-0.479-2.007-0.729-2.96-0.729         c0,0,0,0-0.001,0c-0.232,0-0.463,0.014-0.688,0.044c-0.367,0.041-0.646,0.127-0.774,0.167         c-0.097,0.025-0.128,0.038-0.222,0.071c-2.105,0.766-3.382,2.921-3.037,5.126c0.149,1.014,0.337,2.059,0.552,3.078         c3.752,18.37,16.394,42.139,28.176,52.96c2.362,2.162,5.432,3.351,8.651,3.351c2.571,0,5.044-0.745,7.151-2.155         c1.969-1.337,3.5-3.181,4.444-5.344C337.297,140.411,333.582,134.137,330.597,129.095z M331.483,145.629         c-0.739,1.695-1.902,3.017-3.281,3.953c-1.585,1.061-3.464,1.61-5.357,1.61c-2.301,0-4.624-0.812-6.47-2.501         c-11.247-10.329-23.569-33.463-27.203-51.253c-0.169-0.802-0.303-1.598-0.429-2.387l28.873,41.868         c0.312,0.453,0.816,0.698,1.33,0.698c0.315,0,0.635-0.095,0.913-0.286c0.731-0.506,0.918-1.509,0.412-2.243L291.31,93.092         c0.157,0.058,0.313,0.104,0.474,0.181c1.418,0.661,2.905,1.909,3.793,2.54c9.345,6.598,23.876,20.763,32.053,34.6         C330.428,135.144,333.73,140.513,331.483,145.629z"/>
						</g>
					</g>
				</g>
				<g>
					<g>
						<g>
							<g>
								<path style="fill:#00B0C4;" d="M279.22,79.825c-0.756,0-1.495-0.259-2.076-0.729c-0.899-0.717-1.817-1.49-2.711-2.296          c-16.135-14.342-32.496-40.591-36.458-58.506c-1.255-5.714,1.649-11.731,6.906-14.306c1.71-0.824,3.52-1.238,5.39-1.238          c0.47,0,0.949,0.027,1.434,0.082c7.173,0.799,10.886,7.42,14.161,13.257l0.218,0.392          c9.096,16.188,15.156,39.138,16.443,53.441c0.027,0.281,0.068,0.618,0.114,0.988c0.157,1.296,0.373,3.069,0.235,4.634          c-0.102,1.269-0.448,2.267-1.059,3.035c-0.051,0.065-0.271,0.305-0.332,0.361C280.768,79.549,280.005,79.825,279.22,79.825          L279.22,79.825z"/>
							</g>
						</g>
						<g style="opacity:0.25;">
							<g>
								<path style="fill:#000E3F;" d="M239.549,17.943c3.864,17.463,20.072,43.532,35.966,57.66          c0.869,0.783,1.76,1.536,2.641,2.237c0.642,0.519,1.565,0.484,2.177-0.029l-30.274-63.05l-4.469-9.325          C241.146,7.614,238.403,12.727,239.549,17.943z"/>
							</g>
						</g>
						<g style="opacity:0.5;">
							<g>
								<path style="fill:#FFFFFF;" d="M260.675,26.691c1.308,2.493,3.572,7.506,5.016,10.426c1.379,2.89,1.929,3.753,1.824,3.573          c0.372,0.639,1.192,0.854,1.831,0.481c2.425-1.414-3.824-23.799-14.917-29.386c-1.17-0.588-2.334,0.819-1.538,1.858          C252.891,13.642,258.586,22.387,260.675,26.691z"/>
							</g>
						</g>
					</g>
					<g>
						<g>
							<path style="fill:#000E3F;" d="M284.241,70.724c-0.044-0.356-0.083-0.679-0.109-0.954         c-1.299-14.464-7.433-37.69-16.641-54.08l-0.214-0.383c-3.295-5.875-7.397-13.186-15.396-14.081         c-0.528-0.06-1.072-0.091-1.608-0.091c-2.116,0-4.163,0.469-6.084,1.396c-5.932,2.908-9.201,9.677-7.789,16.103         c4.027,18.202,20.613,44.838,36.973,59.379c0.88,0.793,1.819,1.589,2.775,2.35c0.85,0.687,1.948,1.074,3.072,1.074         c1.164,0,2.294-0.409,3.183-1.152c0.08-0.067,0.159-0.139,0.232-0.214c0.128-0.118,0.314-0.302,0.505-0.562         c0.769-1.003,1.221-2.3,1.343-3.853C284.634,73.956,284.407,72.088,284.241,70.724z M275.515,75.603         c-15.895-14.128-32.103-40.198-35.967-57.66c-1.146-5.216,1.597-10.329,6.041-12.507c1.413-0.682,2.998-1.075,4.682-1.075         c0.412,0,0.828,0.023,1.25,0.071c6.504,0.727,10.007,7.225,13.158,12.838c9.219,16.411,15.043,39.453,16.242,52.798         c0.118,1.27,0.509,3.509,0.346,5.335c-0.029,0.372-0.1,0.709-0.188,1.032l-25.708-54.336         c-0.38-0.804-1.339-1.138-2.148-0.768c-0.804,0.383-1.148,1.342-0.768,2.148l25.728,54.376         c-0.008-0.007-0.019-0.008-0.028-0.015C277.275,77.139,276.383,76.386,275.515,75.603z"/>
						</g>
					</g>
				</g>
				<g>
					<g>
						<g>
							<g>
								<path style="fill:#00B0C4;" d="M252.768,88.3c-15.372,0-30.865-2.766-40.441-7.216c-4.622-2.158-7.25-7.356-6.25-12.363          c0.419-2.025,1.39-3.869,2.817-5.346c2.231-2.328,5.344-3.464,9.515-3.464c2.362,0,4.738,0.342,7.037,0.669l0.368,0.053          c15.733,2.236,34.479,10.045,44.866,16.607l0.724,0.436c0.969,0.569,2.294,1.349,3.301,2.27          c0.841,0.756,1.364,1.548,1.579,2.408c0.022,0.085,0.073,0.378,0.08,0.465c0.078,1.599-0.908,2.917-2.333,3.258          c-0.947,0.24-1.952,0.46-2.97,0.649c-5.315,1.03-11.644,1.575-18.294,1.575H252.768z"/>
							</g>
						</g>
						<g style="opacity:0.25;">
							<g>
								<path style="fill:#000E3F;" d="M213.007,79.622c13.847,6.439,39.936,8.97,57.762,5.52c0.982-0.183,1.955-0.397,2.887-0.631          c0.685-0.166,1.14-0.811,1.11-1.492l-58.465-12.176l-8.643-1.806C206.831,73.18,208.876,77.693,213.007,79.622z"/>
							</g>
						</g>
						<g style="opacity:0.5;">
							<g>
								<path style="fill:#FFFFFF;" d="M229.9,69.832c2.369,0.406,6.943,1.471,9.672,2.006c2.676,0.564,3.546,0.638,3.369,0.616          c0.626,0.079,1.197-0.366,1.276-0.992c0.299-2.378-18.124-9.753-27.668-5.127c-1.006,0.489-0.656,2.008,0.462,2.007          C217.012,68.342,225.897,69.016,229.9,69.832z"/>
							</g>
						</g>
					</g>
					<g>
						<g>
							<path style="fill:#000E3F;" d="M277.962,82.586c-0.006-0.083-0.033-0.366-0.133-0.715c-0.306-1.129-0.997-2.184-2.054-3.134         c-1.112-1.019-2.525-1.85-3.556-2.456c-0.258-0.151-0.492-0.288-0.686-0.41c-10.524-6.647-29.535-14.568-45.492-16.834         l-0.369-0.053c-2.243-0.32-4.787-0.684-7.261-0.684c-4.633,0-8.127,1.296-10.682,3.962c-1.63,1.689-2.748,3.809-3.227,6.122         c-1.148,5.748,1.858,11.693,7.142,14.16c9.778,4.546,25.534,7.369,41.124,7.369c6.849,0,13.112-0.54,18.615-1.605         c1.009-0.188,2.046-0.415,3.058-0.669c2.142-0.52,3.643-2.523,3.548-4.757C277.985,82.783,277.975,82.684,277.962,82.586z          M270.77,85.142c-5.429,1.051-11.621,1.547-18.003,1.547c-14.575,0-30.129-2.588-39.76-7.067         c-4.131-1.929-6.176-6.441-5.348-10.585c0.338-1.633,1.113-3.213,2.397-4.544c2.211-2.306,5.19-2.968,8.355-2.968         c2.372,0,4.847,0.372,7.177,0.704c15.913,2.26,34.561,10.264,44.233,16.374c0.923,0.578,2.644,1.475,3.798,2.532         c0.131,0.117,0.219,0.243,0.331,0.364l-49.866-10.683c-0.846-0.172-1.727,0.368-1.914,1.24         c-0.187,0.87,0.368,1.727,1.24,1.914l49.729,10.653C272.362,84.809,271.576,84.991,270.77,85.142z"/>
						</g>
					</g>
				</g>
			</g>
			<g>
				<g>
					<g>
						<g>
							<path style="fill:#FC09B2;" d="M301.593,70.981c-0.447,2.406-1.24,5.16-2.331,8.186v0.025         c-0.372,0.992-0.769,1.984-1.191,3.026c-0.348,0.917-0.745,1.836-1.166,2.778c-1.314,2.977-2.878,6.127-4.639,9.401         c-0.521,0.968-1.042,1.96-1.612,2.952h-0.024c-2.084,3.746-4.465,7.64-7.069,11.534c-0.05,0.05-0.075,0.075-0.099,0.124         c-0.596,0.893-1.216,1.786-1.811,2.654c-2.754,3.994-5.557,7.714-8.335,11.112c-0.768,0.943-1.537,1.86-2.282,2.729         l-0.024,0.025c-3.472,4.044-6.871,7.541-10.021,10.319c-0.992,0.893-1.96,1.687-2.878,2.431h-0.024v0.026h-0.025         c-5.482,4.291-9.972,6.052-12.452,4.39c-2.505-1.662-2.554-6.524-0.644-13.296c0.199-0.744,0.446-1.537,0.694-2.331         c0.099-0.348,0.224-0.694,0.348-1.042c1.389-4.018,3.349-8.583,5.829-13.444c0.495-0.968,0.992-1.935,1.538-2.927         c2.083-3.919,4.464-7.987,7.118-12.155c0.596-0.868,1.166-1.761,1.761-2.653c2.655-3.969,5.358-7.69,8.062-11.138         c0.671-0.843,1.315-1.662,1.985-2.455c3.125-3.845,6.201-7.243,9.153-10.145c0.744-0.744,1.488-1.439,2.208-2.133         c2.431-2.207,4.713-4.043,6.796-5.432c1.091,1.96,2.679,3.696,4.689,5.036C297.152,69.914,299.359,70.708,301.593,70.981z"/>
						</g>
					</g>
					<g>
						<g>
							<g>
								<path style="fill:#FF8EDE;" d="M299.261,79.166v0.025c-0.372,0.992-0.769,1.984-1.191,3.026          c-1.067,0.174-2.754-0.025-5.259-0.918c-5.607-2.084-10.666-7.144-11.361-10.195c0.744-0.744,1.488-1.439,2.208-2.133          c3.298,0.769,10.17,5.557,12.03,7.02C297.946,77.802,298.988,78.869,299.261,79.166z"/>
							</g>
						</g>
						<g>
							<g>
								<path style="fill:#FF8EDE;" d="M292.265,94.396c-0.521,0.968-1.042,1.96-1.612,2.952h-0.024          c-2.729-0.099-5.656-0.942-8.409-2.331c-5.134-2.53-9.798-6.747-11.907-11.311c0.671-0.843,1.315-1.662,1.985-2.455          c0.049,0,0.123,0.024,0.173,0.05c0,0,3.647,2.058,5.235,3.025c0.148,0.099,7.986,5.259,9.401,6.201l0.198,0.125          c3.498,2.455,4.664,3.448,4.812,3.596C292.166,94.273,292.216,94.347,292.265,94.396z"/>
							</g>
						</g>
						<g>
							<g>
								<path style="fill:#FF8EDE;" d="M283.56,108.882c-0.05,0.05-0.075,0.075-0.099,0.124c-0.596,0.893-1.216,1.786-1.811,2.654          h-0.075c-2.331,0-6.25-1.067-10.194-3.249c-4.267-2.356-8.557-5.978-10.889-10.914c0.596-0.868,1.166-1.761,1.761-2.653          c0.125,0.024,0.224,0.049,0.348,0.123c2.804,1.464,8.385,5.16,13.048,8.31c3.919,2.679,7.193,4.986,7.64,5.308          C283.387,108.684,283.485,108.783,283.56,108.882z"/>
							</g>
						</g>
						<g>
							<g>
								<path style="fill:#FF8EDE;" d="M273.314,122.772c-0.768,0.943-1.537,1.86-2.282,2.729l-0.024,0.025          c-2.927-0.05-8.061-1.935-12.478-5.283c-2.727-2.034-5.184-4.614-6.696-7.665c0.495-0.968,0.992-1.935,1.538-2.927          c0.124,0,0.273,0.05,0.422,0.124c0.123,0.05,5.035,2.803,10.144,6.102c3.325,2.133,6.747,4.49,9.029,6.498l0.024,0.025          C273.117,122.525,273.216,122.649,273.314,122.772z"/>
							</g>
						</g>
						<g>
							<g>
								<path style="fill:#FF8EDE;" d="M260.987,135.845c-0.992,0.893-1.96,1.687-2.878,2.431h-0.024v0.026h-0.025          c-5.085-0.472-10.839-4.415-13.096-8.905c0.199-0.744,0.446-1.537,0.694-2.331c0.099-0.348,0.224-0.694,0.348-1.042          c0.199,0,0.421,0.025,0.644,0.074c0.125,0.05,0.423,0.174,0.918,0.348c1.713,0.595,5.433,2.034,9.947,5.755          c2.083,1.761,3.026,2.927,3.125,3.101C260.789,135.473,260.888,135.647,260.987,135.845z"/>
							</g>
						</g>
						<g>
							<g>
								<path style="fill:#FF8EDE;" d="M315.955,64.433c-3.249,4.886-8.906,7.243-14.362,6.548c-2.233-0.272-4.44-1.066-6.449-2.406          c-2.009-1.34-3.597-3.076-4.689-5.036c-2.728-4.787-2.703-10.889,0.546-15.775c4.613-6.896,13.939-8.756,20.811-4.143          C318.708,48.21,320.568,57.537,315.955,64.433z"/>
							</g>
						</g>
					</g>
					<g style="opacity:0.25;">
						<g>
							<g>
								<path style="fill:#000E3F;" d="M292.259,94.391c-0.038-0.048-0.091-0.107-0.139-0.139c-0.154-0.15-1.311-1.154-4.82-3.592          l-0.192-0.128c3.455-2.713,6.814-4.448,9.788-5.539C295.573,87.974,294.023,91.127,292.259,94.391z"/>
							</g>
						</g>
						<g>
							<g>
								<path style="fill:#000E3F;" d="M283.555,108.87c-0.075-0.096-0.176-0.186-0.278-0.278c-0.426-0.331-3.717-2.646-7.631-5.307          c0.706-0.917,1.395-1.844,2.068-2.784c1.475-2.069,2.971-3.892,4.499-5.486c2.757,1.38,5.686,2.226,8.413,2.335          C288.531,101.111,286.164,104.967,283.555,108.87z"/>
							</g>
						</g>
						<g>
							<g>
								<path style="fill:#000E3F;" d="M281.642,111.665c-2.768,4.005-5.553,7.721-8.332,11.118          c-0.096-0.134-0.192-0.267-0.325-0.379l-0.021-0.038c-2.271-2.004-5.695-4.361-9.017-6.488          c2.532-2.266,5.042-4.777,7.437-7.458C275.372,110.622,279.331,111.694,281.642,111.665z"/>
							</g>
						</g>
						<g>
							<g>
								<path style="fill:#000E3F;" d="M271.012,125.528c-3.494,4.052-6.892,7.544-10.038,10.348          c-0.08-0.193-0.176-0.396-0.325-0.587c-0.117-0.171-1.039-1.319-3.124-3.083c-4.526-3.719-8.255-5.169-9.956-5.774          c3.458-1.299,7.196-3.429,10.962-6.19C262.956,123.593,268.088,125.472,271.012,125.528z"/>
							</g>
						</g>
						<g>
							<g>
								<path style="fill:#000E3F;" d="M258.085,138.295c-5.485,4.296-9.991,6.052-12.47,4.395          c-2.497-1.668-2.56-6.524-0.658-13.283C247.22,133.881,253.005,137.863,258.085,138.295z"/>
							</g>
						</g>
					</g>
					<g style="opacity:0.5;">
						<g>
							<g>
								<path style="fill:#FC09B2;" d="M290.628,97.351c-2.727-0.109-5.656-0.956-8.413-2.335c1.624-1.738,3.27-3.231,4.893-4.483          l0.192,0.128c3.509,2.437,4.666,3.442,4.82,3.592c0.048,0.032,0.101,0.091,0.139,0.139          C291.744,95.367,291.194,96.364,290.628,97.351z"/>
							</g>
						</g>
						<g>
							<g>
								<path style="fill:#FC09B2;" d="M260.975,135.876l-0.011,0.016c-0.994,0.863-1.945,1.662-2.869,2.387l-0.011,0.016          c-5.079-0.432-10.865-4.414-13.129-8.888c0.209-0.763,0.455-1.547,0.712-2.347c0.629-0.181,1.254-0.389,1.901-0.627          c1.701,0.604,5.43,2.055,9.956,5.774c2.085,1.764,3.007,2.912,3.124,3.083C260.799,135.48,260.895,135.683,260.975,135.876z          "/>
							</g>
						</g>
						<g>
							<g>
								<path style="fill:#FC09B2;" d="M273.31,122.782c-0.769,0.943-1.533,1.845-2.287,2.73l-0.011,0.016          c-2.924-0.056-8.056-1.935-12.482-5.286c1.806-1.316,3.611-2.771,5.416-4.365c3.322,2.127,6.746,4.484,9.017,6.488          l0.021,0.038C273.118,122.515,273.214,122.649,273.31,122.782z"/>
							</g>
						</g>
						<g>
							<g>
								<path style="fill:#FC09B2;" d="M283.555,108.87l-0.096,0.144c-0.599,0.896-1.187,1.776-1.806,2.634l-0.011,0.016          c-2.311,0.029-6.27-1.042-10.259-3.245c1.475-1.652,2.895-3.364,4.264-5.134c3.914,2.662,7.205,4.976,7.631,5.307          C283.379,108.684,283.481,108.774,283.555,108.87z"/>
							</g>
						</g>
					</g>
				</g>
				<g>
					<g>
						<g>
							<path style="fill:#000E3F;" d="M310.621,56.892c-1.016-0.67-2.381-0.397-3.05,0.62c-0.695,1.017-0.423,2.381,0.595,3.051         c1.017,0.695,2.381,0.422,3.075-0.595C311.912,58.95,311.638,57.562,310.621,56.892z"/>
						</g>
					</g>
					<g>
						<g>
							<path style="fill:#000E3F;" d="M297.55,53.469c1.016,0.695,2.405,0.422,3.075-0.595c0.67-1.017,0.397-2.381-0.62-3.076         c-1.017-0.67-2.381-0.397-3.051,0.62C296.259,51.435,296.532,52.799,297.55,53.469z"/>
						</g>
					</g>
					<g>
						<g>
							<path style="fill:#000E3F;" d="M303.032,59.695c-0.274,0.446-0.695,0.794-1.141,0.968c-0.397,0.148-0.844,0.148-1.216-0.05         c-0.421-0.248-0.596-0.744-0.67-0.993c-0.025-0.099-0.025-0.173-0.025-0.272c-0.074-0.521,0.051-1.042,0.348-1.464         c0.497-0.744,0.298-1.736-0.446-2.232c-0.745-0.496-1.737-0.298-2.232,0.446c-0.596,0.893-0.918,1.91-0.918,2.952         c0,0.447,0.05,0.869,0.148,1.29c0.15,0.695,0.447,1.315,0.844,1.836c0.348,0.496,0.819,0.893,1.34,1.215         c0.322,0.199,0.694,0.348,1.042,0.447c0.397,0.123,0.819,0.173,1.215,0.173c0.695,0,1.389-0.149,2.035-0.471         c0.918-0.397,1.737-1.091,2.357-2.033c0.495-0.745,0.297-1.762-0.447-2.258C304.544,58.777,303.527,58.976,303.032,59.695z"/>
						</g>
					</g>
					<g>
						<g>
							<path style="fill:#000E3F;" d="M337.609,39.033c-2.705-1.613-9.773-3.82-21.382,6.374c-1.017-1.191-2.182-2.232-3.498-3.125         c-1.314-0.893-2.753-1.588-4.242-2.059c4.986-14.635,0.224-20.315-2.307-22.175c-3.968-2.927-9.202-2.133-11.955,0.347         c-2.828,2.505-4.266,7.392-1.687,10.914c2.407,3.25,6.45,3.324,9.005,1.488c2.431-1.786,2.927-4.713,1.19-7.144         c-0.521-0.719-1.514-0.893-2.257-0.372c-0.72,0.521-0.893,1.538-0.372,2.257c0.942,1.314,0.123,2.232-0.471,2.654         c-1.017,0.72-3.051,1.141-4.49-0.793c-1.463-1.985-0.546-5.011,1.24-6.598c1.761-1.588,5.283-2.083,7.888-0.174         c3.894,2.878,4.216,9.774,1.016,18.951c-1.662-0.199-3.349-0.124-5.035,0.223c-4.366,0.868-8.111,3.373-10.592,7.069         c-3.325,4.961-3.597,11.088-1.29,16.148c-1.687,1.215-3.324,2.555-4.812,3.894c-7.268,6.449-15.304,16.048-22.648,27.037         c-7.738,11.608-13.716,23.193-16.767,32.618c-3.051,9.302-2.852,15.18,0.57,17.462c0.918,0.62,1.96,0.893,3.101,0.893         c4.366,0,9.996-4.092,14.336-7.962c7.268-6.449,15.305-16.049,22.648-27.062c5.506-8.211,10.194-16.594,13.567-24.259         c1.588-3.597,3.448-8.409,4.49-12.948c0.199,0.025,0.397,0.025,0.596,0.025c5.382,0,10.641-2.605,13.841-7.392         c2.48-3.696,3.348-8.111,2.48-12.477c-0.323-1.686-0.894-3.274-1.712-4.737c7.268-6.449,13.742-8.781,17.884-6.3         c2.778,1.662,3.647,5.11,2.878,7.342c-0.793,2.257-3.224,4.266-5.631,3.672c-2.331-0.571-2.753-2.63-2.455-3.87         c0.173-0.695,0.694-1.811,2.282-1.439c0.868,0.174,1.711-0.348,1.934-1.215c0.199-0.868-0.346-1.736-1.215-1.935         c-2.902-0.645-5.432,0.918-6.127,3.845c-0.72,3.051,0.868,6.772,4.812,7.739c0.546,0.149,1.092,0.199,1.638,0.199         c3.597,0,6.722-2.828,7.813-5.929C343.091,46.722,341.825,41.587,337.609,39.033z M295.416,84.351         c-3.299,7.465-7.913,15.701-13.295,23.762c-7.193,10.79-15.056,20.166-22.101,26.441c-7.491,6.673-11.882,7.888-13.518,6.797         c-1.514-1.017-2.109-5.159,0.694-13.791c2.952-9.004,8.93-20.613,16.395-31.825c7.219-10.765,15.057-20.141,22.101-26.417         c1.588-1.389,3.027-2.555,4.317-3.498c1.116,1.563,2.554,2.952,4.242,4.093c1.711,1.141,3.522,1.91,5.407,2.356         C298.889,75.52,297.524,79.538,295.416,84.351z M314.615,63.539c-2.58,3.845-6.821,5.953-11.162,5.953         c-1.067,0-2.134-0.123-3.176-0.397c-1.463-0.347-2.902-0.967-4.241-1.86c-1.314-0.868-2.455-1.96-3.324-3.2         c-0.67-0.868-1.191-1.786-1.588-2.803c-0.348-0.794-0.595-1.637-0.769-2.53c-0.72-3.497,0-7.07,1.985-10.046         c1.984-2.976,5.011-5.011,8.533-5.705c0.868-0.174,1.761-0.247,2.629-0.247c0.198,0,0.396,0,0.595,0.025         c1.091,0.025,2.182,0.223,3.25,0.546c0,0,0,0,0.025,0c1.24,0.372,2.431,0.942,3.546,1.686         c1.141,0.769,2.134,1.662,2.902,2.679c0.745,0.868,1.339,1.786,1.786,2.778C317.541,54.511,317.318,59.497,314.615,63.539z"/>
						</g>
					</g>
				</g>
			</g>
		</g>
		<g>
			<g>
				<g>
					<path style="fill:#000E3F;" d="M208.11,139.082c1.851,0.046,3.675,0.455,5.416,1.218c0.211,0.092,0.431,0.136,0.647,0.136       c0.62,0,1.211-0.361,1.478-0.966c0.356-0.816-0.014-1.766-0.831-2.124c-2.129-0.93-4.36-1.432-6.632-1.485       c-0.012-0.003-0.027-0.003-0.039-0.003c-0.872,0-1.591,0.698-1.611,1.574C206.516,138.321,207.219,139.06,208.11,139.082z"/>
				</g>
			</g>
			<g>
				<g>
					<path style="fill:#000E3F;" d="M201.466,211.18c-0.933-0.494-1.875-1.051-2.825-1.671c-2.338-1.529-4.556-3.358-6.598-5.436       c-0.63-0.635-1.647-0.644-2.282-0.02c-0.635,0.625-0.642,1.645-0.02,2.282c2.204,2.24,4.605,4.217,7.134,5.872       c1.015,0.664,2.052,1.279,3.084,1.822c0.24,0.129,0.499,0.189,0.751,0.189c0.579,0,1.138-0.312,1.427-0.86       C202.553,212.57,202.253,211.594,201.466,211.18z"/>
				</g>
			</g>
			<g>
				<g>
					<path style="fill:#000E3F;" d="M256.123,209.993c-2.175,2.58-4.333,5.404-6.421,8.137l-1.252,1.637       c-0.543,0.707-0.409,1.718,0.298,2.26c0.293,0.225,0.637,0.334,0.981,0.334c0.482,0,0.962-0.218,1.279-0.632l1.257-1.642       c2.158-2.827,4.198-5.496,6.325-8.016c0.574-0.681,0.487-1.698-0.194-2.272C257.717,209.228,256.7,209.31,256.123,209.993z"/>
				</g>
			</g>
			<g>
				<g>
					<path style="fill:#000E3F;" d="M240.722,229.231c-3.067,3.372-5.973,5.983-8.888,7.982c-0.734,0.504-0.921,1.509-0.417,2.243       c0.313,0.456,0.819,0.7,1.332,0.7c0.313,0,0.632-0.092,0.911-0.283c3.12-2.141,6.211-4.913,9.445-8.471       c0.601-0.659,0.552-1.679-0.106-2.277C242.34,228.529,241.323,228.577,240.722,229.231z"/>
				</g>
			</g>
			<g>
				<g>
					<path style="fill:#000E3F;" d="M236.333,180.585c0.271,0.008,0.549-0.055,0.807-0.193c0.782-0.422,1.076-1.4,0.654-2.184       c-1.968-3.653-4.868-7.052-8.385-9.83c-0.704-0.553-1.711-0.428-2.266,0.266c-0.55,0.699-0.431,1.713,0.266,2.266       c3.175,2.507,5.785,5.558,7.545,8.827C235.239,180.264,235.774,180.57,236.333,180.585z"/>
				</g>
			</g>
			<g>
				<g>
					<path style="fill:#000E3F;" d="M223.553,211.635c-3.188,1.788-6.639,2.691-10.273,2.691c-0.245,0.02-0.489,0-0.729-0.01       c-0.874-0.029-1.637,0.664-1.669,1.553c-0.034,0.889,0.661,1.637,1.553,1.669c0.24,0.01,0.482,0.015,0.717,0.015       c4.137-0.061,8.263-1.02,11.976-3.103c0.778-0.436,1.054-1.42,0.62-2.195C225.311,211.476,224.328,211.202,223.553,211.635z"/>
				</g>
			</g>
			<g>
				<g>
					<path style="fill:#000E3F;" d="M298.092,183.629c-4.057,0.913-8.098,2.216-12.01,3.878c-0.821,0.349-1.201,1.296-0.855,2.115       c0.262,0.615,0.857,0.983,1.485,0.983c0.211,0,0.424-0.041,0.63-0.128c3.735-1.587,7.589-2.832,11.458-3.704       c0.87-0.194,1.415-1.058,1.218-1.926C299.824,183.975,298.95,183.449,298.092,183.629z"/>
				</g>
			</g>
			<g>
				<g>
					<path style="fill:#000E3F;" d="M323.251,182.972c-4.145-0.724-8.401-1.03-12.613-0.918c-0.891,0.022-1.594,0.763-1.57,1.652       c0.022,0.877,0.739,1.572,1.611,1.572c0.012,0,0.027,0,0.041-0.002c4.038-0.097,8.045,0.184,11.974,0.874       c0.095,0.014,0.189,0.024,0.281,0.024c0.768,0,1.448-0.552,1.587-1.335C324.714,183.963,324.128,183.127,323.251,182.972z"/>
				</g>
			</g>
			<g>
				<g>
					<path style="fill:#000E3F;" d="M221.179,241.932c-3.735,0.86-7.374,1.296-10.823,1.296c-0.361,0.002-0.681-0.003-1.017-0.01       c-0.014-0.002-0.029-0.002-0.044-0.002c-0.87,0-1.587,0.695-1.611,1.57c-0.024,0.889,0.676,1.63,1.567,1.655       c0.308,0.01,0.618,0.014,0.925,0.014c3.767,0.01,7.689-0.448,11.724-1.378c0.87-0.201,1.41-1.066,1.211-1.933       C222.911,242.273,222.036,241.745,221.179,241.932z"/>
				</g>
			</g>
			<g>
				<g>
					<path style="fill:#000E3F;" d="M274.94,193.403c-3.484,2.231-6.86,4.786-10.036,7.596c-0.666,0.589-0.729,1.608-0.138,2.275       c0.317,0.361,0.761,0.545,1.206,0.545c0.38,0,0.761-0.133,1.068-0.407c3.05-2.698,6.293-5.152,9.638-7.291       c0.748-0.48,0.969-1.478,0.489-2.229C276.691,193.146,275.693,192.921,274.94,193.403z"/>
				</g>
			</g>
			<g>
				<g>
					<path style="fill:#000E3F;" d="M197.791,241.045c-3.682-1.378-7.044-3.41-9.99-6.041c-0.661-0.588-1.679-0.535-2.277,0.131       c-0.591,0.664-0.533,1.684,0.131,2.277c3.243,2.895,6.947,5.133,11.007,6.652c0.187,0.07,0.375,0.104,0.564,0.104       c0.654,0,1.267-0.4,1.509-1.049C199.048,242.285,198.627,241.355,197.791,241.045z"/>
				</g>
			</g>
			<g>
				<g>
					<path style="fill:#000E3F;" d="M177.633,173.312c0.048,0.005,0.099,0.007,0.148,0.007c0.823,0,1.526-0.63,1.604-1.468       c0.349-3.839,1.356-7.672,2.989-11.385c0.359-0.814-0.01-1.766-0.826-2.124c-0.807-0.366-1.766,0.012-2.124,0.826       c-1.776,4.033-2.868,8.202-3.251,12.393C176.092,172.447,176.746,173.23,177.633,173.312z"/>
				</g>
			</g>
			<g>
				<g>
					<path style="fill:#000E3F;" d="M187.397,150.976c0.463,0,0.923-0.201,1.243-0.584c2.679-3.236,5.705-5.973,8.752-7.914       c0.753-0.477,0.974-1.473,0.494-2.224c-0.472-0.753-1.478-0.979-2.224-0.494c-3.328,2.117-6.615,5.082-9.508,8.575       c-0.567,0.686-0.472,1.7,0.216,2.27C186.67,150.852,187.034,150.976,187.397,150.976z"/>
				</g>
			</g>
			<g>
				<g>
					<path style="fill:#000E3F;" d="M185.247,176.994c0.263,0.269,0.594,0.425,0.94,0.471c0.473,0.062,0.972-0.087,1.34-0.449       c2.824-2.769,6.074-4.998,9.665-6.623c0.811-0.367,1.171-1.321,0.804-2.132c-0.364-0.813-1.321-1.169-2.132-0.804       c-3.939,1.779-7.504,4.221-10.595,7.258C184.632,175.34,184.624,176.36,185.247,176.994z"/>
				</g>
			</g>
			<g>
				<g>
					<path style="fill:#000E3F;" d="M218.44,167.553c0.865,0.221,1.737-0.322,1.943-1.192c0.208-0.865-0.325-1.734-1.192-1.943       c-3.188-0.768-6.32-0.935-9.321-0.48c-1.25,0.194-2.461,0.431-3.641,0.715c-0.867,0.206-1.403,1.075-1.194,1.94       c0.174,0.741,0.836,1.24,1.565,1.24c0.126,0,0.249-0.015,0.376-0.046c1.097-0.259,2.226-0.482,3.384-0.661       C212.938,166.736,215.651,166.887,218.44,167.553z"/>
				</g>
			</g>
			<g>
				<g>
					<path style="fill:#000E3F;" d="M173.455,205.374c0.846-0.055,1.514-0.766,1.507-1.624c-0.036-4.044,0.482-7.998,1.54-11.749       c0.241-0.858-0.259-1.748-1.114-1.991c-0.857-0.224-1.748,0.257-1.991,1.115c-1.141,4.048-1.698,8.305-1.661,12.655       c0.009,0.89,0.737,1.605,1.628,1.599C173.395,205.376,173.424,205.376,173.455,205.374z"/>
				</g>
			</g>
			<g>
				<g>
					<path style="fill:#000E3F;" d="M231.818,203.734c-0.477,0.753-0.254,1.749,0.496,2.226c0.269,0.169,0.567,0.252,0.863,0.252       c0.535,0,1.056-0.266,1.364-0.748c2.43-3.827,3.842-8.108,4.084-12.373c0.048-0.889-0.63-1.652-1.519-1.703       c-0.836,0.041-1.652,0.63-1.703,1.519C235.194,196.627,233.954,200.372,231.818,203.734z"/>
				</g>
			</g>
			<g>
				<g>
					<path style="fill:#000E3F;" d="M181.741,183.527c-0.225-0.858-1.097-1.374-1.974-1.141c-0.86,0.23-1.371,1.112-1.141,1.974       c1.092,4.096,2.711,8.062,4.806,11.78c0.296,0.526,0.843,0.821,1.407,0.821c0.266,0,0.538-0.068,0.79-0.208       c0.775-0.438,1.049-1.422,0.613-2.197C184.28,191.075,182.766,187.364,181.741,183.527z"/>
				</g>
			</g>
			<g>
				<g>
					<path style="fill:#000E3F;" d="M176.38,214.702c-0.189-0.867-1.034-1.429-1.918-1.23c-0.87,0.189-1.422,1.049-1.23,1.918       c0.93,4.266,2.432,8.294,4.462,11.969c0.296,0.533,0.845,0.833,1.415,0.833c0.262,0,0.53-0.065,0.778-0.201       c0.78-0.431,1.061-1.412,0.632-2.192C178.638,222.398,177.245,218.663,176.38,214.702z"/>
				</g>
			</g>
			<g>
				<g>
					<path style="fill:#000E3F;" d="M341.445,189.118c-1.885-0.966-3.832-1.851-5.792-2.628c-0.819-0.325-1.763,0.077-2.093,0.906       c-0.327,0.826,0.078,1.763,0.906,2.093c1.863,0.739,3.716,1.579,5.506,2.497c0.235,0.121,0.487,0.179,0.734,0.179       c0.586,0,1.151-0.32,1.437-0.877C342.549,190.496,342.237,189.525,341.445,189.118z"/>
				</g>
			</g>
		</g>
	</g>
	<g>
		<g>
			<g>
				<g>
					<path style="fill:#FD8A02;" d="M108.03,434.029c-9.479,6.384-30.789,17.347-43.393,19.221       c-6.058,0.901-11.698-3.279-12.6-9.337c-0.825-5.546,2.613-10.744,7.849-12.272c12.292-3.603,36.398-2.534,47.453-0.75       C108.886,431.141,109.321,433.152,108.03,434.029z"/>
				</g>
			</g>
			<g>
				<g>
					<path style="fill:#FD8A02;" d="M106.426,412.014c-9.081,0.558-28.13-0.515-37.537-4.314c-4.521-1.825-6.706-6.97-4.88-11.491       c1.671-4.14,6.128-6.32,10.338-5.257c9.89,2.486,26.004,12.945,32.872,18.629C108.179,410.377,107.666,411.934,106.426,412.014       z"/>
				</g>
			</g>
			<g>
				<g>
					<path style="fill:#FD8A02;" d="M115.025,454.848c-8.447,3.379-25.208,12.495-32.087,19.951       c-3.306,3.583-3.082,9.168,0.502,12.475c3.281,3.028,8.241,3.093,11.593,0.331c7.878-6.477,17.971-22.822,21.749-30.897       C117.31,455.578,116.181,454.391,115.025,454.848z"/>
				</g>
			</g>
		</g>
		<g>
			<g>
				<g>
					<path style="fill:#FD8A02;" d="M416.302,295.972c10.588,4.3,33.696,10.649,46.417,9.893       c6.113-0.363,10.775-5.613,10.411-11.727c-0.333-5.598-4.765-9.977-10.204-10.397c-12.771-1-36.142,5.001-46.594,9.018       C414.87,293.321,414.858,295.379,416.302,295.972z"/>
				</g>
			</g>
			<g>
				<g>
					<path style="fill:#FD8A02;" d="M413.347,274.097c9.002-1.321,27.424-6.286,35.849-11.936c4.049-2.716,5.13-8.2,2.415-12.249       c-2.486-3.708-7.296-4.925-11.198-3.02c-9.168,4.466-22.789,18.013-28.342,24.987       C411.295,272.855,412.117,274.273,413.347,274.097z"/>
				</g>
			</g>
			<g>
				<g>
					<path style="fill:#FD8A02;" d="M413.735,317.784c8.961,1.571,27.238,7.048,35.503,12.93c3.972,2.828,4.9,8.34,2.073,12.312       c-2.589,3.637-7.43,4.72-11.278,2.706c-9.041-4.719-22.278-18.642-27.634-25.767       C411.648,318.968,412.51,317.574,413.735,317.784z"/>
				</g>
			</g>
		</g>
	</g>
</g>















</svg>
