<svg id="Capa_1" enable-background="new 0 0 512 512" height="512" viewBox="0 0 512 512" width="512" xmlns="http://www.w3.org/2000/svg"><g><g><g><g><g><g><g><g><circle cx="256" cy="223.005" fill="#ffbdbc" r="53.314"/></g></g></g></g></g></g><g><g><g><g><g><g><circle cx="404.772" cy="223.005" fill="#ffbdbc" r="53.314"/></g></g></g></g></g></g><g><g><g><g><g><g><circle cx="107.228" cy="223.005" fill="#ffbdbc" r="53.314"/></g></g></g></g></g></g></g><g fill="#020288"><path d="m478.473 22.633h-444.946c-18.487 0-33.527 15.04-33.527 33.526v399.682c0 18.486 15.04 33.526 33.527 33.526h444.945c18.487 0 33.527-15.04 33.527-33.526v-399.682c.001-18.486-15.039-33.526-33.526-33.526zm-458.473 33.526c0-7.458 6.068-13.526 13.527-13.526h444.945c7.459 0 13.527 6.068 13.527 13.526v50.505h-471.999zm472 399.682c0 7.458-6.068 13.526-13.527 13.526h-444.946c-7.459 0-13.527-6.068-13.527-13.526v-329.177h472z"/><path d="m444.843 64.648h-3.694c-5.522 0-10 4.478-10 10s4.478 10 10 10h3.694c5.522 0 10-4.478 10-10s-4.478-10-10-10z"/><path d="m382.794 64.648h-3.693c-5.522 0-10 4.478-10 10s4.478 10 10 10h3.693c5.522 0 10-4.478 10-10s-4.478-10-10-10z"/><path d="m320.746 64.648h-3.694c-5.522 0-10 4.478-10 10s4.478 10 10 10h3.694c5.522 0 10-4.478 10-10s-4.477-10-10-10z"/><path d="m137.468 64.648h-70.311c-5.522 0-10 4.478-10 10s4.478 10 10 10h70.311c5.522 0 10-4.478 10-10s-4.478-10-10-10z"/><path d="m94.612 233.005h2.615v2.616c0 5.522 4.478 10 10 10s10-4.478 10-10v-2.616h2.616c5.522 0 10-4.478 10-10s-4.478-10-10-10h-2.616v-2.615c0-5.522-4.478-10-10-10s-10 4.478-10 10v2.615h-2.615c-5.522 0-10 4.478-10 10s4.478 10 10 10z"/><path d="m243.385 233.005h2.615v2.616c0 5.522 4.478 10 10 10s10-4.478 10-10v-2.616h2.615c5.522 0 10-4.478 10-10s-4.478-10-10-10h-2.615v-2.615c0-5.522-4.478-10-10-10s-10 4.478-10 10v2.615h-2.615c-5.522 0-10 4.478-10 10s4.477 10 10 10z"/><path d="m392.156 233.005h2.616v2.616c0 5.522 4.478 10 10 10s10-4.478 10-10v-2.616h2.615c5.522 0 10-4.478 10-10s-4.478-10-10-10h-2.615v-2.615c0-5.522-4.478-10-10-10s-10 4.478-10 10v2.615h-2.616c-5.522 0-10 4.478-10 10s4.478 10 10 10z"/><path d="m53.914 358.149h105.612c5.522 0 10-4.478 10-10s-4.478-10-10-10h-105.612c-5.522 0-10 4.478-10 10s4.478 10 10 10z"/><path d="m53.914 402.787h105.612c5.522 0 10-4.478 10-10s-4.478-10-10-10h-105.612c-5.522 0-10 4.478-10 10s4.478 10 10 10z"/><path d="m203.193 358.149h105.613c5.522 0 10-4.478 10-10s-4.478-10-10-10h-105.613c-5.522 0-10 4.478-10 10s4.478 10 10 10z"/><path d="m203.193 402.787h105.613c5.522 0 10-4.478 10-10s-4.478-10-10-10h-105.613c-5.522 0-10 4.478-10 10s4.478 10 10 10z"/><path d="m351.966 358.149h105.612c5.522 0 10-4.478 10-10s-4.478-10-10-10h-105.612c-5.522 0-10 4.478-10 10s4.477 10 10 10z"/><path d="m351.966 402.787h105.612c5.522 0 10-4.478 10-10s-4.478-10-10-10h-105.612c-5.522 0-10 4.478-10 10s4.477 10 10 10z"/></g></g></svg>