<svg id="Capa_1" enable-background="new 0 0 512 512" height="512" viewBox="0 0 512 512" width="512" xmlns="http://www.w3.org/2000/svg"><g><g><g><g><g><g><g><path d="m440.971 257.168c-30.511 30.511-90.088 20.401-90.088 20.401s-10.11-59.578 20.401-90.088 90.088-20.401 90.088-20.401 10.11 59.577-20.401 90.088z" fill="#a4fcc4"/></g></g></g></g></g><g><g><g><g><g><g><path d="m236.85 55.93h38.3v363.697h-38.3z" fill="#a4fcc4" transform="matrix(-1 0 0 -1 512 475.557)"/></g></g></g></g></g><g><g><g><g><g><g><path d="m71.029 183.433c30.511 30.511 90.088 20.401 90.088 20.401s10.11-59.578-20.401-90.088-90.088-20.402-90.088-20.402-10.11 59.578 20.401 90.089z" fill="#a4fcc4"/></g></g></g></g></g></g></g></g><g><g><path d="m405.616 222.835c-3.906-3.904-10.236-3.904-14.143 0l-66.988 66.988v-266.661c0-12.771-10.389-23.162-23.161-23.162h-90.648c-12.771 0-23.161 10.391-23.161 23.162v192.926l-66.988-66.987c-3.906-3.904-10.236-3.904-14.143 0-3.905 3.905-3.905 10.237 0 14.143l81.131 81.13v175.254c0 .006.023.681.025.696.136 1.984.851 3.809 1.978 5.307 0 0 26.193 35.435 26.382 35.71l31.861 46.326c1.865 2.713 4.947 4.333 8.239 4.333s6.374-1.62 8.239-4.333l31.861-46.326c.19-.276 26.382-35.71 26.382-35.71 1.126-1.498 1.841-3.323 1.978-5.307.001-.015.024-.612.024-.678 0-.006 0-101.536 0-101.536l81.131-81.131c3.906-3.907 3.906-10.239.001-14.144zm-198.101-199.673c0-1.743 1.418-3.162 3.161-3.162h90.648c1.743 0 3.161 1.419 3.161 3.162v22.769h-96.971v-22.769zm96.97 42.769v304.275h-96.971v-304.275zm-48.485 418.423-12.847-18.68h25.693zm26.714-38.68h-53.428l-11.903-16.047h77.234zm-75.199-36.047v-19.421h96.971v19.421z" fill="#020288"/></g></g></g></svg>