<svg id="Capa_1" enable-background="new 0 0 512 512" height="512" viewBox="0 0 512 512" width="512" xmlns="http://www.w3.org/2000/svg"><g><g><g><g><g><g><g><path d="m360.234 251.564c0-57.484-46.667-104.084-104.234-104.084s-104.234 46.6-104.234 104.084c0 48.413 33.101 89.105 77.935 100.743v31.259h52.597v-31.259c44.835-11.638 77.936-52.331 77.936-100.743z" fill="#fff59b"/></g></g></g></g></g></g><g fill="#020288"><path d="m503.092 214.985-25.316-2.78c-5.754-28.733-17.312-56.401-33.758-80.816l15.866-19.655c3.221-3.99 2.901-9.771-.739-13.381l-44.309-43.946c-3.597-3.567-9.292-3.884-13.261-.731l-19.923 15.819c-24.644-16.353-52.574-27.836-81.586-33.545l-2.797-25.041c-.565-5.062-4.845-8.89-9.938-8.89h-62.663c-5.093 0-9.373 3.828-9.938 8.891l-2.796 25.04c-29.012 5.709-56.942 17.192-81.586 33.545l-19.923-15.819c-3.967-3.151-9.663-2.836-13.26.73l-44.31 43.946c-3.641 3.611-3.96 9.392-.739 13.382l15.867 19.656c-16.446 24.414-28.004 52.083-33.758 80.815l-25.316 2.78c-5.07.557-8.908 4.84-8.908 9.94v62.148c0 5.101 3.838 9.384 8.908 9.94l25.316 2.78c5.754 28.733 17.313 56.401 33.758 80.815l-15.867 19.656c-3.221 3.99-2.902 9.771.739 13.382l44.31 43.946c3.597 3.566 9.293 3.881 13.261.73l19.923-15.819c24.642 16.35 52.576 27.836 81.586 33.545l2.796 25.04c.565 5.063 4.845 8.891 9.938 8.891h62.663c5.094 0 9.373-3.828 9.938-8.89l2.797-25.041c29.01-5.709 56.944-17.195 81.586-33.545l19.923 15.819c3.967 3.149 9.662 2.839 13.261-.731l44.309-43.946c3.641-3.61 3.96-9.391.739-13.381l-15.866-19.655c16.446-24.415 28.004-52.083 33.758-80.816l25.316-2.78c5.07-.557 8.908-4.84 8.908-9.94v-62.148c-.001-5.1-3.839-9.383-8.909-9.94zm-11.092 63.127-23.817 2.616c-4.462.49-8.05 3.893-8.776 8.322-5.063 30.871-17.506 60.65-35.985 86.119-2.653 3.657-2.525 8.639.313 12.154l14.918 18.48-31.594 31.336-18.761-14.897c-3.491-2.772-8.396-2.897-12.028-.309-25.695 18.34-55.747 30.69-86.905 35.718-4.434.715-7.847 4.299-8.346 8.762l-2.632 23.567h-44.771l-2.632-23.566c-.498-4.464-3.911-8.048-8.345-8.763-31.158-5.027-61.209-17.378-86.905-35.718-3.631-2.593-8.537-2.464-12.028.309l-18.761 14.897-31.594-31.336 14.918-18.48c2.838-3.516 2.966-8.497.313-12.154-18.479-25.469-30.922-55.248-35.985-86.119-.727-4.43-4.315-7.832-8.776-8.322l-23.821-2.616v-44.225l23.817-2.616c4.461-.49 8.05-3.893 8.776-8.322 5.063-30.871 17.506-60.65 35.985-86.119 2.653-3.657 2.525-8.639-.313-12.154l-14.918-18.48 31.594-31.336 18.761 14.896c3.492 2.773 8.398 2.897 12.027.309 25.697-18.339 55.748-30.689 86.906-35.717 4.434-.715 7.847-4.299 8.345-8.763l2.632-23.566h44.771l2.632 23.567c.499 4.463 3.912 8.047 8.346 8.762 31.157 5.027 61.209 17.378 86.905 35.717 3.632 2.591 8.535 2.464 12.028-.309l18.761-14.896 31.594 31.336-14.918 18.48c-2.838 3.516-2.966 8.497-.313 12.154 18.479 25.469 30.923 55.248 35.985 86.119.727 4.43 4.314 7.832 8.776 8.322l23.821 2.617z"/><path d="m256 78.251c-98.776 0-179.136 79.738-179.136 177.749s80.36 177.748 179.136 177.748 179.137-79.737 179.137-177.748-80.361-177.749-179.137-177.749zm0 335.497c-87.748 0-159.136-70.766-159.136-157.748 0-86.983 71.388-157.749 159.136-157.749s159.137 70.766 159.137 157.749c0 86.982-71.389 157.748-159.137 157.748z"/><path d="m273.474 282.378-17.474 17.447-17.473-17.447c-3.908-3.901-10.24-3.897-14.142.01-3.902 3.908-3.898 10.24.01 14.143l24.539 24.503c1.952 1.949 4.509 2.924 7.066 2.924s5.114-.975 7.065-2.924l24.539-24.503c3.908-3.902 3.913-10.234.011-14.142-3.902-3.909-10.233-3.913-14.141-.011z"/></g></g></svg>