<?xml version="1.0" encoding="UTF-8"?>
<!-- Generator: Adobe Illustrator 25.3.1, SVG Export Plug-In . SVG Version: 6.00 Build 0)  -->
<svg xmlns="http://www.w3.org/2000/svg" xmlns:xlink="http://www.w3.org/1999/xlink" version="1.1" id="Capa_1" x="0px" y="0px" viewBox="0 0 512 512" style="enable-background:new 0 0 512 512;" xml:space="preserve" width="512" height="512">
<g>
	<g>
		<g>
			<g>
				<g>
					<path style="fill:#FFCF00;" d="M253.317,486.618c-92.358,0-176.967-11.833-220.805-30.88c-2.092-0.888-4.233-1.885-6.728-3.132       c-15.942-8.022-24.021-16.804-24.021-26.103c0-33.698,110.496-60.094,251.554-60.094c56.48,0,109.765,4.288,154.092,12.4       c13.457,2.45,25.916,5.247,37.032,8.312c27.568,7.592,60.431,20.588,60.431,39.382       C504.872,460.213,394.375,486.618,253.317,486.618z"/>
				</g>
			</g>
			<g>
				<g>
					<g>
						<g>
							<path style="fill:#FD8A02;" d="M29.654,426.51c0-13.603,22.802-24.778,67.776-33.212         c131.649-24.695,379.551-10.572,379.551,33.212C476.981,486.302,29.654,487.041,29.654,426.51z M253.318,389.603         c-133.124,0-214.866,21.496-214.866,36.907c0,15.412,81.742,36.908,214.866,36.908c133.124,0,214.866-21.496,214.866-36.908         C468.184,411.099,386.442,389.603,253.318,389.603z"/>
						</g>
					</g>
				</g>
				<g>
					<g>
						<g>
							<path style="fill:#FD8A02;" d="M93.712,426.51c0-23.6,135.154-25.086,159.606-25.086s159.605,1.486,159.605,25.086         c0,5.731-5.597,13.062-49.245,18.932C281.112,456.547,93.712,453.501,93.712,426.51z M102.801,426.51         c16.465,14.933,163.998,22.608,255.81,11.084c35.586-4.465,43.612-9.624,45.222-11.084         c-1.611-1.461-9.637-6.619-45.222-11.084C267.781,404.025,119.409,411.447,102.801,426.51z"/>
						</g>
					</g>
				</g>
			</g>
			<g>
				<g style="opacity:0.5;">
					<g>
						<g>
							<path style="fill:#FD8A02;" d="M503.11,426.502c0,32.234-111.834,58.355-249.792,58.355         c-95.206,0-177.943-12.418-220.103-30.735c5.257-2.902,9.281-4.901,10.359-5.186c35.167-9.183,70.244,1.641,105.521,4.686         c53.552,4.615,107.413,7.565,161.074,3.64c37.564-2.76,113.35-2.736,130.439-49.886c0.857-2.379,2.463-10.443,3.366-18.555         C480.853,398.979,503.11,412.134,503.11,426.502z"/>
						</g>
					</g>
				</g>
			</g>
		</g>
		<g>
			<g>
				<path style="fill:#000E3F;" d="M253.317,368.172c58.016,0,111.394,4.615,153.774,12.37c13.459,2.45,25.84,5.234,36.882,8.278      c36.879,10.158,59.137,23.313,59.137,37.682c0,32.234-111.833,58.355-249.793,58.355c-95.206,0-177.942-12.418-220.102-30.735      c-2.353-1-4.552-2.046-6.642-3.093c-14.801-7.446-23.048-15.772-23.048-24.527C3.526,394.292,115.358,368.172,253.317,368.172       M253.317,364.647c-66.982,0-129.996,6.101-177.432,17.179C41.267,389.91,0,404.223,0,426.503      c0,10.023,8.408,19.334,24.99,27.676c2.507,1.256,4.682,2.268,6.847,3.188c44.022,19.127,128.899,31.016,221.48,31.016      c66.988,0,130.002-6.102,177.435-17.182c34.617-8.087,75.884-22.406,75.884-44.698c0-10.984-10.71-27.028-61.727-41.08      c-11.177-3.082-23.689-5.891-37.186-8.348C363.294,368.944,309.9,364.647,253.317,364.647L253.317,364.647z"/>
			</g>
		</g>
	</g>
	<g>
		<g>
			<g>
				<g>
					<g>
						<g>
							<path style="fill:#FFFFFF;" d="M218.387,249.548c-17.117,0-31.042-13.924-31.042-31.042         c0-17.117,13.924-31.044,31.042-31.044s31.044,13.927,31.044,31.044C249.431,235.624,235.504,249.548,218.387,249.548z"/>
						</g>
					</g>
					<g style="opacity:0.18;">
						<g>
							<g>
								<path style="fill:#000E3F;" d="M247.653,218.518c0,16.166-13.072,29.243-29.24,29.243c-10.659,0-19.925-5.612-25.017-14.055          c25.494,9.243,48.884-19.54,34.545-42.834C239.418,194.785,247.653,205.699,247.653,218.518z"/>
							</g>
						</g>
						<g>
							<g>
								<path style="fill:#000E3F;" d="M209.649,219.712c-0.314,0.59-3.724,8.407-3.479,7.891c-1.262,2.663-5.091,2.578-6.245-0.127          c-6.52-15.339,7.594-32.254,23.368-29.542c2.615,0.45,3.521,3.75,1.513,5.479          C220.838,206.83,213.576,211.34,209.649,219.712z"/>
							</g>
						</g>
					</g>
				</g>
				<g>
					<g>
						<path style="fill:#000E3F;" d="M218.387,189.225c16.172,0,29.282,13.109,29.282,29.281c0,16.171-13.11,29.281-29.282,29.281        c-16.17,0-29.28-13.11-29.28-29.281C189.107,202.334,202.217,189.225,218.387,189.225 M218.387,185.7        c-18.088,0-32.806,14.717-32.806,32.806c0,18.09,14.717,32.806,32.806,32.806c18.091,0,32.808-14.716,32.808-32.806        C251.195,200.417,236.478,185.7,218.387,185.7L218.387,185.7z"/>
					</g>
				</g>
			</g>
			<g>
				<g>
					<g>
						<g>
							<path style="fill:#FFFFFF;" d="M398.922,261.782c-17.117,0-31.041-13.927-31.041-31.044s13.924-31.042,31.041-31.042         s31.042,13.924,31.042,31.042S416.039,261.782,398.922,261.782z"/>
						</g>
					</g>
					<g style="opacity:0.18;">
						<g>
							<g>
								<path style="fill:#000E3F;" d="M428.186,230.752c0,16.166-13.072,29.243-29.24,29.243c-10.659,0-19.925-5.612-25.017-14.055          c25.494,9.243,48.884-19.54,34.545-42.834C419.951,207.019,428.186,217.933,428.186,230.752z"/>
							</g>
						</g>
						<g>
							<g>
								<path style="fill:#000E3F;" d="M390.182,231.946c-0.314,0.59-3.724,8.407-3.479,7.891c-1.262,2.663-5.091,2.578-6.245-0.127          c-6.52-15.339,7.594-32.254,23.368-29.542c2.615,0.45,3.521,3.75,1.513,5.479          C401.372,219.063,394.11,223.574,390.182,231.946z"/>
							</g>
						</g>
					</g>
				</g>
				<g>
					<g>
						<path style="fill:#000E3F;" d="M398.922,201.458c16.17,0,29.28,13.109,29.28,29.281c0,16.171-13.11,29.281-29.28,29.281        c-16.172,0-29.28-13.109-29.28-29.281C369.642,214.568,382.749,201.458,398.922,201.458 M398.922,197.933        c-18.088,0-32.805,14.717-32.805,32.806c0,18.089,14.717,32.805,32.805,32.805c18.089,0,32.806-14.716,32.806-32.805        C431.727,212.65,417.01,197.933,398.922,197.933L398.922,197.933z"/>
					</g>
				</g>
			</g>
		</g>
		<g>
			<g>
				<g>
					<g>
						<g>
							<g>
								<g>
									<path style="fill:#FD8A02;" d="M345.07,90.732c-6.826,0-13.21-3.051-17.514-8.369c-4.354-5.375-6.004-12.445-4.527-19.392           c2.939-13.677,15.066-19.905,25.092-19.905c9.758,0,17.794,5.126,21.5,13.715c5.213,12.096-2.146,25.083-12.272,30.65           C353.365,89.621,349.234,90.732,345.07,90.732z"/>
								</g>
							</g>
							<g>
								<g>
									<path style="fill:#FC09B2;" d="M357.993,74.41c-1.956,3.147-4.357,5.527-6.918,7.119c-2.683-3.973-5.83-7.644-9.36-10.851           c-2.541-2.34-5.304-4.437-8.23-6.253c4.034-8.632,14.06-15.026,21.702-10.831c0.242,0.141,0.484,0.282,0.727,0.444           C362.751,58.515,361.784,68.298,357.993,74.41z"/>
								</g>
							</g>
							<g style="opacity:0.25;">
								<g>
									<g>
										<path style="fill:#000E3F;" d="M357.993,74.41c-1.956,3.147-4.357,5.527-6.918,7.119c-2.683-3.973-5.83-7.644-9.36-10.851            c9.419-4.639,12.464-12.384,13.473-17.084c0.242,0.141,0.484,0.282,0.727,0.444            C362.751,58.515,361.784,68.298,357.993,74.41z"/>
									</g>
								</g>
							</g>
						</g>
						<g>
							<g>
								<path style="fill:#000E3F;" d="M348.12,44.829c8.176-0.001,16.187,4.085,19.881,12.652          c4.656,10.798-1.712,23.022-11.503,28.405c-3.877,2.131-7.763,3.083-11.429,3.083c-13.003,0-23.224-11.961-20.318-25.633          C327.347,51.257,337.867,44.829,348.12,44.829 M348.123,41.303L348.123,41.303c-10.714,0.001-23.675,6.665-26.818,21.292          c-1.588,7.48,0.19,15.086,4.881,20.878c4.641,5.733,11.524,9.02,18.884,9.02c4.463,0,8.882-1.184,13.126-3.519          c10.819-5.947,18.653-19.875,13.041-32.889C367.306,46.967,358.448,41.303,348.123,41.303L348.123,41.303z"/>
							</g>
						</g>
					</g>
					<g>
						<g>
							<g>
								<g>
									<path style="fill:#FD8A02;" d="M261.508,90.732c-4.167,0-8.298-1.111-12.281-3.3c-10.126-5.57-17.483-18.554-12.269-30.65           c3.704-8.59,11.74-13.715,21.497-13.715c10.026,0,22.155,6.227,25.095,19.9c1.477,6.954-0.173,14.024-4.53,19.399           c-4.304,5.316-10.688,8.366-17.509,8.366C261.508,90.732,261.508,90.732,261.508,90.732z"/>
								</g>
							</g>
							<g>
								<g>
									<path style="fill:#FC09B2;" d="M248.584,74.41c1.956,3.147,4.357,5.527,6.918,7.119c2.683-3.973,5.83-7.644,9.36-10.851           c2.541-2.34,5.304-4.437,8.229-6.253c-4.034-8.632-14.06-15.026-21.702-10.831c-0.242,0.141-0.485,0.282-0.727,0.444           C243.825,58.515,244.792,68.298,248.584,74.41z"/>
								</g>
							</g>
							<g style="opacity:0.25;">
								<g>
									<g>
										<path style="fill:#000E3F;" d="M248.584,74.41c1.956,3.147,4.357,5.527,6.918,7.119c2.683-3.973,5.83-7.644,9.36-10.851            c-9.419-4.639-12.464-12.384-13.473-17.084c-0.242,0.141-0.485,0.282-0.727,0.444            C243.825,58.515,244.792,68.298,248.584,74.41z"/>
									</g>
								</g>
							</g>
						</g>
						<g>
							<g>
								<path style="fill:#000E3F;" d="M258.457,44.829c10.254,0,20.771,6.428,23.368,18.507          c2.903,13.672-7.315,25.633-20.318,25.633c-3.666,0-7.554-0.952-11.432-3.083c-9.788-5.383-16.156-17.607-11.5-28.405          C242.27,48.914,250.278,44.829,258.457,44.829 M258.457,41.303c-10.327,0-19.185,5.664-23.117,14.782          c-5.612,13.014,2.222,26.943,13.039,32.89c4.245,2.335,8.663,3.519,13.129,3.519c7.357,0,14.24-3.288,18.881-9.019          c4.691-5.792,6.472-13.399,4.884-20.871C282.127,47.966,269.167,41.303,258.457,41.303L258.457,41.303z"/>
							</g>
						</g>
					</g>
				</g>
				<g>
					<g>
						<g>
							<g>
								<path style="fill:#FD8A02;" d="M303.238,168.057c-19.159,0-36.68-7.12-46.867-19.045          c-13.466-15.686-15.895-38.354-6.339-59.153c9.988-21.735,30.36-35.237,53.171-35.237c3.54,0,7.174,0.321,10.802,0.95          c6.75,1.177,13.172,3.654,19.088,7.36c6.989,4.331,13.257,10.422,18.115,17.611c13.81,20.36,14.836,45.469,2.609,63.961          C344.234,159.033,324.852,168.057,303.238,168.057z"/>
							</g>
						</g>
						<g>
							<g>
								<path style="fill:#000E3F;" d="M303.205,56.384c3.393,0,6.897,0.297,10.498,0.922c6.695,1.17,12.887,3.631,18.454,7.12          c7.001,4.336,12.97,10.266,17.59,17.104c12.341,18.193,15.228,42.901,2.6,62.003c-9.992,15.15-29.577,22.764-49.111,22.764          c-17.526,0-35.013-6.123-45.526-18.427C229.505,115.011,255.527,56.385,303.205,56.384 M303.205,52.859L303.205,52.859          c-23.509,0.001-44.498,13.897-54.776,36.266c-9.848,21.432-7.317,44.821,6.605,61.04          c10.515,12.306,28.534,19.657,48.202,19.657c22.201,0,42.148-9.33,52.053-24.348c12.621-19.089,11.59-44.966-2.623-65.922          c-4.993-7.39-11.443-13.658-18.651-18.122c-6.092-3.818-12.725-6.376-19.703-7.596          C310.581,53.186,306.846,52.859,303.205,52.859L303.205,52.859z"/>
							</g>
						</g>
					</g>
					<g>
						<g>
							<g>
								<path style="fill:#000E3F;" d="M339.044,105.145c1.169,2.89-0.181,6.262-2.95,7.369c-3.061,1.224-6.703-0.15-7.63-3.101          C325.982,101.508,336.382,98.562,339.044,105.145z"/>
							</g>
						</g>
						<g>
							<g>
								<path style="fill:#000E3F;" d="M278.02,105.145c1.169,2.89-0.181,6.262-2.95,7.369c-3.061,1.224-6.703-0.15-7.629-3.101          C264.957,101.508,275.358,98.562,278.02,105.145z"/>
							</g>
						</g>
					</g>
					<g>
						<g>
							<g>
								<path style="fill:#FFFFFF;" d="M303.157,153.14c-5.456,0-10.762-1.325-14.94-3.732          c-11.799-6.795-13.283-21.688-8.649-32.886c3.108-7.507,10.111-17.01,18.143-20.137c1.676-0.653,3.438-0.983,5.237-0.983          c8.725,0,18.276,8.143,23.228,19.803c5.012,11.799,3.834,23.167-3.15,30.405C318.406,150.396,311.163,153.14,303.157,153.14          z"/>
							</g>
						</g>
						<g>
							<g>
								<path style="fill:#000E3F;" d="M302.948,97.165c16.628-0.001,33.672,31.819,18.81,47.219          c-4.546,4.71-11.602,6.994-18.599,6.994c-5.038,0-10.045-1.183-14.064-3.497c-10.878-6.263-12.352-19.921-7.899-30.686          c3.179-7.677,10.047-16.401,17.153-19.167C299.862,97.44,301.402,97.165,302.948,97.165 M302.948,93.64L302.948,93.64          c-2.018,0-3.996,0.371-5.876,1.103c-8.514,3.314-15.885,13.262-19.133,21.104c-4.929,11.911-3.283,27.788,9.397,35.089          c4.444,2.558,10.064,3.967,15.824,3.967c8.48,0,16.184-2.941,21.134-8.07c7.493-7.762,8.801-19.844,3.504-32.317          C321.675,100.095,310.904,93.64,302.948,93.64L302.948,93.64z"/>
							</g>
						</g>
					</g>
					<g>
						<g>
							<g>
								<g>
									<path style="fill:#000E3F;" d="M295.522,137.48c-0.233,0-0.468-0.007-0.705-0.021c-4.112-0.23-7.27-2.647-9.131-6.992           c-0.385-0.893,0.031-1.93,0.924-2.312c0.905-0.378,1.935,0.031,2.315,0.924c1.337,3.117,3.329,4.708,6.09,4.862           c1.854,0.109,3.438-0.38,4.525-1.401c1.166-1.097,1.79-2.789,1.804-4.898c0.005-0.971,0.793-1.752,1.762-1.752           c0.002,0,0.007,0,0.009,0c0.973,0.005,1.759,0.798,1.752,1.771c-0.019,3.098-1.025,5.674-2.915,7.448           C300.294,136.666,298.081,137.48,295.522,137.48z"/>
								</g>
							</g>
						</g>
						<g>
							<g>
								<g>
									<path style="fill:#000E3F;" d="M310.453,137.573c-2.626,0-4.884-0.843-6.555-2.452c-1.866-1.797-2.842-4.383-2.823-7.478           c0.005-0.971,0.793-1.752,1.762-1.752c0.002,0,0.007,0,0.009,0c0.973,0.005,1.759,0.798,1.752,1.771           c-0.012,2.108,0.591,3.808,1.745,4.922c1.076,1.035,2.642,1.55,4.506,1.455c2.763-0.121,4.774-1.685,6.149-4.784           c0.396-0.891,1.436-1.289,2.327-0.898c0.89,0.397,1.292,1.436,0.898,2.327c-1.918,4.319-5.105,6.695-9.219,6.878           C310.818,137.568,310.636,137.573,310.453,137.573z"/>
								</g>
							</g>
						</g>
					</g>
					<g>
						<g>
							<g>
								<path style="fill:#FC09B2;" d="M303.316,127.604c-2.137,0-3.815-1.412-5.311-2.939c-1.809-1.845-4.034-5.85-3.319-8.986          c0.361-1.586,1.444-2.778,3.046-3.36c1.605-0.582,3.699-0.916,5.743-0.916c2.061,0,5.802,0.339,7.699,2.607          c0.885,1.059,1.218,2.37,0.964,3.792c-0.572,3.186-3.255,6.586-4.922,8.093C305.963,127.03,304.65,127.604,303.316,127.604z          "/>
							</g>
						</g>
						<g>
							<g>
								<path style="fill:#000E3F;" d="M303.475,113.166c3.799,0,7.481,1.244,6.928,4.325c-0.456,2.543-2.699,5.586-4.368,7.098          c-0.98,0.886-1.873,1.252-2.718,1.252c-1.434,0-2.723-1.055-4.053-2.409c-2.039-2.08-4.976-7.988-0.931-9.455          C299.76,113.458,301.631,113.166,303.475,113.166 M303.475,109.641L303.475,109.641c-2.275,0-4.527,0.363-6.344,1.021          c-2.186,0.793-3.666,2.436-4.164,4.628c-0.909,3.993,1.835,8.627,3.78,10.609c1.681,1.715,3.777,3.466,6.569,3.466          c1.785,0,3.495-0.727,5.083-2.162c2.21-2.004,4.867-5.701,5.475-9.09c0.344-1.924-0.135-3.783-1.349-5.234          C310.168,110.062,305.845,109.641,303.475,109.641L303.475,109.641z"/>
							</g>
						</g>
					</g>
				</g>
			</g>
			<g>
				<g>
					<g>
						<path style="fill:#FD8A02;" d="M283.864,185.779c-17.085-29.752-16.429-32.987-23.373-33.624        c-58.101-5.332-84.008-38.375-96.215-37.066c-12.706,1.362-14.139,15.683-9.069,26.753        c10.804,23.589,51.065,55.193,91.543,55.918C259.763,197.992,273.024,194.69,283.864,185.779z"/>
					</g>
				</g>
				<g>
					<g>
						<path style="fill:#000E3F;" d="M248.016,199.533c-0.432,0-0.864-0.002-1.299-0.012c-41.872-0.748-82.453-33.672-93.113-56.946        c-3.601-7.861-3.837-16.612-0.603-22.298c2.279-4.008,6.113-6.41,11.087-6.942c4.862-0.518,10.779,3.193,19.715,8.813        c15.712,9.883,39.458,24.819,76.85,28.252c6.016,0.551,7.289,2.887,14.351,15.859c2.452,4.508,5.814,10.681,10.387,18.642        c0.427,0.748,0.254,1.693-0.411,2.239C275.105,195.262,262.346,199.533,248.016,199.533z M164.998,116.814        c-0.183,0-0.361,0.007-0.534,0.026c-3.853,0.413-6.678,2.156-8.4,5.18c-2.69,4.732-2.398,12.224,0.746,19.088        c10.275,22.431,49.472,54.166,89.97,54.89c13.514,0.223,25.446-3.44,34.802-10.655c-4.209-7.365-7.348-13.126-9.672-17.397        c-6.911-12.692-7.531-13.663-11.579-14.036c-38.233-3.509-62.408-18.715-78.405-28.777        C174.575,120.51,168.696,116.814,164.998,116.814z"/>
					</g>
				</g>
			</g>
		</g>
		<g>
			<g>
				<g>
					<g>
						<g>
							<circle style="fill:#FFFFFF;" cx="307.798" cy="44.51" r="19.128"/>
						</g>
					</g>
					<g style="opacity:0.18;">
						<g>
							<g>
								<path style="fill:#000E3F;" d="M325.155,44.517c0,9.588-7.753,17.344-17.343,17.344c-6.322,0-11.817-3.329-14.838-8.336          c15.12,5.482,28.993-11.589,20.489-25.405C320.27,30.441,325.155,36.913,325.155,44.517z"/>
							</g>
						</g>
						<g>
							<g>
								<path style="fill:#000E3F;" d="M302.614,45.225c-0.186,0.35-2.208,4.986-2.063,4.68c-0.749,1.579-3.02,1.529-3.704-0.075          c-3.867-9.097,4.504-19.13,13.86-17.522c1.551,0.267,2.088,2.224,0.898,3.25C309.251,37.584,304.944,40.259,302.614,45.225z          "/>
							</g>
						</g>
					</g>
				</g>
				<g>
					<g>
						<path style="fill:#000E3F;" d="M307.798,27.143c9.591,0,17.367,7.775,17.367,17.367c0,9.591-7.775,17.366-17.367,17.366        s-17.367-7.775-17.367-17.366C290.432,34.918,298.207,27.143,307.798,27.143 M307.798,23.618        c-11.519,0-20.892,9.372-20.892,20.892c0,11.519,9.373,20.891,20.892,20.891s20.892-9.372,20.892-20.891        C328.691,32.99,319.318,23.618,307.798,23.618L307.798,23.618z"/>
					</g>
				</g>
			</g>
			<g>
				<g>
					<g>
						<g>
							<path style="fill:#FFFFFF;" d="M174.81,96.567c-9.252,0-16.778-7.526-16.778-16.778c0-9.25,7.526-16.776,16.778-16.776         c9.252,0,16.778,7.526,16.778,16.776C191.588,89.041,184.062,96.567,174.81,96.567z"/>
						</g>
					</g>
					<g style="opacity:0.18;">
						<g>
							<g>
								<path style="fill:#000E3F;" d="M189.818,79.797c0,8.291-6.703,14.997-14.995,14.997c-5.466,0-10.218-2.878-12.83-7.208          c13.074,4.74,25.069-10.021,17.716-21.966C185.595,67.626,189.818,73.223,189.818,79.797z"/>
							</g>
						</g>
						<g>
							<g>
								<path style="fill:#000E3F;" d="M170.329,80.409c-0.161,0.302-1.91,4.311-1.784,4.047c-0.647,1.366-2.611,1.322-3.202-0.065          c-3.344-7.866,3.895-16.541,11.984-15.15c1.341,0.231,1.806,1.923,0.776,2.81C176.067,73.803,172.343,76.116,170.329,80.409          z"/>
							</g>
						</g>
					</g>
				</g>
				<g>
					<g>
						<path style="fill:#000E3F;" d="M174.81,64.774c8.294,0,15.016,6.723,15.016,15.016c0,8.293-6.722,15.016-15.016,15.016        c-8.293,0-15.015-6.723-15.015-15.016C159.795,71.497,166.517,64.774,174.81,64.774 M174.81,61.249        c-10.223,0-18.541,8.318-18.541,18.541c0,10.223,8.318,18.541,18.541,18.541c10.224,0,18.542-8.317,18.542-18.541        C193.352,69.567,185.034,61.249,174.81,61.249L174.81,61.249z"/>
					</g>
				</g>
			</g>
			<g>
				<g>
					<g>
						<g>
							<path style="fill:#FFFFFF;" d="M411.196,176.091c-10.836,0-19.648-8.815-19.648-19.651c0-10.836,8.813-19.648,19.648-19.648         c10.835,0,19.648,8.813,19.648,19.648C430.844,167.276,422.032,176.091,411.196,176.091z"/>
						</g>
					</g>
					<g style="opacity:0.18;">
						<g>
							<g>
								<path style="fill:#000E3F;" d="M429.073,156.449c0,9.876-7.985,17.864-17.862,17.864c-6.511,0-12.172-3.428-15.283-8.586          c15.574,5.646,29.862-11.937,21.103-26.166C424.042,141.951,429.073,148.618,429.073,156.449z"/>
							</g>
						</g>
						<g>
							<g>
								<path style="fill:#000E3F;" d="M405.857,157.178c-0.192,0.36-2.275,5.136-2.125,4.82c-0.771,1.627-3.11,1.575-3.815-0.078          c-3.983-9.37,4.639-19.703,14.275-18.047c1.597,0.275,2.151,2.291,0.924,3.347          C412.692,149.309,408.256,152.064,405.857,157.178z"/>
							</g>
						</g>
					</g>
				</g>
				<g>
					<g>
						<path style="fill:#000E3F;" d="M411.196,138.554c9.879,0,17.887,8.009,17.887,17.887c0,9.879-8.008,17.887-17.887,17.887        c-9.879,0-17.887-8.009-17.887-17.887C393.309,146.563,401.317,138.554,411.196,138.554 M411.196,135.029        c-11.807,0-21.412,9.605-21.412,21.412c0,11.807,9.606,21.412,21.412,21.412c11.806,0,21.412-9.605,21.412-21.412        C432.608,144.634,423.003,135.029,411.196,135.029L411.196,135.029z"/>
					</g>
				</g>
			</g>
			<g>
				<g>
					<g>
						<g>
							<path style="fill:#FFFFFF;" d="M327.793,74.915c-9.064,0-16.436-7.372-16.436-16.436c0-9.064,7.372-16.436,16.436-16.436         c9.062,0,16.434,7.372,16.434,16.436C344.227,67.544,336.855,74.915,327.793,74.915z"/>
						</g>
					</g>
					<g style="opacity:0.18;">
						<g>
							<g>
								<path style="fill:#000E3F;" d="M342.458,58.486c0,8.101-6.551,14.655-14.653,14.655c-5.342,0-9.985-2.812-12.537-7.043          c12.776,4.632,24.497-9.792,17.312-21.466C338.331,46.593,342.458,52.062,342.458,58.486z"/>
							</g>
						</g>
						<g>
							<g>
								<path style="fill:#000E3F;" d="M323.413,59.084c-0.158,0.295-1.866,4.213-1.744,3.954c-0.633,1.335-2.551,1.292-3.129-0.064          c-3.267-7.687,3.806-16.164,11.711-14.805c1.31,0.225,1.764,1.879,0.758,2.746C329.02,52.628,325.381,54.889,323.413,59.084          z"/>
							</g>
						</g>
					</g>
				</g>
				<g>
					<g>
						<path style="fill:#000E3F;" d="M327.793,43.806c8.103,0,14.672,6.57,14.672,14.674s-6.569,14.673-14.672,14.673        c-8.105,0-14.674-6.569-14.674-14.673S319.688,43.806,327.793,43.806 M327.793,40.281c-10.035,0-18.2,8.164-18.2,18.199        s8.165,18.198,18.2,18.198c10.033,0,18.198-8.163,18.198-18.198S337.826,40.281,327.793,40.281L327.793,40.281z"/>
					</g>
				</g>
			</g>
			<g>
				<g>
					<g>
						<g>
							<path style="fill:#FFFFFF;" d="M279.202,73.36c-9.064,0-16.436-7.372-16.436-16.436c0-9.062,7.372-16.434,16.436-16.434         c9.064,0,16.436,7.372,16.436,16.434C295.638,65.989,288.267,73.36,279.202,73.36z"/>
						</g>
					</g>
					<g style="opacity:0.18;">
						<g>
							<g>
								<path style="fill:#000E3F;" d="M293.868,56.932c0,8.101-6.551,14.655-14.654,14.655c-5.341,0-9.985-2.812-12.537-7.043          c12.776,4.632,24.497-9.792,17.312-21.466C289.741,45.038,293.868,50.508,293.868,56.932z"/>
							</g>
						</g>
						<g>
							<g>
								<path style="fill:#000E3F;" d="M274.823,57.53c-0.158,0.295-1.866,4.213-1.744,3.954c-0.632,1.335-2.551,1.292-3.129-0.064          c-3.268-7.687,3.806-16.164,11.711-14.805c1.31,0.225,1.764,1.879,0.759,2.746C280.43,51.074,276.791,53.335,274.823,57.53z          "/>
							</g>
						</g>
					</g>
				</g>
				<g>
					<g>
						<path style="fill:#000E3F;" d="M279.202,42.252c8.105,0,14.674,6.57,14.674,14.674s-6.569,14.674-14.674,14.674        c-8.103,0-14.674-6.57-14.674-14.674S271.099,42.252,279.202,42.252 M279.202,38.727c-10.035,0-18.2,8.164-18.2,18.199        s8.165,18.199,18.2,18.199c10.035,0,18.2-8.164,18.2-18.199S289.237,38.727,279.202,38.727L279.202,38.727z"/>
					</g>
				</g>
			</g>
			<g>
				<g>
					<g>
						<g>
							<circle style="fill:#FFFFFF;" cx="335.182" cy="178.636" r="27.352"/>
						</g>
					</g>
					<g style="opacity:0.18;">
						<g>
							<g>
								<path style="fill:#000E3F;" d="M360.759,178.647c0,14.129-11.424,25.558-25.556,25.558c-9.315,0-17.414-4.905-21.865-12.283          c22.281,8.078,42.723-17.078,30.192-37.436C353.561,157.905,360.759,167.443,360.759,178.647z"/>
							</g>
						</g>
						<g>
							<g>
								<path style="fill:#000E3F;" d="M327.544,179.691c-0.275,0.515-3.255,7.348-3.041,6.896c-1.103,2.328-4.45,2.253-5.458-0.111          c-5.698-13.406,6.637-28.19,20.424-25.819c2.285,0.393,3.077,3.278,1.323,4.788          C337.323,168.431,330.977,172.373,327.544,179.691z"/>
							</g>
						</g>
					</g>
				</g>
				<g>
					<g>
						<path style="fill:#000E3F;" d="M335.182,153.045c14.133,0,25.59,11.458,25.59,25.591c0,14.134-11.457,25.591-25.59,25.591        s-25.591-11.458-25.591-25.591C309.591,164.502,321.048,153.045,335.182,153.045 M335.182,149.52        c-16.054,0-29.116,13.061-29.116,29.116c0,16.055,13.063,29.116,29.116,29.116s29.116-13.061,29.116-29.116        C364.298,162.581,351.235,149.52,335.182,149.52L335.182,149.52z"/>
					</g>
				</g>
			</g>
			<g>
				<g>
					<g>
						<g>
							<path style="fill:#FFFFFF;" d="M365.656,222.533c-12.737,0-23.1-10.363-23.1-23.1c0-12.737,10.363-23.1,23.1-23.1         c12.737,0,23.098,10.363,23.098,23.1C388.753,212.17,378.393,222.533,365.656,222.533z"/>
						</g>
					</g>
					<g style="opacity:0.18;">
						<g>
							<g>
								<path style="fill:#000E3F;" d="M386.981,199.442c0,11.781-9.526,21.311-21.309,21.311c-7.767,0-14.52-4.09-18.232-10.242          c18.579,6.736,35.624-14.24,25.174-31.215C380.98,182.146,386.981,190.1,386.981,199.442z"/>
							</g>
						</g>
						<g>
							<g>
								<path style="fill:#000E3F;" d="M359.286,200.312c-0.229,0.43-2.714,6.127-2.536,5.75c-0.92,1.941-3.71,1.879-4.551-0.092          c-4.751-11.178,5.534-23.505,17.03-21.529c1.905,0.328,2.566,2.733,1.103,3.993          C367.44,190.924,362.148,194.211,359.286,200.312z"/>
							</g>
						</g>
					</g>
				</g>
				<g>
					<g>
						<path style="fill:#000E3F;" d="M365.656,178.095c11.783,0,21.336,9.553,21.336,21.338c0,11.785-9.553,21.338-21.336,21.338        c-11.785,0-21.338-9.553-21.338-21.338C344.317,187.648,353.871,178.095,365.656,178.095 M365.656,174.569        c-13.71,0-24.864,11.154-24.864,24.863c0,13.71,11.154,24.864,24.864,24.864c13.708,0,24.862-11.154,24.862-24.864        C390.517,185.723,379.364,174.569,365.656,174.569L365.656,174.569z"/>
					</g>
				</g>
			</g>
			<g>
				<g>
					<g>
						<g>
							<path style="fill:#FFFFFF;" d="M257.951,194.006c-13.504,0-24.489-10.985-24.489-24.489         c0-13.502,10.985-24.487,24.489-24.487c13.502,0,24.487,10.985,24.487,24.487         C282.438,183.021,271.453,194.006,257.951,194.006z"/>
						</g>
					</g>
					<g style="opacity:0.18;">
						<g>
							<g>
								<path style="fill:#000E3F;" d="M280.665,169.527c0,12.548-10.146,22.697-22.695,22.697c-8.272,0-15.464-4.356-19.417-10.909          c19.787,7.174,37.941-15.166,26.812-33.245C274.273,151.107,280.665,159.578,280.665,169.527z"/>
							</g>
						</g>
						<g>
							<g>
								<path style="fill:#000E3F;" d="M251.168,170.454c-0.244,0.458-2.89,6.525-2.7,6.124c-0.979,2.067-3.951,2.001-4.847-0.099          c-5.061-11.905,5.894-25.034,18.137-22.929c2.029,0.349,2.733,2.911,1.174,4.252          C259.853,160.455,254.217,163.956,251.168,170.454z"/>
							</g>
						</g>
					</g>
				</g>
				<g>
					<g>
						<path style="fill:#000E3F;" d="M257.951,146.791c12.552,0,22.725,10.175,22.725,22.726c0,12.551-10.173,22.726-22.725,22.726        s-22.727-10.175-22.727-22.726C235.224,156.966,245.399,146.791,257.951,146.791 M257.951,143.266        c-14.475,0-26.253,11.776-26.253,26.251s11.778,26.251,26.253,26.251c14.475,0,26.251-11.776,26.251-26.251        S272.426,143.266,257.951,143.266L257.951,143.266z"/>
					</g>
				</g>
			</g>
			<g>
				<g>
					<g>
						<g>
							<path style="fill:#FFFFFF;" d="M173.654,252.984c-12.92,0-23.43-10.51-23.43-23.43c0-12.92,10.51-23.43,23.43-23.43         c12.922,0,23.433,10.51,23.433,23.43C197.086,242.473,186.576,252.984,173.654,252.984z"/>
						</g>
					</g>
					<g style="opacity:0.18;">
						<g>
							<g>
								<path style="fill:#000E3F;" d="M195.312,229.563c0,11.964-9.674,21.641-21.639,21.641c-7.888,0-14.745-4.153-18.514-10.401          c18.867,6.84,36.176-14.461,25.565-31.699C189.217,211.999,195.312,220.076,195.312,229.563z"/>
							</g>
						</g>
						<g>
							<g>
								<path style="fill:#000E3F;" d="M167.187,230.446c-0.232,0.436-2.756,6.222-2.575,5.84c-0.934,1.971-3.768,1.907-4.621-0.094          c-4.825-11.351,5.62-23.869,17.293-21.863c1.935,0.333,2.606,2.776,1.12,4.055          C175.468,220.913,170.094,224.251,167.187,230.446z"/>
							</g>
						</g>
					</g>
				</g>
				<g>
					<g>
						<path style="fill:#000E3F;" d="M173.655,207.884c11.967,0,21.669,9.701,21.669,21.669c0,11.967-9.702,21.669-21.669,21.669        c-11.968,0-21.67-9.702-21.67-21.669C151.985,217.586,161.687,207.884,173.655,207.884 M173.655,204.359        c-13.892,0-25.195,11.302-25.195,25.194c0,13.892,11.303,25.194,25.195,25.194c13.892,0,25.194-11.302,25.194-25.194        C198.849,215.661,187.547,204.359,173.655,204.359L173.655,204.359z"/>
					</g>
				</g>
			</g>
			<g>
				<g>
					<g>
						<g>
							<path style="fill:#FFFFFF;" d="M290.655,198.362c-10.835,0-19.648-8.813-19.648-19.648c0-10.836,8.813-19.651,19.648-19.651         c10.836,0,19.648,8.815,19.648,19.651C310.303,189.55,301.49,198.362,290.655,198.362z"/>
						</g>
					</g>
					<g style="opacity:0.18;">
						<g>
							<g>
								<path style="fill:#000E3F;" d="M308.532,178.721c0,9.876-7.985,17.864-17.862,17.864c-6.511,0-12.171-3.428-15.283-8.586          c15.574,5.646,29.862-11.937,21.103-26.166C303.501,164.223,308.532,170.89,308.532,178.721z"/>
							</g>
						</g>
						<g>
							<g>
								<path style="fill:#000E3F;" d="M285.316,179.45c-0.192,0.36-2.275,5.136-2.125,4.82c-0.771,1.627-3.11,1.575-3.814-0.078          c-3.983-9.37,4.639-19.703,14.275-18.047c1.597,0.275,2.151,2.291,0.924,3.347          C292.151,171.58,287.715,174.336,285.316,179.45z"/>
							</g>
						</g>
					</g>
				</g>
				<g>
					<g>
						<path style="fill:#000E3F;" d="M290.655,160.826c9.879,0,17.887,8.009,17.887,17.887c0,9.879-8.008,17.887-17.887,17.887        c-9.879,0-17.887-8.009-17.887-17.887C272.768,168.834,280.776,160.826,290.655,160.826 M290.655,157.301        c-11.806,0-21.412,9.605-21.412,21.412c0,11.807,9.606,21.412,21.412,21.412c11.807,0,21.412-9.605,21.412-21.412        C312.067,166.906,302.461,157.301,290.655,157.301L290.655,157.301z"/>
					</g>
				</g>
			</g>
			<g>
				<g>
					<g>
						<g>
							<path style="fill:#FFFFFF;" d="M268.588,244.209c-15.083,0-27.352-12.27-27.352-27.352s12.27-27.354,27.352-27.354         s27.352,12.272,27.352,27.354S283.67,244.209,268.588,244.209z"/>
						</g>
					</g>
					<g style="opacity:0.18;">
						<g>
							<g>
								<path style="fill:#000E3F;" d="M294.164,216.867c0,14.129-11.424,25.558-25.556,25.558c-9.315,0-17.414-4.905-21.865-12.284          c22.281,8.079,42.723-17.078,30.191-37.436C286.966,196.125,294.164,205.663,294.164,216.867z"/>
							</g>
						</g>
						<g>
							<g>
								<path style="fill:#000E3F;" d="M260.949,217.911c-0.275,0.515-3.254,7.348-3.041,6.896c-1.103,2.328-4.45,2.253-5.458-0.111          c-5.699-13.406,6.637-28.19,20.424-25.819c2.285,0.393,3.077,3.278,1.323,4.788          C270.728,206.651,264.382,210.593,260.949,217.911z"/>
							</g>
						</g>
					</g>
				</g>
				<g>
					<g>
						<path style="fill:#000E3F;" d="M268.588,191.265c14.133,0,25.591,11.458,25.591,25.59c0,14.134-11.458,25.591-25.591,25.591        s-25.591-11.458-25.591-25.591C242.997,202.723,254.454,191.265,268.588,191.265 M268.588,187.74        c-16.054,0-29.116,13.061-29.116,29.116c0,16.055,13.063,29.116,29.116,29.116s29.116-13.061,29.116-29.116        C297.704,200.801,284.641,187.74,268.588,187.74L268.588,187.74z"/>
					</g>
				</g>
			</g>
			<g>
				<g>
					<g>
						<g>
							<path style="fill:#FFFFFF;" d="M290.665,198.343c-10.831,0-19.641-8.81-19.641-19.641c0-10.828,8.811-19.639,19.641-19.639         c10.831,0,19.641,8.81,19.641,19.639C310.306,189.533,301.495,198.343,290.665,198.343z"/>
						</g>
					</g>
					<g style="opacity:0.18;">
						<g>
							<g>
								<path style="fill:#000E3F;" d="M308.533,178.711c0,9.871-7.982,17.856-17.854,17.856c-6.508,0-12.166-3.427-15.276-8.582          c15.567,5.644,29.848-11.931,21.093-26.154C303.505,164.22,308.533,170.883,308.533,178.711z"/>
							</g>
						</g>
						<g>
							<g>
								<path style="fill:#000E3F;" d="M285.329,179.44c-0.192,0.36-2.274,5.133-2.124,4.818c-0.771,1.626-3.109,1.574-3.813-0.078          c-3.981-9.366,4.637-19.694,14.269-18.038c1.596,0.275,2.15,2.29,0.924,3.345          C292.161,171.574,287.727,174.328,285.329,179.44z"/>
							</g>
						</g>
					</g>
				</g>
				<g>
					<g>
						<path style="fill:#000E3F;" d="M290.665,160.825c9.874,0,17.879,8.004,17.879,17.878c0,9.875-8.005,17.879-17.879,17.879        c-9.874,0-17.879-8.004-17.879-17.879C272.785,168.829,280.79,160.825,290.665,160.825 M290.665,157.3        c-11.802,0-21.405,9.601-21.405,21.403c0,11.802,9.603,21.404,21.405,21.404c11.802,0,21.405-9.601,21.405-21.404        C312.069,166.901,302.466,157.3,290.665,157.3L290.665,157.3z"/>
					</g>
				</g>
			</g>
			<g>
				<g>
					<g>
						<g>
							<circle style="fill:#FFFFFF;" cx="269.589" cy="217.564" r="28.812"/>
						</g>
					</g>
					<g style="opacity:0.18;">
						<g>
							<g>
								<path style="fill:#000E3F;" d="M296.625,217.577c0,14.935-12.076,27.016-27.013,27.016c-9.847,0-18.407-5.185-23.112-12.984          c23.552,8.539,45.16-18.052,31.913-39.571C289.017,195.651,296.625,205.734,296.625,217.577z"/>
							</g>
						</g>
						<g>
							<g>
								<path style="fill:#000E3F;" d="M261.516,218.68c-0.29,0.545-3.44,7.767-3.214,7.29c-1.166,2.46-4.703,2.381-5.769-0.117          c-6.023-14.17,7.016-29.797,21.588-27.292c2.416,0.416,3.253,3.465,1.398,5.062          C271.853,206.778,265.145,210.945,261.516,218.68z"/>
							</g>
						</g>
					</g>
				</g>
				<g>
					<g>
						<path style="fill:#000E3F;" d="M269.589,190.515c14.94,0,27.051,12.111,27.051,27.05c0,14.94-12.111,27.051-27.051,27.051        c-14.938,0-27.051-12.111-27.051-27.051C242.539,202.626,254.652,190.515,269.589,190.515 M269.589,186.99        c-16.859,0-30.576,13.716-30.576,30.575c0,16.86,13.717,30.576,30.576,30.576s30.576-13.716,30.576-30.576        C300.166,200.706,286.448,186.99,269.589,186.99L269.589,186.99z"/>
					</g>
				</g>
			</g>
			<g>
				<g>
					<g>
						<g>
							
								<ellipse transform="matrix(0.9151 -0.4031 0.4031 0.9151 -58.8297 143.707)" style="fill:#FFFFFF;" cx="311.925" cy="211.588" rx="24.655" ry="24.655"/>
						</g>
					</g>
					<g style="opacity:0.18;">
						<g>
							<g>
								<path style="fill:#000E3F;" d="M334.806,211.598c0,12.64-10.22,22.864-22.862,22.864c-8.333,0-15.578-4.388-19.56-10.989          c19.933,7.227,38.22-15.278,27.009-33.49C328.367,193.042,334.806,201.575,334.806,211.598z"/>
							</g>
						</g>
						<g>
							<g>
								<path style="fill:#000E3F;" d="M305.092,212.532c-0.246,0.461-2.911,6.573-2.72,6.17c-0.987,2.082-3.98,2.015-4.882-0.099          c-5.098-11.993,5.938-25.218,18.271-23.098c2.044,0.352,2.753,2.932,1.183,4.284          C313.841,202.459,308.163,205.986,305.092,212.532z"/>
							</g>
						</g>
					</g>
				</g>
				<g>
					<g>
						<path style="fill:#000E3F;" d="M311.925,188.694c12.644,0,22.894,10.25,22.894,22.894c0,12.644-10.249,22.894-22.894,22.894        c-12.642,0-22.894-10.25-22.894-22.894C289.031,198.945,299.283,188.694,311.925,188.694 M311.925,185.17        c-14.568,0-26.419,11.851-26.419,26.418c0,14.568,11.852,26.418,26.419,26.418c14.568,0,26.419-11.851,26.419-26.418        C338.344,197.02,326.492,185.17,311.925,185.17L311.925,185.17z"/>
					</g>
				</g>
			</g>
			<g>
				<g>
					<g>
						<g>
							<path style="fill:#FFFFFF;" d="M341.945,260.241c-16.028,0-29.066-13.038-29.066-29.066         c0-16.025,13.039-29.064,29.066-29.064c16.025,0,29.064,13.039,29.064,29.064         C371.009,247.203,357.971,260.241,341.945,260.241z"/>
						</g>
					</g>
					<g style="opacity:0.18;">
						<g>
							<g>
								<path style="fill:#000E3F;" d="M369.232,231.188c0,15.074-12.189,27.268-27.265,27.268c-9.939,0-18.578-5.233-23.327-13.105          c23.771,8.619,45.581-18.22,32.211-39.94C361.553,209.058,369.232,219.234,369.232,231.188z"/>
							</g>
						</g>
						<g>
							<g>
								<path style="fill:#000E3F;" d="M333.796,232.301c-0.293,0.55-3.472,7.839-3.244,7.358c-1.177,2.483-4.747,2.404-5.822-0.118          c-6.08-14.302,7.081-30.075,21.79-27.547c2.438,0.42,3.283,3.497,1.411,5.109          C344.229,220.288,337.458,224.494,333.796,232.301z"/>
							</g>
						</g>
					</g>
				</g>
				<g>
					<g>
						<path style="fill:#000E3F;" d="M341.945,203.873c15.078,0,27.302,12.224,27.302,27.303c0,15.079-12.225,27.303-27.302,27.303        c-15.08,0-27.305-12.224-27.305-27.303C314.641,216.097,326.865,203.873,341.945,203.873 M341.945,200.348        c-16.999,0-30.83,13.829-30.83,30.828s13.831,30.828,30.83,30.828c16.999,0,30.828-13.829,30.828-30.828        S358.944,200.348,341.945,200.348L341.945,200.348z"/>
					</g>
				</g>
			</g>
		</g>
	</g>
	<g>
		<g>
			<g>
				<g>
					<g>
						<g>
							<path style="fill:#FF8EDE;" d="M105.756,455.121c-3.889,0-7.381-2.317-8.891-5.904c-1.643-3.915-0.463-7.028,0.814-8.951         c0.359-0.537,1.676-2.239,2.925-2.925c10.76-7.355,17.488-17.4,19.993-29.857c2.21-10.999,0.945-23.611-3.663-36.473         c-3.224-9.012-7.716-18.1-12.063-26.889l-1.508-3.053c-2.782-5.657-5.472-11.196-7.837-16.783         c-0.028-0.052-0.057-0.107-0.079-0.159c-1.429-3.388-1.455-7.134-0.073-10.544c1.382-3.416,4.01-6.082,7.398-7.509         c1.712-0.729,3.519-1.097,5.368-1.097c4.235,0,8.319,2.001,10.923,5.356c1.199,1.569,2.369,3.11,3.483,4.67         c31.464,43.446,35.937,90.967,11.391,121.052c-6.605,8.103-14.836,14.264-24.465,18.316         C108.285,454.869,107.036,455.121,105.756,455.121z"/>
						</g>
					</g>
					<g style="opacity:0.5;">
						<g>
							<path style="fill:#FC09B2;" d="M132.571,434.941c0.643-12.434-4.231-21.152-10.246-27.112         c2.355-11.717,0.846-24.629-3.733-37.412c-3.624-10.135-8.7-20.085-13.649-30.128l16.168-24.261         C155.452,363.447,153.926,408.768,132.571,434.941z"/>
						</g>
					</g>
				</g>
				<g>
					<g>
						<path style="fill:#000E3F;" d="M108.139,306.738c3.69,0,7.234,1.715,9.534,4.675c1.176,1.544,2.335,3.071,3.438,4.616        c34.342,47.418,32.815,92.74,11.46,118.913c-6.327,7.762-14.384,13.85-23.783,17.804c-0.99,0.415-2.019,0.612-3.032,0.612        c-3.07,0-5.996-1.809-7.268-4.824c-2.497-5.96,2.899-9.722,3.071-9.722c0.006,0,0.006,0.003,0.001,0.011        c11.698-7.983,18.319-18.835,20.765-30.993c2.355-11.717,0.847-24.629-3.733-37.412c-3.624-10.135-8.7-20.085-13.649-30.128        c-2.74-5.573-5.462-11.165-7.852-16.83l-0.019-0.018c-2.575-6.107,0.275-13.17,6.383-15.745        C104.986,307.046,106.575,306.738,108.139,306.738 M108.139,303.213L108.139,303.213c-2.088,0-4.128,0.417-6.064,1.24        c-3.812,1.607-6.776,4.617-8.336,8.469c-1.556,3.846-1.526,8.068,0.084,11.889c0.035,0.086,0.075,0.169,0.117,0.251        c2.371,5.596,5.061,11.133,7.838,16.783l1.499,3.034c4.328,8.752,8.803,17.802,11.994,26.726        c4.5,12.561,5.744,24.847,3.597,35.53c-2.413,11.988-8.89,21.659-19.253,28.745c-1.785,1.039-3.202,3.106-3.405,3.41        c-2.144,3.224-2.49,6.991-0.976,10.606c1.794,4.247,5.921,6.987,10.52,6.987c1.515,0,2.992-0.299,4.396-0.887        c9.901-4.165,18.363-10.5,25.151-18.827c25.067-30.723,20.617-79.086-11.338-123.208c-1.1-1.541-2.232-3.034-3.489-4.684        C117.518,305.469,112.913,303.213,108.139,303.213L108.139,303.213z"/>
					</g>
				</g>
			</g>
			<g>
				<g>
					<g>
						<g>
							<path style="fill:#FF8EDE;" d="M400.883,455.121c-1.28,0-2.529-0.252-3.713-0.748c-9.632-4.055-17.863-10.218-24.465-18.319         c-24.548-30.085-20.076-77.603,11.398-121.059c1.104-1.55,2.275-3.094,3.464-4.651c2.614-3.367,6.697-5.368,10.933-5.368         c1.852,0,3.659,0.368,5.375,1.099c3.383,1.424,6.009,4.091,7.393,7.507c1.379,3.412,1.353,7.156-0.076,10.544         c-0.024,0.057-0.052,0.114-0.083,0.168c-2.376,5.615-5.059,11.137-7.83,16.773l-1.489,3.013         c-4.354,8.803-8.856,17.903-12.082,26.93c-4.608,12.865-5.876,25.477-3.666,36.473c2.509,12.459,9.235,22.504,19.992,29.857         c1.251,0.686,2.567,2.388,2.925,2.925c1.277,1.923,2.457,5.036,0.819,8.948C408.264,452.804,404.772,455.121,400.883,455.121         L400.883,455.121z"/>
						</g>
					</g>
					<g style="opacity:0.5;">
						<g>
							<path style="fill:#FC09B2;" d="M374.069,434.941c-0.643-12.434,4.231-21.152,10.246-27.112         c-2.355-11.717-0.846-24.629,3.733-37.412c3.624-10.135,8.7-20.085,13.648-30.128l-16.168-24.261         C351.187,363.447,352.714,408.768,374.069,434.941z"/>
						</g>
					</g>
				</g>
				<g>
					<g>
						<path style="fill:#000E3F;" d="M398.502,306.738c1.562,0,3.153,0.308,4.684,0.959c6.106,2.575,8.958,9.638,6.382,15.745        l-0.019,0.018c-2.391,5.665-5.111,11.257-7.851,16.83c-4.95,10.043-10.026,19.993-13.649,30.128        c-4.58,12.783-6.09,25.695-3.735,37.412c2.448,12.158,9.067,23.01,20.766,30.993c-0.005-0.007-0.005-0.011,0-0.011        c0.173,0,5.57,3.762,3.072,9.722c-1.272,3.015-4.2,4.824-7.269,4.824c-1.014,0-2.042-0.196-3.032-0.612        c-9.399-3.954-17.455-10.042-23.781-17.804c-21.355-26.173-22.882-71.495,11.46-118.913c1.102-1.544,2.26-3.071,3.438-4.616        C391.268,308.453,394.81,306.738,398.502,306.738 M398.502,303.213c-4.774,0-9.38,2.257-12.317,6.036        c-1.225,1.605-2.398,3.153-3.526,4.732c-31.939,44.102-36.388,92.464-11.32,123.189c6.788,8.327,15.247,14.661,25.144,18.824        c1.405,0.59,2.884,0.889,4.399,0.889c4.599,0,8.727-2.739,10.517-6.978c1.517-3.62,1.171-7.383-0.966-10.605        c-0.204-0.306-1.624-2.382-3.414-3.422c-10.361-7.085-16.837-16.755-19.249-28.744c-2.149-10.681-0.905-22.966,3.597-35.528        c3.193-8.933,7.673-17.989,12.004-26.748l1.489-3.01c2.775-5.648,5.465-11.182,7.842-16.796        c0.043-0.079,0.081-0.16,0.114-0.241c1.612-3.82,1.643-8.043,0.085-11.89c-1.56-3.853-4.523-6.862-8.345-8.473        C402.63,303.63,400.589,303.213,398.502,303.213L398.502,303.213z"/>
					</g>
				</g>
			</g>
		</g>
		<g>
			<g>
				<g>
					<g>
						<path style="fill:#FF8EDE;" d="M457.909,249.622c0-10.646-8.658-19.304-19.301-19.304H68.029        c-10.646,0-19.304,8.658-19.304,19.304c0,10.495,8.424,19.043,18.865,19.279v52.307c0,19.458,8.179,38.202,22.442,51.424        c12.998,12.072,29.938,18.72,47.698,18.72h231.173c38.677,0,70.143-31.467,70.143-70.143v-52.307        C449.486,268.665,457.909,260.117,457.909,249.622z"/>
					</g>
				</g>
				<g style="opacity:0.5;">
					<g>
						<path style="fill:#FC09B2;" d="M437.285,276.559v44.65c0,37.76-30.622,68.381-68.382,68.381H137.732        c-17.964,0-34.306-6.925-46.502-18.248c13.298-16.806,43.315-31.831,109.506-27.576        c138.276,8.901,208.064-8.314,234.163-62.738C435.664,279.425,436.466,277.929,437.285,276.559z"/>
					</g>
				</g>
				<g>
					<g>
						<g>
							<path style="fill:#FC09B2;" d="M214.031,336.247c-5.15-2.296-6.234-6.568-3.915-9.615c6.816-8.955,28.242-4.928,24.414,4.947         C232.669,336.379,222.242,339.908,214.031,336.247z"/>
						</g>
					</g>
					<g>
						<g>
							<path style="fill:#FC09B2;" d="M292.604,336.247c5.15-2.296,6.234-6.568,3.915-9.615c-6.816-8.955-28.242-4.928-24.414,4.947         C273.966,336.379,284.392,339.908,292.604,336.247z"/>
						</g>
					</g>
				</g>
				<g style="opacity:0.5;">
					<g>
						<g>
							<path style="fill:#FFFFFF;" d="M72.911,245.524c27.457-2.951,78.119-3.163,106.818-0.133c2.667,0.282,2.663,4.187,0,4.466         c-28.083,2.964-78.254,2.935-106.818-0.133C70.398,249.453,70.418,245.791,72.911,245.524z"/>
						</g>
					</g>
					<g>
						<g>
							<path style="fill:#FFFFFF;" d="M96.579,321.593c0.63,19.46,4.95,22.829,4.639,22.254c1.438,1.97-0.903,4.495-2.977,3.208         c-14.364-8.921-11.84-49.625-6.942-67.049c0.647-2.299,4.007-1.934,4.17,0.431C95.468,280.436,95.918,310.204,96.579,321.593         z"/>
						</g>
					</g>
				</g>
			</g>
			<g>
				<g>
					<g>
						<path style="fill:#000E3F;" d="M438.598,228.563H68.026c-11.62,0-21.053,9.433-21.053,21.053        c0,10.867,8.241,19.838,18.841,20.98v50.615c0,19.935,8.387,39.165,23.022,52.706c13.323,12.374,30.68,19.206,48.89,19.206        h231.173c39.651,0,71.912-32.261,71.912-71.912v-50.615c10.575-1.118,18.865-10.113,18.865-20.98        C459.676,237.996,450.219,228.563,438.598,228.563z M368.898,389.599H137.725c-17.966,0-34.303-6.928-46.507-18.257        c-13.444-12.472-21.88-30.34-21.88-50.129v-50.518h367.946v50.518C437.285,358.967,406.653,389.599,368.898,389.599z         M440.81,266.999c-0.729,0.121-1.459,0.17-2.213,0.17h-1.313H69.339h-1.313c-0.754,0-1.483-0.049-2.212-0.17        c-8.63-1.045-15.316-8.436-15.316-17.382c0-9.676,7.852-17.528,17.528-17.528h370.572c9.7,0,17.553,7.852,17.553,17.528        C456.15,258.563,449.465,265.954,440.81,266.999z"/>
					</g>
				</g>
				<g>
					<g>
						<path style="fill:#000E3F;" d="M265.546,310.637c-0.973,0.007-1.757,0.803-1.747,1.776c0.047,5.783-3.348,12.272-9.736,12.908        c-3.328,0.356-5.653-1.147-7.044-2.441c-2.642-2.462-4.278-6.555-4.169-10.432c0.028-0.973-0.738-1.785-1.712-1.811        c-0.99-0.038-1.785,0.736-1.811,1.712c-0.138,4.919,1.887,9.943,5.29,13.11c2.429,2.262,5.344,3.435,8.499,3.435        c0.427,0,0.859-0.021,1.296-0.064c8.468-0.845,12.972-9.103,12.91-16.446C267.315,311.411,266.487,310.734,265.546,310.637z"/>
					</g>
				</g>
				<g>
					<g>
						<path style="fill:#000E3F;" d="M290.52,299.701c-0.973,0.007-1.757,0.803-1.747,1.776c0.033,4.371-2.165,9.266-6.301,9.729        c-1.474,0.166-2.837-0.304-4.031-1.403c-1.961-1.797-3.221-5.13-3.143-8.295c0.024-0.973-0.743-1.783-1.717-1.807        c-1.006-0.009-1.781,0.746-1.807,1.717c-0.107,4.19,1.576,8.502,4.283,10.983c1.697,1.557,3.699,2.365,5.836,2.365        c0.32,0,0.646-0.019,0.973-0.054c6.184-0.693,9.475-7.35,9.43-13.262C292.288,300.473,291.415,299.735,290.52,299.701z"/>
					</g>
				</g>
				<g>
					<g>
						<path style="fill:#000E3F;" d="M233.12,299.701c-0.005,0-0.009,0-0.012,0c-0.973,0.007-1.757,0.8-1.75,1.773        c0.031,4.373-2.168,9.269-6.303,9.732c-1.479,0.171-2.835-0.306-4.029-1.401c-1.958-1.797-3.222-5.133-3.143-8.298        c0.024-0.973-0.743-1.783-1.717-1.807c-1.066-0.009-1.781,0.746-1.807,1.717c-0.107,4.19,1.577,8.502,4.283,10.985        c1.697,1.555,3.696,2.362,5.833,2.362c0.323,0,0.646-0.019,0.973-0.054c6.184-0.693,9.475-7.35,9.432-13.259        C234.875,300.48,234.089,299.701,233.12,299.701z"/>
					</g>
				</g>
			</g>
		</g>
	</g>
	<g>
		<g>
			<g>
				<g>
					<path style="fill:#00B0C4;" d="M124.16,156.255c-7.302,6.706-24.157,18.873-34.724,22.116       c-5.079,1.559-10.459-1.294-12.018-6.373c-1.427-4.65,0.847-9.554,5.14-11.544c10.075-4.686,30.89-6.896,40.603-6.801       C124.52,153.667,125.154,155.336,124.16,156.255z"/>
				</g>
			</g>
			<g>
				<g>
					<path style="fill:#00B0C4;" d="M119.928,137.581c-7.717,1.657-24.194,3.208-32.755,1.171c-4.114-0.979-6.656-5.108-5.677-9.223       c0.896-3.768,4.436-6.215,8.185-5.85c8.806,0.849,23.983,7.729,30.612,11.713C121.22,135.949,120.981,137.351,119.928,137.581z       "/>
				</g>
			</g>
			<g>
				<g>
					<path style="fill:#00B0C4;" d="M132.861,173.204c-6.807,3.994-20,13.988-24.933,21.275c-2.371,3.502-1.454,8.264,2.049,10.634       c3.207,2.171,7.47,1.583,9.986-1.22c5.916-6.577,12.453-21.906,14.645-29.322C134.916,173.533,133.793,172.661,132.861,173.204       z"/>
				</g>
			</g>
		</g>
		<g>
			<g>
				<g>
					<path style="fill:#00B0C4;" d="M463.119,333.197c8.392,5.277,27.167,14.202,38.146,15.485       c5.276,0.616,10.054-3.161,10.67-8.438c0.564-4.832-2.558-9.244-7.139-10.427c-10.756-2.79-31.627-1.206-41.163,0.641       C462.297,330.716,461.975,332.472,463.119,333.197z"/>
				</g>
			</g>
			<g>
				<g>
					<path style="fill:#00B0C4;" d="M463.91,314.066c7.889,0.237,24.375-1.212,32.428-4.761c3.87-1.706,5.625-6.226,3.919-10.096       c-1.561-3.544-5.485-5.313-9.106-4.277c-8.508,2.425-22.194,11.932-27.994,17.047       C462.345,312.694,462.832,314.03,463.91,314.066z"/>
				</g>
			</g>
			<g>
				<g>
					<path style="fill:#00B0C4;" d="M457.62,351.438c7.416,2.7,22.196,10.148,28.364,16.425c2.964,3.017,2.921,7.866-0.096,10.83       c-2.763,2.714-7.062,2.906-10.043,0.602c-7.006-5.401-16.203-19.299-19.697-26.196       C455.658,352.133,456.605,351.073,457.62,351.438z"/>
				</g>
			</g>
		</g>
	</g>
</g>















</svg>
