<?xml version="1.0" encoding="UTF-8"?>
<!-- Generator: Adobe Illustrator 25.3.1, SVG Export Plug-In . SVG Version: 6.00 Build 0)  -->
<svg xmlns="http://www.w3.org/2000/svg" xmlns:xlink="http://www.w3.org/1999/xlink" version="1.1" id="Capa_1" x="0px" y="0px" viewBox="0 0 512 512" style="enable-background:new 0 0 512 512;" xml:space="preserve" width="512" height="512">
<g>
	<g style="opacity:0.35;">
		<g>
			<g>
				<path style="fill:#00B0C4;" d="M0.411,419.339c4.824,29.104,53.229,58.161,99.461,35.045      c11.274-5.244,21.967-13.789,34.41-13.156c11.648,0.592,20.975,9.065,30.256,15.957c38.739,28.769,78.65,24.621,100.107,3.91      c8.88-8.571,14.939-20.313,25.895-26.129c20.429-10.844,45.328,3.33,63.271,8.11c28.414,7.568,61.566-0.664,72.105-31.612      c11.06-32.48-12.907-81.849-64.487-80.488c-18.776,0.495-40.962,4.106-55.592-11.134c-9.342-9.733-11.868-23.955-19.952-34.493      c-8.861-11.55-21.494-20.231-35.577-23.986c-24.619-6.564-42.54,1.478-58.894,19.099      c-12.942,13.946-25.234,31.732-45.464,34.863c-21.107,3.267-33.438-2.181-53.45-7.029c-13.663-3.31-27.786-10.451-41.826-5.045      c-13.58,5.228-24.032,19.171-23.795,34.34c0.214,13.632,17.712,20.936,14.998,34.872      C37.391,395.503-4.576,389.248,0.411,419.339z"/>
			</g>
		</g>
	</g>
	<g>
		<g>
			<g>
				<g>
					<g>
						<path style="fill:#FFCF00;" d="M216.45,63.888c0.1,4.604-0.64,9.067-2.542,13.266c-1.977,4.363-4.641,8.239-8.433,11.29        c-1.937,1.559-3.979,2.928-6.068,4.267c-7.538,4.829-12.868,11.49-16.092,19.839c-0.334,0.865-0.626,1.749-1.003,2.595        c-0.282,0.633-1.099,0.696-1.529,0.164c-0.193-0.239-0.404-0.483-0.522-0.761c-1.174-2.759-2.121-5.57-2.504-8.578        c-1.216-9.557,1.661-18.115,6.262-26.269c2.396-4.247,5.519-7.961,8.669-11.647c3.035-3.552,5.478-7.503,7.709-11.576        c2.682-4.896,4.856-10.028,6.589-15.341c0.16-0.491,0.333-0.977,0.511-1.462c0.146-0.395,0.337-0.775,0.828-0.791        c0.451-0.015,0.797,0.239,0.993,0.615c0.953,1.83,1.953,3.641,2.807,5.518C214.794,50.885,216.634,58.819,216.45,63.888z"/>
					</g>
				</g>
				<g style="opacity:0.75;">
					<g>
						<path style="fill:#FFFFFF;" d="M194.906,83.491c-1.518,0.855-3.195-0.876-2.281-2.37c6.175-10.089,8.34-9.002,14.935-26.324        l0.013-0.034c0.314-0.824,1.236-1.238,2.06-0.924C213.021,55.131,211.352,74.242,194.906,83.491z"/>
					</g>
				</g>
			</g>
			<g>
				<g>
					<path style="fill:#000E3F;" d="M201.552,94.147c-8.184,4.958-14.965,13.292-17.303,23.56c-0.114,0.501-0.158,1.029-0.348,1.498       c-0.531,1.309-2.254,1.871-3.632-0.127c-8.789-12.741-5.424-28.724,2.589-41.965c5.804-9.592,9.221-9.748,15.506-21.941       c6.448-12.51,7.255-18.569,7.684-19.529c0.746-1.67,2.504-1.934,3.757,0.112C225.463,61.322,219.86,83.055,201.552,94.147z        M181.789,113.09c1.195-2.216,1.157-4.186,5.027-9.554c9.598-13.311,16.489-11.833,23.138-21.52       c8.403-12.243,6.02-27.502-0.682-40.155c-2.231-4.213-2.677,12.292-17.476,28.967       C171.447,93.756,180.055,116.306,181.789,113.09z"/>
				</g>
			</g>
		</g>
		<g>
			<g>
				<g>
					<g>
						<path style="fill:#FFCF00;" d="M329.118,144.073c0.029,4.773-0.784,9.44-1.985,14.033c-1.044,3.994-2.462,7.872-4.13,11.652        c-0.416,0.942-0.901,1.857-1.406,2.756c-0.25,0.446-0.609,0.869-1.219,0.765c-0.446-0.075-0.665-0.433-0.837-0.821        c-0.754-1.695-1.478-3.404-2.277-5.077c-2.468-5.173-5.856-9.723-9.838-13.793c-5.29-5.407-9.049-11.752-11.809-18.707        c-1.827-4.603-3.217-9.363-3.964-14.28c-0.201-1.322-0.422-2.654-0.451-3.985c-0.069-3.094-0.099-6.193-0.006-9.285        c0.081-2.69,0.594-5.329,1.583-7.847c0.52-1.324,1.114-1.62,2.402-1.05c5.672,2.511,11.14,5.374,16.043,9.237        c4.335,3.415,8.034,7.399,10.963,12.067c3.44,5.482,5.768,11.369,6.488,17.87        C328.915,139.764,329.182,141.901,329.118,144.073z"/>
					</g>
				</g>
				<g style="opacity:0.75;">
					<g>
						<path style="fill:#FFFFFF;" d="M320.235,149.691c-0.135,0.917-0.987,1.552-1.904,1.417c-2.641-0.387-1.19-5.688-7.352-19.73        c-6.121-14.69-11.898-17.021-9.207-18.937C304.175,110.73,323.26,129.102,320.235,149.691z"/>
					</g>
				</g>
			</g>
			<g>
				<g>
					<path style="fill:#000E3F;" d="M290.485,98.729c0.88-2.389,1.486-4.229,3.784-3.273c34.977,14.549,47.564,43.455,27.885,81.129       c-0.598,1.145-1.19,2.225-2.443,1.944c-3.616-0.811,1.519-3.932-11.005-19.933c-2.814-3.595-6.121-6.697-8.738-10.479       C288.773,131.934,286.17,110.447,290.485,98.729z M302.221,103.005c-2.193-1.146-4.443-2.191-6.708-3.186       c-1.147-0.504-1.676-0.191-2.055,1.036c-5.939,19.218,3.449,39.602,16.269,53.622c10.334,11.302,9.845,20.101,12.139,14.985       c2.465-5.497,8.073-19.973,5.252-34.088C324.452,122.029,313.765,109.042,302.221,103.005z"/>
				</g>
			</g>
		</g>
		<g>
			<g>
				<g>
					<g>
						<g>
							<path style="fill:#FFFFFF;" d="M162.132,410.598c-6.011-2.904-10.283-3.505-15.242-3.072         c-6.474,0.564-9.077,1.139-10.755,0.984c-5.234-0.485-10.461-0.956-15.413-2.976c-20.257-8.26-25.266-30.175-5.658-45.76         c6.138-4.878,8.637-11.255,6.158-19.866c-1.212-4.21-3.696-9.181,3.068-18.21c9.991-13.338,32.376-16.608,43.68-3.312         c8.144,9.579,17.007,6.301,22.543,6.937c8.749,1.004,19.461,13.831,15.97,31.051c-1.181,5.829-4.75,8.811,0.184,17.726         c1.327,2.398,3.974,4.487,4.195,10.1C211.76,407.012,185.193,421.739,162.132,410.598z"/>
						</g>
					</g>
					<g>
						<g>
							<path style="fill:#FFFFFF;" d="M277.965,407.466c-6.876,0.017-13.388,1.049-18.377,6.456         c-9.373,10.159-26.508,9.411-39.056,3.464c-6.623-3.139-12.04-7.931-13.464-9.749c-2.696-3.441-2.308-2.876-0.281-5.724         c2.918-4.099,4.854-8.591,5.247-13.702c0.59-7.66-0.433-8.613-3.892-14.11c-2.694-4.281-3.428-8.764-1.46-13.564         c2.739-6.681,0.881-10.883,3.587-14.532c14.436-19.464,40.763-17.476,48.155-2.811c3.19,6.327,8.652,8.899,15.318,9.329         c4.522,0.292,9.952-2.752,17.422-2.267c30.498,1.977,43.617,35.991,18.42,51.645c-6.647,4.129-13.918,6.151-21.751,6.127         C283.703,408.016,280.792,408.198,277.965,407.466z"/>
						</g>
					</g>
					<g>
						<g>
							<path style="fill:#FFFFFF;" d="M73.644,392.252c-10.96-4.909-15.733-14.019-15.498-20.275         c0.17-4.521-0.623-9.087,4.52-15.338c3.635-4.419,8.19-7.759,13.72-9.036c7.183-1.658,9.22-11.17,9.168-18.219         c-0.143-19.664,16.94-31.599,32.633-23.133c3.379,1.823,6.469,4.064,8.703,7.289c1.924,2.778,0.435,2.216-3.462,7.156         c-3.926,4.976-6.322,11.235-4.215,17.264c6.03,17.249-5.293,18.43-12.847,29.05c-3.824,5.375-6.496,13.558-4.416,20.184         c1.654,5.27,3.331,6.279-0.116,7.091C98.111,395.161,82.674,396.297,73.644,392.252z"/>
						</g>
					</g>
					<g>
						<g>
							<path style="fill:#FFFFFF;" d="M334.829,321.777c16.145,12.869,5.697,26.141,15.954,33.381         c7.313,5.163,13.179,12.915,13.018,21.974c-0.356,20.024-28.683,26.231-41.171,14.726c-1.143-1.053-0.675-1.847-0.268-2.78         c6.619-15.155-5.619-39.981-33.584-40.064c-3.032-0.009-3.133-0.152-3.191-3.123c-0.063-3.205,0.008-6.377,1.055-9.473         C294.081,314.438,319.599,309.637,334.829,321.777z"/>
						</g>
					</g>
				</g>
				<g>
					<g>
						<path style="fill:#FFCF00;" d="M321.994,312.422c-0.993,1.181-2.044,1.575-3.695,1.518        c-21.998-0.548-34.353,15.894-34.298,30.622v1.856c-0.037,2.944-0.037,2.963-3,3.657c-2.719,0.638-5.457,1.125-8.27,0.938        c-5.382-0.375-9.751-2.4-12.452-7.369c-8.03-14.796-26.181-16.872-41.029-7.689c-6.367,3.927-8.854,8.15-9.845,8.87        c-1.086,0.859-1.479-1.368-1.893-2.869c-3.258-11.314-11.267-19.625-23.028-18.002c-16.198,2.246-14.719-15.296-35.31-15.245        c-11.863,0.056-12.023,3.96-15.471,1.125c-9.295-7.577-17.316-20.567-19.802-38.779c-0.6-4.5-1.2-9.001-1.125-13.558        c0.299-7.932,0.993-15.808,2.681-23.609c2.007-9.226,5.007-18.095,8.814-26.703c1.125-2.55,2.457-5.007,3.713-7.482        c0.188-0.356,0.431-0.713,0.732-0.975c0.337-0.319,0.825-0.337,1.088,0.038c0.487,0.656,0.956,1.35,1.256,2.1        c5.577,13.472,18.669,38.978,28.653,48.962c0.502,0.502,1.375,0.325,0.993-0.544c-0.187-0.469-0.394-0.956-0.656-1.406        c-19.76-34.788-14.852-86.162,7.594-114.013c0.394-0.487,0.769-0.975,1.219-1.406c0.469-0.487,1.313-0.206,1.426,0.488        c0.113,0.712,0.169,1.443,0.169,2.156c-0.124,21.751,10.141,50.231,22.146,64.17c0.155,0.188,0.966,1.02,1.2,0.787        c0.408-0.41,0.466-0.186-0.676-2.719c-12.074-26.286-5.663-50.228,13.84-68.764c13.222-12.584,25.483-30.185,31.297-47.33        c0.094-0.3,0.188-0.6,0.3-0.881c0.356-0.769,1.219-0.844,1.706-0.094c0.394,0.6,0.732,1.238,1.05,1.894        c13.927,28.966,11.743,73.342-7.613,98.636c-0.487,0.619-1.444,1.219-0.918,2.1c0.6,0.975,1.688,0.506,2.55,0.3        c10.47-2.406,20.957-8.663,29.309-15.489c19.308-15.802,17.722-25.387,21.64-19.652c15.893,23.552,8.319,59.551-9.188,82.266        c-0.487,0.618-1.388,1.237-0.956,2.1c0.525,1.031,1.631,0.581,2.512,0.581c1.668,0,3.262-0.525,4.857-0.919        c9.732-2.457,18.19-7.182,25.259-14.308c1.894-1.913,3.825-3.769,5.401-5.963c2.833-4.001,6.076,12.008,2.906,26.328        c-2.738,12.77-8.982,23.984-17.14,34.335c-2.326,2.961-12.238,12.155-16.614,26.515c-0.412,1.388-0.787,2.775-0.581,4.257        c0.104,0.833,0.814,0.689,1.05,0.356c2.926-4.834,7.656-16.593,24.041-25.446c2.457-1.331,5.062-2.326,7.575-3.526        c13.415-6.48,14.988-14.057,16.408-10.632c0.432,1.05,0.844,2.119,1.069,3.225        C336.086,282.012,331.559,300.859,321.994,312.422z"/>
					</g>
				</g>
				<g>
					<g>
						<path style="fill:#FD8A02;" d="M278.602,312.308c2.319,13.196-3.728,24.715-13.592,33.763        c-1.015,0.927-1.679,1.236-2.45,0.706c-0.485-0.353-1.015-1.059-1.698-2.162c-0.2-0.309-0.399-0.64-0.575-0.971        c-0.418-0.75-0.838-1.478-1.323-2.163c-0.222-0.353-0.442-0.684-0.707-1.015c-0.353-0.486-0.728-0.971-1.125-1.413        c-0.308-0.375-0.64-0.75-1.015-1.103c-0.442-0.485-0.927-0.949-1.457-1.39c-0.198-0.199-0.418-0.375-0.64-0.53        c-2.405-1.92-5.185-3.421-8.275-4.391c-0.442-0.155-0.905-0.265-1.347-0.375c-0.552-0.132-1.103-0.265-1.655-0.375        c-1.168-0.199-2.338-0.353-3.53-0.419c-0.506-0.022-1.015-0.044-1.521-0.044c-2.959-0.066-6.092,0.375-9.247,1.346        c-0.397,0.11-0.817,0.243-1.213,0.397c-0.399,0.11-0.817,0.264-1.213,0.419c-0.552,0.199-1.103,0.419-1.655,0.662        c-0.993,0.419-1.987,0.905-2.959,1.434c-0.286,0.132-0.552,0.287-0.815,0.442c-0.31,0.176-0.619,0.353-0.905,0.552        c-0.177,0.088-0.353,0.198-0.53,0.331c-0.442,0.265-0.882,0.552-1.302,0.86c-0.574,0.397-1.103,0.795-1.612,1.192        c-1.721,1.324-3.332,2.847-4.81,4.524c-0.155,0.177-0.309,0.353-0.463,0.53c-1.059,1.147-1.699,1.898-2.162,1.898        c0,0,0,0-0.023,0c-0.441-0.022-0.706-0.662-1.036-2.141c-0.023-0.044-0.044-0.11-0.044-0.154        c-0.463-2.141-1.236-4.348-2.318-6.443c-0.177-0.354-0.352-0.706-0.552-1.082c-0.088-0.154-0.154-0.331-0.265-0.485        c-0.176-0.331-0.397-0.684-0.617-1.037c-0.927-1.478-2.096-3.001-3.575-4.413c-1.676-1.655-3.597-3.045-5.781-4.083        c-0.088-0.044-0.177-0.088-0.265-0.11c-3.994-1.81-7.437-1.258-10.945-1.081c-0.332,0.022-0.663,0.022-0.993,0.022        c-0.552,0.022-1.103,0-1.676-0.044c-1.655-0.066-3.377-0.398-5.186-1.258c-0.242-0.11-0.486-0.22-0.728-0.353        c-0.243-0.11-0.486-0.243-0.728-0.398c-0.287-0.176-0.573-0.353-0.882-0.573c-0.485-0.309-0.971-0.684-1.457-1.082        c-0.22-0.176-0.441-0.353-0.662-0.552c-0.309-0.264-0.662-0.64-1.082-1.103c-0.22-0.22-0.441-0.463-0.683-0.728        c-0.354-0.376-0.773-0.795-1.214-1.258l-0.441-0.441c-0.354-0.331-0.707-0.662-1.103-1.016        c-0.486-0.441-1.015-0.882-1.612-1.324c-0.595-0.463-1.279-0.927-1.986-1.39c-0.331-0.198-0.684-0.419-1.059-0.617        c-1.611-0.861-3.464-1.633-5.627-2.229c-0.133-0.044-0.265-0.088-0.419-0.133c-1.28-0.397-2.185-1.081-2.935-2.184        c-2.935-4.237-5.517-8.65-7.614-13.263c-1.898-4.259-3.399-8.694-4.347-13.373c-1.259-6.069-1.699-14.719,0.529-20.501        c0.619-1.655,2.383-2.008,3.619-0.529c9.577,11.607,22.09,19.905,31.975,24.98c9.799,4.987,16.992,6.819,16.242,5.517        c-0.198-0.331-0.463-0.751-0.817-1.28c-5.605-8.496-29.858-41.84-20.897-72.91c0.375-1.28,1.632-4.877,2.846-6.113        c3.729-3.818,3.708,6.201,22.708,31.203c3.509,4.634,15.955,19.574,14.3,15.425c-19.817-50.049,3.84-106.85,8.232-95.772        c1.345,3.398-0.552,5.164,1.677,25.135c2.472,22.222,9.842,51.55,12.027,51.682c1.058,0.066,13.329-9.666,18.359-39.038        c0.332-2.008,3.487-0.971,6.224,1.699c6.489,6.4,9.18,15.558,9.446,24.473c0.22,7.746-0.155,16.131-3.709,23.171        c-1.058,2.096-6.243,7.724-1.278,8.827c0.33,0.066,0.662,0.11,1.015,0.11c2.558,0.133,5.538-1.169,7.635-2.14        c3.685-1.722,6.642-4.171,9.73-6.753c1.435-1.192,5.431-4.105,6.114-0.706c3.618,18.117-6.444,39.854-18.139,54.529        c-7.415,9.335-9.004,8.739-9.665,11.1c0.662,0.177,0.351,0.397,3.31-0.132C277.742,309.836,277.434,305.776,278.602,312.308z"/>
					</g>
				</g>
				<g style="opacity:0.18;">
					<g>
						<g>
							<path style="fill:#000E3F;" d="M278.213,407.501c-0.87-0.227-9.458-0.185-15.142,3.437         c-4.396,2.801-7.104,9.645-20.922,10.679c-13.1,0.979-25.986-4.74-34.223-13.09c-4.056-4.112-2.718-4.13-1.176-6.631         c5.877-9.532,24.116-13.325,36.563-12.698c7.795,0.392,12.162,3.698,19.769,3.158c9.383-0.666,13.791-12.389,0.457-20.854         c-6.038-3.834-9.348-7.648-8.74-15.067c0.381-4.645,2.643-9.232,3.966-10.571c0.737-0.746,1.456,0.153,2.392,1.262         c3.396,4.02,10.426,6.724,19.135,4.447c21.945-5.737,41.174,8.508,42.6,27.754c0.977,13.178-13.314,28.774-35.125,28.702         C283.582,408.015,280.856,408.191,278.213,407.501z"/>
						</g>
					</g>
					<g>
						<g>
							<path style="fill:#000E3F;" d="M177.63,414.246c-13.558,0.982-16.583-8.084-30.897-6.699         c-2.857,0.277-18.813,3.576-31.931-5.072c-4.394-2.897-7.921-6.559-10.14-11.412c-0.623-1.362-0.6-2.413,0.31-3.697         c7.37-10.396,28.044-17.623,46.52-7.504c4.832,2.646,9.691,5.366,15.492,0.966c9.769-7.409,6.73-18.005,9.376-28.444         c2.461-9.706,8.203-16.721,17.13-21.173c5.237-2.612,5.516-1.989,7.051-0.078c6.432,8.002,8.748,18.494,4.765,29.17         c-1.889,5.062-1.067,9.469,1.413,13.883c1.261,2.244,3.878,4.427,4.13,9.812c0.715,15.253-10.838,27.009-25.947,29.92         C182.753,414.334,180.582,414.189,177.63,414.246z"/>
						</g>
					</g>
					<g>
						<g>
							<path style="fill:#000E3F;" d="M339.135,397.456c-5.593,0.487-11.11-1.513-15.55-4.803c-1.656-1.227-2.078-1.778-1.127-3.866         c2.135-4.689,2.154-9.583,0.986-14.538c-0.532-2.258-1.172-3.075,2.333-2.93c5.075,0.211,7.595-5.013,7.22-9.877         c-0.608-7.887-3.786-12.995-1.991-20.736c0.944-4.07,2.48-7.924,5.07-11.191c2.868-3.617,3.327-3.682,5.561,0.156         c4.635,7.964,3.221,12.993,3.848,16.35c0.722,3.87,2.369,7.179,5.782,9.496c12.985,8.814,17.652,26.196,5.422,36.117         C351.629,395.737,345.834,397.921,339.135,397.456z"/>
						</g>
					</g>
					<g>
						<g>
							<path style="fill:#000E3F;" d="M58.143,372.111c0.128-4.255-0.211-5.017,0.579-5.372c1.989-0.896,3.279,8.559,20.585,8.279         c6.62-0.107,11.974-6.136,14.679-12.21c2.855-6.411,3.278-10.546,9.49-17.206c4.987-5.346,10.368-8.676,12.175-9.427         c2.599-1.078,2.713-0.669,3.416,1.346c8.274,23.726-15.508,18.729-17.872,43.731c-0.311,3.29,0.681,6.368,1.934,9.308         c1.133,2.66,1.151,3.202-2.063,3.898C76.055,399.882,57.738,385.588,58.143,372.111z"/>
						</g>
					</g>
					<g>
						<g>
							<path style="fill:#000E3F;" d="M142.126,328.209c-7.365,8.661,0.487,14.024-3.597,27.321         c-1.714,5.713-5.474,10.222-10.157,12.711c-1.689,0.899-3.31-1.325-1.938-2.658c1.646-2.477,9.506-7.623,6.118-25.034         c-2.406-12.947,9.542-22.976,20.824-21.827c1.787,0.182,1.891,2.761,0.126,3.087         C153.502,321.809,146.78,322.816,142.126,328.209z"/>
						</g>
					</g>
					<g>
						<g>
							<path style="fill:#000E3F;" d="M104.943,318.117c-9.03,8.32-3.113,32.156-17.127,37.627         c-2.593,1.004-8.681,1.948-8.301-1.056c0.156-1.238,1.521-1.538,1.333-1.428c7.848-1.935,9.146-6.508,10.9-15.646         c1.673-7.998,3.46-18.95,11.596-22.148c1.602-0.629,2.913,1.435,1.641,2.614L104.943,318.117z"/>
						</g>
					</g>
					<g>
						<g>
							<path style="fill:#000E3F;" d="M228.003,351.35c-7.79,5.597-9.477,17.157-9.434,16.961c-0.398,1.793-2.997,1.714-3.281-0.11         c-2.826-18.584,15.035-31.793,32.607-24.396c1.587,0.668,1.086,3.056-0.644,3.021         C245.424,347.116,235.446,345.854,228.003,351.35z"/>
						</g>
					</g>
					<g>
						<g>
							<path style="fill:#000E3F;" d="M308.59,331.528c-6.532,3.995-8.954,11.71-8.858,11.522c-0.329,0.871-1.301,1.311-2.172,0.982         c-3.987-1.499,1.07-21.214,17.194-20.765c3.644,0.054,11.579,2.73,9.382,5.442c-0.381,0.469-0.973,0.664-1.527,0.56         C320.79,329.173,314.907,327.434,308.59,331.528z"/>
						</g>
					</g>
					<g>
						<g>
							<path style="fill:#000E3F;" d="M278.602,312.308c2.319,13.196-3.728,24.715-13.592,33.763         c-1.015,0.927-1.679,1.236-2.45,0.706c-0.618-0.64-1.192-1.346-1.698-2.162c-0.2-0.309-0.399-0.64-0.575-0.971         c-0.418-0.75-0.838-1.478-1.323-2.163c-0.222-0.353-0.463-0.684-0.707-1.015c-0.353-0.486-0.728-0.971-1.125-1.413         c-0.308-0.375-0.64-0.75-1.015-1.103c-0.442-0.485-0.927-0.949-1.457-1.39c-0.198-0.199-0.418-0.375-0.64-0.53         c-2.472-2.052-5.295-3.509-8.275-4.391c-0.442-0.155-0.905-0.265-1.347-0.375c-0.552-0.154-1.103-0.287-1.655-0.375         c-1.168-0.199-2.338-0.353-3.53-0.419c-0.506-0.022-1.015-0.044-1.521-0.044c-3.047,0-6.181,0.463-9.247,1.346         c-0.397,0.11-0.817,0.243-1.213,0.397c-0.399,0.11-0.817,0.264-1.213,0.419c-0.552,0.199-1.103,0.419-1.655,0.662         c-0.993,0.419-1.987,0.905-2.959,1.434c-0.286,0.132-0.552,0.287-0.815,0.442c-0.31,0.176-0.619,0.353-0.905,0.552         c-0.177,0.088-0.353,0.198-0.53,0.331c-0.442,0.265-0.882,0.552-1.302,0.86c-0.552,0.376-1.082,0.773-1.612,1.192         c-1.721,1.324-3.332,2.847-4.81,4.524c-0.155,0.177-0.309,0.353-0.463,0.53c-0.177,0.199-0.353,0.397-0.507,0.596         c-0.331,0.375-0.64,0.816-1.059,1.126c-0.221,0.177-0.42,0.242-0.596,0.177c0,0,0,0-0.023,0         c-0.397-0.154-0.684-0.927-1.036-2.141c-0.023-0.044-0.044-0.11-0.044-0.154c-0.356-1.196-0.788-2.751-1.467-4.483         c-0.274-0.656-0.52-1.319-0.851-1.96c-0.177-0.354-0.352-0.706-0.552-1.082c-0.088-0.154-0.154-0.331-0.265-0.485         c-0.176-0.331-0.397-0.684-0.617-1.037c-0.927-1.478-2.096-3.001-3.575-4.413c-0.087-0.111-0.175-0.221-0.286-0.309         c-1.942-1.832-3.751-3.023-5.494-3.774c-0.088-0.044-0.177-0.088-0.265-0.11c-3.885-1.611-7.393-1.148-10.945-1.081         c-0.332,0.022-0.663,0.022-0.993,0.022c-0.552,0-1.125-0.022-1.676-0.044c-1.678-0.133-3.399-0.463-5.186-1.258         c-0.242-0.11-0.486-0.22-0.728-0.353c-0.243-0.11-0.486-0.243-0.728-0.398c-0.287-0.176-0.573-0.353-0.882-0.573         c-0.485-0.309-0.971-0.684-1.457-1.082c-0.22-0.176-0.441-0.353-0.662-0.552c-0.309-0.264-0.662-0.64-1.082-1.103         c-0.22-0.22-0.441-0.463-0.683-0.728c-0.354-0.376-0.773-0.795-1.214-1.258l-0.441-0.441         c-0.354-0.331-0.707-0.662-1.103-1.016c-0.486-0.441-1.015-0.882-1.612-1.324c-0.595-0.463-1.279-0.927-1.986-1.39         c-0.331-0.198-0.684-0.419-1.059-0.617c-1.721-0.971-3.729-1.81-6.046-2.361c-1.28-0.397-2.185-1.081-2.935-2.184         c-2.935-4.237-5.517-8.65-7.614-13.263c7.835-8.319,19.662-10.989,31.777-9.423c5.209,0.64,10.439,2.096,15.426,4.237         c6.753,2.847,13.042,6.93,18.139,11.983c5.628,5.539,14.014,17.588,25.224,15.911c6.907-1.016,11.872-7.437,14.012-14.102         c2.118-6.642,2.78-13.682,3.487-20.633c0.993-9.908,4.633-18.404,10.085-25.268c2.558,0.133,5.538-1.169,7.635-2.14         c3.685-1.722,6.642-4.171,9.73-6.753c1.435-1.192,5.431-4.105,6.114-0.706c3.618,18.117-6.444,39.854-18.139,54.529         c-7.415,9.335-9.004,8.739-9.665,11.1c0.662,0.177,0.351,0.397,3.31-0.132C277.742,309.836,277.434,305.776,278.602,312.308z         "/>
						</g>
					</g>
				</g>
				<g style="opacity:0.75;">
					<g>
						<g>
							<path style="fill:#FFFFFF;" d="M240.448,106.723c-1.2,12.745-9.537,20.746-19.052,28.738         c-9.507,7.821-15.689,13.038-16.172,25.325l-0.001,0.013c-0.076,1.942-2.879,2.179-3.28,0.277         c-1.258-5.965-0.36-12.346,3.062-17.838c8.404-13.756,25.415-17.899,32.418-37.177l0.006-0.017         C238.051,104.335,240.617,104.908,240.448,106.723z"/>
						</g>
					</g>
					<g>
						<g>
							<path style="fill:#FFFFFF;" d="M132.027,277.571l0.006,0.018c0.588,1.788-1.795,3.027-2.92,1.516         c-10.583-14.233-10.116-36.57-0.669-51.247c0.956-1.485,3.268-0.484,2.84,1.229         C126.793,247.068,126.126,259.681,132.027,277.571z"/>
						</g>
					</g>
					<g>
						<g>
							<path style="fill:#FFFFFF;" d="M178.921,198.482c0.981,1.565-0.954,3.343-2.433,2.214         c-12.284-9.422-17.621-29.411-13.975-44.199c0.419-1.698,2.878-1.533,3.088,0.184         C169.259,186.585,179.038,198.669,178.921,198.482z"/>
						</g>
					</g>
					<g>
						<g>
							<path style="fill:#FFFFFF;" d="M282.951,167.836c-7.829,20.776-37.373,25.431-36.658,19.598         c0.146-1.181,1.42-1.535,1.232-1.416c6.394-1.817,12.126-3.896,17.852-7.438c8.144-4.823,15.139-12.583,14.959-12.395         C281.52,164.955,283.551,166.235,282.951,167.836z"/>
						</g>
					</g>
					<g>
						<g>
							<path style="fill:#FFFFFF;" d="M295.809,305.875l-0.03,0.041c-1.04,1.389-3.261,0.492-3.037-1.237         c1.492-11.325,13.793-20.35,25.173-20.073c1.627,0.039,2.159,2.222,0.722,3.002         C308.136,293.303,303.628,295.436,295.809,305.875z"/>
						</g>
					</g>
					<g>
						<g>
							<path style="fill:#FFFFFF;" d="M304.507,239.564c-4.126,2.689-9.793,4.36-14.591,3.556c-1.661-0.278-1.948-2.547-0.419-3.236         c5.353-2.413,11.742-5.249,16.176-9.461c2.667-2.511,3.79-4.968,3.686-4.776c0.424-0.775,1.397-1.061,2.173-0.636         C313.632,226.159,312.545,234.299,304.507,239.564z"/>
						</g>
					</g>
				</g>
				<g>
					<g>
						<g>
							<path style="fill:#FF8EDE;" d="M172.572,277.414c5.75-6.392,17.789-6.686,24.913-2.572         c7.053,4.074,6.625,13.131-4.125,16.251C178.636,295.367,165.114,285.707,172.572,277.414z"/>
						</g>
					</g>
					<g>
						<g>
							<path style="fill:#FF8EDE;" d="M274.651,277.414c-5.75-6.392-17.788-6.686-24.913-2.572         c-7.053,4.074-6.625,13.131,4.125,16.251C268.587,295.367,282.11,285.707,274.651,277.414z"/>
						</g>
					</g>
				</g>
				<g style="opacity:0.5;">
					<g>
						<g>
							<path style="fill:#FD8A02;" d="M321.987,312.419c-0.991,1.192-2.03,1.589-3.685,1.523         c-22.001-0.552-34.357,15.888-34.293,30.629c-0.043,4.833,0.375,4.723-3,5.495c-7.041,1.655-13.969,1.368-18.449-3.289         c0.771,0.53,1.435,0.221,2.45-0.706c9.863-9.048,15.91-20.567,13.592-33.763c-1.168-6.532-0.86-2.472-16.173,0.353         c-2.959,0.53-2.649,0.309-3.31,0.132c0.662-2.361,2.25-1.765,9.665-11.1c11.695-14.675,21.757-36.411,18.139-54.529         c-0.683-3.398-4.679-0.485-6.114,0.706c-3.088,2.582-6.045,5.031-9.73,6.753c-2.097,0.971-5.077,2.272-7.635,2.14         c11.96-15.094,32.703-22.199,53.645-18.625c-2.737,12.777-8.982,23.987-17.145,34.337         c-2.319,2.957-12.249,12.159-16.617,26.525c-1.368,4.568-0.222,5.583,0.463,4.612c2.935-4.833,7.657-16.594,24.052-25.443         c2.45-1.346,5.053-2.339,7.57-3.531c13.417-6.488,14.984-14.057,16.417-10.636         C336.617,275.676,333.331,298.715,321.987,312.419z"/>
						</g>
					</g>
					<g>
						<g>
							<path style="fill:#FD8A02;" d="M155.843,309.506c-1.986-0.507-4.193-0.795-6.665-0.795         c-7.967,0.044-10.57,1.721-12.071,2.031c1.434-7.062,4.325-12.557,8.187-16.683c2.097,4.612,4.679,9.026,7.614,13.263         C153.657,308.424,154.562,309.109,155.843,309.506z"/>
						</g>
					</g>
				</g>
			</g>
			<g>
				<g>
					<g>
						<path style="fill:#000E3F;" d="M259.675,264.785c2.053-1.511,3.064-3.811,3.142-6.123l6.009-1.581        c0.95-0.251,1.52-1.225,1.269-2.177c-0.251-0.952-1.225-1.52-2.177-1.269l-5.741,1.511c-0.072-0.173-0.152-0.341-0.236-0.508        l3.902-4.14c0.674-0.716,0.641-1.842-0.075-2.518c-0.714-0.672-1.839-0.643-2.518,0.075l-3.661,3.884        c-0.734-0.506-1.573-0.907-2.544-1.13c-3.791-0.873-8.226,1.009-9.927,5.293C244.122,263.641,253.299,269.48,259.675,264.785z        "/>
					</g>
				</g>
				<g>
					<g>
						<path style="fill:#000E3F;" d="M178.398,257.08l6.008,1.581c0.078,2.312,1.088,4.612,3.141,6.123        c6.377,4.695,15.553-1.144,12.558-8.683c-1.701-4.284-6.137-6.167-9.928-5.293c-0.971,0.223-1.809,0.623-2.542,1.13        l-3.663-3.884c-0.677-0.718-1.804-0.747-2.518-0.075c-0.716,0.676-0.749,1.802-0.075,2.518l3.903,4.14        c-0.085,0.167-0.164,0.335-0.237,0.508l-5.739-1.511c-0.958-0.253-1.928,0.317-2.177,1.269        C176.878,255.855,177.448,256.83,178.398,257.08z"/>
					</g>
				</g>
				<g>
					<g>
						<path style="fill:#000E3F;" d="M351.835,352.929c-3.113-2.373-4.071-5.973-4.128-9.888        c-0.174-11.909-7.107-23.044-20.816-28.353c-1.293-0.5-2.871-0.715-2.069-1.901c9.718-14.361,12.79-28.29,11.114-42.691        c-0.549-4.72-3.207-13.036-6.534-9.528c-0.212,0.223-0.376,0.492-0.568,0.733c-8.587,10.755-18.152,11.878-26.901,17.697        c-6.743,4.484-9.64,8.335-10.087,8.097c-0.401-0.213-0.161-0.514,0-0.764c6.543-10.195,14.048-14.458,21.944-31.344        c6.257-13.381,10.314-31.613,4.139-44.87c-1.493-3.202-3.057-3.37-5.064-0.535c-11.801,16.678-34.197,22.764-32.17,19.831        c10.766-15.572,15.751-30.953,16.795-48.791c0.126-2.162-0.264-4.319-0.368-6.468c-0.511-10.509-3.901-21.418-10.77-29.768        c-1.701-2.067-3.093-1.862-4.036-0.524c-1.584,2.252-3.432,6.415-9.904,13.417c-15.569,16.844-36.556,25.004-34.761,22.044        c4.371-7.218,9.026-14.491,12.583-30.749c5.155-23.571,2.458-52.608-9.887-73.137c-0.875-1.454-2.352-1.264-3.067,0.314        c-0.819,1.799-1.718,8.314-6.961,18.171c-17.988,33.818-34.292,34.234-43.09,60.601c-4.541,13.61-2.117,23.903-1.959,26.899        c0.247,4.682-5.911-10.836-8.052-18.349c-4.79-16.808-4.075-24.484-4.156-32.683c-0.008-0.824,0.017-1.663-0.122-2.468        c-0.23-1.327-1.48-1.745-2.579-0.938c-1.105,0.812-1.794,1.984-2.643,3.017c-19.378,23.56-26.315,58.045-20.907,86.977        c0.936,5.009,2.429,9.839,3.602,14.781c0.198,0.841-0.438,0.862-0.744,0.374c-22.091-35.206-16.127-48.945-26.442-28.08        c-16.143,32.65-19.873,80.673,6.47,105.346c1.511,1.415,2.721,2.205,1.494,3.007c-1.362,0.888-1.972,0.143-3.251-1.362        c-15.221-17.925-44.383-11.596-44.892,19.997c-0.092,5.715-1.844,12.97-7.472,14.301c-11.631,2.75-22.72,15.13-19.405,30.431        c2.906,13.414,17.309,21.293,31.057,22.244c14.44,1,16.045-3.864,18.783-0.36c7.275,9.311,19.194,13.085,31.117,13.28        c6.941,0.114,13.109-2.872,21.356,0.642c6.768,2.884,12.234,6.338,25.107,4.924c8.237-0.905,13.443-4.05,19.291-8.483        c0.968-0.734,1.589,0.151,2.499,1.095c9.671,10.03,21.436,15.247,35.406,14.979c7.902-0.151,15.016-2.608,20.528-8.635        c9.955-10.884,21.633-0.771,41.205-7.54c7.316-2.53,13.337-6.902,18.018-13.094c0.646-0.857,0.771-0.852,1.745-0.183        C349.962,413.654,387.14,379.841,351.835,352.929z M128.462,201.288c0.306-0.581,0.745-1.46,1.2-0.634        c0.828,1.506,15.027,35.619,29.8,50.409c1.123,1.123,2.7-0.237,2.347-1.465c-0.97-3.371-18.291-29.112-11.503-71.376        c2.453-15.271,8.075-29.682,17.495-42.893c0.162-0.227,0.551-0.74,0.928-0.689c0.147,0.02,0.372,0.224,0.387,0.367        c0.209,1.841,0.478,3.681,0.556,5.529c1.195,28.301,18.208,56.547,23.152,60.627c1.002,0.827,2.4-0.044,2.47-1.231        c0.17-2.854-17.059-26.053,0.476-55.806c8.068-13.69,14.028-14.16,27.304-32.315c14.051-19.215,15.685-30.285,16.436-30.322        c1.908-0.094,19.532,43.114,1.849,83.933c-6.622,15.289-11.268,15.726-9.757,18.181c0.729,1.182,1.8,1.082,3.003,0.835        c18.34-3.763,37.079-18.883,47.785-34.24c1.066-1.529,1.758-2.894,2.532-1.975c9.224,10.953,13.812,38.507,0.941,65.388        c-8.448,17.647-13.324,17.84-10.535,20.073c0.692,0.555,1.469,0.682,2.327,0.576c22.572-2.801,34.47-18.744,36.755-20.921        c0.641-0.612,1.209,0.216,1.408,0.98c0.624,2.397,1.274,4.795,1.428,7.278c0.441,7.172-0.297,14.193-2.408,21.1        c-9.563,31.291-27.729,33.811-33.333,59.332c-0.293,1.336,0.016,2.694,1.388,2.997c1.384,0.306,2.1-0.889,2.802-2.389        c4.801-10.254,13.284-18.468,21.794-22.992c7.792-4.141,13.441-5.104,22.57-14.327c0.637-0.645,0.965-0.591,1.245,0.262        c6.292,19.099-6.95,47.721-12.811,47.366c-15.952-0.965-28.478,8.345-33.576,21.029c-1.846,4.593-1.842,7.015-1.809,10.911        c0.035,3.92,0.009,3.578-3.637,4.385c-2.895,0.641-5.803,1.081-8.871,0.417c-9.68-2.097-8.116-7.351-14.546-13.329        c-9.502-8.833-27.56-11.016-43.191,3.215c-2.719,2.476-2.678,3.428-3.576,3.265c-1.349-0.246-0.993-7.991-9.192-15.34        c-5.754-5.157-9.72-4.758-16.405-4.53c-15.494,0.527-12.704-13.288-32.237-15.387c-12.626-1.357-13.396,5.166-19.048-0.207        C105.983,282.25,111.138,234.214,128.462,201.288z M99.04,393.759c-17.982,3.606-39.489-4.759-39.832-22.626        c-0.19-9.934,6.626-19.804,16.848-22.274c4.449-1.076,7.107-3.997,8.642-8.092c1.605-4.281,2.131-9.983,2.138-12.745        c0.053-18.005,16.734-29.513,32.314-19.932c2.632,1.619,5.158,3.441,6.912,6.097c0.752,1.138,0.818,1.213-0.101,2.094        c-5.841,5.59-10.878,14.443-7.657,22.35c1.112,2.731,1.426,5.563,1.338,8.491c-0.288,9.643-9.393,10.815-15.604,21.482        c-2.61,4.482-3.874,9.318-3.872,14.47c0.001,2.936,1.03,5.661,2.123,8.349C103.1,393.42,101.297,393.306,99.04,393.759z         M181.796,413.225c-13.224,1.332-18.584-4.302-25.243-5.983c-11.607-2.929-23.321,4.453-39.897-4.927        c-9.627-5.448-13.863-15.001-12.841-22.597c2.634-19.58,21.747-18.394,19.237-36.496c-0.553-3.988-3.301-7.092-1.387-14.175        c4.927-18.242,33.962-24.286,45.45-9.99c3.98,4.954,10.469,8.106,17.783,7.341c17.376-1.818,25.001,18.801,19.165,34.141        c-2.604,6.846,0.978,13.841,2.561,15.52C214.779,384.708,207.741,410.612,181.796,413.225z M299.318,405.361        c-14.218,4.25-21.041-0.64-31.273,2.132c-7.307,1.981-8.204,5.881-13.678,9.291c-9.942,6.196-29.207,6.311-46.127-9.451        c-0.447-0.417-0.804-0.936-1.169-1.434c-0.616-0.84-0.689-1.658,0.021-2.532c6.061-7.47,9.259-20.978,2.572-28.997        c-1.731-2.076-2.441-4.513-2.981-7.047c-1.045-4.895,3.038-7.987,2.946-16.923c-0.011-1.082,0.296-2.008,0.93-2.879        c7.503-10.287,17.429-15.561,30.318-14.438c7.9,0.688,14.584,6.123,16.626,10.528c3.412,7.364,11.502,11.92,23.889,8.829        c13.661-3.408,29.362,1.544,37.05,15.202C327.203,383.209,317.99,399.779,299.318,405.361z M324.473,391.919        c-1.449-1.075-1.437-1.091-0.896-2.811c1.425-4.518,3.064-8.557,0.588-16.345c-4.441-13.973-14.386-21.653-28.472-24.439        c-7.759-1.535-9.112,0.779-9.191-2.472c-0.659-27.394,33.45-39.069,50.576-20.615c5.809,6.26,6.517,13.37,7.481,21.473        c1.172,9.886,10.178,9.575,15.661,20.412C371.507,389.436,342.13,405.034,324.473,391.919z"/>
					</g>
				</g>
				<g>
					<g>
						<path style="fill:#000E3F;" d="M223.381,280.231c0.469,0,0.943-0.024,1.421-0.072c9.308-0.925,14.256-10.012,14.188-18.093        c-0.009-0.98-0.804-1.767-1.782-1.767c-0.006,0-0.009,0-0.015,0c-0.985,0.009-1.775,0.813-1.767,1.797        c0.055,6.505-3.772,13.802-10.977,14.518c-3.734,0.377-6.393-1.298-7.964-2.76c-2.97-2.767-4.811-7.369-4.688-11.724        c0.029-0.983-0.745-1.802-1.731-1.829c-0.921-0.084-1.802,0.743-1.829,1.731c-0.154,5.413,2.077,10.944,5.82,14.43        C216.723,278.944,219.922,280.231,223.381,280.231z"/>
					</g>
				</g>
			</g>
		</g>
	</g>
	<g>
		<g>
			<g>
				<g>
					<g>
						<path style="fill:#FD8A02;" d="M480.833,280.977c-2.149-0.942-2.959-3.023-3.758-5.134c-0.357-0.941-0.753-2.105-1.229-3.531        c-0.265-0.804-0.558-1.688-0.878-2.672c-1.588-4.76-3.879-11.774-7.538-22.246c-0.208-0.581-0.182-0.969-0.39-1.551        c-1.154-3.332-2.396-6.039-3.61-9.366l0,0c-2.909-8.12-5.688-16.962-8.878-24.999c-0.863-2.2-1.827-4.803-2.732-7.001        c-3.322-8.172-7.593-15.709-11.317-23.707c-24.55-6.327-45.4-27.02-53.268-35.122c-2.208-2.285,3.359-6.944,5.756-4.878        c5.282,3.786,19.352,17.833,40.39,24.235c-20.021-38.444-58.569-83.29-84.395-115.066c-2.034-2.463,5.115-7.932,7.346-5.606        c30.349,31.728,51.683,57.008,67.705,79.036c2.064,2.831,4.041,5.607,5.929,8.328c4.52,6.539,8.626,13.408,12.309,19.474        l0.001,0.02c1.496,2.421,2.931,4.825,4.281,7.195c0.898,1.559,1.774,3.1,2.628,4.641        c8.651,15.577,12.772,24.788,19.024,39.987c0.951-10.197,0.914-14.949,0.195-27.122c-0.242-2.987,6.922-2.864,7.512,0.098        c2.852,13.723,4.724,33.946,1.561,49.268c1.501,3.861,3.846,8.773,5.311,12.698c1.488,3.965,2.933,7.913,4.315,11.824        c0.679,1.946,1.381,3.89,2.038,5.818c0.023,0.039,0.025,0.059,0.026,0.08c0.918,2.669,1.813,5.279,2.68,7.829        c0.981,2.953,1.916,5.826,2.8,8.581C496.508,278,486.333,283.821,480.833,280.977z"/>
					</g>
				</g>
				<g style="opacity:0.18;">
					<g>
						<g>
							<path style="fill:#000E3F;" d="M482.403,280.232c-0.579-0.349-1.355-0.634-1.878-1.197c-0.954-1.028-1.325-2.463-1.784-3.771         c-0.2-0.571-0.398-1.138-0.607-1.704c-0.152-0.413-0.803-1.643-0.692-2.042c0.357-1.282,0.603-2.68,0.716-4.211         c0.548-7.595-1.883-18.159-7.001-32.475c-2.63-7.4-5.993-15.815-10.012-25.335c-0.223-0.519-0.427-1.039-0.65-1.557         c-8.1-19.529-11.252-33.414-12.206-42.935c8.651,15.577,15.127,30.163,21.379,45.362c0.951-10.197,0.671-20.633-0.049-32.805         c-0.242-2.987,4.177-3.624,4.767-0.663c2.852,13.723,4.713,33.797,1.55,49.119c1.501,3.861,3.008,7.804,4.473,11.729         c1.488,3.965,2.933,7.913,4.315,11.824c0.701,1.965,1.381,3.89,2.038,5.818c0.023,0.039,0.025,0.059,0.026,0.08         c0.918,2.669,1.813,5.279,2.68,7.829c0.981,2.953,2.253,6.036,3.137,8.79C494.511,278.025,487.836,283.502,482.403,280.232z"/>
						</g>
					</g>
				</g>
			</g>
			<g>
				<g>
					<path style="fill:#000E3F;" d="M353.41,45.981c0.652-0.048,1.342,0.177,1.934,0.796       c74.831,78.201,95.611,118.057,114.325,163.587c0.95-10.19,0.674-20.641-0.054-32.801c-0.121-1.575,1.037-2.494,2.252-2.585       c1.099-0.082,2.245,0.515,2.532,1.921c2.831,13.731,4.707,33.788,1.544,49.114c6.011,15.434,11.948,32.132,16.316,45.871       c1.46,4.585-1.962,8.766-6.138,9.076c-1.204,0.089-2.471-0.143-3.7-0.78c-3.706-1.917-2.711-2.99-13.385-33.584       c-7.896-22.634-16.366-45.134-26.514-66.866c-24.535-6.336-45.373-25.769-53.236-33.878c-1.674-1.725-0.205-4.118,1.646-4.256       c0.582-0.043,1.2,0.137,1.771,0.63c5.284,3.785,23.089,19.474,44.116,25.859c-20.008-38.426-59.398-86.203-85.221-117.984       C350.11,48.305,351.621,46.114,353.41,45.981L353.41,45.981z M353.137,42.296L353.137,42.296       c-2.325,0.173-4.427,1.69-5.353,3.866c-0.902,2.122-0.54,4.476,0.97,6.296l3.546,4.362       c24.244,29.808,56.75,69.773,76.513,104.325c-13.293-5.883-24.562-14.661-30.54-19.317c-1.359-1.06-2.445-1.906-3.303-2.526       c-1.245-1.014-2.769-1.507-4.31-1.392c-2.407,0.179-4.525,1.781-5.401,4.083c-0.844,2.221-0.315,4.686,1.378,6.431       c7.865,8.112,28.553,27.42,53.26,34.421c10.759,23.26,19.343,46.879,25.652,64.966c3.245,9.301,5.389,15.807,6.956,20.556       c3.732,11.326,4.305,13.067,8.221,15.093c1.773,0.917,3.735,1.327,5.672,1.183c3.23-0.24,6.257-2.008,8.095-4.729       c1.816-2.689,2.286-6.025,1.29-9.154c-4.298-13.518-10.112-29.894-16.004-45.086c2.978-15.735,1.074-35.793-1.757-49.523       c-0.624-3.044-3.327-5.09-6.425-4.859c-1.649,0.122-3.198,0.892-4.247,2.113c-1.038,1.208-1.542,2.784-1.415,4.438       c0.305,5.107,0.567,10.4,0.634,15.739c-17.084-38.732-40.619-78.366-108.553-149.36       C356.693,42.844,354.962,42.161,353.137,42.296L353.137,42.296L353.137,42.296z"/>
				</g>
			</g>
		</g>
		<g>
			<g>
				<g>
					<g>
						<path style="fill:#FFFFFF;" d="M398.606,58.181l17.754,21.34c8.09,9.724,6.756,24.151-2.956,32.231l-9.139,7.603        c-9.175,7.634-22.53,6.893-30.797-1.382c-0.496-0.496-0.977-1.025-1.433-1.574l-17.754-21.34        c-8.08-9.712-6.767-24.141,2.956-32.231l9.139-7.603c2.977-2.477,6.402-4.067,9.941-4.802        C384.336,48.746,393.002,51.446,398.606,58.181z"/>
					</g>
				</g>
				<g style="opacity:0.18;">
					<g>
						<g>
							<path style="fill:#000E3F;" d="M397.862,59.81l16.76,20.145c7.637,9.179,6.378,22.799-2.791,30.427l-8.627,7.177         c-8.662,7.206-21.269,6.507-29.074-1.305c0.664-2.014,1.789-3.847,3.317-5.313c4.935-4.749,13.321-5.587,16.709-11.543         c3.07-5.4,0.343-12.331-3.587-17.149c-3.943-4.808-9.103-8.74-11.869-14.313c-2.333-4.725-2.68-10.225-1.881-15.45         C384.391,50.903,392.572,53.452,397.862,59.81z"/>
						</g>
					</g>
					<g>
						<g>
							<path style="fill:#000E3F;" d="M365.074,77.751c-0.112,9.088,6.221,17.3,8.435,21.504l0.066,0.124         c0.744,1.411-0.924,2.888-2.238,1.956c-11.933-8.503-15.647-24.576-7.122-32.721c1.075-1.027,2.81,0.106,2.302,1.503         C366.519,70.117,365.091,75.082,365.074,77.751z"/>
						</g>
					</g>
				</g>
			</g>
			<g>
				<g>
					<path style="fill:#000E3F;" d="M379.639,52.088c6.725-0.499,13.585,2.147,18.224,7.721l16.761,20.145       c7.637,9.18,6.377,22.8-2.791,30.427l-8.627,7.177c-3.599,2.993-7.878,4.623-12.212,4.945       c-6.097,0.453-12.3-1.683-16.862-6.249c-0.469-0.469-0.922-0.968-1.354-1.486l-16.761-20.145       c-7.628-9.169-6.388-22.79,2.791-30.427l8.629-7.178c2.809-2.338,6.042-3.839,9.384-4.533       C377.752,52.291,378.695,52.158,379.639,52.088 M379.365,48.404L379.365,48.404c-1.105,0.082-2.217,0.239-3.3,0.465       c-4.018,0.835-7.822,2.671-10.992,5.31l-8.629,7.177c-10.724,8.923-12.19,24.907-3.267,35.631l16.76,20.145       c0.514,0.617,1.046,1.2,1.582,1.736c5.194,5.198,12.392,7.867,19.748,7.321c5.273-0.392,10.218-2.394,14.302-5.789l8.627-7.178       c10.722-8.922,12.19-24.905,3.267-35.63l-16.761-20.146C395.487,51.179,387.511,47.799,379.365,48.404L379.365,48.404z"/>
				</g>
			</g>
		</g>
	</g>
	<g>
		<g>
			<g>
				<path style="fill:#FD8A02;" d="M17.197,125.412l10.499-8.033c0.67-0.513,1.045-1.323,1.003-2.165l-0.665-13.203      c-0.107-2.122,2.266-3.446,4.016-2.24l10.884,7.503c0.695,0.479,1.58,0.585,2.369,0.285l12.351-4.712      c1.985-0.758,3.977,1.091,3.371,3.127l-3.773,12.67c-0.241,0.809-0.068,1.684,0.462,2.341l8.298,10.291      c1.334,1.654,0.192,4.12-1.932,4.172l-13.216,0.327c-0.844,0.021-1.623,0.456-2.084,1.163l-7.223,11.072      c-1.161,1.78-3.859,1.456-4.565-0.548l-4.395-12.468c-0.28-0.796-0.935-1.403-1.749-1.623l-12.762-3.447      C16.035,129.37,15.509,126.704,17.197,125.412z"/>
			</g>
		</g>
		<g>
			<g>
				<path style="fill:#FD8A02;" d="M42.427,221.192l10.972,3.724c0.7,0.238,1.473,0.116,2.066-0.327l9.288-6.928      c1.493-1.114,3.615-0.032,3.59,1.83l-0.15,11.586c-0.01,0.74,0.345,1.437,0.949,1.864l9.459,6.692      c1.52,1.076,1.147,3.428-0.631,3.981l-11.065,3.437c-0.707,0.219-1.26,0.772-1.48,1.479l-3.442,11.064      c-0.553,1.778-2.906,2.15-3.981,0.63l-6.688-9.462c-0.427-0.604-1.124-0.959-1.863-0.95l-11.586,0.145      c-1.862,0.023-2.943-2.099-1.829-3.591l6.932-9.284c0.442-0.593,0.565-1.365,0.328-2.066l-3.719-10.974      C38.979,222.277,40.664,220.594,42.427,221.192z"/>
			</g>
		</g>
		<g>
			<g>
				<path style="fill:#FD8A02;" d="M113.767,89.497l4.515-9.062c0.288-0.579,0.273-1.262-0.04-1.827l-4.906-8.857      c-0.788-1.424,0.398-3.134,2.007-2.894l10.014,1.494c0.639,0.095,1.284-0.13,1.725-0.602l6.908-7.403      c1.11-1.19,3.103-0.59,3.373,1.015l1.674,9.986c0.107,0.638,0.52,1.181,1.106,1.455l9.175,4.282      c1.475,0.688,1.52,2.769,0.077,3.521l-8.979,4.678c-0.573,0.299-0.963,0.86-1.042,1.501l-1.237,10.049      c-0.199,1.616-2.163,2.302-3.325,1.161l-7.224-7.095c-0.461-0.453-1.115-0.65-1.75-0.527l-9.94,1.929      C114.301,92.611,113.041,90.954,113.767,89.497z"/>
			</g>
		</g>
		<g>
			<g>
				<path style="fill:#FD8A02;" d="M500.629,363.033l-0.064-11.587c-0.004-0.74,0.356-1.434,0.963-1.857l9.508-6.622      c1.528-1.064,1.173-3.419-0.602-3.985l-11.039-3.519c-0.705-0.225-1.254-0.782-1.468-1.49l-3.359-11.089      c-0.54-1.782-2.889-2.172-3.976-0.659l-6.759,9.412c-0.431,0.601-1.131,0.951-1.87,0.936l-11.585-0.232      c-1.862-0.038-2.959,2.077-1.856,3.578l6.863,9.336c0.438,0.596,0.555,1.369,0.312,2.068l-3.8,10.946      c-0.611,1.76,1.061,3.456,2.829,2.87l11-3.642c0.702-0.232,1.474-0.104,2.063,0.342l9.236,6.997      C498.51,365.961,500.64,364.895,500.629,363.033z"/>
			</g>
		</g>
		<g>
			<g>
				<path style="fill:#FD8A02;" d="M445.44,444.972l10.025-1.419c0.64-0.091,1.284,0.139,1.721,0.615l6.852,7.454      c1.101,1.198,3.099,0.613,3.38-0.99l1.749-9.973c0.112-0.637,0.529-1.178,1.117-1.446l9.207-4.213      c1.48-0.677,1.541-2.758,0.103-3.52l-8.944-4.745c-0.571-0.303-0.956-0.867-1.031-1.509l-1.162-10.058      c-0.187-1.617-2.146-2.318-3.316-1.186l-7.277,7.04c-0.464,0.449-1.12,0.642-1.754,0.514l-9.925-2.003      c-1.595-0.322-2.868,1.325-2.152,2.787l4.447,9.096c0.284,0.581,0.264,1.264-0.053,1.827l-4.972,8.82      C442.655,443.481,443.829,445.2,445.44,444.972z"/>
			</g>
		</g>
	</g>
	<g>
		<g>
			<g>
				<path style="fill:#00B0C4;" d="M407.373,354.876c-4.512,11.961-5.78,23.952-5.753,23.746c-0.326,2.456-3.93,2.341-4.111-0.123      c-2.496-33.883,21.784-69.175,50.51-85.791c2.018-1.167,3.987,1.58,2.273,3.121      C448.665,297.823,418.304,323.531,407.373,354.876z"/>
			</g>
		</g>
		<g>
			<g>
				<path style="fill:#00B0C4;" d="M400.905,311.841c-16.371,28.284-14.336,49.269-14.336,49.064      c0.004,2.384-3.388,2.892-4.073,0.597c-6.833-22.974,6.317-52.564,25.389-67.036c1.791-1.356,4.081,0.901,2.764,2.71      C410.649,297.175,403.929,306.679,400.905,311.841z"/>
			</g>
		</g>
	</g>
</g>















</svg>
