<?xml version="1.0" encoding="UTF-8"?>
<!-- Generator: Adobe Illustrator 25.3.1, SVG Export Plug-In . SVG Version: 6.00 Build 0)  -->
<svg xmlns="http://www.w3.org/2000/svg" xmlns:xlink="http://www.w3.org/1999/xlink" version="1.1" id="Capa_1" x="0px" y="0px" viewBox="0 0 512 512" style="enable-background:new 0 0 512 512;" xml:space="preserve" width="512" height="512">
<g>
	<g>
		<g style="opacity:0.5;">
			<g>
				<g>
					<path style="fill:#FFCF00;" d="M118.857,354.836c-21.096,35.158-78.037,1.083-105.877,27.682       c-33.842,32.335,5.772,65.87,35.902,80.055c42.906,20.198,95.459,16.326,137.397-4.699       c18.902-9.476,33.014-30.827,53.823-35.483c25.446-5.694,43.729,11.997,64.033,23.868       c56.03,32.756,166.593,27.431,194.219-37.793c25.74-60.773-27.501-110.478-74.618-138.538       c-48.776-29.049-105.886-41.906-162.163-44.593c-63.605-3.037-140.365,25.936-142.621,89.837       C118.561,326.243,125.049,344.512,118.857,354.836z"/>
				</g>
			</g>
		</g>
		<g>
			<g>
				<path style="fill:#FFFFFF;" d="M489.396,369.637c-0.824,21.231-16.762,42.363-35.326,52.834      c-8.256,4.636-6.926,3.842-17.05,7.976c-0.966,0.346-11.581,3.292-11.41,3.244c-4.434,0.798-8.866,1.507-13.293,2.022      c-2.963,0.345-4.026-3.829-1.251-4.937c1.039-0.415,25.412-8.683,35.056-15.297c1.991-1.247,4.088-2.293,5.287-3.251      c1.469-1.234,12.421-7.848,22.112-21.15l1.806-2.5l1.61-2.626c4.687-6.901,7.88-17.416,7.751-17.099      C485.495,366.161,489.503,366.827,489.396,369.637z"/>
			</g>
		</g>
		<g>
			<g>
				<g>
					<path style="fill:#FD8A02;" d="M292.649,251.677c0,4.097,3.322,7.419,7.419,7.419c4.098,0,7.419-3.322,7.419-7.419       s-3.322-7.419-7.419-7.419C295.97,244.258,292.649,247.579,292.649,251.677z"/>
				</g>
			</g>
			<g>
				<g>
					<path style="fill:#FD8A02;" d="M265.098,272.262c0,3.466,2.81,6.277,6.277,6.277s6.276-2.81,6.276-6.277       c0-3.466-2.81-6.276-6.276-6.276S265.098,268.795,265.098,272.262z"/>
				</g>
			</g>
			<g>
				<g>
					<path style="fill:#FD8A02;" d="M286.703,303.613c0,2.464,1.998,4.462,4.462,4.462s4.461-1.997,4.461-4.462       c0-2.464-1.997-4.461-4.461-4.461S286.703,301.149,286.703,303.613z"/>
				</g>
			</g>
			<g>
				<g>
					<path style="fill:#FD8A02;" d="M373.562,407.897c-3.43,2.241-4.394,6.839-2.153,10.269c2.241,3.43,6.839,4.394,10.269,2.153       c3.43-2.241,4.394-6.839,2.153-10.269C381.589,406.62,376.992,405.656,373.562,407.897z"/>
				</g>
			</g>
			<g>
				<g>
					<path style="fill:#FD8A02;" d="M344.15,384.316c-2.902,1.896-3.718,5.785-1.822,8.687c1.896,2.902,5.785,3.717,8.687,1.822       c2.902-1.896,3.717-5.785,1.822-8.687C350.941,383.235,347.052,382.42,344.15,384.316z"/>
				</g>
			</g>
			<g>
				<g>
					<path style="fill:#FD8A02;" d="M333.912,420.782c-2.063,1.348-2.642,4.112-1.295,6.175c1.348,2.063,4.112,2.642,6.175,1.295       c2.063-1.348,2.642-4.112,1.295-6.175C338.74,420.014,335.975,419.434,333.912,420.782z"/>
				</g>
			</g>
			<g>
				<g>
					<path style="fill:#FD8A02;" d="M78.843,431.772c-3.43,2.241-4.394,6.839-2.153,10.269c2.241,3.43,6.839,4.394,10.269,2.153       c3.43-2.241,4.394-6.839,2.153-10.269C86.871,430.495,82.273,429.531,78.843,431.772z"/>
				</g>
			</g>
			<g>
				<g>
					<path style="fill:#FD8A02;" d="M106.081,412.985c-2.902,1.896-3.718,5.785-1.822,8.687c1.896,2.902,5.785,3.718,8.687,1.822       c2.902-1.896,3.717-5.785,1.822-8.687C112.872,411.905,108.983,411.089,106.081,412.985z"/>
				</g>
			</g>
			<g>
				<g>
					<path style="fill:#FD8A02;" d="M126.902,439.175c-2.063,1.348-2.642,4.112-1.295,6.175c1.348,2.063,4.112,2.642,6.175,1.295       c2.063-1.348,2.642-4.112,1.295-6.175C131.73,438.407,128.965,437.827,126.902,439.175z"/>
				</g>
			</g>
		</g>
	</g>
	<g>
		<g>
			<g>
				<g>
					<g>
						<path style="fill:#00B0C4;" d="M386.794,373.24c-1.428-0.73-2.387-1.95-3.373-3.12c-12.997-15.421-13.68-46.946,4.067-68.184        c3.012-3.604,3.353,1.35,11.605-1.173c1.712-0.523,2.835-1.303,2.974,0.3c0.033,0.378-1.34,15.22,14.257,40.723        c6.52,10.661,16.805,23.743,27.223,30.636c0.546,0.362,1.374,0.596,1.341,1.39c-0.037,0.913-0.982,1.034-1.616,1.31        c-5.515,2.404-11.364,4.282-19.027,5.141C411.016,381.746,398.497,379.223,386.794,373.24z"/>
					</g>
				</g>
				<g>
					<g>
						<path style="fill:#00B0C4;" d="M481.792,315.611c-0.013,0.608-0.487,0.914-0.983,0.48c-0.324-0.283-0.63-0.59-0.923-0.907        c-14.439-15.667-46.177-28.784-64.991-27.618c-3.477,0.216,0.157-1.992-1.307-8.089c-1.08-4.496-3.198-4.072-1.807-6.179        c1.141-1.727,5.086-5.692,10.311-8.586c9.305-5.152,21.141-9.414,30.681-2.965c6.844,4.626,12.832,10.644,17.55,17.414        c4.903,7.035,8.39,15.017,10.094,23.427C481.291,306.894,481.883,311.196,481.792,315.611z"/>
					</g>
				</g>
				<g>
					<g>
						<path style="fill:#00B0C4;" d="M393.218,257.171c-1.466,5.179-1.845,9.111,0.644,16.12c0.448,1.263-0.461,1.1-3.235,3.623        c-4.834,4.397-5.602,8.327-6.298,9.842c-0.361,0.786-1.091,0.776-2.491,0.747c-9.307-0.193-20.87,6.311-26.198,13.939        c-0.381,0.546-0.714,1.158-1.305,1.537c-0.176,0.112-0.594-0.067-0.583-0.271c0.02-0.365,0.045-0.736,0.122-1.092        c4.116-18.85,17.215-36.316,37.011-45.01c0.394-0.173,0.798-0.331,1.209-0.459C392.891,255.9,393.318,256.231,393.218,257.171        z"/>
					</g>
				</g>
			</g>
			<g>
				<g>
					<g>
						<path style="fill:#FF8EDE;" d="M402.764,301.583c0.119-2.668,0.141-2.337,1.837-3.452c3.557-2.339,6.338-5.791,7.686-8.822        c0.226-0.507,0.612-0.705,1.153-0.777c17.227-2.281,52.473,11.152,67.301,28.755c0.79,0.938,1.108,1.878,0.988,3.036        c-0.827,7.942-2.676,15.81-6.014,23.087c-5.638,12.292-16.108,23.367-28.066,29.609c-0.695,0.363-1.212,0.384-1.869-0.031        C422.059,358.006,401.984,319.026,402.764,301.583z"/>
					</g>
				</g>
				<g>
					<g>
						<path style="fill:#FF8EDE;" d="M352.399,311.705c0.153-11.823,17.379-24.01,30.353-23.43c2.832,0.126-0.986,5.181,4.154,10.14        c1.416,1.367,1.483,1.385,0.12,2.955c-14.752,16.981-18.347,45.042-8.072,63.478c0.689,1.237,1.861,3.063,2.149,3.667        c0.287,0.602-0.251,1.046-0.731,0.732c-11.855-7.762-22.228-21.373-26.342-38.26        C352.334,324.024,352.307,318.771,352.399,311.705z"/>
					</g>
				</g>
				<g>
					<g>
						<path style="fill:#FF8EDE;" d="M394.545,256.127c0.419-0.824,0.968-1.362,1.861-1.654c10.854-3.551,20.673-4.008,30.481-2.582        c6.669,0.97,12.93,3.069,16.41,4.919c0.197,0.105,0.256,0.678-0.598,0.743c-11.699,0.896-23.197,6.53-29.474,12.816        c-2.615,2.619-2.22,3.898-3.779,2.955c-3.923-2.373-7.983-2.146-12.108-0.636c-2.404,0.88-2.562,1.619-3.627-2.283        C392.171,264.769,392.852,259.452,394.545,256.127z"/>
					</g>
				</g>
			</g>
			<g style="opacity:0.5;">
				<g>
					<g>
						<path style="fill:#FC09B2;" d="M471.155,346.736c-0.817,1.175-1.205,2.518-1.203,3.847c0.001,0.748,0.128,1.489,0.371,2.195        c0.504-0.724,0.993-1.455,1.464-2.195c1.369-2.148,2.594-4.362,3.659-6.619C473.769,344.278,472.208,345.224,471.155,346.736z        "/>
					</g>
				</g>
				<g>
					<g>
						<path style="fill:#FC09B2;" d="M460.8,335.188c-1.174-0.817-2.517-1.205-3.847-1.203c-2.128,0.002-4.222,1.005-5.53,2.886        c-2.125,3.054-1.372,7.251,1.683,9.376c1.174,0.817,2.517,1.205,3.847,1.203c2.129-0.002,4.222-1.006,5.529-2.886        C464.607,341.51,463.854,337.313,460.8,335.188z"/>
					</g>
				</g>
				<g>
					<g>
						<path style="fill:#FC09B2;" d="M480.532,325.321c-3.054-2.125-7.251-1.372-9.376,1.683c-2.125,3.054-1.372,7.252,1.682,9.376        c1.59,1.106,3.488,1.426,5.244,1.054c1.302-3.824,2.254-7.762,2.918-11.751C480.85,325.558,480.696,325.435,480.532,325.321z"/>
					</g>
				</g>
				<g>
					<g>
						<path style="fill:#FC09B2;" d="M460.8,315.455c-1.174-0.817-2.517-1.204-3.847-1.203c-2.128,0.001-4.222,1.006-5.53,2.886        c-2.125,3.054-1.372,7.252,1.683,9.377c1.174,0.817,2.517,1.205,3.847,1.203c2.129-0.002,4.222-1.006,5.529-2.886        C464.607,321.778,463.854,317.58,460.8,315.455z"/>
					</g>
				</g>
				<g>
					<g>
						<path style="fill:#FC09B2;" d="M472.838,316.648c2.3,1.6,5.248,1.567,7.471,0.149c-1.693-1.951-3.628-3.85-5.765-5.678        c-1.222-1.047-2.507-2.071-3.847-3.068c-0.5,0.973-0.744,2.024-0.743,3.068C469.954,313.247,470.958,315.34,472.838,316.648z"/>
					</g>
				</g>
				<g>
					<g>
						<path style="fill:#FC09B2;" d="M460.8,354.92c-1.174-0.817-2.517-1.205-3.847-1.204c-2.128,0.002-4.222,1.006-5.53,2.886        c-2.125,3.054-1.372,7.252,1.683,9.377c1.094,0.761,2.334,1.146,3.573,1.195c0.092-0.072,0.182-0.146,0.274-0.218        c2.362-1.861,4.612-3.898,6.716-6.082C463.81,358.603,462.804,356.314,460.8,354.92z"/>
					</g>
				</g>
				<g>
					<g>
						<path style="fill:#FC09B2;" d="M453.106,306.782c1.174,0.817,2.517,1.204,3.847,1.203c2.129-0.002,4.222-1.006,5.529-2.886        c0.42-0.603,0.723-1.252,0.922-1.919c-2.088-1.259-4.245-2.46-6.452-3.592c-1.73-0.887-3.487-1.731-5.26-2.532        c-0.091,0.114-0.184,0.227-0.269,0.348C449.298,300.459,450.051,304.657,453.106,306.782z"/>
					</g>
				</g>
				<g>
					<g>
						<path style="fill:#FC09B2;" d="M421.335,295.722c-1.174-0.817-2.517-1.204-3.847-1.203c-2.129,0.002-4.222,1.006-5.53,2.886        c-2.125,3.054-1.372,7.252,1.682,9.377c1.175,0.817,2.518,1.204,3.847,1.203c2.128-0.002,4.222-1.006,5.529-2.886        C425.142,302.046,424.389,297.847,421.335,295.722z"/>
					</g>
				</g>
				<g>
					<g>
						<path style="fill:#FC09B2;" d="M433.373,296.916c3.054,2.125,7.252,1.372,9.377-1.683c0.332-0.478,0.586-0.986,0.78-1.507        c-4.39-1.602-8.745-2.887-12.882-3.809C430.07,292.507,431.059,295.306,433.373,296.916z"/>
					</g>
				</g>
				<g>
					<g>
						<path style="fill:#FC09B2;" d="M441.067,345.054c-3.054-2.125-7.252-1.372-9.377,1.682c-0.817,1.175-1.204,2.518-1.203,3.847        c0.002,2.129,1.006,4.222,2.886,5.53c3.054,2.125,7.252,1.372,9.377-1.683c0.817-1.174,1.204-2.517,1.203-3.847        C443.951,348.455,442.947,346.362,441.067,345.054z"/>
					</g>
				</g>
				<g>
					<g>
						<path style="fill:#FC09B2;" d="M421.335,335.188c-1.174-0.817-2.517-1.205-3.847-1.203c-1.429,0.001-2.839,0.457-4.01,1.325        c1.248,2.315,2.591,4.63,4.01,6.924c0.945,1.528,1.924,3.044,2.938,4.543c1.007-0.487,1.907-1.228,2.591-2.211        C425.142,341.51,424.389,337.313,421.335,335.188z"/>
					</g>
				</g>
				<g>
					<g>
						<path style="fill:#FC09B2;" d="M441.067,325.321c-3.054-2.125-7.252-1.372-9.377,1.683c-2.125,3.054-1.371,7.252,1.682,9.376        c3.054,2.125,7.252,1.372,9.377-1.682C444.874,331.644,444.121,327.446,441.067,325.321z"/>
					</g>
				</g>
				<g>
					<g>
						<path style="fill:#FC09B2;" d="M421.335,315.455c-1.174-0.817-2.517-1.204-3.847-1.203c-2.129,0.001-4.222,1.006-5.53,2.886        c-2.125,3.054-1.372,7.252,1.682,9.377c1.175,0.817,2.518,1.205,3.847,1.203c2.128-0.002,4.222-1.006,5.529-2.886        C425.142,321.778,424.389,317.58,421.335,315.455z"/>
					</g>
				</g>
				<g>
					<g>
						<path style="fill:#FC09B2;" d="M433.373,316.648c3.054,2.124,7.252,1.371,9.377-1.683c0.817-1.174,1.204-2.517,1.203-3.847        c-0.001-2.129-1.006-4.222-2.886-5.53c-3.054-2.125-7.252-1.371-9.377,1.682c-0.817,1.174-1.204,2.517-1.203,3.847        C430.489,313.247,431.493,315.34,433.373,316.648z"/>
					</g>
				</g>
				<g>
					<g>
						<path style="fill:#FC09B2;" d="M441.067,364.786c-1.94-1.349-4.34-1.534-6.378-0.709c2.943,2.866,5.999,5.436,9.128,7.604        C444.345,369.119,443.349,366.374,441.067,364.786z"/>
					</g>
				</g>
				<g>
					<g>
						<path style="fill:#FC09B2;" d="M403.851,311.119c0.127,0.551,0.273,1.118,0.42,1.685c0.144-0.556,0.218-1.121,0.218-1.685        c-0.001-1.479-0.484-2.94-1.412-4.134C403.261,308.299,403.521,309.681,403.851,311.119z"/>
					</g>
				</g>
				<g>
					<g>
						<path style="fill:#FC09B2;" d="M381.87,295.722c-1.174-0.817-2.517-1.204-3.847-1.203c-2.129,0.002-4.222,1.006-5.53,2.886        c-2.125,3.054-1.371,7.252,1.682,9.377c1.174,0.817,2.517,1.204,3.847,1.203c2.128-0.002,4.221-1.006,5.529-2.886        C385.677,302.046,384.924,297.847,381.87,295.722z"/>
					</g>
				</g>
				<g>
					<g>
						<path style="fill:#FC09B2;" d="M378.023,363.074c-1.332-2.694-2.377-5.572-3.164-8.567c-0.915,0.486-1.734,1.186-2.366,2.095        c-1.14,1.638-1.444,3.603-1.017,5.403c1.905,1.886,3.897,3.603,5.948,5.15c0.199,0.018,0.398,0.027,0.598,0.027        c0.717,0,1.428-0.119,2.108-0.343c-0.402-0.666-0.845-1.396-1.176-1.991C378.63,364.267,378.32,363.674,378.023,363.074z"/>
					</g>
				</g>
				<g>
					<g>
						<path style="fill:#FC09B2;" d="M363.82,295.233c0.235-0.337,0.429-0.691,0.594-1.052c-1.719,1.151-3.337,2.427-4.792,3.803        C361.265,297.653,362.788,296.717,363.82,295.233z"/>
					</g>
				</g>
				<g>
					<g>
						<path style="fill:#FC09B2;" d="M372.493,336.87c-1.907,2.741-1.489,6.4,0.824,8.658c-0.271-3.15-0.279-6.363-0.043-9.582        C372.993,336.227,372.729,336.532,372.493,336.87z"/>
					</g>
				</g>
				<g>
					<g>
						<path style="fill:#FC09B2;" d="M362.138,345.054c-1.072-0.746-2.285-1.13-3.5-1.192c1.119,2.341,2.355,4.586,3.7,6.721        c0.641,1.018,1.298,2.018,1.984,2.986c0.472-0.95,0.704-1.971,0.703-2.986C365.022,348.455,364.017,346.362,362.138,345.054z"/>
					</g>
				</g>
				<g>
					<g>
						<path style="fill:#FC09B2;" d="M374.619,326.791c0.815-3.678,1.951-7.291,3.405-10.749c0.247-0.588,0.506-1.17,0.771-1.749        c-0.257-0.029-0.514-0.041-0.771-0.041c-2.129,0.001-4.222,1.006-5.53,2.886c-2.125,3.054-1.371,7.252,1.682,9.377        C374.32,326.615,374.469,326.703,374.619,326.791z"/>
					</g>
				</g>
				<g>
					<g>
						<path style="fill:#FC09B2;" d="M362.138,325.321c-2.886-2.008-6.791-1.443-9.005,1.201c0.23,1.431,0.516,2.901,0.897,4.464        c0.511,2.097,1.12,4.143,1.814,6.134c2.835,1.108,6.161,0.185,7.976-2.423C365.945,331.644,365.192,327.446,362.138,325.321z"/>
					</g>
				</g>
				<g>
					<g>
						<path style="fill:#FC09B2;" d="M354.443,316.648c3.054,2.124,7.252,1.371,9.377-1.683c0.817-1.174,1.204-2.517,1.203-3.847        c-0.002-2.129-1.006-4.222-2.886-5.53c-2.691-1.873-6.269-1.507-8.536,0.696c-0.67,1.592-1.072,3.214-1.169,4.834        c-0.012,0.195-0.032,0.391-0.034,0.587c-0.012,0.901-0.021,1.771-0.026,2.62C352.858,315.223,353.549,316.026,354.443,316.648        z"/>
					</g>
				</g>
				<g>
					<g>
						<path style="fill:#FC09B2;" d="M433.373,257.451c0.836,0.583,1.76,0.941,2.702,1.103c1.475-0.329,2.969-0.593,4.472-0.782        c0.656-0.373,1.26-0.853,1.774-1.45c-2.876-1.372-7.113-2.812-11.806-3.788C430.69,254.445,431.674,256.269,433.373,257.451z"/>
					</g>
				</g>
				<g>
					<g>
						<path style="fill:#FC09B2;" d="M413.64,267.317c0.61,0.425,1.267,0.729,1.943,0.928c0.605-0.497,1.239-0.986,1.904-1.466        c1.991-1.438,4.231-2.789,6.655-3.992c0.366-2.453-0.634-5.016-2.809-6.528c-1.174-0.817-2.517-1.205-3.847-1.203        c-2.129,0.002-4.222,1.006-5.53,2.886C409.833,260.994,410.587,265.193,413.64,267.317z"/>
					</g>
				</g>
				<g>
					<g>
						<path style="fill:#FC09B2;" d="M401.603,266.124c-2.705-1.882-6.304-1.502-8.569,0.73c0.138,1.16,0.347,2.344,0.676,3.55        c0.133,0.486,0.251,0.899,0.362,1.25c0.778,2.466,1.16,1.804,3.266,1.033c1.418-0.519,2.827-0.871,4.226-1.033        c0.981-0.114,1.955-0.121,2.924-0.015C404.481,269.515,403.477,267.429,401.603,266.124z"/>
					</g>
				</g>
				<g>
					<g>
						<path style="fill:#FC09B2;" d="M403.285,255.769c0.729-1.048,1.111-2.23,1.186-3.417c-2.633,0.522-5.316,1.222-8.065,2.121        c-0.893,0.292-1.442,0.831-1.861,1.654c-0.214,0.42-0.411,0.872-0.59,1.353C397.005,259.566,401.171,258.807,403.285,255.769z        "/>
					</g>
				</g>
			</g>
			<g>
				<g>
					<path style="fill:#FFFFFF;" d="M394.507,300.542c-1.532,0.14-3.138-0.193-4.671-0.951c-10.121-5.002-4.372-21.856,7.862-26.218       c2.581-0.92,5.215-1.368,7.988-0.767c11.925,2.582,9.052,21.105-5.41,26.925C398.317,300.319,396.636,300.654,394.507,300.542z       "/>
				</g>
			</g>
			<g style="opacity:0.5;">
				<g>
					<g>
						<path style="fill:#FFFFFF;" d="M421.335,374.652c-3.054-2.124-7.252-1.371-9.376,1.682c-0.857,1.231-1.238,2.647-1.197,4.039        c4.401,0.424,8.888,0.403,13.462-0.108C424.248,378.109,423.24,375.977,421.335,374.652z"/>
					</g>
				</g>
				<g>
					<g>
						<path style="fill:#FFFFFF;" d="M433.952,364.432c-0.872,0.483-1.654,1.162-2.262,2.036c-2.124,3.054-1.371,7.252,1.682,9.377        c1.85,1.287,4.116,1.511,6.091,0.816c0.121-0.046,0.24-0.093,0.361-0.139c1.141-0.478,2.166-1.269,2.926-2.36        c0.375-0.538,0.655-1.113,0.853-1.705c-0.019-0.012-0.039-0.023-0.058-0.035C440.298,370.274,437.064,367.523,433.952,364.432        z"/>
					</g>
				</g>
				<g>
					<g>
						<path style="fill:#FFFFFF;" d="M393.908,316.648c3.054,2.124,7.252,1.371,9.377-1.683c0.222-0.319,0.406-0.653,0.565-0.994        c-0.834-3.159-1.289-5.771-1.532-7.799c-0.225-0.206-0.459-0.405-0.716-0.584c-3.054-2.125-7.252-1.371-9.377,1.682        C390.101,310.325,390.854,314.523,393.908,316.648z"/>
					</g>
				</g>
				<g>
					<g>
						<path style="fill:#FFFFFF;" d="M413.64,346.247c1.852,1.289,4.122,1.512,6.098,0.813c-1.222-1.795-2.371-3.567-3.415-5.274        c-1.263-2.064-2.403-4.051-3.453-5.973c-0.333,0.314-0.64,0.666-0.912,1.057C409.833,339.924,410.587,344.122,413.64,346.247z        "/>
					</g>
				</g>
				<g>
					<g>
						<path style="fill:#FFFFFF;" d="M401.603,345.054c-3.054-2.125-7.252-1.372-9.377,1.682c-2.125,3.054-1.372,7.252,1.682,9.377        c3.054,2.125,7.252,1.372,9.377-1.683C405.41,351.377,404.657,347.178,401.603,345.054z"/>
					</g>
				</g>
				<g>
					<g>
						<path style="fill:#FFFFFF;" d="M401.603,325.321c-3.054-2.125-7.252-1.372-9.377,1.683c-2.125,3.054-1.372,7.252,1.682,9.376        c3.054,2.125,7.252,1.372,9.377-1.682C405.41,331.644,404.657,327.446,401.603,325.321z"/>
					</g>
				</g>
				<g>
					<g>
						<path style="fill:#FFFFFF;" d="M421.335,354.92c-3.054-2.125-7.252-1.372-9.376,1.682c-2.125,3.054-1.372,7.252,1.682,9.377        c3.054,2.125,7.252,1.372,9.377-1.683C425.142,361.243,424.389,357.045,421.335,354.92z"/>
					</g>
				</g>
				<g>
					<g>
						<path style="fill:#FFFFFF;" d="M401.603,364.786c-3.054-2.125-7.252-1.371-9.377,1.682c-2.125,3.054-1.372,7.252,1.682,9.377        c3.054,2.124,7.252,1.371,9.377-1.682C405.41,371.109,404.657,366.911,401.603,364.786z"/>
					</g>
				</g>
				<g>
					<g>
						<path style="fill:#FFFFFF;" d="M381.87,354.92c-1.908-1.327-4.262-1.531-6.278-0.754c1.173,4.582,2.938,8.787,5.239,12.399        c1.059-0.484,2.008-1.244,2.721-2.269C385.677,361.243,384.924,357.045,381.87,354.92z"/>
					</g>
				</g>
				<g>
					<g>
						<path style="fill:#FFFFFF;" d="M381.87,335.188c-2.403-1.672-5.512-1.555-7.764,0.056c-0.308,3.745-0.268,7.445,0.098,11.02        c3.052,2.101,7.23,1.345,9.349-1.7C385.677,341.51,384.924,337.313,381.87,335.188z"/>
					</g>
				</g>
				<g>
					<g>
						<path style="fill:#FFFFFF;" d="M381.87,315.455c-0.714-0.497-1.492-0.83-2.289-1.02c-1.919,4.123-3.328,8.405-4.265,12.716        c2.889,1.272,6.366,0.369,8.237-2.319C385.677,321.778,384.924,317.58,381.87,315.455z"/>
					</g>
				</g>
				<g>
					<g>
						<path style="fill:#FFFFFF;" d="M481.039,305.981c-0.162-0.137-0.33-0.269-0.507-0.392c-3.054-2.125-7.251-1.371-9.376,1.682        c-0.031,0.044-0.055,0.092-0.085,0.136c3.343,2.479,6.339,5.088,8.816,7.776c0.292,0.318,0.599,0.624,0.923,0.907        c0.082,0.071,0.163,0.116,0.241,0.149c0.261-0.223,0.513-0.461,0.742-0.729C481.852,312.29,481.548,309.128,481.039,305.981z"/>
					</g>
				</g>
				<g>
					<g>
						<path style="fill:#FFFFFF;" d="M460.8,295.722c-2.71-1.885-6.318-1.5-8.582,0.743c3.928,1.79,7.758,3.791,11.363,5.955        C464.021,299.917,463.024,297.27,460.8,295.722z"/>
					</g>
				</g>
				<g>
					<g>
						<path style="fill:#FFFFFF;" d="M472.838,296.916c1.927,1.34,4.309,1.533,6.338,0.727c-1.26-4.32-2.985-8.494-5.136-12.445        c-1.124,0.479-2.135,1.263-2.885,2.341C469.031,290.593,469.784,294.791,472.838,296.916z"/>
					</g>
				</g>
				<g>
					<g>
						<path style="fill:#FFFFFF;" d="M453.106,267.317c2.189,1.523,4.963,1.561,7.143,0.338c-2.351-2.149-4.848-4.133-7.474-5.908        c-0.788-0.533-1.597-0.967-2.413-1.359C449.817,262.959,450.813,265.722,453.106,267.317z"/>
					</g>
				</g>
				<g>
					<g>
						<path style="fill:#FFFFFF;" d="M423.017,265.635c0.418-0.601,0.72-1.246,0.92-1.911c-0.624,0.325-1.24,0.655-1.844,0.989        c-2.074,1.148-3.942,2.465-5.517,3.745C419.002,268.787,421.522,267.783,423.017,265.635z"/>
					</g>
				</g>
				<g>
					<g>
						<path style="fill:#FFFFFF;" d="M460.8,275.991c-3.054-2.125-7.252-1.372-9.377,1.682c-2.125,3.054-1.372,7.252,1.683,9.377        c3.054,2.125,7.252,1.372,9.376-1.683C464.607,282.313,463.854,278.115,460.8,275.991z"/>
					</g>
				</g>
				<g>
					<g>
						<path style="fill:#FFFFFF;" d="M441.067,285.857c-3.054-2.125-7.252-1.372-9.377,1.682c-0.358,0.515-0.627,1.064-0.825,1.628        c4.182,0.933,8.536,2.234,12.891,3.827C444.402,290.365,443.422,287.495,441.067,285.857z"/>
					</g>
				</g>
				<g>
					<g>
						<path style="fill:#FFFFFF;" d="M441.067,266.124c-3.054-2.125-7.252-1.372-9.377,1.682c-2.124,3.054-1.371,7.252,1.682,9.377        c3.054,2.125,7.252,1.372,9.377-1.683C444.874,272.447,444.121,268.249,441.067,266.124z"/>
					</g>
				</g>
				<g>
					<g>
						<path style="fill:#FFFFFF;" d="M421.335,275.991c-2.761-1.921-6.452-1.483-8.706,0.874c0.337,0.632,0.683,1.458,0.96,2.612        c0.948,3.948-0.234,6.257-0.246,7.342c0.099,0.077,0.194,0.158,0.298,0.23c0.293,0.204,0.598,0.373,0.909,0.524        c0.112-0.001,0.214,0.001,0.346-0.007c1.726-0.107,3.563-0.091,5.484,0.033c1.025-0.487,1.943-1.234,2.638-2.232        C425.142,282.313,424.389,278.115,421.335,275.991z"/>
					</g>
				</g>
				<g>
					<g>
						<path style="fill:#FFFFFF;" d="M392.467,256.093c0.221,0.28,0.471,0.542,0.74,0.788        C393.189,256.327,392.93,256.064,392.467,256.093z"/>
					</g>
				</g>
				<g>
					<g>
						<path style="fill:#FFFFFF;" d="M381.87,275.991c-3.054-2.125-7.252-1.372-9.377,1.682c-2.125,3.054-1.371,7.252,1.682,9.377        c0.706,0.491,1.473,0.822,2.261,1.012c1.579-0.339,3.135-0.515,4.645-0.541c0.958-0.487,1.814-1.21,2.47-2.154        C385.677,282.313,384.924,278.115,381.87,275.991z"/>
					</g>
				</g>
				<g>
					<g>
						<path style="fill:#FFFFFF;" d="M393.862,273.291c-0.754-2.122-1.241-3.959-1.518-5.637c-0.039,0.052-0.081,0.1-0.118,0.153        c-1.666,2.394-1.556,5.486,0.037,7.737C393.742,274.399,394.206,274.259,393.862,273.291z"/>
					</g>
				</g>
				<g>
					<g>
						<path style="fill:#FFFFFF;" d="M383.553,265.635c1.215-1.746,1.485-3.865,0.926-5.758c-3.739,2.165-7.193,4.653-10.329,7.42        c0.009,0.007,0.017,0.014,0.027,0.021C377.229,269.442,381.428,268.689,383.553,265.635z"/>
					</g>
				</g>
				<g>
					<g>
						<path style="fill:#FFFFFF;" d="M362.138,285.857c-0.632-0.44-1.313-0.749-2.014-0.948c-2.15,3.959-3.857,8.108-5.113,12.36        c1.077,0.602,2.261,0.872,3.43,0.845c1.841-1.884,4.019-3.627,6.391-5.139C365.468,290.352,364.487,287.491,362.138,285.857z"/>
					</g>
				</g>
			</g>
			<g style="opacity:0.5;">
				<g>
					<g>
						<path style="fill:#FC09B2;" d="M481.736,320.155c-0.339,2.671-0.574,5.557-1.143,8.399        c-3.824,19.108-16.077,35.638-33.067,44.536c-0.64,0.335-1.128,0.282-1.707-0.084c-8.781-5.534-13.731-11.35-19.806-18.675        c-1.255-1.513,0.262-1.083,5.072-2.748c18.426-6.378,32.565-21.88,35.089-38.233c0.331-2.147,0.393-4.291,0.351-6.449        c-0.007-0.364,0.004-0.734,0.062-1.093c0.032-0.197,0.262-0.273,0.44-0.222c0.231,0.066,0.464,0.17,0.66,0.309        c9.783,6.956,11.122,9.349,13.518,11.972C481.765,318.483,481.754,319.211,481.736,320.155z"/>
					</g>
				</g>
				<g>
					<g>
						<path style="fill:#FC09B2;" d="M352.621,317.592c1.075,0.666,0.316,3.412,5.811,12.659c5,8.414,12.742,15.529,13.269,15.8        c1.619,0.833,2.017,2.316,2.273,3.964c2.069,13.297,8.009,18.134,7.078,19.176c-0.339,0.379-0.877,0.014-1.606-0.524        c-14.172-10.476-22.493-23.811-25.824-39.443c-0.746-3.502-1.322-7.631-1.192-11.361        C352.433,317.77,352.554,317.682,352.621,317.592z"/>
					</g>
				</g>
			</g>
			<g style="opacity:0.25;">
				<g>
					<g>
						<path style="fill:#000E3F;" d="M386.638,373.154c-1.354-0.709-2.266-1.902-3.212-3.026        c-5.123-6.087-7.215-12.919-8.679-19.962c-0.075-0.36-0.1-0.733-0.116-1.101c-0.016-0.362,0.304-0.589,0.607-0.435        c14.804,7.555,30.64,10.675,46.806,5.736c2.261-0.691,2.206-1.052,3.843,1.074c13.888,18.039,22.6,17.3,17.709,19.534        C427.494,382.33,405.202,382.881,386.638,373.154z"/>
					</g>
				</g>
				<g>
					<g>
						<path style="fill:#000E3F;" d="M481.749,315.823c-0.022,0.428-0.476,0.611-0.813,0.351        c-1.436-1.108-3.369-4.333-12.961-10.981c-2.195-1.521-1.808-1.006-1.844-3.407c-0.202-13.387-4.654-28.383-13.128-38.747        c-4.332-5.297,26.524,14.505,28.481,46.517C481.566,310.906,481.935,312.14,481.749,315.823z"/>
					</g>
				</g>
			</g>
			<g style="opacity:0.5;">
				<g>
					<path style="fill:#FFFFFF;" d="M438.648,263.114l-0.01-0.007c-0.982-0.601-0.311-2.127,0.801-1.796       c12.325,3.673,20.759,19.577,19.181,32.09c-0.136,1.076-1.7,1.085-1.849,0.013C456.5,292.747,454.678,272.938,438.648,263.114z       "/>
				</g>
			</g>
		</g>
		<g>
			<g>
				<path style="fill:#000E3F;" d="M351.192,324.756c-5.39-38.919,23.032-75.108,65.853-75.074      c59.793,0.047,89.123,73.533,45.099,114.606C422.447,401.324,358.425,376.983,351.192,324.756z M480.991,319.443      c0.017-0.588-0.196-1.079-0.577-1.516c-15.273-17.477-45.784-29.597-65.617-28.926c-1.184,0.04-1.877,0.378-2.441,1.471      c-1.847,3.582-4.526,6.44-7.973,8.55c-1.475,0.904-0.986,3.377-0.861,4.785c0.246,2.753,0.198,5.612,2.548,12.894      c2.345,7.264,5.65,14.228,9.414,20.858c4.135,7.281,8.911,14.237,14.405,20.561c4.446,5.117,9.411,9.91,15.112,13.615      c1.54,1.001,1.573,1.159,3.16,0.283c14.233-7.845,26.059-21.774,30.814-39.449C480.033,328.641,480.854,324.151,480.991,319.443      z M383.826,369.622c0.844,1.047,1.672,2.165,2.92,2.801c18.267,9.303,38.015,10.472,56.91,1.832      c1.565-0.716-1.476-1.381-6.304-5.769c-15.122-13.742-26.846-32.545-32.67-49.577c-5.849-17.104-1.208-18.778-5.235-17.577      c-3.75,1.118-7.244,0.811-9.267-0.038c-0.975-0.41-1.386,0.082-2.125,0.944c-3.73,4.35-6.616,9.23-8.793,14.505      C372.369,333.448,372.552,355.632,383.826,369.622z M412.132,273.986c-0.241,0.33-0.265,0.65,0.004,1.008      c3.829,5.09,2.06,9.618,2.06,11.734c0.346,0.031,12.105-0.245,25.278,4.012c8.218,2.656,16.176,6.233,23.611,10.627      c14.568,8.608,16.472,13.519,18.089,13.869c0.101-0.558-0.106-2.383-0.177-3.336c-1.723-23.139-13.717-40.733-32.082-51.706      C442.611,256.428,420.635,262.31,412.132,273.986z M353.091,311.404c-1.641,19.426,6.55,41.972,26.352,56.49      c0.139,0.102,0.303,0.266,0.445,0.033c0.37-0.606-9.379-11.667-7.044-34.287c1.219-11.811,6.087-24.132,13.883-32.896      c0.417-0.468,0.816-0.782,0.398-1.218c-1.469-1.534-3.017-2.829-3.747-6.625c-0.488-2.538,0.328-3.77-1.127-3.878      C371.472,288.222,354.142,298.957,353.091,311.404z M354.752,300.54c-0.002,2.532,1.846-3.891,11.887-9.406      c4.883-2.682,10.059-4.354,15.689-4.38c1.33-0.006,1.409-0.111,1.831-1.352c1.413-4.162,4.048-7.431,7.401-10.184      c0.564-0.463,1.532-0.666,1.633-1.393c0.147-1.055-3.104-6.688-1.233-14.498c0.199-0.83,0.418-1.656,0.628-2.483      c-1.746-0.192-11.231,5.206-16.86,9.95C364.507,276.253,358.448,287.211,354.752,300.54z M394.544,270.921      c0.479,1.473,0.521,1.995,2.431,1.228c5.288-2.123,8.796-1.422,12.471,0.443c0.783,0.397,0.834,0.404,1.359-0.318      c3.53-4.861,10.367-9.054,15.924-11.397c11.269-4.751,16.762-3.35,14.85-4.206c-12.244-5.477-27.998-6.863-44.317-1.803      c-1.4,0.434-2.152,1.275-2.616,2.59C393.071,261.924,393.316,267.142,394.544,270.921z M394.065,300.008      c2.715,0.114,5.269-0.56,7.649-1.813c12.951-6.824,14.33-23.151,3.475-25c-2.711-0.461-5.399-0.097-7.96,1.04      C382.398,280.823,381.64,299.488,394.065,300.008z"/>
			</g>
		</g>
	</g>
	<g>
		<g>
			<g>
				<g>
					<path style="fill:#FF8EDE;" d="M302.577,378.479c-3.258-0.895-5.175-4.263-4.28-7.521l77.547-282.32       c0.895-3.258,4.263-5.175,7.521-4.28c3.258,0.895,5.175,4.263,4.28,7.521l-77.547,282.32       C309.203,377.458,305.835,379.374,302.577,378.479z"/>
				</g>
			</g>
			<g>
				<g>
					<path style="fill:#000E3F;" d="M302.275,379.579c-3.86-1.06-6.138-5.064-5.078-8.924l77.547-282.32       c1.06-3.86,5.064-6.138,8.924-5.078c3.859,1.06,6.138,5.064,5.078,8.924l-77.547,282.32       C310.138,378.361,306.134,380.639,302.275,379.579z M383.063,85.458c-2.648-0.727-5.392,0.834-6.119,3.482l-77.547,282.32       c-0.727,2.648,0.835,5.392,3.482,6.119c2.647,0.727,5.392-0.834,6.119-3.482l77.547-282.32       C387.272,88.93,385.711,86.185,383.063,85.458z"/>
				</g>
			</g>
		</g>
		<g>
			<g>
				<g>
					<g>
						<g>
							<path style="fill:#00B0C4;" d="M308.899,119.506c-0.274-0.876-0.493-1.769-0.747-2.651c-0.237-0.822-0.069-1.538,0.404-2.257         c1.65-2.508,3.384-4.951,5.263-7.293c24.487-30.519,67.171-55.164,78.172-49.477c17.167,8.875,38.726,58.099,40.183,90.462         c0.048,1.062-0.251,1.858-1.001,2.622C402.062,180.56,321.398,159.414,308.899,119.506z"/>
						</g>
					</g>
					<g>
						<g>
							<path style="fill:#00B0C4;" d="M235.255,109.815c-8.357-7.981-7.257-16.619-0.953-21.308         c16.415-12.208,33.407-21.504,53.435-27.953c52.172-16.796,88.879-5.755,94.921-5.359c0.53,0.035,1.053,0.3,1.56,0.506         c0.303,0.123,0.388,0.665,0.007,0.859c-1.219,0.623-3.638,0.266-12.847,4.329c-16.758,7.393-40.133,24.399-57.153,44.666         c-6.248,7.44-5.871,9.066-8.06,10.627c-5.253,3.747-11.063,6.277-17.296,7.829c-8.083,2.012-16.219,2.256-25.116,0.438         C262.377,124.168,242.609,116.838,235.255,109.815z"/>
						</g>
					</g>
					<g>
						<g>
							<path style="fill:#00B0C4;" d="M433.528,151.357c-0.991-2.096-0.392-31.67-20.23-68.321c-0.843-1.557-1.577-3.182-2.507-4.69         c-9.588-15.548-11.362-15.027-14.009-18.301c-0.229-0.284-0.033-0.766,0.391-0.777c1.373-0.035,1.491,0.491,4.346,1.373         c3.098,0.957,9.32,3.569,12.277,4.838c40.483,17.385,76.131,53.795,92.156,90.778c3.494,8.064,5.238,10.624,4.129,15.287         c-1.383,5.818-6.329,8.941-12.212,10.289c-6.75,1.547-13.555,1.886-20.422,0.898         C457.75,179.899,441.746,168.736,433.528,151.357z"/>
						</g>
					</g>
				</g>
				<g>
					<g>
						<g>
							<path style="fill:#FFFFFF;" d="M332.123,90.66c-0.547-1.95-0.545-1.947,0.985-3.289c5.933-5.203,13.174-10.84,20.564-15.696         c3.829-2.515-0.169,2.093,6.316,11.365c4.432,6.337,9.866,11.087,17.001,14.076c10.518,4.407,27.818,0.523,34.975-7.521         c2.217-2.492,2.292-2.943,3.148-1.387c4.206,7.639,9.342,22.999,10.027,24.838c0.373,0.999,0.242,1.741-0.541,2.452         c-1.677,1.523-3.352,3.028-5.276,4.261c-11.324,7.261-26.394,8.721-39.512,6.63         C354.284,122.319,336.346,105.704,332.123,90.66z"/>
						</g>
					</g>
					<g>
						<g>
							<path style="fill:#FFFFFF;" d="M359.357,160.102c-4.068-1.088-11.87-4.06-19.128-7.885         c-13.856-7.302-28.268-19.801-32.016-35.078c-0.255-1.039-0.107-1.876,0.476-2.765c1.951-2.973,4.104-5.793,6.318-8.571         c0.293-0.368,0.756-0.774,1.022-0.383c0.728,1.072,1.005,3.593,6.171,10.16c9.476,12.047,26.852,23.027,40.836,27.272         c1.452,0.441,2.851,1.112,4.347,1.431c3.703,0.79,7.393,1.632,11.161,2.113c16.878,2.154,32.547-0.269,43.164-4.668         c8.044-3.333,8.912-6.032,9.311-4.516c0.466,1.772,1.049,8.909,1.155,10.948c0.063,1.212-0.33,2.069-1.173,2.917         c-10.042,10.094-26.115,13.636-40.371,13.75c-11.161,0.089-20.36-1.989-20.597-2.03         C367.391,162.351,361.55,160.688,359.357,160.102z"/>
						</g>
					</g>
					<g>
						<g>
							<path style="fill:#FFFFFF;" d="M285.876,90.037c-15.75-4.2-22.609-9.322-28.442-15.582c-0.328-0.353-0.311-0.678,0.053-0.921         c0.782-0.522,7.58-3.836,8.357-4.213c14.342-6.973,20.922-7.925,22.746-8.823c1.886-0.928,3.929-1.367,5.904-2.015         c2.453-0.805,2.536,3.29,14.004,8.169c11.824,5.03,26.402,6.152,39.319,4.233c12.834-1.905,6.143-2.681-16.456,17.043         c-0.808,0.705-1.702,1.148-2.74,1.41C310.276,93.972,291.488,91.945,285.876,90.037L285.876,90.037z"/>
						</g>
					</g>
					<g>
						<g>
							<path style="fill:#FFFFFF;" d="M469.882,140.608c0,0-21.257-4.875-39.652-21.68c-3.187-2.911-3.558-3.422-4.131-5.257         c-5.803-18.564-11.194-26.267-10.342-26.717c0.834-0.441,14.675,15.082,36.758,19.686         c14.981,3.123,18.622-1.085,20.249,0.695c11.818,12.923,18.195,21.861,24.264,31.965c0.244,0.406,0.089,0.697-0.354,0.845         C487.642,143.151,477.477,142.801,469.882,140.608L469.882,140.608z"/>
						</g>
					</g>
					<g>
						<g>
							<path style="fill:#FFFFFF;" d="M470.126,181.393c-9.989-2.928-18.434-7.443-25.495-14.369         c-7.388-7.247-11.626-15.889-11.667-17.552c-0.466-19.102-5.807-13.67,12.496-1.425c13.628,9.118,30.949,14.138,47.345,12.63         c11.529-1.06,13.424-3.989,14.127-2.306c2.198,5.263,6.868,12.594-0.661,19.455c-6.691,6.098-23.573,6.304-32.576,4.272         C472.329,181.791,470.919,181.665,470.126,181.393z"/>
						</g>
					</g>
					<g>
						<g>
							<path style="fill:#FFFFFF;" d="M259.674,123.563c-9.175-2.715-17.428-7.076-24.395-13.725         c-4.381-4.18-7.192-9.216-5.52-15.014c1.292-4.481,4.25-6.144,9.257-9.782c0.799-0.581,1.001-0.566,1.682,0.23         c7.57,8.849,18.979,16.153,34.176,19.937c22.779,5.672,39.327-0.967,39.7-0.481c0.247,0.322-0.43,0.687-3.437,4.866         c-3.643,5.064-3.56,5.608-4.774,6.457c-12.877,9-28.764,11.397-42.567,8.396C262.425,124.15,261.021,123.998,259.674,123.563         z"/>
						</g>
					</g>
				</g>
				<g>
					<g>
						<path style="fill:#FF8EDE;" d="M389.782,56.047c-10.179-2.169-10.21-2.26-10.011-3.261c0.338-1.7,3.088-7.743,6.617-11.317        c6.274-6.355,15.539-4.903,16.815,8.075c0.284,2.887-0.152,7.856-0.671,9.484c-0.152,0.477-0.51,0.706-0.991,0.586        C395.307,58.062,393.132,56.761,389.782,56.047z"/>
					</g>
				</g>
				<g style="opacity:0.5;">
					<g>
						<path style="fill:#FC09B2;" d="M392.766,56.851c-3.795-1.168-7.336-1.51-12.456-3.054c-1.152-0.347-0.079-1.515,1.972-1.837        c6.266-0.982,12.783-1.136,16.006-7.189c0.57-1.071,1.2-2.142,1.227-3.424c0.055-2.649,5.756,4.706,3.11,17.378        c-0.175,0.836-0.512,1.036-1.311,0.851C395.671,58.268,395.12,57.576,392.766,56.851z"/>
					</g>
				</g>
				<g style="opacity:0.25;">
					<g>
						<g>
							<path style="fill:#000E3F;" d="M469.987,181.352c-17.91-5.25-29.78-15.835-36.434-29.944         c-1.188-2.519-0.099-3.044-1.528-12.703c-1.306-8.83-2.338-7.108,1.193-8.714c8.399-3.819,14.297-10.787,15.883-20.595         c2.103-13.004-4.819-24.603-5.281-26.577c-0.36-1.534,42.17,27.782,62.181,73.565c3.311,7.575,6.876,12.903,2.022,19.581         c-5.815,8-25.023,8.356-33.965,6.214C472.578,181.824,471.028,181.769,469.987,181.352z"/>
						</g>
					</g>
					<g>
						<g>
							<path style="fill:#000E3F;" d="M343.283,153.783c-2.281-1.135-2.481-1.051-0.586-3.118         c8.805-9.601,22.76-12.391,35.825-12.861c9.926-0.357,15.973-0.221,31.843-2.215c18.025-2.264,19.22-5.125,19.682-3.505         c1.107,3.888,1.885,11.919,2.123,15.994c0.075,1.284-0.344,2.171-1.241,3.069         C410.985,171.119,369.367,166.758,343.283,153.783z"/>
						</g>
					</g>
					<g>
						<g>
							<path style="fill:#000E3F;" d="M345.33,61.167c-56.412,10.06-66.315,23.192-68.111,18.975         c-0.266-0.624-0.042-1.336,0.497-1.706c18.017-12.362,44.672-20.504,67.421-19.886         C346.715,58.593,346.888,60.89,345.33,61.167z"/>
						</g>
					</g>
				</g>
				<g>
					<g>
						<g>
							<path style="fill:#FC09B2;" d="M343.215,110.066c4.303-2.376,11.282-1.782,15.936,2.807c3.823,3.77,3.243,9.893-5.498,10.63         C343.433,124.365,335.657,114.239,343.215,110.066z"/>
						</g>
					</g>
					<g>
						<g>
							<path style="fill:#FC09B2;" d="M387.467,122.221c4.303-2.376,11.282-1.782,15.936,2.807c3.823,3.77,3.243,9.893-5.497,10.63         C387.685,136.52,379.909,126.394,387.467,122.221z"/>
						</g>
					</g>
				</g>
			</g>
			<g>
				<g>
					<g>
						<path style="fill:#000E3F;" d="M373.105,121.845c0.795,0.212,1.63,0.319,2.466,0.319c0.544,0,1.09-0.045,1.628-0.136        c1.265-0.212,2.464-0.659,3.565-1.331c2.326-1.426,3.989-3.761,4.556-6.406c0.167-0.779-0.332-1.547-1.109-1.716        c-0.371-0.082-0.76-0.008-1.086,0.2c-0.328,0.21-0.552,0.534-0.633,0.911c-0.41,1.902-1.562,3.517-3.241,4.548        c-1.64,0.999-3.602,1.298-5.403,0.816c-1.819-0.484-3.389-1.741-4.306-3.447c-0.942-1.753-1.115-3.746-0.488-5.609        c0.254-0.754-0.154-1.576-0.911-1.832c-0.758-0.245-1.576,0.161-1.832,0.909c-0.87,2.592-0.62,5.471,0.684,7.898        C368.29,119.377,370.517,121.155,373.105,121.845z"/>
					</g>
				</g>
				<g>
					<g>
						<path style="fill:#000E3F;" d="M348.664,97.818c-0.245,0.348-0.48,0.699-0.686,1.088c-0.179,0.344-0.214,0.736-0.101,1.105        c0.115,0.367,0.367,0.67,0.709,0.849c0.336,0.179,0.732,0.22,1.102,0.101c0.369-0.113,0.67-0.365,0.849-0.707        c1.683-3.2,5.186-4.768,7.98-3.587c2.33,0.997,3.758,3.703,3.552,6.732c-0.051,0.795,0.554,1.486,1.354,1.541        c0.027,0.002,0.051,0.002,0.078,0.002c0.089,0,0.173-0.006,0.253-0.021c0.661-0.109,1.156-0.655,1.201-1.329        c0.288-4.257-1.844-8.108-5.306-9.585c-1.846-0.787-3.989-0.812-6.043-0.068l-2.699-4.012        c-0.443-0.653-1.344-0.828-2.009-0.392c-0.661,0.447-0.837,1.35-0.391,2.009l2.547,3.783        c-0.136,0.101-0.282,0.212-0.428,0.332l-3.864-2.675c-0.655-0.453-1.56-0.291-2.011,0.367        c-0.453,0.655-0.288,1.558,0.367,2.011L348.664,97.818z"/>
					</g>
				</g>
				<g>
					<g>
						<path style="fill:#000E3F;" d="M389.923,112.216c0.717,0.363,1.582,0.072,1.943-0.634c1.372-2.706,3.991-4.284,6.493-3.973        c3.008,0.404,5.217,3.548,5.03,7.16c-0.041,0.793,0.573,1.475,1.37,1.519c0.023,0.002,0.043,0.002,0.066,0.002        c0.08,0,0.165-0.006,0.249-0.021c0.664-0.111,1.168-0.68,1.201-1.352c0.025-0.439,0-0.872-0.031-1.284l4.298-0.301        c0.051-0.002,0.103-0.008,0.144-0.016c0.738-0.122,1.255-0.779,1.201-1.525c-0.027-0.385-0.202-0.738-0.492-0.991        c-0.266-0.231-0.598-0.356-0.946-0.356c-0.035,0-0.07,0.002-0.103,0.004l-4.688,0.326c-0.066-0.181-0.134-0.352-0.2-0.505        l4.121-1.949c0.719-0.342,1.03-1.205,0.69-1.927c-0.344-0.719-1.189-1.024-1.927-0.69l-4.368,2.069        c-1.389-1.688-3.241-2.761-5.232-3.031c-3.748-0.478-7.527,1.729-9.458,5.532c-0.175,0.344-0.206,0.738-0.084,1.105        C389.321,111.745,389.579,112.043,389.923,112.216z"/>
					</g>
				</g>
				<g>
					<g>
						<path style="fill:#000E3F;" d="M511.718,166.484c-1.646-8.302-17.735-41.397-44.2-66.735        c-18.346-17.564-40.346-31.55-61.946-39.382c-1.284-0.466-1.35-0.575-1.164-1.937c0.394-2.86,0.777-6.637,0.241-10.488        c-0.905-6.515-4.595-11.12-9.402-11.732c-2.345-0.288-10.515-0.07-16.871,15.346c-0.358,0.87-0.519,0.973-1.44,0.892        l-0.062-0.012c-2.986-0.61-30.083-5.8-61.223-0.346c-39.493,6.917-66.356,22.785-81.937,34.878        c-3.76,2.92-5.862,6.526-6.076,10.426c-0.243,4.447,1.947,9.149,6.171,13.241c14.592,14.137,36.613,19.931,56.107,14.763        c7.632-2.026,12.326-4.85,15.13-6.536c0.567-0.342,1.051-0.633,1.461-0.857c0.074-0.043,0.14-0.062,0.171-0.043        c0.109,0.049,0.189,0.391,0.237,0.595c0.02,0.087,0.039,0.171,0.062,0.245c4.519,15.66,19.453,29.85,40.973,38.935        c26.321,11.106,55.786,11.619,75.078,1.3c4.376-2.341,7.253-5.026,8.481-6.173c0.249-0.233,0.426-0.4,0.556-0.488        c0.134,0.029,0.406,0.28,0.936,1.319c0.033,0.066,0.06,0.118,0.076,0.146c2.736,4.856,5.883,9.956,10.35,14.351        c8.153,8.019,19.414,13.651,31.703,15.858c3.663,0.657,7.292,0.981,10.766,0.981c7.02,0,13.397-1.317,18.081-3.845        C510.185,177.833,512.936,172.611,511.718,166.484z M398.686,60.581c9.604,3.404,20.489,7.265,36.106,16.877        c21.952,13.515,40.832,31.62,56.115,53.816c6.509,9.453,12.093,19.921,17.572,32.941c2.17,5.159,1.096,9.678-3.105,13.07        c-10.125,8.174-35.391,7.539-54.053-5.532c-7.197-5.042-12.777-11.837-17.059-20.774c-0.389-0.814-0.46-2.03-0.575-4.045        c-0.202-3.503-0.538-9.363-2.963-19.638c-4.107-17.382-9.886-32.793-17.18-45.802c-5.885-10.494-11.112-16.515-13.626-19.408        c-0.552-0.637-1.049-1.208-1.267-1.517C398.661,60.571,398.674,60.575,398.686,60.581z M309.723,114.376        c8.065-12.064,22.781-26.595,38.409-37.919c16.303-11.813,31.14-18.497,40.973-18.497c0.336,0,0.67,0.008,0.993,0.023        c1.58,0.076,5.862,3.493,7.263,4.873c14.256,14.022,32.16,53.878,33.876,84.245l0.027,0.427        c0.078,1.212,0.122,1.877-0.783,2.833c-15.464,16.301-44.443,15.892-66.395,10.078c-28.812-7.63-50.358-24.489-54.898-42.949        C308.898,116.303,309.059,115.373,309.723,114.376z M402.102,56.629c-0.035,0.301-0.064,0.569-0.089,0.808        c-0.078,0.76-0.132,1.261-0.305,1.37c-0.2,0.134-0.824-0.101-1.859-0.48c-0.534-0.196-1.197-0.439-2.019-0.715        c-4.379-1.467-8.541-2.415-11.582-3.107c-2.994-0.68-5.357-1.22-5.623-1.745c-0.019-0.039-0.019-0.07,0-0.114        c1.91-4.329,4.288-9.715,8.658-12.482c2.782-1.762,5.905-1.892,8.359-0.342C399.891,41.241,403.46,45.313,402.102,56.629z         M382.266,56.134c-7.888,2.437-17.714,5.497-36.108,18.783c-16.28,11.757-30.893,26.349-39.085,39.034        c-1.758,2.724-9.048,6.146-13.23,7.663c-16.54,6-35.504,3.536-50.721-6.602c-3.859-2.569-7.014-5.3-9.647-8.345        c-3.324-3.845-5.013-10.29-0.872-15.353c3.089-3.777,19.282-13.816,25.291-17.042c32.492-17.444,64.254-21.581,85.178-21.981        c1.273-0.025,2.518-0.035,3.74-0.035C367.191,52.257,380.333,55.467,382.266,56.134z"/>
					</g>
				</g>
			</g>
		</g>
	</g>
	<g>
		<g>
			<g>
				<g>
					<path style="fill:#FFCF00;" d="M285.861,153.354c-4.254,0-4.768,3.369-8.776,12.449c-0.054,0.053,0.043-0.104-0.253,0.59       c-0.318-0.04,3.444,0.432-104.147-13.103c1.989-4.764,6.088-8.31,3.398-12.744c-1.357-2.222-4.004-3.636-6.541-3.249       c-4.535,0.659-1.144-1.559-55.449,99.842c-0.034,0.033-5.951,11.144-5.951,11.246c-8.368,15.74-22.036,41.536-22.154,41.756       c-17.474,2.023-28.905,3.205-29.117,3.313c-1.333,0.15-13.815,1.555-13.124,1.477c-4.681,0.549-6.935,5.46-5.486,9.241       c2.295,5.823,9.217,2.191,14.77,2.258c1.472,0.981,0.308,0.45,21.099,6.119c-13.952,26.275-29.919,56.409-30.931,58.298       c-6.735,14.31-11.637,17.833-8.673,22.724c1.651,2.778,5.327,4.212,8.272,2.701c2.381-1.241,0.806,0.252,23.251-41.756       c20.042,6.978-11.494-4,24.729,8.609c0.232,0,86.677,29.972,86.888,30.045c-1.722,3.935,3.649-8.34-14.939,34.139       c-3.255,7.355,7.692,13.55,10.929,6.119c6.346-14.552,6.963-15.719,6.963-15.93c10.179-23.768,36.915-84.418,37.008-84.63       c1.207,0.29-6.496-1.551,26.88,6.436l7.427,33.59c1.697,7.9,13.861,4.872,12.111-3.102       c-14.077-64.002-20.862-94.487-21.057-94.926c0.096-0.218,8.988-20.493,8.44-19.243c0-0.185,13.377-30.353,13.377-30.657       c8.442-19.258,19.947-45.604,27.176-62.138C294.054,158.054,290.064,153.354,285.861,153.354z M182.686,381.648       c-19.047-6.588-75.672-26.175-94.673-32.746c-0.213-0.213-4.118-1.451-16.056-5.57c18.94-35.695,13.477-25.676,14.538-27.429       c81.872,22.209-5.03-1.362,58.571,15.888c-2.64,4.589,1.223,10.989,6.899,9.283c0.214-0.063,50.072-14.786,55.66-16.436       C204.946,330.69,182.808,381.368,182.686,381.648z M222.69,321.22c0.189-0.401,0.358-0.78,0.527-1.182l16.014-4.726       l2.279,10.402C241.294,325.663,242.856,326.039,222.69,321.22z M229.779,305.037l4.769-10.908       c0.675,2.975,1.329,5.929,1.962,8.905C234.274,303.708,232.016,304.383,229.779,305.037z M214.186,309.636       c-2.289,0.686-49.224,14.517-49.435,14.579c-1.138-0.412-70.572-19.237-72.223-19.685c0.142-0.269,21.849-41.225,23.251-43.866       l4.705,10.465c3.173-3.426,6.033-6.755,8.967-10.465c-2.089-4.663-4.178-9.305-6.267-13.968       c0.178-0.336,33.391-62.971,43.275-81.612c0.215,0.027,95.223,11.964,93.87,11.795l11.288,1.413       C255.688,214.759,214.358,309.245,214.186,309.636z"/>
				</g>
			</g>
			<g>
				<g>
					<g>
						<path style="fill:#FD8A02;" d="M235.838,335.866c-1.217-0.279-2.417-0.576-3.618-0.873c0.013-1.546-0.885-6.642-2.353-10.696        c1.218,0.279,2.418,0.576,3.636,0.855v0.018C234.858,328.696,235.679,332.951,235.838,335.866z"/>
					</g>
				</g>
				<g>
					<g>
						<path style="fill:#FD8A02;" d="M186.112,329.61c-1.565,0.472-3.131,0.944-4.695,1.379c-2.586-0.021-16.118-4.011-23.007,6.81        c-1.242,0.367-2.5,0.733-3.742,1.1C159.424,325.892,173.355,324.198,186.112,329.61z"/>
					</g>
				</g>
				<g>
					<g>
						<path style="fill:#FD8A02;" d="M47.893,385.94c-3.963,7.436-4.104,8.315-5.709,9.159c2.341-6.482,3.665-14.15,0.38-20.202        c0.602-1.144,1.202-2.287,1.804-3.431C47.647,375.64,48.535,380.607,47.893,385.94z"/>
					</g>
				</g>
				<g>
					<g>
						<path style="fill:#FD8A02;" d="M59.12,364.786c-1.002,1.84-1.968,3.68-2.935,5.52c-0.226-5.233-2.032-11.226-3.762-14.045        c0.656-1.215,1.294-2.43,1.932-3.645C56.939,356.792,58.71,361.818,59.12,364.786z"/>
					</g>
				</g>
				<g>
					<g>
						<path style="fill:#FD8A02;" d="M90.514,284.435c0.966-1.822,1.913-3.609,2.88-5.431l0-0.018        c11.047-6.723,16.143-16.844,15.964-30.088c0,0,0,0,0-0.018c0.711-1.358,1.422-2.698,2.133-4.038        c0.203,1.473,0.496,2.947,0.556,4.455C113.299,264.268,106.317,277.345,90.514,284.435z"/>
					</g>
				</g>
				<g>
					<g>
						<path style="fill:#FD8A02;" d="M147.31,198.371c-0.929,1.733-1.84,3.448-2.751,5.181l0,0.018        c-8.133,6.397-14.198,14.353-13.013,24.549c-0.747,1.394-1.476,2.769-2.223,4.163        C124.36,217.914,134.003,205.573,147.31,198.371z"/>
					</g>
				</g>
				<g>
					<g>
						<path style="fill:#FD8A02;" d="M155.548,182.827c-0.619,1.161-1.24,2.341-1.859,3.502c-4.855,0.702-9.483,2.268-13.803,4.948        c0.984-1.858,1.968-3.699,2.934-5.539C146.854,183.994,151.204,183.043,155.548,182.827z"/>
					</g>
				</g>
				<g>
					<g>
						<path style="fill:#FD8A02;" d="M162.684,165.106c-3.904,5.085-9.115,8.82-14.939,11.351c0.928-1.751,1.857-3.502,2.785-5.254        c3.777-2.342,7.132-5.233,9.706-8.756C160.827,163.523,161.671,164.431,162.684,165.106z"/>
					</g>
				</g>
				<g>
					<g>
						<path style="fill:#FD8A02;" d="M168.95,151.497l-0.317-0.042l-0.949-0.127l-0.823-0.105c-0.338-0.042-0.676-0.064-0.992-0.064        h-0.189c0.928-3.397,1.477-7.343,1.52-11.119c0.717-0.844,1.603-1.309,2.531-1.435        C170.131,142.403,169.836,147.34,168.95,151.497z"/>
					</g>
				</g>
				<g>
					<g>
						<path style="fill:#FD8A02;" d="M78.219,328.711c-0.247,0.455-1.94,3.68-2.077,3.949c-2.619-6.638-2.879-14.124-0.009-20.941        c1.146,0.315,2.291,0.629,3.438,0.925C77.621,317.373,76.991,322.541,78.219,328.711z"/>
					</g>
				</g>
				<g>
					<g>
						<path style="fill:#FD8A02;" d="M209.496,322.713c-2.698,0.803-5.415,1.589-8.113,2.392c-4.718-1.261-9.07-3.534-12.83-6.529        c1.384-0.401,2.77-0.821,4.154-1.222C198.228,320.92,204.503,322.672,209.496,322.713z"/>
					</g>
				</g>
				<g>
					<g>
						<path style="fill:#FD8A02;" d="M242.389,302.686c-9.7,11.206-22.314,15.861-36.209,10.687        c2.159-0.629,4.299-1.275,6.457-1.903c9.329,1.702,17.887-1.282,25.111-7.421        C237.849,304.032,242.291,302.716,242.389,302.686z"/>
					</g>
				</g>
				<g>
					<g>
						<path style="fill:#FD8A02;" d="M117.913,253.831c0.388-5.727-0.224-10.722-2.668-16.046v-0.018        c0.638-1.197,1.276-2.394,1.896-3.591c2.473,4.258,3.808,8.426,4.272,13.063C120.246,249.454,119.062,251.615,117.913,253.831        z"/>
					</g>
				</g>
				<g>
					<g>
						<path style="fill:#FD8A02;" d="M266.024,218.9c-0.823,1.877-1.646,3.755-2.469,5.632l0,0.018        c-5.943,4.976-10.411,11.417-12.197,19.155c-1.364,4.694-1.141,11.206-1.151,11.385c-0.768,1.77-1.554,3.522-2.322,5.293        C244.494,241.247,252.099,227.131,266.024,218.9z"/>
					</g>
				</g>
				<g>
					<g>
						<path style="fill:#FD8A02;" d="M231.3,161.984c-16.079,8.816-31.964,6.168-44.958-5.643c1.721,0.212,3.46,0.441,5.181,0.653        c10.918,7.223,23.416,8.064,34.023,4.279C227.463,161.522,229.382,161.753,231.3,161.984z"/>
					</g>
				</g>
				<g>
					<g>
						<path style="fill:#FD8A02;" d="M251.663,164.555c-2.613,3.603-5.544,6.504-8.703,8.793c-0.018,0-0.018,0-0.018,0        c-1.883-0.231-3.765-0.462-5.647-0.71c3.674-1.888,7.675-4.955,10.729-8.544C249.243,164.248,250.445,164.401,251.663,164.555        z"/>
					</g>
				</g>
				<g>
					<g>
						<path style="fill:#FD8A02;" d="M281.677,183.103c-0.476,1.109-0.969,2.218-1.462,3.326c-2.219-4.402-3.717-8.186-4.788-13.569        c0.446-1.001,2.583-5.863,2.852-6.508C278.231,172.057,279.622,177.595,281.677,183.103z"/>
					</g>
				</g>
				<g>
					<g>
						<path style="fill:#FD8A02;" d="M178.947,165.325c-1.865-0.23-3.729-0.479-5.592-0.709c-3.086-3.474-6.926-6.515-11.164-8.507        c1.011-2.257,3.055-2.152,3.5-2.304C170.864,156.442,175.366,160.245,178.947,165.325z"/>
					</g>
				</g>
				<g>
					<g>
						<path style="fill:#FD8A02;" d="M88.237,315.012c-2.491-0.701-2.575-0.698-3.958-1.091h-0.018        c-3.271-6.124-7.728-10.778-12.092-13.539c2.476,0.662,2.412,0.669,8.416,2.276C83.761,305.859,86.926,311.321,88.237,315.012        z"/>
					</g>
				</g>
				<g>
					<g>
						<path style="fill:#FD8A02;" d="M135.569,377.181c-1.127-0.386-2.254-0.772-3.382-1.176c-1.598-4.23-4.018-8.915-7.645-13.072        c1.914,0.661,3.83,1.323,5.744,1.985C132.678,368.669,134.438,372.847,135.569,377.181z"/>
					</g>
				</g>
				<g>
					<g>
						<path style="fill:#FD8A02;" d="M82.957,348.543c-5.158,3.026-10.714,4.56-16.279,4.802c-1.776-0.578-3.467-1.246-4.134-3.497        c4.763,0.266,10.333-0.626,15.761-2.922C79.86,347.477,81.4,348.01,82.957,348.543z"/>
					</g>
				</g>
				<g>
					<g>
						<path style="fill:#FD8A02;" d="M149.795,382.106c-1.557-0.533-3.096-1.066-4.635-1.599c-1.309-3.22-2.245-7.212-2.438-11.289        c1.181,0.404,2.344,0.809,3.525,1.213C146.683,374.239,147.763,378.196,149.795,382.106z"/>
					</g>
				</g>
				<g>
					<g>
						<path style="fill:#FD8A02;" d="M172.479,389.983c-2.541-0.882-5.064-1.764-7.586-2.628c-3.555-3.649-6.646-8.342-8.397-13.366        c1.467,0.514,2.952,1.029,4.438,1.526c0,0.018,0,0.018,0,0.018C163.798,381.645,167.33,385.616,172.479,389.983z"/>
					</g>
				</g>
				<g>
					<g>
						<path style="fill:#FD8A02;" d="M71.979,310.591c-1.881-0.5-3.76-1.017-5.658-1.535c-4.165-4.438-8.563-7.13-14.264-9.071        c0.369-1.235,1.15-2.359,2.268-3.014l0.018,0C61.645,299.522,67.746,304.43,71.979,310.591z"/>
					</g>
				</g>
				<g>
					<g>
						<path style="fill:#FD8A02;" d="M159.959,324.209c-7.76-2.103-15.519-4.206-23.278-6.326        c-6.195,0.617-11.804,2.714-16.395,5.824c1.611,0.426,3.204,0.87,4.798,1.295c9.493-5.038,25.06-3.355,34.842-0.776        C159.937,324.221,159.948,324.215,159.959,324.209z"/>
					</g>
				</g>
				<g>
					<g>
						<path style="fill:#FD8A02;" d="M122.291,372.604c-2.218-0.772-4.438-1.543-6.674-2.315l-0.018,0        c-12.185-9.849-23.019-8.198-24.39-8.417c-2.361-0.827-4.706-1.654-7.086-2.481        C98.999,355.802,112.806,361.303,122.291,372.604z"/>
					</g>
				</g>
				<g>
					<g>
						<path style="fill:#FD8A02;" d="M119.188,313.147c-4.193,1.419-8.428,3.627-12.188,6.953c-1.289-0.352-2.596-0.703-3.903-1.073        c3.04-3.133,6.631-5.598,10.54-7.397C115.482,312.13,117.344,312.648,119.188,313.147z"/>
					</g>
				</g>
				<g>
					<g>
						<path style="fill:#FD8A02;" d="M274.454,199.625c-0.494,1.108-0.97,2.235-1.463,3.343c-3.86,0.327-7.977,1.191-11.992,2.917        c0.658-1.466,1.298-2.95,1.938-4.416C266.625,200.278,270.506,199.664,274.454,199.625z"/>
					</g>
				</g>
				<g>
					<g>
						<path style="fill:#FD8A02;" d="M220.916,297.541c0.878-2.021,1.773-4.041,2.651-6.062        c17.033-13.664,12.357-27.961,12.599-28.841c0.621-1.395,1.225-2.771,1.828-4.166        C243.067,275.106,235.625,288.571,220.916,297.541z"/>
					</g>
				</g>
				<g>
					<g>
						<path style="fill:#FD8A02;" d="M261.932,366.333c-15.238-10.535-16.009-31.072-10.763-48.843        c0.502,2.247,0.987,4.512,1.489,6.759c-1.838,13.002-1.11,27.676,8.167,37.05        C261.206,362.972,261.569,364.661,261.932,366.333z"/>
					</g>
				</g>
				<g>
					<g>
						<path style="fill:#FD8A02;" d="M217.608,320.321c-0.217,0.285-0.417,0.588-0.617,0.892l-0.019,0        c-4.98,7.389-7.58,15.149-6.152,23.905c-0.713,1.645-1.445,3.308-2.158,4.953c-3.766-9.6-1.446-19.659,4.252-28.371l0.018,0        c0.899-0.262,1.799-0.542,2.698-0.804l0.018,0C216.295,320.705,216.96,320.513,217.608,320.321z"/>
					</g>
				</g>
				<g>
					<g>
						<path style="fill:#FD8A02;" d="M194.692,382.006c-0.951,2.199-1.902,4.381-2.871,6.562c-2.024,1.782-3.856,3.709-5.413,5.949        l-0.019,0c-3.503,4.978-5.4,10.866-4.954,17.815c-0.695,1.591-1.39,3.165-2.066,4.738        C176.185,402.806,181.398,390.543,194.692,382.006z"/>
					</g>
				</g>
				<g>
					<g>
						<path style="fill:#FD8A02;" d="M204.383,359.816c-0.622,1.449-1.243,2.897-1.883,4.327c-4.876,1.468-9.63,3.601-13.62,6.672        c0.895-2.039,1.792-4.077,2.67-6.116C195.372,362.524,199.691,360.891,204.383,359.816z"/>
					</g>
				</g>
				<g>
					<g>
						<path style="fill:#FD8A02;" d="M167.95,435.37c-1.147-0.242-2.272-0.916-3.108-1.856c4.719-6.583,7.219-13.884,6.136-21.752        c0.658-1.538,1.335-3.075,2.012-4.613C176.035,416.522,174.575,426.182,167.95,435.37z"/>
					</g>
				</g>
			</g>
			<g>
				<g>
					<path style="fill:#FF8EDE;" d="M259.696,177.099c-1.346,5.364-3.355,12.693-6.24,21.796c-0.171,0.534-0.341,1.047-0.512,1.581       c-3.291,10.343-6.902,20.45-10.727,30.086c-0.086,0.214-0.171,0.428-0.257,0.641c-0.791,2.009-1.603,4.018-2.457,6.069       c-0.171,0.406-0.342,0.812-0.513,1.197c-2.863,6.795-5.876,13.419-8.953,19.68c-0.128,0.256-0.235,0.491-0.363,0.748       c-0.962,1.987-1.966,3.953-2.971,5.897c-0.235,0.449-0.449,0.877-0.704,1.304c-3.547,6.774-7.201,13.056-10.855,18.676       c-0.214,0.32-0.407,0.641-0.62,0.94c-1.431,2.18-2.628,3.91-3.782,5.534c-0.363,0.534-0.748,1.047-1.111,1.56       c-3.697,5.064-7.458,9.616-11.218,13.505c-0.428,0.449-0.855,0.876-1.282,1.325l-0.128,0.128       c-1.56,1.539-3.099,3.013-4.616,4.381c-0.769,0.705-1.517,1.389-2.286,2.051c-1.368,1.175-2.692,2.286-4.017,3.334       c-3.376,0.983-6.753,1.987-10.15,2.991c-3.719,1.09-7.436,2.201-11.176,3.291c-0.15-0.064-0.3-0.107-0.471-0.15l-1.154-0.32       l-0.662-0.171c-0.042-0.021-0.106-0.043-0.17-0.043c-0.279-0.086-0.534-0.15-0.813-0.213c-0.32-0.107-0.662-0.193-1.004-0.278       l-8.356-2.265c-5.065-1.389-10.128-2.756-15.172-4.145c-2.969-0.79-5.919-1.603-8.868-2.393       c-2.949-0.791-5.919-1.603-8.868-2.393l-2.757-0.769l-2.863-0.769c-6.71-1.795-13.398-3.632-20.108-5.449       c-0.877-0.235-1.774-0.47-2.649-0.726c-0.193-0.043-0.385-0.107-0.578-0.15l-2.606-0.727l-2.97-0.812l-1.88-0.491l-1.201-0.696       c4.317-2.094,9.236-3.899,13.253-6.506c0.491-0.299,0.983-0.641,1.452-0.94c3.063-2.081,5.575-3.878,8.355-6.069       c5.043-3.953,9.936-8.376,14.595-13.206c4.064-4.182,7.679-8.434,11.261-12.971c2.457-3.12,4.829-6.389,7.116-9.766       c0.149-0.213,0.3-0.449,0.449-0.662c1.368-2.009,2.714-4.082,3.974-6.154c0.192-0.32,0.406-0.641,0.599-0.962       c3.291-5.278,6.431-10.94,9.359-16.839c1.349-2.645,2.649-5.442,3.889-8.141c8.975-19.446,14.894-36.647,17.949-52.289       c2.18,0.278,4.147,0.513,4.851,0.598c0.214,0.107,79.876,10.022,79.876,10.022C258.97,177.014,259.333,177.056,259.696,177.099       z"/>
				</g>
			</g>
			<g>
				<g>
					<g>
						<path style="fill:#FC09B2;" d="M241.067,231.379c-0.781,1.984-1.582,3.967-2.426,5.992c-0.169,0.401-0.338,0.802-0.507,1.182        c-28.083,0.78-60.661-4.22-85.684-11.943c0.676-1.287,1.308-2.616,1.941-3.945l0.443-0.971        c0.317-0.675,0.634-1.35,0.929-1.983c0.105-0.253,0.232-0.485,0.337-0.738C210.747,227.771,221.255,228.573,241.067,231.379z"/>
					</g>
				</g>
				<g>
					<g>
						<path style="fill:#FC09B2;" d="M228.935,258.724c-0.95,1.962-1.941,3.903-2.933,5.823c-0.232,0.443-0.443,0.866-0.695,1.287        c-27.155-0.148-59.817-5.697-86.803-15.17c1.351-1.984,2.68-4.03,3.924-6.077c0.189-0.316,0.401-0.633,0.591-0.949        C211.381,256.572,188.319,251.698,228.935,258.724z"/>
					</g>
				</g>
				<g>
					<g>
						<path style="fill:#FC09B2;" d="M213.976,285.203c-1.413,2.152-2.595,3.861-3.735,5.465c-0.358,0.527-0.739,1.034-1.097,1.54        c-30.024-1.245-63.974-9.2-88.47-19.222c0.507-0.527,0.971-1.013,1.413-1.498c1.119-1.224,2.132-2.342,3.082-3.46        c0.337-0.38,0.675-0.781,1.033-1.182C223.892,288.136,181.989,278.473,213.976,285.203z"/>
					</g>
				</g>
				<g>
					<g>
						<path style="fill:#FC09B2;" d="M196.801,306.851l-0.127,0.127c-1.54,1.519-3.06,2.975-4.558,4.326        c-0.759,0.697-1.498,1.371-2.257,2.025c-30.024-0.739-65.112-8.503-92.457-20.635c1.709-1.139,3.207-2.215,4.621-3.249        c0.232-0.169,0.443-0.316,0.654-0.485c0.147-0.085,0.295-0.19,0.421-0.295c0.485-0.38,0.972-0.739,1.456-1.118        C162.261,301.176,173.93,302.441,196.801,306.851z"/>
					</g>
				</g>
				<g>
					<g>
						<g>
							<path style="fill:#FC09B2;" d="M181.65,208.332c-2.827-1.699-3.153-4.256-1.59-5.861c4.593-4.715,16.747-0.854,13.823,4.607         C192.462,209.733,186.158,211.041,181.65,208.332z"/>
						</g>
					</g>
				</g>
				<g>
					<g>
						<g>
							<path style="fill:#FC09B2;" d="M227.269,213.915c3.153-0.967,4.086-3.37,2.956-5.304c-3.321-5.684-16.047-4.868-14.526,1.137         C216.439,212.668,222.242,215.457,227.269,213.915z"/>
						</g>
					</g>
				</g>
			</g>
			<g style="opacity:0.5;">
				<g>
					<path style="fill:#FFFFFF;" d="M172.38,207.008c-1.383,19.13-13.267,44.414-34.089,57.974       c-0.836,0.544-1.954,0.308-2.498-0.528c-2.033-3.12,8.07-7.191,19.751-28.272c8.381-14.394,13.803-30.602,13.539-29.873       C169.751,204.461,172.519,205.042,172.38,207.008z"/>
				</g>
			</g>
			<g style="opacity:0.5;">
				<g>
					<path style="fill:#FC09B2;" d="M251.913,201.038c-3.249,10.212-6.815,20.192-10.592,29.707       c-0.865,2.194-1.751,4.389-2.68,6.625c-2.975,7.131-6.119,14.073-9.347,20.614c-1.055,2.194-2.173,4.409-3.292,6.561       c-3.735,7.174-7.574,13.82-11.414,19.728c-1.689,2.595-3.039,4.557-4.347,6.393c-3.988,5.634-8.081,10.634-12.174,14.875       c-0.465,0.485-0.928,0.949-1.393,1.435c-1.54,1.519-3.06,2.975-4.558,4.326c-2.11,1.941-4.198,3.714-6.224,5.317       c-3.334,0.971-6.668,1.962-10.022,2.954c-3.672,1.076-7.343,2.173-11.035,3.249c-0.148-0.063-0.296-0.105-0.465-0.148       l-1.14-0.316l-0.654-0.169c-0.041-0.021-0.105-0.042-0.168-0.042c-0.275-0.085-0.527-0.148-0.803-0.211       c-0.316-0.105-0.653-0.19-0.991-0.275l-8.25-2.237c-5.001-1.371-10-2.721-14.981-4.093c-2.932-0.78-5.845-1.582-8.756-2.363       c-2.911-0.781-5.845-1.582-8.756-2.363l-2.722-0.759l-2.827-0.76c-6.625-1.773-13.229-3.587-19.855-5.38       c-0.865-0.232-1.751-0.464-2.616-0.717c-0.191-0.042-0.38-0.105-0.571-0.148l-2.573-0.718l-2.933-0.802l-1.857-0.485       l-0.465-0.127c4.263-2.068,8.398-4.41,12.365-6.984c0.485-0.296,0.971-0.633,1.434-0.928c0.022-0.021,0.064-0.042,0.084-0.064       c1.731-1.16,3.249-2.237,4.685-3.291c0.232-0.169,0.443-0.316,0.654-0.485c0.147-0.085,0.295-0.19,0.421-0.295       c0.803-0.612,1.604-1.224,2.406-1.857c29.539,2.321,74.185-6.857,93.027-42.811       C213.491,215.428,235.919,204.878,251.913,201.038z"/>
				</g>
			</g>
			<g style="opacity:0.5;">
				<g>
					<path style="fill:#FFFFFF;" d="M172.38,207.008c-1.383,19.13-13.267,44.414-34.089,57.974       c-0.836,0.544-1.954,0.308-2.498-0.528c-2.033-3.12,8.07-7.191,19.751-28.272c8.381-14.394,13.803-30.602,13.539-29.873       C169.751,204.461,172.519,205.042,172.38,207.008z"/>
				</g>
			</g>
		</g>
		<g>
			<g>
				<g>
					<path style="fill:#000E3F;" d="M292.55,155.843c-1.498-2.321-4.135-3.797-6.688-3.797c-2.637,0-4.874,1.54-6.013,4.157       l-0.59,1.329c-1.077,2.469-2.152,4.937-3.25,7.406c-12.027-1.519-76.95-9.748-101.277-12.702       c0.127-0.232,0.253-0.464,0.38-0.696c0.759-1.414,1.498-2.827,2.257-4.241c1.287-2.427,1.224-5.148-0.169-7.427       c-1.435-2.406-4.114-3.946-6.815-3.946c-0.359,0-0.717,0.021-1.055,0.063c-1.603,0.232-3.06,1.055-4.135,2.342       c-0.358,0.38-0.696,0.886-0.991,1.435c-0.95,1.815-1.92,3.608-2.87,5.423c-0.95,1.793-1.899,3.587-2.849,5.38       c-0.548,1.034-1.075,2.047-1.625,3.039c-1.413,2.679-2.827,5.338-4.22,7.976c-1.476,2.806-2.974,5.591-4.452,8.376       l-2.785,5.254l-0.338,0.654c-1.519,2.869-3.06,5.76-4.579,8.651c-0.676,1.266-1.351,2.532-2.025,3.798l-0.908,1.73       l-9.157,17.281c-4.516,8.524-9.052,17.07-13.588,25.614c-0.591,1.161-1.203,2.279-1.794,3.419l-0.106,0.169       c-0.02,0.063-0.063,0.126-0.083,0.19l-1.794,3.355l-1.878,3.523l-0.189,0.359c-0.634,1.223-1.287,2.447-1.941,3.692       c-0.022,0.063-0.064,0.126-0.085,0.189c-5.317,10.001-10.592,19.96-15.867,29.919c-0.042,0.064-0.064,0.127-0.106,0.19       l-0.358,0.675l-2.426,4.578c-0.928,1.73-1.836,3.46-2.764,5.212l-0.253,0.485c-6.33,0.739-12.66,1.456-18.989,2.173h-0.105       l-9.157,1.055h-0.148l-7.448,0.844c-0.064,0-0.127,0-0.169,0.021c-0.928,0.105-1.836,0.211-2.742,0.317       c-0.95,0.106-1.878,0.211-2.806,0.316c-1.731,0.211-3.207,0.887-4.431,1.984c-2.448,2.257-3.334,5.971-2.131,9.051       c1.014,2.596,3.313,4.157,6.162,4.157c0.295,0,0.611-0.021,0.928-0.042c1.561-0.19,3.123-0.358,4.705-0.548       c1.266-0.127,2.553-0.275,3.819-0.443c0.59,0.358,1.224,0.633,1.941,0.822l5.76,1.561l5.275,1.435l1.182,0.317       c1.498,0.422,2.996,0.823,4.494,1.223c0.042,0.021,0.084,0.021,0.127,0.042l0.232,0.042c0.169,0.042,0.358,0.105,0.527,0.148       c-0.02,0.021-0.02,0.063-0.042,0.084l-0.042,0.084c-0.612,1.139-1.224,2.279-1.814,3.418l-8.186,15.424l-8.166,15.403       l-0.781,1.456l-0.759,1.456l-0.189,0.358l-0.169,0.296l-0.169,0.337c-0.591,1.097-1.16,2.215-1.772,3.313       c-0.127,0.274-0.233,0.485-0.338,0.675c-0.127,0.232-0.253,0.443-0.358,0.675l-1.836,3.461       c-1.836,3.46-3.672,6.941-5.528,10.423l-1.772,3.355c-1.203,2.257-2.363,4.452-3.523,6.646       c-1.161,2.194-2.321,4.389-3.482,6.562c-1.287,2.448-1.244,5.17,0.128,7.448c1.455,2.405,4.156,3.966,6.857,3.966       c1.138,0,2.193-0.274,3.185-0.781c1.224-0.654,2.237-1.688,2.975-3.059c0.653-1.203,1.287-2.405,1.919-3.608       c0.634-1.203,1.266-2.384,1.899-3.587c2.069-3.946,4.157-7.87,6.245-11.795l2.047-3.84l0.085-0.147       c0.928-1.794,1.857-3.566,2.827-5.338c1.751-3.334,3.503-6.625,5.254-9.916c5.549,1.92,11.098,3.84,16.584,5.739       c1.688,0.591,3.355,1.181,5.043,1.773l2.025,0.717c0.085,0.021,0.169,0.042,0.253,0.063c8.102,2.806,16.12,5.57,24.158,8.355       c0.042,0.021,0.106,0.021,0.169,0.042c2.174,0.76,4.347,1.519,6.499,2.258c0.064,0.021,0.127,0.042,0.169,0.063l3.101,1.076       c2.216,0.759,4.431,1.519,6.647,2.278c1.096,0.401,2.236,0.781,3.375,1.182l3.735,1.287c1.963,0.675,3.904,1.35,5.866,2.026       l0.675,0.232c1.308,0.465,2.637,0.908,3.966,1.372l6.414,2.236l6.541,2.258c0.696,0.233,1.371,0.485,2.089,0.739       c1.857,0.633,3.671,1.245,5.486,1.899l0.675,0.211l1.435,0.506l1.371,0.485l1.456,0.506c0.485,0.148,0.971,0.337,1.456,0.506       l-0.042,0.105l-0.274,0.654l-0.254,0.57c-0.02,0.042-0.042,0.084-0.042,0.148c-0.042,0.064-0.084,0.148-0.106,0.233       l-0.126,0.274c-0.296,0.654-0.549,1.224-0.802,1.815c-0.253,0.591-0.527,1.181-0.781,1.773       c-0.022,0.063-0.064,0.126-0.085,0.19c-0.527,1.224-1.076,2.468-1.604,3.714l-1.182,2.68c-0.675,1.519-1.35,3.081-2.026,4.621       c-1.73,3.925-3.439,7.87-5.169,11.795l-1.857,4.262c-1.265,2.869-0.759,6.034,1.33,8.461c1.245,1.392,2.849,2.342,4.557,2.701       c0.465,0.105,0.971,0.168,1.435,0.168c2.637,0,4.895-1.561,6.014-4.178c2.299-5.254,4.599-10.507,6.92-15.782       c0.022-0.064,0.064-0.126,0.084-0.19c0.443-1.033,0.886-2.068,1.351-3.101l0.633-1.477c3.482-7.912,6.942-15.846,10.402-23.758       c0.949-2.173,1.92-4.368,2.869-6.561c2.448-5.571,4.874-11.14,7.3-16.732l0.507-1.14c0.633-1.414,1.266-2.87,1.877-4.325       l1.963-4.473l2.321-5.254l1.055-2.469l1.097-2.511c0.274-0.612,0.549-1.245,0.823-1.878c0.274-0.612,0.527-1.224,0.801-1.814       c0.739-1.709,1.498-3.418,2.237-5.128c0.421-0.97,0.864-1.941,1.287-2.933c4.389,1.055,8.82,2.11,13.229,3.144       c1.182,0.296,2.406,0.612,3.63,0.886l5.021,1.203l3.143,0.76l3.481,15.782l3.756,17.006c0.739,3.418,3.481,5.654,6.942,5.654       c2.469,0,4.852-1.118,6.351-2.997c1.413-1.772,1.92-4.03,1.393-6.35l-0.507-2.342l-0.316-1.392l-0.127-0.57       c-0.316-1.477-0.653-2.997-0.991-4.473c-2.701-12.343-5.423-24.686-8.166-37.03c-0.253-1.139-0.485-2.258-0.739-3.397       c-0.252-1.118-0.485-2.258-0.739-3.376l-4.367-19.812c-1.561-7.09-3.123-14.2-4.705-21.311       c-0.063-0.316-0.147-0.633-0.253-0.928l2.637-6.014c1.077-2.469,2.152-4.916,3.249-7.385c0.022-0.064,0.042-0.127,0.064-0.19       c0.358-0.823,0.717-1.646,1.076-2.448c0.401-0.886,0.781-1.794,1.182-2.68c0.022-0.063,0.042-0.127,0.063-0.169       c2.195-5.043,4.411-10.085,6.605-15.128c2.237-5.085,4.452-10.169,6.667-15.255c0.043-0.042,0.064-0.105,0.084-0.169       l1.266-2.89l1.119-2.574l2.11-4.79l4.874-11.14c0.232-0.549,0.464-1.097,0.717-1.646c0.232-0.57,0.485-1.14,0.739-1.688       c0.295-0.675,0.57-1.351,0.864-2.005c0.296-0.654,0.57-1.308,0.865-1.983c1.351-3.08,2.701-6.161,4.03-9.241       c0.485-1.097,0.991-2.215,1.456-3.334l4.726-10.782l4.368-10.001C294.28,160.865,294.047,158.122,292.55,155.843z        M186.336,156.35c1.73,0.211,3.461,0.422,5.19,0.654c11.351,1.414,22.682,2.849,34.012,4.262       c1.919,0.253,3.84,0.485,5.76,0.718c5.569,0.717,11.162,1.413,16.731,2.11c1.203,0.147,2.406,0.316,3.629,0.464       c7.723,0.971,15.444,1.941,23.146,2.912c0.041,0,0.063,0,0.105,0.02c-0.633,1.435-1.244,2.87-1.899,4.304l-0.106,0.253       c-0.59,1.371-1.181,2.722-1.772,4.093l-0.316,0.717c-2.911-0.38-5.845-0.738-8.756-1.097c-0.95-0.127-1.9-0.253-2.849-0.359       c-5.422-0.675-10.824-1.35-16.247-2.047c-0.021,0-0.021,0-0.021,0c-1.878-0.232-3.777-0.464-5.655-0.717h-0.02       c-19.432-2.448-38.865-4.874-58.297-7.321h-0.022c-1.561-0.19-3.102-0.38-4.642-0.57c-0.316-0.042-0.633-0.084-0.949-0.127       c-0.634-0.085-1.266-0.169-1.9-0.233c-0.991-0.126-1.982-0.253-2.954-0.38c-0.695-0.084-1.371-0.169-2.068-0.253       c-0.232-0.042-0.464-0.084-0.696-0.126c-0.59-0.148-1.076-0.38-1.519-0.675c-1.16-0.718-1.92-1.899-2.237-3.123       c-0.358-1.266-0.296-2.616,0.211-3.713c0.464-1.076,1.329-1.899,2.595-2.194c0.253-0.063,0.485-0.106,0.739-0.106       c0.169-0.021,0.337-0.021,0.506-0.021s0.316,0.021,0.485,0.042c0.57,0.042,1.161,0.148,1.794,0.233       c0.759,0.105,1.54,0.189,2.321,0.295c0.928,0.127,1.857,0.233,2.785,0.359C177.727,155.253,182.031,155.801,186.336,156.35z        M127.87,260.348c-1.562,1.984-3.165,3.904-4.832,5.802c-0.717,0.844-1.456,1.667-2.237,2.49       c-1.182-2.637-2.364-5.275-3.566-7.912c0.338-0.611,0.654-1.202,0.971-1.814l1.689-3.186l0.337-0.633       c0-0.021,0.022-0.042,0.042-0.063c0.654-1.287,1.329-2.532,1.983-3.777c0.275-0.507,0.549-1.034,0.823-1.54       C124.683,253.259,126.265,256.804,127.87,260.348z M124.642,246.739l3.228-6.056l3.777-7.152       c0.042-0.064,0.063-0.126,0.105-0.169l1.055-1.984l1.055-2.004l4.284-8.081c2.911-5.507,5.823-10.993,8.734-16.479       c0.042-0.063,0.085-0.147,0.106-0.211c0.886-1.667,1.751-3.313,2.658-4.98c1.604-3.059,3.207-6.076,4.811-9.115l1.561-2.954       l0.928-1.751l0.929-1.73l1.645-3.101l1.667-3.165c1.688-3.186,3.376-6.372,5.064-9.537l0.95-1.794       c0.928,0.127,2.299,0.317,3.777,0.506c-3.482,17.639-10.318,35.426-17.809,51.525c-0.421,0.992-0.907,1.983-1.371,2.954       c-0.675,1.435-1.351,2.869-2.068,4.283c-2.932,5.887-6.161,11.689-9.706,17.323c-1.371,2.237-2.805,4.452-4.303,6.625       c-1.92,2.828-3.925,5.592-6.014,8.314C128.017,254.251,126.329,250.495,124.642,246.739z M118.86,270.729       c-0.338,0.358-0.676,0.717-1.013,1.055c-3.966,4.114-8.166,7.997-12.597,11.584c3.461-6.562,6.942-13.124,10.424-19.686       C116.73,266.045,117.805,268.387,118.86,270.729z M119.915,273.768c0.063-0.063,0.147-0.148,0.211-0.211       c0.695-0.717,1.351-1.413,1.962-2.068c1.119-1.224,2.132-2.342,3.082-3.46c1.35-1.54,2.7-3.123,4.009-4.747       c0.633-0.76,1.244-1.54,1.857-2.321c2.426-3.081,4.768-6.309,7.026-9.643c1.498-2.173,2.974-4.452,4.367-6.73       c3.46-5.486,6.773-11.393,9.833-17.576c0.738-1.413,1.434-2.869,2.131-4.346l0.443-0.971c0.317-0.675,0.634-1.35,0.929-1.983       c9.051-19.496,15.001-36.734,18.06-52.368c2.152,0.274,4.094,0.506,4.79,0.59c0.211,0.105,78.87,9.896,78.87,9.896       c0.379,0.042,0.738,0.084,1.096,0.126c-1.329,5.296-3.312,12.533-6.161,21.522c-3.397,10.76-7.131,21.268-11.098,31.269       c-0.865,2.194-1.751,4.389-2.68,6.625c-2.975,7.131-6.119,14.073-9.347,20.614c-1.055,2.194-2.173,4.409-3.292,6.561       c-3.735,7.174-7.574,13.82-11.414,19.728c-1.689,2.595-3.039,4.557-4.347,6.393c-3.988,5.634-8.081,10.634-12.174,14.875       c-0.465,0.485-0.928,0.949-1.393,1.435c-1.54,1.519-3.06,2.975-4.558,4.326c-2.11,1.941-4.198,3.714-6.224,5.317       c-3.334,0.971-6.668,1.962-10.022,2.954c-3.672,1.076-7.343,2.173-11.035,3.249c-0.148-0.063-0.296-0.105-0.465-0.148       l-1.14-0.316l-0.654-0.169c-0.041-0.021-0.105-0.042-0.168-0.042c-0.275-0.085-0.527-0.148-0.803-0.211       c-0.316-0.105-0.653-0.19-0.991-0.275l-8.25-2.237c-5.001-1.371-10-2.721-14.981-4.093c-2.932-0.78-5.845-1.582-8.756-2.363       c-2.911-0.781-5.845-1.582-8.756-2.363l-2.722-0.759l-2.827-0.76c-6.625-1.773-13.229-3.587-19.855-5.38       c-0.865-0.232-1.751-0.464-2.616-0.717c-0.191-0.042-0.38-0.105-0.571-0.148l-2.573-0.718l-2.933-0.802l-1.857-0.485       l-0.465-0.127c4.263-2.068,8.398-4.41,12.365-6.984c0.485-0.296,0.971-0.633,1.434-0.928c0.022-0.021,0.064-0.042,0.084-0.064       c1.731-1.16,3.249-2.237,4.685-3.291c0.232-0.169,0.443-0.316,0.654-0.485c0.147-0.085,0.295-0.19,0.421-0.295       C108.922,284.296,114.576,279.296,119.915,273.768z M194.058,313.392c1.645-1.477,3.185-2.975,4.621-4.41       c0.485-0.485,0.971-0.971,1.456-1.477c4.325-4.473,8.46-9.6,12.428-15.191c1.498-2.089,2.954-4.262,4.409-6.478       c4.072-6.267,7.933-13.018,11.562-19.981c1.118-2.194,2.257-4.389,3.334-6.625c3.354-6.836,6.499-13.82,9.389-20.783       c0.929-2.237,1.836-4.452,2.722-6.647c4.347-10.993,8.081-21.732,11.162-31.459c2.595-8.229,4.705-15.719,6.288-22.006       c3.672,0.443,6.394,0.801,8.292,1.034l-3.946,9.031l-5.253,12.005l-0.401,0.949c-0.507,1.139-1.014,2.3-1.52,3.46       c-6.098,13.926-12.174,27.852-18.272,41.756l-0.485,1.118l-2.088,4.726c-0.718,1.667-1.435,3.313-2.174,4.98       c-0.021,0.064-0.063,0.127-0.085,0.19c-0.57,1.329-1.138,2.658-1.73,3.988c-0.042,0.063-0.064,0.127-0.084,0.19       c-4.178,9.537-8.355,19.116-12.533,28.652c-0.443,1.013-0.865,2.004-1.308,3.017c-0.443,1.013-0.908,2.047-1.351,3.06       c-0.021,0.042-0.041,0.105-0.063,0.147l-2.954,6.752l-2.258,5.148c-0.464,0.127-0.907,0.274-1.35,0.401       c-1.034,0.316-2.11,0.633-3.165,0.95c-1.097,0.316-2.174,0.633-3.249,0.949l-6.752,2.005l-5.992,1.772       C193.171,314.194,193.614,313.793,194.058,313.392z M86.831,291.364c0.507-0.928,0.992-1.878,1.498-2.806       c0.718-1.372,1.456-2.743,2.195-4.114c0.95-1.836,1.899-3.608,2.869-5.444v-0.021c5.275-9.938,10.529-19.875,15.825-29.792       c0.043-0.105,0.106-0.19,0.148-0.296c0,0,0,0,0-0.021c0.696-1.35,1.414-2.68,2.131-4.03c1.014-1.92,2.005-3.798,3.039-5.697       c0.232-0.443,0.484-0.907,0.717-1.35v-0.021c0.633-1.202,1.266-2.405,1.899-3.587c7.596-14.326,15.15-28.611,22.724-42.916       c0.991-1.856,1.983-3.692,2.954-5.528c1.625-3.123,3.271-6.204,4.916-9.284c0.928-1.751,1.857-3.502,2.785-5.254       c2.87-5.464,5.782-10.887,8.651-16.331c0.549-1.034,1.097-2.046,1.625-3.059c1.92-3.587,3.819-7.216,5.718-10.803       c0.211-0.359,0.422-0.696,0.676-0.97c0.717-0.844,1.603-1.309,2.531-1.435c0.211-0.042,0.422-0.042,0.654-0.042       c3.292,0,6.688,3.629,4.642,7.511c-1.013,1.941-2.047,3.882-3.08,5.823c-4.03-0.485-6.372-0.76-6.414-0.718       c-8.061,0.317-8.588,12.301-1.055,14.812c-1.878,3.523-3.756,7.047-5.613,10.592c-1.119,2.089-2.194,4.156-3.312,6.245       c-0.634,1.161-1.246,2.342-1.858,3.503c-2.131,4.009-4.261,8.017-6.393,12.048c-0.928,1.73-1.836,3.439-2.744,5.169v0.021       c-4.345,8.186-8.671,16.373-13.018,24.56c-0.738,1.392-1.476,2.764-2.215,4.156v0.022c-2.005,3.819-4.03,7.617-6.034,11.415       c-0.527,0.971-1.034,1.962-1.562,2.933v0.021c-0.127,0.19-0.211,0.359-0.316,0.57c-1.16,2.215-2.342,4.368-3.503,6.583       c-0.02,0.021-0.02,0.021-0.02,0.042c-0.676,1.266-1.351,2.532-2.026,3.799c-0.527,0.991-1.055,1.962-1.562,2.954       c-4.726,8.883-9.431,17.765-14.115,26.648c-0.739,0.549-1.498,1.076-2.257,1.604c-0.717,0.506-1.456,1.013-2.174,1.499       c-0.464,0.316-0.949,0.633-1.434,0.928c-1.097,0.717-2.216,1.413-3.356,2.089c-0.739,0.464-1.476,0.886-2.237,1.329       c-0.105,0.063-0.19,0.105-0.295,0.169c-0.76,0.443-1.54,0.865-2.321,1.266c-0.844,0.465-1.667,0.887-2.511,1.308       C84.679,295.415,85.755,293.39,86.831,291.364z M66.365,293.685h0.02c5.782-0.633,11.52-1.287,17.28-1.962       c-0.717,1.308-1.414,2.659-2.131,3.988l-0.253,0.527c-0.549,1.034-1.097,2.068-1.667,3.123       c-0.147,0.085-0.296,0.148-0.443,0.19c-0.633-0.169-1.245-0.337-1.857-0.506l-1.351-0.358       c-0.971-0.275-1.962-0.549-2.975-0.823c-0.126-0.042-0.274-0.064-0.421-0.105c-3.735-1.013-7.491-2.047-11.246-3.06       l-1.139-0.316C62.25,294.171,64.318,293.918,66.365,293.685z M50.223,305.417c-2.131,0.232-4.261,0.485-6.393,0.717       c-0.232,0.042-0.421,0.042-0.633,0.042c-4.516,0-5.233-5.887-2.237-8.608c0.759-0.697,1.73-1.182,2.954-1.33       c1.836-0.211,3.692-0.422,5.549-0.633h0.042c0.886-0.105,1.751-0.211,2.617-0.296c-1.203,0.971-2.11,2.321-2.595,3.924       C48.852,301.408,49.127,303.644,50.223,305.417z M71.999,310.586h-0.022c-1.877-0.485-3.755-1.013-5.654-1.54       c-2.426-0.654-4.853-1.308-7.28-1.962c-1.266-0.338-2.511-0.697-3.777-1.034c-0.759-0.19-1.413-0.549-1.899-0.992       c-1.519-1.245-1.857-3.292-1.308-5.064c0.358-1.245,1.139-2.363,2.258-3.017h0.021c0.654-0.401,1.413-0.633,2.258-0.633       c0.443,0,0.907,0.063,1.392,0.19c4.705,1.287,9.432,2.553,14.137,3.84c0.021,0,0.021,0,0.021,0h0.022       c1.033,0.296,2.088,0.57,3.122,0.866c0.971,0.274,1.919,0.527,2.89,0.78c0.402,0.106,0.802,0.211,1.203,0.317       c0.127,0.042,0.253,0.063,0.379,0.105c0.275,0.064,0.527,0.148,0.802,0.211h0.021c0.064,0.042,0.169,0.063,0.232,0.084       c0.317,0.085,0.654,0.169,0.97,0.253c1.098,0.295,2.195,0.59,3.293,0.886c1.835,0.506,3.671,0.991,5.507,1.498       c0.864,0.232,1.75,0.464,2.616,0.717c6.815,1.836,13.609,3.692,20.425,5.549c1.856,0.485,3.713,1.013,5.57,1.498       c5.823,1.582,11.646,3.165,17.491,4.747c7.743,2.131,15.507,4.22,23.272,6.33c0.022,0,0.042,0.021,0.063,0.021       c-2.637,0.802-5.253,1.582-7.891,2.342c-1.202,0.358-2.384,0.696-3.587,1.055l-0.232,0.084       c-0.422,0.127-0.802,0.253-1.16,0.444c-0.486,0.211-0.929,0.464-1.351,0.78c-0.507,0.38-0.95,0.823-1.329,1.33       c-6.457-1.773-12.913-3.524-19.39-5.275c-1.604-0.422-3.186-0.865-4.791-1.287c-4.43-1.202-8.861-2.405-13.292-3.608       c-1.287-0.358-2.595-0.696-3.904-1.076c-4.874-1.308-9.769-2.637-14.663-3.967c-0.064,0-0.127-0.021-0.189-0.042       c-0.803-0.232-1.604-0.444-2.406-0.675c-0.527-0.127-1.034-0.274-1.562-0.422h-0.021c-1.562-0.422-3.122-0.844-4.684-1.266       c-1.139-0.295-2.299-0.612-3.439-0.928c-0.02,0-0.064-0.021-0.064-0.021c-0.864-0.253-1.75-0.485-2.616-0.718       C72.969,310.86,72.484,310.712,71.999,310.586z M143.335,337.572c1.033,3.102,3.692,5.106,6.751,5.106       c0.739,0,1.498-0.126,2.258-0.337c0.485-0.148,0.991-0.296,1.498-0.443c0.527-0.169,1.033-0.317,1.561-0.465l1.836-0.548       l1.92-0.549c0.359-0.127,0.633-0.211,0.907-0.275l0.169-0.064c0.696-0.189,1.413-0.401,2.11-0.611l6.541-1.941       c4.347-1.287,8.714-2.574,13.06-3.882c0.063,0,0.127-0.021,0.169-0.042c1.561-0.421,3.102-0.886,4.641-1.35l0.106-0.042       c3.355-0.97,6.731-1.962,10.107-2.975l5.148-1.519c1.076-0.317,2.11-0.633,3.165-0.929c-0.189,0.422-0.358,0.823-0.548,1.245       c-5.19,11.921-10.382,23.8-15.593,35.7c-0.886,2.046-1.794,4.072-2.68,6.098c-1.393,3.207-2.786,6.393-4.199,9.579       l-0.295,0.696l-0.908-0.316l-1.498-0.527l-1.477-0.527l-0.695-0.232c-5.254-1.815-10.445-3.608-15.593-5.401       c-0.634-0.211-1.224-0.401-1.814-0.612c-0.106-0.063-0.233-0.105-0.338-0.148c-1.477-0.485-2.955-0.992-4.409-1.498       c-2.174-0.76-4.326-1.498-6.478-2.258l-1.645-0.57l-1.689-0.57l-1.857-0.633c-4.135-1.435-8.292-2.87-12.428-4.304       l-2.785-0.971l-2.954-1.013c-6.245-2.173-12.492-4.325-18.778-6.499c-6.035-2.089-12.069-4.177-18.167-6.287       c-0.063-0.021-0.127-0.042-0.21-0.064c-0.043-0.021-0.106-0.042-0.148-0.063l-0.127-0.042c-0.021,0-0.105-0.042-0.127-0.042       c-0.675-0.232-1.329-0.464-2.004-0.697c-0.676-0.232-1.351-0.464-2.025-0.696c-1.562-0.527-3.082-1.076-4.621-1.625       c-1.794-0.612-3.567-1.224-5.339-1.835l4.621-8.693c0.275-0.549,0.57-1.097,0.844-1.604l0.317-0.612       c0.295-0.57,0.59-1.14,0.907-1.709l0.358-0.675l0.253-0.464c1.562-2.996,3.144-5.971,4.727-8.947l1.287-2.447       c0.127,0.042,0.232,0.063,0.358,0.105c2.849,0.759,5.676,1.54,8.482,2.3l6.394,1.73c1.033,0.296,2.11,0.57,3.143,0.865       l0.759,0.211c3.904,1.055,7.807,2.11,11.689,3.165l1.604,0.443c0.886,0.232,1.772,0.465,2.658,0.697       c0.718,0.211,1.435,0.401,2.152,0.591c6.288,1.709,12.555,3.397,18.842,5.106C142.766,334.196,142.786,335.905,143.335,337.572       z M59.128,364.79c-1.013,1.836-1.983,3.671-2.933,5.507c-2.785,5.233-5.549,10.423-8.291,15.634       c-1.288,2.406-2.553,4.79-3.819,7.195c-0.507,0.95-1.161,1.582-1.899,1.962c-0.612,0.337-1.266,0.485-1.941,0.485       c-3.293,0-6.732-3.629-4.664-7.533c2.343-4.368,4.642-8.777,6.984-13.145c0.591-1.14,1.203-2.279,1.794-3.439       c2.49-4.642,4.937-9.263,7.385-13.905c0.232-0.443,0.465-0.865,0.675-1.287c0.654-1.224,1.308-2.427,1.941-3.65       c0.128-0.233,0.233-0.444,0.36-0.675c0.506-0.971,1.033-1.942,1.561-2.912c5.444-10.275,10.887-20.572,16.331-30.847       c0.633-1.182,1.245-2.342,1.857-3.503c0.105-0.189,0.211-0.401,0.316-0.591c0.191,0.042,0.38,0.105,0.57,0.148       c0.022,0.021,0.064,0.021,0.085,0.021c1.16,0.316,2.321,0.633,3.481,0.949c1.52,0.401,3.08,0.844,4.663,1.266       c0.022,0,0.064,0.021,0.106,0.021c0.316,0.085,0.612,0.169,0.886,0.232c-1.92,3.63-3.841,7.237-5.76,10.866       c-0.191,0.38-0.401,0.738-0.59,1.118c-0.422,0.759-0.823,1.561-1.224,2.32c-0.296,0.549-0.591,1.097-0.865,1.625       c-1.603,3.039-3.207,6.035-4.811,9.052l-0.379-0.127c-0.296-0.105-0.654-0.232-0.992-0.337l-0.695-0.232       c-0.865-0.317-1.731-0.465-2.554-0.465c-2.152,0-4.156,1.034-5.464,2.828c-1.52,2.047-1.963,4.832-1.202,7.258       c0.59,2.068,2.088,3.713,4.156,4.579C62.504,358.397,60.816,361.583,59.128,364.79z M175.28,390.953       c-0.95-0.338-1.878-0.675-2.828-0.992c-0.696-0.253-1.392-0.485-2.088-0.717c-1.836-0.654-3.651-1.266-5.486-1.899       c-0.718-0.253-1.413-0.507-2.11-0.739c-4.347-1.498-8.672-3.017-12.976-4.494c-1.562-0.549-3.102-1.077-4.642-1.604       c-3.186-1.097-6.394-2.215-9.579-3.333c-1.14-0.38-2.257-0.76-3.376-1.16c-3.292-1.139-6.582-2.279-9.896-3.418       c-2.237-0.759-4.452-1.54-6.688-2.3h-0.021c-8.081-2.806-16.162-5.591-24.349-8.419c-0.022,0-0.022,0-0.022,0       c-2.363-0.844-4.726-1.667-7.089-2.49c-5.359-1.836-10.761-3.714-16.205-5.613c-0.401-0.127-0.823-0.274-1.244-0.422       c-0.338-0.127-0.675-0.253-1.034-0.358c-0.083-0.042-0.147-0.063-0.232-0.106c-1.562-0.612-2.489-1.751-2.869-3.038       c-0.928-2.954,0.886-6.668,4.156-6.668c0.527,0,1.077,0.106,1.667,0.296c0.57,0.211,1.139,0.401,1.709,0.59       c0.844,0.296,1.667,0.591,2.511,0.865c1.899,0.675,3.819,1.329,5.718,1.983c1.562,0.549,3.102,1.097,4.642,1.625       c1.351,0.464,2.7,0.928,4.03,1.393c0.189,0.084,0.401,0.126,0.57,0.211c0,0,0.021,0,0.041,0       c12.449,4.304,24.708,8.545,36.946,12.786c1.92,0.654,3.84,1.329,5.76,1.983c4.115,1.435,8.271,2.87,12.428,4.304       c1.182,0.401,2.342,0.802,3.523,1.203c2.7,0.949,5.402,1.878,8.123,2.827c1.476,0.506,2.954,1.013,4.43,1.52       c0,0.02,0,0.02,0,0.02c0.697,0.253,1.415,0.485,2.132,0.739c5.401,1.857,10.803,3.714,16.289,5.612       c1.013,0.359,1.983,0.697,2.996,1.055c0.232,0.085,0.464,0.148,0.696,0.232c-1.308,2.975-2.575,5.929-3.883,8.904       c-0.021,0.063-0.063,0.127-0.085,0.19C176.376,391.333,175.828,391.143,175.28,390.953z M216.845,331.327       c-0.358,0.823-0.717,1.646-1.077,2.468c-1.096,2.532-2.215,5.064-3.312,7.596c-0.548,1.244-1.097,2.49-1.645,3.734       c-0.696,1.646-1.435,3.292-2.152,4.937c-1.413,3.271-2.849,6.499-4.284,9.748c-0.611,1.456-1.244,2.911-1.877,4.325       c-2.595,5.971-5.191,11.921-7.807,17.871c-0.633,1.435-1.245,2.869-1.878,4.304c-0.316,0.76-0.653,1.52-0.991,2.258       c-1.224,2.785-2.427,5.55-3.63,8.334c-2.257,5.149-4.515,10.297-6.751,15.424c-0.696,1.604-1.393,3.165-2.069,4.747v0.021       c-2.32,5.275-4.619,10.529-6.941,15.803c-0.781,1.815-2.152,2.574-3.587,2.574c-0.296,0-0.59-0.042-0.886-0.105       c-1.161-0.232-2.279-0.907-3.123-1.857c-1.245-1.435-1.857-3.502-0.908-5.676c2.342-5.338,4.684-10.719,7.048-16.078       c0.653-1.54,1.329-3.08,2.004-4.599c0.971-2.194,1.92-4.368,2.891-6.562v-0.021c0.506-1.182,1.033-2.342,1.54-3.524       c0.105-0.232,0.211-0.464,0.316-0.696v-0.022c0.169-0.38,0.338-0.78,0.485-1.139c0.064-0.127,0.127-0.253,0.19-0.38       c0.043-0.106,0.084-0.211,0.127-0.317c0.316-0.697,0.612-1.413,0.908-2.11c1.351-3.038,2.658-6.055,3.966-9.094       c0.359-0.801,0.717-1.625,1.055-2.426c1.498-3.355,2.975-6.689,4.431-10.043c0.886-2.046,1.794-4.093,2.659-6.119       c4.852-11.099,9.705-22.176,14.537-33.274c0.359-0.802,0.696-1.604,1.055-2.406c0.485-1.097,0.97-2.195,1.456-3.292       c0.549-0.168,1.097-0.316,1.646-0.485l0.211-0.063c0.041-0.022,0.105-0.042,0.147-0.042c0.042-0.022,0.105-0.042,0.147-0.042       c0.485-0.148,0.971-0.296,1.457-0.443c0.443-0.127,0.907-0.254,1.35-0.401c0.042,0,0.085-0.021,0.105-0.021       c0.465-0.127,0.908-0.274,1.351-0.401c0.422-0.127,0.823-0.253,1.224-0.358c0.063-0.021,0.106-0.042,0.169-0.042l0.992-0.296       l0.971-0.295l2.426-0.717c0.021,0.021,0.042,0.021,0.063,0.021C219.525,325.208,218.196,328.267,216.845,331.327z        M235.835,335.863c-1.224-0.274-2.406-0.57-3.608-0.865c-4.262-0.992-8.524-2.026-12.766-3.038l1.815-4.178l2.005-4.579       c0.063-0.148,0.126-0.274,0.189-0.422l6.393,1.519c1.224,0.275,2.426,0.57,3.65,0.844v0.021c2.299,0.527,4.6,1.077,6.899,1.646       c0.084,0.422,0.191,0.823,0.275,1.245c0.358,1.625,0.717,3.228,1.075,4.853c0.338,1.54,0.675,3.101,1.013,4.621       C240.477,336.96,238.156,336.411,235.835,335.863z M225.875,320.629l6.098-1.794l6.267-1.857L239,320.44       c0.253,1.181,0.527,2.342,0.781,3.523c-1.794-0.443-3.587-0.865-5.381-1.287c-0.105-0.042-0.21-0.064-0.316-0.085       c-0.59-0.148-1.202-0.295-1.814-0.443c-0.591-0.148-1.203-0.274-1.814-0.422l-4.473-1.076L225.875,320.629z M249.95,311.915       c0.401,1.857,0.823,3.713,1.224,5.57c0.507,2.258,0.991,4.515,1.477,6.773c0.274,1.287,0.569,2.553,0.844,3.84       c0.612,2.701,1.202,5.422,1.794,8.144c1.857,8.355,3.692,16.711,5.527,25.066c0.38,1.667,0.76,3.355,1.119,5.022       c0.274,1.244,0.548,2.511,0.823,3.734c0.822,3.735-2.258,6.14-5.17,6.14c-1.962,0-3.819-1.097-4.368-3.587       c-2.32-10.529-4.641-21.036-6.962-31.565c-0.211-0.949-0.422-1.899-0.633-2.848c-0.781-3.566-1.562-7.132-2.363-10.719       c-0.211-0.949-0.422-1.899-0.633-2.849c-0.612-2.806-1.224-5.612-1.836-8.418l0.169-0.042l2.553-0.76l2.405-0.696       C247.651,314.215,249.022,313.223,249.95,311.915z M245.16,312.189c-1.645,0.485-3.292,0.971-4.937,1.456       c-0.844,0.254-1.689,0.506-2.532,0.739c-4.051,1.202-8.08,2.384-12.132,3.587c-1.097,0.317-2.215,0.654-3.312,0.97v0.021       c-0.507,0.148-0.992,0.296-1.498,0.443c-1.055,0.296-2.11,0.612-3.144,0.908c-0.653,0.189-1.308,0.401-1.961,0.59h-0.022       c-0.886,0.253-1.794,0.527-2.7,0.802c-0.97,0.295-1.963,0.57-2.933,0.865h-0.022c-0.168,0.063-0.316,0.085-0.464,0.148       c-0.95,0.275-1.878,0.549-2.827,0.823c-1.773,0.527-3.545,1.034-5.297,1.562c-5.084,1.498-10.169,3.017-15.275,4.515       c-1.562,0.464-3.123,0.928-4.685,1.372c-0.02,0-0.042,0-0.042,0c-4.473,1.35-8.945,2.658-13.419,3.966       c-2.132,0.633-4.262,1.266-6.372,1.899c-0.465,0.148-0.928,0.275-1.393,0.422c-0.232,0.063-0.464,0.126-0.675,0.19       c-0.38,0.105-0.739,0.211-1.097,0.338c-1.244,0.359-2.511,0.738-3.756,1.097c-1.012,0.295-2.046,0.611-3.081,0.907       c-0.527,0.148-1.013,0.232-1.498,0.232c-3.397,0-5.211-3.756-4.304-6.688c0.275-0.886,0.803-1.688,1.604-2.3       c0.465-0.337,1.013-0.612,1.667-0.801c0.928-0.275,1.835-0.549,2.764-0.823c1.856-0.548,3.735-1.097,5.612-1.667       c2.426-0.696,4.853-1.435,7.28-2.152c1.033-0.316,2.088-0.611,3.123-0.928c3.819-1.118,7.638-2.237,11.457-3.375       c2.785-0.823,5.591-1.646,8.376-2.469c0.296-0.084,0.591-0.168,0.886-0.253c1.393-0.401,2.764-0.823,4.157-1.224       c4.494-1.329,8.967-2.659,13.483-3.987c1.877-0.549,3.755-1.118,5.654-1.667c0.253-0.084,0.527-0.148,0.802-0.232       c0.844-0.275,1.667-0.507,2.511-0.76c4.093-1.203,8.186-2.405,12.279-3.608c1.097-0.317,2.215-0.654,3.312-0.992       c1.604-0.465,3.187-0.929,4.79-1.414c0.739-0.211,1.477-0.422,2.216-0.654c0.105-0.022,0.211-0.042,0.316-0.084       c1.434-0.443,2.869-0.844,4.325-1.266c0.064-0.021,0.149-0.063,0.233-0.084c0.506-0.147,1.013-0.211,1.476-0.211       C249.106,302.399,250.752,310.544,245.16,312.189z M232.142,302.948c0.485-1.139,0.992-2.258,1.477-3.397       c0.168-0.401,0.358-0.802,0.527-1.203c0.274,1.245,0.548,2.511,0.822,3.756C234.02,302.399,233.092,302.695,232.142,302.948z        M247.461,300.648c-1.014-0.57-2.153-0.886-3.355-0.886c-0.717,0-1.456,0.106-2.194,0.317       c-0.063,0.021-0.147,0.042-0.211,0.063c-0.78,0.232-1.498,0.443-2.215,0.654c-0.654,0.189-1.329,0.38-1.983,0.57       c-0.506-2.363-1.033-4.727-1.561-7.111c0.484-1.097,0.97-2.216,1.455-3.313l3.271-7.49l2.004-4.557       C244.274,286.153,245.857,293.411,247.461,300.648z M290.756,162.3c-3.017,6.942-6.034,13.862-9.072,20.804       c-0.485,1.097-0.971,2.215-1.477,3.333c-1.329,3.06-2.658,6.14-4.009,9.221c-0.59,1.329-1.16,2.637-1.75,3.966       c-0.486,1.118-0.972,2.237-1.457,3.334c-2.32,5.317-4.641,10.634-6.962,15.951c-0.823,1.878-1.646,3.756-2.468,5.612v0.021       c-4.453,10.191-8.904,20.361-13.356,30.531v0.021c-0.759,1.773-1.54,3.524-2.321,5.296c-1.709,3.925-3.418,7.828-5.148,11.753       c-0.401,0.907-0.802,1.836-1.202,2.743c-2.195,5-4.368,10.001-6.563,15.001c-0.59,1.372-1.182,2.722-1.794,4.094       c-1.434,3.312-2.89,6.646-4.345,9.959c-0.634,0.189-1.246,0.358-1.878,0.549l-0.253,0.084l-6.139,1.814l-4.03,1.182       c1.456-3.334,2.932-6.668,4.389-10.001v-0.021c0.886-2.026,1.772-4.051,2.658-6.077c2.068-4.747,4.135-9.474,6.225-14.221       c0.654-1.519,1.329-3.059,1.983-4.578c1.476-3.334,2.933-6.688,4.389-10.022c0.612-1.413,1.223-2.785,1.814-4.178v-0.021       c1.435-3.228,2.849-6.478,4.262-9.706c6.267-14.284,12.512-28.568,18.758-42.852c0.653-1.477,1.287-2.954,1.919-4.431       c3.187-7.237,6.352-14.516,9.516-21.753c0.358-0.844,0.739-1.667,1.097-2.511c0.633-1.435,1.266-2.891,1.878-4.346       c0.759-1.667,1.498-3.355,2.215-5.043c0.232-0.464,0.443-0.971,0.654-1.456v-0.021c0.127-0.296,0.252-0.57,0.38-0.865       c1.223-2.722,2.404-5.486,3.608-8.207c0.78-1.836,2.151-2.574,3.586-2.574C289.026,154.683,292.507,158.333,290.756,162.3z"/>
				</g>
			</g>
			<g>
				<g>
					<path style="fill:#000E3F;" d="M205.621,207.284h0.189c5.106,0,8.376-4.599,8.862-8.967c0.105-0.78-0.465-1.498-1.245-1.582       c-0.759-0.084-1.498,0.464-1.582,1.245c-0.359,3.165-2.595,6.456-6.034,6.456h-0.127c-1.794-0.042-2.974-0.991-3.63-1.772       c-1.287-1.541-1.919-3.904-1.603-6.035c0.127-0.781-0.401-1.519-1.182-1.625c-0.78-0.147-1.498,0.401-1.625,1.182       c-0.443,2.954,0.401,6.14,2.237,8.313C201.359,206.271,203.342,207.241,205.621,207.284z"/>
				</g>
			</g>
			<g>
				<g>
					<path style="fill:#000E3F;" d="M187.981,198.569c2.891,0.465,5.234-1.751,5.486-4.072c0.338-2.828-1.625-4.98-4.156-5.381       c-2.511-0.38-5.275,1.815-5.297,4.157C183.529,195.827,185.619,198.211,187.981,198.569z"/>
				</g>
			</g>
			<g>
				<g>
					<path style="fill:#000E3F;" d="M223.386,202.874c2.194,0.485,5.001-1.561,5.253-4.199c0.253-2.574-1.645-4.937-4.198-5.232       c-2.595-0.316-5.001,1.54-5.339,4.304C218.828,200.089,220.749,202.768,223.386,202.874z"/>
				</g>
			</g>
		</g>
	</g>
	<g>
		<g>
			<g>
				<path style="fill:#FD8A02;" d="M83.416,100.069c1.61,1.873,4.931,4.194,7.845,11.875c0.261,0.688,0.535,1.383,0.9,2.018      c0.508,0.885,1.586,0.938,2.181,0.085c1.345-1.929,1.414-4.991,5.901-10.293c2.634-3.112,5.203-4.096,2.987-5.968      c-5.523-4.668-7.435-11.684-8.444-13.539c-0.435-0.801-1.464-0.861-2.025-0.153c-0.602,0.759-0.911,1.677-1.271,2.565      c-2.667,6.571-6.361,9.581-7.868,11.044C83.243,98.068,82.861,99.424,83.416,100.069z"/>
			</g>
		</g>
		<g>
			<g>
				<path style="fill:#FD8A02;" d="M159.889,86.363c1.854,2.156,5.674,4.819,9.035,13.676c0.301,0.793,0.616,1.593,1.036,2.325      c0.585,1.019,1.827,1.08,2.512,0.097c1.551-2.224,1.628-5.748,6.797-11.855c3.033-3.584,5.993-4.717,3.441-6.874      c-6.362-5.377-8.564-13.457-9.726-15.594c-0.502-0.922-1.686-0.992-2.333-0.177c-0.693,0.874-1.049,1.931-1.465,2.954      c-3.078,7.583-7.346,11.055-9.062,12.72C159.69,84.058,159.249,85.62,159.889,86.363z"/>
			</g>
		</g>
		<g>
			<g>
				<path style="fill:#FD8A02;" d="M85.671,175.253c0.387,0.45,0.779,0.9,1.21,1.305c6.076,5.719,7.519,12.358,8.862,14.695      c0.585,1.019,1.827,1.081,2.512,0.098c0.478-0.685,0.839-1.477,1.126-2.268c4.475-12.335,12.929-13.236,9.112-16.462      c-6.362-5.377-8.564-13.457-9.725-15.594c-0.502-0.922-1.686-0.992-2.333-0.176c-0.693,0.874-1.049,1.931-1.464,2.954      c-3.078,7.583-7.347,11.055-9.062,12.72C85.472,172.948,85.03,174.508,85.671,175.253z"/>
			</g>
		</g>
	</g>
</g>















</svg>
