<?xml version="1.0" encoding="UTF-8"?>
<!-- Generator: Adobe Illustrator 25.3.1, SVG Export Plug-In . SVG Version: 6.00 Build 0)  -->
<svg xmlns="http://www.w3.org/2000/svg" xmlns:xlink="http://www.w3.org/1999/xlink" version="1.1" id="Capa_1" x="0px" y="0px" viewBox="0 0 512 512" style="enable-background:new 0 0 512 512;" xml:space="preserve" width="512" height="512">
<g>
	<g>
		<g>
			<g>
				<g>
					<g>
						<g>
							<path style="fill:#FF8EDE;" d="M47.151,389.579c-6.291-24.007-5.305-54.298,7.27-75.197         c19.181-31.878,82.262-59.086,127.13-41.595c22.415,8.74,41.994,34.373,50.649,56.988c0.596,1.557,0.296,2.671-0.726,3.889         c-16.34,19.456-40.987,34.52-64.615,44.721C108.469,403.592,48.67,395.374,47.151,389.579z"/>
						</g>
					</g>
					<g>
						<g>
							<path style="fill:#FF8EDE;" d="M33.74,408.609c2.796-1.308-0.011,3.453,10.275,10.588         c22.63,15.698,92.886,18.774,156.277-17.115c18.098-10.247,47.261-31.593,52.643-51.744         c2.725-10.201-1.721-11.581,1.726-12.051c8.339-1.139,16.965-1.057,25.293,0.131c29.239,4.172,28.674,22.475,13.869,48.741         c-19.533,34.655-62.863,61.226-100.177,75.92c-23.479,9.246-48.185,15.651-73.258,18.59         c-22.388,2.624-45.541,2.637-67.575-2.575c-9.464-2.239-18.747-5.495-27.278-10.204c-14.04-7.751-26.303-16.814-21.67-33.439         C6.14,427.282,23.485,413.408,33.74,408.609z"/>
						</g>
					</g>
				</g>
				<g>
					<g>
						<path style="fill:#00B0C4;" d="M80.102,429.47c-13.15-1.158-33.299-5.533-41.323-16.339        c-7.727-10.406,2.989-22.844,9.689-20.824c46.354,13.976,122.833-2.005,170.739-44.348        c15.175-13.412,12.624-16.133,18.283-16.66c10.198-0.95,18.617,7.285,14.124,20.695c-7.47,22.293-29.624,37.505-49.076,48.708        C166.917,421.218,121.363,433.103,80.102,429.47z"/>
					</g>
				</g>
				<g style="opacity:0.5;">
					<g>
						<g>
							<path style="fill:#FC09B2;" d="M41.52,475.877c-2.486-0.878-2.533-1.101-0.647-2.827         c17.673-16.169,52.586-13.465,74.826-16.75c26.022-3.843,52.828-10.933,71.81-30.306         c13.388-13.663,8.887-21.802,14.32-24.853c15.411-8.655,35.957-24.141,45.601-39.205c11.91-18.604,2.799-23.048,7.164-23.636         c12.931-1.741,30.947-1.206,42.223,5.483c5.183,3.075,6.516,6.288,6.487,10.512c-0.337,47.957-61.218,89.612-105.796,107.298         c-3.305,1.311-6.641,2.564-9.922,3.916C149.949,481.018,82.363,490.307,41.52,475.877z"/>
						</g>
					</g>
					<g>
						<g>
							<path style="fill:#FC09B2;" d="M161.621,289.645c0.204-5.927,1.194-11.969,2.926-18.29c0.77-2.81,1.341-2.69,2.392-2.56         c29.669,3.657,53.998,32.534,65.196,60.791c0.7,1.767,0.27,2.962-0.88,4.332c-7.658,9.121-19.326,19.537-34.903,29.161         c-2.399,1.482-2.512,1.427-3.705-0.654c-9.832-17.148-19.029-29.582-24.298-41.125         C163.41,310.483,161.256,300.247,161.621,289.645z"/>
						</g>
					</g>
				</g>
				<g style="opacity:0.25;">
					<g>
						<path style="fill:#000E3F;" d="M196.839,373.959c-0.743-2.192-1.358-4.425-2.434-6.496c-0.551-1.061-0.386-1.541,0.653-2.225        c6.273-4.133,15.618-9.635,26.921-20.108c12.06-11.175,10.671-13.118,14.299-13.691c9.33-1.474,15.633,4.568,16.325,10.436        c1.421,12.05-9.671,25.717-18.503,34.121c-10.175,9.682-20.637,17.087-32.808,24.202        C197.649,402.327,202.629,391.362,196.839,373.959z"/>
					</g>
				</g>
				<g style="opacity:0.5;">
					<g>
						<path style="fill:#FFFFFF;" d="M85.868,310.474c-23.475,23.133-24.473,54.476-24.438,54.348        c-0.212,2.609-3.986,2.803-4.461,0.225c-5.306-28.834,15.195-64.018,43.773-70.529c2.393-0.545,3.643,2.77,1.474,3.934        C102.217,298.452,90.572,305.845,85.868,310.474z"/>
					</g>
				</g>
				<g>
					<g>
						<g>
							<g>
								<path style="fill:#FC09B2;" d="M92.9,366.763c-6.668-0.742-9.44-5.193-7.911-9.485c4.491-12.614,30.235-15.788,29.462-3.212          C114.076,360.18,103.531,367.947,92.9,366.763z"/>
							</g>
						</g>
					</g>
					<g>
						<g>
							<g>
								<path style="fill:#FC09B2;" d="M181.97,338.379c5.009-4.464,4.694-9.697,0.965-12.314          c-10.961-7.69-33.795,4.616-25.888,14.427C160.89,345.262,173.985,345.495,181.97,338.379z"/>
							</g>
						</g>
					</g>
				</g>
			</g>
			<g>
				<g>
					<g>
						<path style="fill:#000E3F;" d="M304.677,354.697c-0.85-5.579-3.469-9.979-7.789-13.076        c-9.886-7.092-31.852-6.861-42.069-5.735c-1.377,0.153-2.14-0.158-3.026-1.169c-3.517-4.004-8.075-5.948-13.549-5.785        c-0.143,0.004-0.29,0.009-0.435,0.018c-0.692,0.034-1.229,0.088-1.662,0.13c-1.498,0.156-1.507,0.15-2.227-1.461        c-25.269-56.223-67.516-76.541-129.365-52.894c-0.09,0.036-9.949,3.862-14.521,6.103        c-11.209,5.491-31.428,17.846-40.914,38.883c-8.091,17.946-10.09,39.046-5.943,62.715c0.477,2.72,0.918,4.395,1.21,5.501        c0.477,1.814,0.477,1.814-0.651,2.387c-0.544,0.273-1.286,0.651-2.312,1.327c-4.49,2.962-7.068,7.16-7.661,12.478        c-0.14,1.236-0.418,2.02-1.498,2.624c-13.088,7.317-22.945,15.712-29.299,24.95c-3.028,4.405-3.766,9.946-2.078,15.608        c1.89,6.344,6.696,12.407,13.897,17.533c16.252,11.566,37.663,18.387,63.638,20.275c6.824,0.497,13.895,0.633,21.158,0.417        c18.157-0.54,37.479-3.285,56.896-8.128c26.758-6.675,52.873-17.112,75.524-30.177c23.688-13.666,43.068-29.976,56.043-47.169        C297.079,388.083,306.855,369.02,304.677,354.697z M230.94,332.384c-20.508,23.468-51.579,42.297-87.489,53.022        c-33.145,9.897-66.7,11.847-92.065,5.352l-0.108-0.028c-2.937-0.753-2.937-0.753-3.634-3.726        c-8.908-38.094,1.736-67.017,14.668-81.38c7.44-8.263,17.363-15.79,27.229-20.648c4.666-2.298,16.547-7.597,23.482-9.312        l0.013-0.005c0.624-0.198,1.244-0.415,1.915-0.647c9.408-3.279,23.191-5.941,34.801-6.286        c20.703-0.616,37.548,5.424,52.074,18.47c12.472,11.2,22.664,26.242,29.47,43.499        C231.587,331.433,231.386,331.875,230.94,332.384z M46.836,393.337c1.193-0.036,2.475,0.3,4.444,0.816        c4.231,1.108,11.315,2.963,26.882,3.591c29.893,1.197,63.224-5.607,93.811-19.188c26.658-11.836,49.528-28.118,61.181-43.557        c1.232-1.633,3.155-2.537,5.558-2.611c0.004,0,0.007,0,0.011,0c3.79-0.113,8.304,1.866,10.736,4.706        c2.735,3.194,2.315,7.997,1.821,10.576c-2.541,13.265-15.945,26.424-26.743,35.129c-13.97,11.26-29.836,20.216-40.026,24.842        c-13.188,5.988-18.876,7.756-21.931,8.705c-1.695,0.526-2.627,0.816-3.61,1.433c-0.402,0.253-0.804,0.408-1.132,0.434        c-0.112,0.008-0.435,0.102-1.446,0.396c-46.209,13.5-78.294,9.567-93.313,6.021c-5.505-1.301-18.897-5.255-24.341-13.863        c-1.773-2.807-2.069-6.214-0.831-9.593c1.315-3.598,4.222-6.571,7.402-7.573C45.833,393.436,46.327,393.352,46.836,393.337z         M146.834,424.922c1.323-0.319,2.195-0.528,2.502-0.566c0.359-0.044,1.864-0.527,4.493-1.374        c2.325-0.751,5.219-1.684,7.54-2.357c15.198-4.405,39.938-15.927,60.94-31.733c13.279-9.992,35.158-29.607,32.505-48.693        c-0.051-0.352-0.041-0.542,0.028-0.633c0.097-0.126,0.395-0.189,0.811-0.241c11.661-1.482,24.479-0.538,34.289,2.515        c5.688,1.771,9.31,5.598,11.067,11.696c2.146,7.443-1.612,18.547-4.046,24.503v0.002        c-11.583,28.387-45.203,57.559-89.932,78.039c-46.527,21.302-97.799,30.151-140.659,24.283        c-22.33-3.058-40.069-10.071-52.726-20.847c-2.858-2.43-5.808-5.103-7.713-8.668c-3.873-7.24-2.704-13.556-0.317-17.052        c7.795-11.427,20.41-19.56,27.235-23.389c0.286-0.161,0.529-0.246,0.751-0.253c0.663-0.02,1.15,0.652,2.087,2.062        c2.961,4.464,9.893,14.916,43.506,18.508C99.187,432.864,121.938,430.905,146.834,424.922z"/>
					</g>
				</g>
				<g>
					<g>
						<path style="fill:#000E3F;" d="M143.481,319.561c-0.415-0.209-0.886-0.242-1.322-0.099c-0.441,0.145-0.8,0.453-1.009,0.866        c-0.211,0.415-0.246,0.886-0.101,1.326c2.191,6.691,0.63,15.478-6.574,18.589c-3.75,1.621-7.055,0.769-9.166-0.228        c-4.031-1.908-7.357-5.947-8.679-10.542c-0.132-0.454-0.431-0.826-0.845-1.05c-0.407-0.223-0.878-0.271-1.308-0.14        c-0.446,0.127-0.815,0.422-1.042,0.829c-0.225,0.407-0.278,0.878-0.149,1.323c1.591,5.528,5.628,10.402,10.537,12.722        c2.208,1.045,4.483,1.541,6.762,1.473c1.782-0.053,3.554-0.454,5.269-1.192c9.1-3.933,11.169-14.716,8.496-22.867        C144.209,320.131,143.898,319.772,143.481,319.561z"/>
					</g>
				</g>
				<g>
					<g>
						<path style="fill:#000E3F;" d="M90.753,324.754c-4.946,1.407-8.227,7.815-6.234,12.168c1.225,5.115,7.117,7.782,11.799,6.448        c5.74-1.636,8.176-7.709,6.707-12.209C101.221,325.639,95.782,323.323,90.753,324.754z"/>
					</g>
				</g>
				<g>
					<g>
						<path style="fill:#000E3F;" d="M159.382,302.918c-5.093,1.639-7.964,7.102-6.217,12.487c1.478,4.553,7.279,7.888,12.259,5.879        c4.459-0.967,7.923-7.132,6.158-12.251C169.871,304.07,164.33,301.325,159.382,302.918z"/>
					</g>
				</g>
			</g>
		</g>
		<g>
			<g>
				<g>
					<g>
						<path style="fill:#FFFFFF;" d="M82.048,417.412c-0.368,0.997-0.992,1.574-1.98,1.929c-5.308,1.927-10.068,1.009-14.226-2.785        c-3.807-3.481-5.595-7.911-5.925-13.004c-0.054-0.818,0.148-1.436,0.693-2.044c1.642-1.848,3.276-3.705,4.971-5.501        c2.569-2.724,6.31-6.494,9.543-8.376c0.705-0.408,1.286-0.377,1.954,0.03C86.311,393.27,85.836,407.175,82.048,417.412z"/>
					</g>
				</g>
				<g>
					<g>
						<path style="fill:#00B0C4;" d="M53.679,439.122c-1.64,0.148-1.601,0.154-1.487,1.849c0.989,14.607-7.127,23.13-10.479,17.951        c-1.645-2.542-2.197-6.302-2.01-9.004c0.439-6.338,1.134-6.419,0.539-6.816c-0.663-0.442-4.254,2.235-10.291,2.35        c-3.872,0.074-6.94-1.762-5.546-5.076c0.273-0.65,0.544-1.318,1.032-1.819c1.116-1.146,2.004-2.523,3.502-3.29        c0.233-0.119,4.71-3.892,11.728-5.133c1.424-0.252,0.414-1.07,6.133-10.049c4.768-7.485,10.889-15.163,11.415-15.654        c0.627-0.585,1.037-0.323,1.118,0.309c0.813,6.293,3.726,11.698,9.339,14.635c7.105,3.718,12.216-0.442,11.79,1.201        c-0.371,1.429-3.684,6.053-5.819,8.28C68.217,435.56,61.26,438.44,53.679,439.122z"/>
					</g>
				</g>
				<g style="opacity:0.75;">
					<g>
						<g>
							<path style="fill:#FFFFFF;" d="M67.054,427.14l0.123,0.066c0.764,0.405,1.055,1.352,0.65,2.116         c-0.837,1.578-4.72,1.131-6.423,0.595c-9.35-2.928-10.52-14.696-6.805-13.916C56.199,416.339,57.153,421.893,67.054,427.14z"/>
						</g>
					</g>
					<g>
						<g>
							<path style="fill:#FFFFFF;" d="M53.209,429.648c1.606,1.489,5.144,3.969,4.933,3.816c1.076,0.783,0.772,2.449-0.482,2.826         c-6.185,1.853-13.039-4.886-11.095-10.795c0.386-1.174,1.936-1.402,2.654-0.418C49.218,425.076,51.581,428.19,53.209,429.648         z"/>
						</g>
					</g>
					<g>
						<g>
							<path style="fill:#FFFFFF;" d="M29.588,442.296c-1.286,0.043-2.139-1.317-1.547-2.458c3.279-6.307,14.865-6.192,13.462-2.469         c-0.098,0.258-0.254,0.477-0.45,0.645C34.921,442.421,29.202,442.309,29.588,442.296z"/>
						</g>
					</g>
					<g>
						<g>
							<path style="fill:#FFFFFF;" d="M48.668,452.793c-1.161,2.185-3.385,4.309-4.725,2.399c-1.112-1.585,0.189-9.372,1.847-12.571         l0.033-0.064c0.405-0.782,1.367-1.087,2.148-0.682C49.497,442.664,51.187,448.041,48.668,452.793z"/>
						</g>
					</g>
				</g>
				<g style="opacity:0.18;">
					<g>
						<path style="fill:#000E3F;" d="M82.066,417.361c-0.386,1.046-1.049,1.635-2.09,2.03c-2.493,0.945-5.017,1.122-7.611,0.627        c-0.788-0.15-0.372-0.699,0.079-1.368c5.531-8.214,7.962-18.719,7.025-27.909c-0.034-0.336-0.139-0.775,0.183-0.856        C80.589,389.648,88.658,399.507,82.066,417.361z"/>
					</g>
				</g>
				<g style="opacity:0.25;">
					<g>
						<path style="fill:#000E3F;" d="M56.618,430.372c7.488-2.65,12.924-7.703,14.124-9.31c0.42-0.563,1.036-0.54,1.622-0.364        c4.491,1.347,9.375-2.054,7.858,0.522c-6.1,10.353-14.446,16.726-26.552,17.901c-1.631,0.158-1.592,0.156-1.478,1.855        c1.468,21.721-16.246,29.042-11.626,1.775C41.353,438.11,51.876,432.05,56.618,430.372z"/>
					</g>
				</g>
			</g>
			<g>
				<g>
					<g>
						<path style="fill:#000E3F;" d="M69.672,399.839c-3.029,2.657,0.975,7.546,4.229,4.673        C76.975,401.797,72.794,397.163,69.672,399.839z"/>
					</g>
				</g>
				<g>
					<g>
						<path style="fill:#000E3F;" d="M88.847,382.781c-4.249-0.063-7.612,1.603-9.674,4.502c-0.064-0.048-0.113-0.102-0.179-0.149        c-3.692-2.664-7.345,0.784-11.214,4.429c-2.579,2.428-8.988,9.495-14.314,16.45c-8.218,10.729-10.78,15.987-12.011,18.512        c-0.872,1.788-1.079,2.212-2.099,2.414c-5.525,1.094-9.45,3.827-11.125,4.994c-0.184,0.128-0.338,0.233-0.46,0.315        c-1.206,0.801-2.147,1.85-3.058,2.863l-0.238,0.264c-0.712,0.792-1.251,1.768-1.604,2.896        c-0.498,1.595-0.27,3.118,0.644,4.282c0.939,1.197,3.025,2.584,7.55,2.275c2.992-0.187,5.073-0.871,6.317-1.279        c0.56-0.187,1.204-0.391,1.301-0.316c0.002,0.002,0.054,0.079-0.038,0.464c-0.566,2.386-0.739,7.616,0.654,11.773        c0.402,1.202,1.103,2.283,2.139,3.308c0.827,0.816,1.809,1.22,2.879,1.189c0.246-0.007,0.497-0.037,0.753-0.092        c2.51-0.533,5.011-3.281,6.529-7.169c2.19-5.603,2.156-9.351,2.127-12.658l-0.006-0.563c-0.006-0.872-0.006-0.872,1.151-0.995        c0.622-0.066,1.564-0.167,2.923-0.438c17.985-3.593,30.744-22.282,27.864-40.807c-0.447-2.857-1.41-6.729-4.304-9.951        c2.037-3.185,5.689-3.575,7.448-3.538c5.62,0.079,12.107,4.021,12.807,9.764c0.094,0.768,0.759,1.33,1.519,1.307        c0.047-0.001,0.092-0.005,0.138-0.011c0.815-0.1,1.395-0.842,1.297-1.657C103.648,387.639,95.691,382.879,88.847,382.781z         M71.197,430.849l-0.022,0.018c-4.536,4.291-10.882,6.943-17.87,7.471c-0.923,0.07-1.393,0.222-1.669,0.548        c-0.365,0.429-0.31,1.071-0.222,2.135c0.141,1.666,0.376,4.453-0.727,9.147c-0.826,3.507-2.675,7.77-5.384,9.212        c-0.834,0.445-1.602,0.392-2.276-0.14c-2.394-1.887-3.326-9.23-1.88-14.821c0.217-0.836,0.183-1.447-0.099-1.821        c-0.188-0.247-0.472-0.377-0.843-0.386c-0.009,0-0.018-0.002-0.027-0.001c-0.237,0.007-0.666,0.163-1.568,0.496        c-2.643,0.975-8.146,3.001-12.095,1.323c-1.241-0.526-1.804-1.346-1.678-2.436c0.416-3.535,7.993-9.289,15.473-10.558        c1.544-0.261,1.782-0.744,2.788-2.777c0.829-1.674,2.214-4.477,5.343-9.246c4.376-6.669,9.352-12.9,9.821-13.361        c0.13-0.134,0.232-0.173,0.279-0.154c0.043,0.014,0.097,0.091,0.121,0.236c1.533,8.999,7.179,14.981,15.105,16        c1.806,0.23,3.469-0.085,4.565-0.297c0.32-0.061,0.673-0.13,0.874-0.142C77.106,424.787,74.905,428.143,71.197,430.849z         M82.703,396.348c1.813,6.541,1.404,13.083-1.29,20.592c-0.306,0.848-0.82,1.359-1.726,1.706        c-3.844,1.476-7.866,1.081-11.32-1.11c-4.352-2.756-7.216-7.965-7.666-13.929c-0.048-0.647,0.146-1.18,0.633-1.731        c3.799-4.318,8.307-9.256,13.731-13.209c0.092-0.068,0.223-0.109,0.36-0.156c0.06-0.022,0.122-0.042,0.184-0.066        c0.21-0.082,0.408-0.128,0.6-0.134c0.335-0.01,0.656,0.101,1.003,0.334c0.302,0.204,0.553,0.452,0.834,0.674        c-0.417,0.972-0.756,2.008-0.93,3.158c-0.123,0.813,0.436,1.57,1.249,1.693c0.79,0.104,1.57-0.436,1.693-1.249        c0.071-0.468,0.17-0.899,0.283-1.309C81.396,392.988,82.205,394.557,82.703,396.348z"/>
					</g>
				</g>
			</g>
		</g>
		<g>
			<g>
				<g>
					<g>
						<path style="fill:#FFCF00;" d="M112.611,438.052L101.67,450.2c-1.165,1.294,0.191,3.281,1.82,2.667l7.093-2.67        c0.607-0.229,1.292-0.083,1.753,0.373l5.392,5.326c1.239,1.224,3.286-0.04,2.748-1.695l-5.05-15.55        C115.032,437.434,113.468,437.102,112.611,438.052z"/>
					</g>
				</g>
				<g>
					<g>
						<path style="fill:#FFCF00;" d="M127.519,403.69c-7.235,0.25-12.893,6.314-12.642,13.549        c0.251,7.246,6.314,12.904,13.55,12.653c7.246-0.251,12.904-6.314,12.653-13.561        C140.829,409.096,134.766,403.439,127.519,403.69z M128.183,422.848c-3.336,0.115-6.146-2.507-6.262-5.854        c-0.116-3.336,2.507-6.146,5.842-6.262c3.347-0.116,6.157,2.506,6.273,5.842C134.152,419.922,131.529,422.732,128.183,422.848        z"/>
					</g>
				</g>
			</g>
			<g>
				<g>
					<g>
						<path style="fill:#000E3F;" d="M138.653,426.749c8.781-9.399,1.911-24.903-11.1-24.553c-5.296-14.8-0.459-22.611,3.864-21.702        c2.787,0.58,5.787,4.452,6.845,7.694c0.606,1.854,3.438,0.965,2.834-0.932c-5.716-17.485-25.61-10.841-16.552,15.35        c-15.851,3.829-14.256,26.895,1.723,28.678c-0.689,15.436,13.383,20.486,8.303,32.099c-1.541,3.571-4.917,6.281-9.01,7.227        c-4.115,0.97-8.332,0.042-11.314-2.479c-4.179-3.515-6.158-10.804-2.537-15.285c0.131-0.164,0.218-0.35,0.258-0.557        c3.088,2.48,5.328,7.154,8.575,5.102c1.259-0.77,1.811-2.251,1.357-3.657c-5.244-14.527-4.401-17.839-8.127-17.728        c-0.87,0.026-1.683,0.393-2.258,1.052c-8.887,10.93-13.553,12.504-11.221,16.037c2.057,2.975,5.594,0.165,7.934-0.35        c-3.146,5.839-0.647,13.663,4.097,17.665c2.865,2.433,6.632,3.671,10.543,3.555c1.121-0.033,2.262-0.182,3.376-0.444        c5-1.179,9.136-4.53,11.065-8.937c3.257-7.491,0.079-12.753-2.98-17.835c-2.648-4.363-5.392-8.859-5.061-15.439        C132.874,431.019,136.169,429.409,138.653,426.749z M102.968,451.48l-0.191-0.292l10.946-12.138l0.277,0.06l5.064,15.553        l-0.294,0.169c-5.061-4.621-5.936-7.053-8.717-6.036L102.968,451.48z M119.487,408.868c2.637-2.836,6.332-3.942,9.254-3.663        c13.845,0.884,14.545,21.137,0.87,23.095C118.487,429.875,112.196,416.607,119.487,408.868z"/>
					</g>
				</g>
				<g>
					<g>
						<path style="fill:#000E3F;" d="M127.716,409.242c-9.882,0.294-9.447,15.389,0.472,15.094c0.024-0.001,0.024-0.001,0.046-0.001        C138.336,424.034,137.553,408.735,127.716,409.242z M127.805,412.214c6.077-0.181,6.374,8.967,0.319,9.147        c0,0,0,0-0.023,0.001C122.114,421.54,121.772,412.45,127.805,412.214z"/>
					</g>
				</g>
			</g>
		</g>
		<g>
			<g>
				<g>
					<g>
						<path style="fill:#FC09B2;" d="M241.067,359.507c0.531,0.6,1.023,1.228,1.47,1.87c5.721,8.229,4.5,19.611-3.188,26.419        c-4.115,3.644-9.308,5.29-14.393,4.998c-4.412-0.238-8.745-1.934-12.218-5.031c-0.584-0.522-1.147-1.085-1.679-1.685        c-7.335-8.284-6.566-20.955,1.719-28.29c1.164-1.031,2.413-1.901,3.721-2.613C224.52,350.814,234.762,352.387,241.067,359.507        z"/>
					</g>
				</g>
				<g>
					<g>
						<g>
							<path style="fill:#FFFFFF;" d="M226.561,405.866l-0.525,12.164c-0.056,1.295,1.665,1.794,2.31,0.669l2.807-4.896         c0.24-0.419,0.703-0.66,1.184-0.617l5.622,0.502c1.291,0.116,1.868-1.581,0.774-2.277l-10.272-6.536         C227.658,404.364,226.602,404.915,226.561,405.866z"/>
						</g>
					</g>
					<g>
						<g>
							<path style="fill:#FFFFFF;" d="M258.833,377.291l12.138,0.952c1.293,0.102,1.579,1.87,0.384,2.374l-5.2,2.194         c-0.445,0.188-0.74,0.618-0.756,1.1l-0.182,5.641c-0.042,1.296-1.795,1.663-2.353,0.493l-5.245-10.988         C257.209,378.198,257.883,377.216,258.833,377.291z"/>
						</g>
					</g>
					<g>
						<g>
							<path style="fill:#FFFFFF;" d="M242.537,361.377c5.721,8.229,4.5,19.611-3.188,26.419c-7.684,6.804-19.13,6.638-26.611-0.033         c2.275-5.153,6.569-10.903,12.375-16.044C230.919,366.578,237.146,363.012,242.537,361.377z"/>
						</g>
					</g>
				</g>
				<g style="opacity:0.25;">
					<g>
						<path style="fill:#000E3F;" d="M241.067,359.507c0.531,0.6,1.023,1.228,1.47,1.87c5.721,8.229,4.5,19.611-3.188,26.419        c-4.115,3.644-9.308,5.29-14.393,4.998c19.641-19.93,2.437-32.325-8.457-37.62        C224.52,350.814,234.762,352.387,241.067,359.507z"/>
					</g>
				</g>
			</g>
			<g>
				<g>
					<path style="fill:#000E3F;" d="M269.507,383.002c1.081-0.682,4.569-0.963,4.048-3.966c-0.197-1.253-1.186-2.185-2.471-2.285       c-11.448-0.481-13.062-1.976-14.598,0.228c-0.548,0.817-0.633,1.827-0.217,2.73c4.867,9.129,5.088,13.474,8.269,12.459       c3.159-0.613,1.928-4.631,2.326-7.211c4.96,2.083,8.291,9.841,4.045,15.927c-3.866,5.588-12.435,6.275-17.354,0.7       l-12.151-13.717c17.291-17.448-3.811-45.859-25.619-33.988c-1.42,0.752-2.765,1.708-3.992,2.797       c-11.949-9.236-18.744-6.791-21.347-5.042c-4.444,2.971-5.691,9.555-3.003,16.022c0.247,0.588,0.805,0.915,1.423,0.896       c0.161-0.005,0.342-0.033,0.523-0.107c0.746-0.32,1.109-1.178,0.789-1.947c-2.121-5.111-1.334-10.216,1.92-12.396       c3.141-2.131,9.177-1.624,17.585,4.742c-6.836,8.01-6.911,20.099,0.267,28.218c0.568,0.647,1.182,1.247,1.793,1.801       c7.628,6.812,19.221,7.355,27.431,0.97l12.151,13.717c8.381,9.502-2.687,23.279-13.532,16.816       c-2.33-1.373-3.972-3.43-4.562-5.611l4.591,0.413c2.821,0.261,4.143-3.463,1.704-5.019c-9.415-5.52-10.564-7.915-12.994-6.641       c-2.432,1.309-1.105,3.579-1.973,14.457c-0.069,1.656,1.25,2.893,2.831,2.846c2.189-0.065,2.613-2.361,3.554-3.654       c1.052,2.281,2.899,4.332,5.322,5.771c11.004,6.562,23.794-3.799,20.368-15.6c1.831,0.747,3.833,1.122,5.869,1.062l0.434-0.013       c4.228-0.263,8.033-2.368,10.427-5.804C278.133,395.679,275.42,386.614,269.507,383.002z M263.763,388.484l-4.614-9.683       l10.692,0.849l-4.273,1.798c-0.044,0.024-0.091,0.026-0.112,0.072l-0.022,0.001C263.126,382.6,264.157,385.385,263.763,388.484       z M225.045,391.307c-18.53-0.967-24.259-25.982-7.834-34.815c7.816-4.306,18.243-2.541,24.115,5.738       C250.291,375.156,240.024,392.191,225.045,391.307z M229.969,412.93l0.001,0.023c-0.231,0.085-1.247,2.103-2.394,4.123       l0.46-10.704l9.03,5.752C234,412.13,231.29,410.751,229.969,412.93z"/>
				</g>
			</g>
		</g>
	</g>
	<g>
		<g>
			<g>
				<g>
					<g>
						<path style="fill:#FC09B2;" d="M270.306,204.073c-2.869-6.926-3.618-15.007,1.789-20.235        c3.582-3.463,7.987-5.571,13.295-6.229c8.868-1.1,16.566-4.482,20.077-6.837c7.512-5.041,10.484-6.84,16.939-13.673        c5.986-6.337,6.717-8.865,13.373-14.509c19.32-16.38,46.721-14.022,61.456,9.341c2.695,4.275-16.34-2.805-44.55,8.468        c-28.986,11.584-48.782,37.646-47.375,68.973c0.104,2.321-0.207,2.574-2.438,1.913c-9.192-2.721-17.495-7.685-25.146-15.893        C276.36,213.925,271.533,207.032,270.306,204.073z"/>
					</g>
				</g>
				<g>
					<g>
						<path style="fill:#FC09B2;" d="M426.837,272.459c-1.805,1.454-3.736,2.506-5.951,3.021c-5.328,1.24-8.495-0.001-11.027-3.074        c-2.853-3.463-3.792-7.454-3.201-11.842c0.101-0.751,0.389-1.476,0.574-2.217c0.323-1.292-0.968-1.084-2.159-1.137        c-9.551-0.425-11.439-12.18-9.035-21.611c2.808-11.012,8.966-20.611,15.375-26.2c7.812-6.813,17.076-4.324,20.308,0.311        C447.629,232.52,439.51,265.653,426.837,272.459z"/>
					</g>
				</g>
				<g>
					<g>
						<path style="fill:#FC09B2;" d="M368.147,296.573c-2.683,2.129-6.346,4.025-10.3,5.347        c-27.431,9.17-42.639-12.262-33.783-39.787c0.824-2.559,1.128-0.228,13.315,3.414c9.615,2.873,19.467,4.684,30.113,4.517        c18.061-0.283,21.57-4.554,21.08-1.159c-0.661,4.573-5.077,14.25-13.267,22.185        C373.304,293.029,371.036,294.573,368.147,296.573z"/>
					</g>
				</g>
			</g>
			<g>
				<g>
					<g>
						<path style="fill:#FF8EDE;" d="M419.943,263.514c-0.795,0.629-1.95,0.493-2.58-0.302c-0.749-0.948-0.17-2.244-0.221-1.92        c2.171-4.888,4.445-9.985,5.894-16.114c3.431-13.124,0.743-18.906,4.161-18.681        C431.577,226.784,434.667,251.876,419.943,263.514z"/>
					</g>
				</g>
				<g>
					<g>
						<path style="fill:#FF8EDE;" d="M406.825,249.099c-1.659,0.792-3.339-1.063-2.388-2.636c2.07-3.424,4.482-6.926,6.954-12.453        c4.944-10.955,3.774-15.585,6.828-14.683C422.154,220.489,421.387,242.142,406.825,249.099z"/>
					</g>
				</g>
				<g>
					<g>
						<path style="fill:#FF8EDE;" d="M346.684,290.324c10.288-3.773,17.564-9.547,17.367-9.413c1.504-1.022,3.438,0.509,2.772,2.222        c-3.923,9.881-16.763,15.563-26.639,12.758c-1.653-0.47-1.711-2.793-0.091-3.35        C340.093,292.54,346.92,290.242,346.684,290.324z"/>
					</g>
				</g>
				<g>
					<g>
						<path style="fill:#FF8EDE;" d="M337.911,278.492c18.813-6.952,5.139,11.791-6.161,6.671c-1.332-0.603-1.526-2.408-0.379-3.288        C331.581,281.761,333.208,280.267,337.911,278.492z"/>
					</g>
				</g>
				<g>
					<g>
						<path style="fill:#FF8EDE;" d="M296.596,201.271c4.376,2.595,5.623,3.519,5.413,3.373c0.855,0.592,1.069,1.765,0.477,2.62        c-1.317,1.902-12.498,0.769-20.266-7.475c-7.03-7.32-3.194-8.822-1.633-8.055C283.144,192.988,296.82,201.407,296.596,201.271        z"/>
					</g>
				</g>
				<g>
					<g>
						<path style="fill:#FF8EDE;" d="M312.463,186.866c-4.482,1.788-10.618-2.356-10.719-7.28        C301.614,173.158,318.785,184.302,312.463,186.866z"/>
					</g>
				</g>
				<g>
					<g>
						<path style="fill:#FF8EDE;" d="M352.796,151.332c1.326,2.135,1.771,3.726,1.692,3.492c0.497,1.464-0.745,2.937-2.283,2.682        c-5.289-0.89-10.118-7.204-9.7-12.492c0.115-1.454,1.731-2.253,2.953-1.497C345.643,143.695,349.791,146.287,352.796,151.332z        "/>
					</g>
				</g>
				<g>
					<g>
						<path style="fill:#FF8EDE;" d="M373.549,144.028c1.329,2.538,1.679,5.971-1.112,5.941c-1.737-0.022-7.545-3.974-9.988-8.809        l-0.061-0.122c-0.494-0.979-0.101-2.172,0.876-2.666C365.3,137.344,371.134,139.231,373.549,144.028z"/>
					</g>
				</g>
				<g>
					<g>
						<path style="fill:#FF8EDE;" d="M332.562,164.271c4.228,6.128-2.316,7.383-6.492,3.305c-3.637-3.608-2.947-8.517,0.198-7.751        C326.497,159.957,330.224,160.675,332.562,164.271z"/>
					</g>
				</g>
				<g>
					<g>
						<path style="fill:#FF8EDE;" d="M357.01,231.302c-4.696,5.383-26.666,11.075-44.979-8.992c-1.331-1.474-3.226-4.666-3.985-5.34        c-0.983-0.857-0.966-1.751-0.772-2.893c0.35-1.902,0.765-3.748,1.306-5.581c1.259-4.704,3.071-9.194,5.4-13.436        c1.771-3.244,3.822-6.369,6.177-9.384c1.796-2.288,1.896,3.808,7.638,11.687c3.532,4.875,4.054,6.802,11.925,14.52        c10.268,10.076,15.224,10.571,17.646,14.576C358.441,228.254,358.384,229.703,357.01,231.302z"/>
					</g>
				</g>
				<g>
					<g>
						<path style="fill:#FF8EDE;" d="M373.936,211.756c-8.228,0.507-19.379-3.021-29.641-13.074        c-2.463-2.413-11.034-14.427-12.817-20.885c-0.536-1.972-0.926-2.824,0.533-4.127c1.324-1.165,2.837-2.361,4.489-3.496        c3.261-2.259,7.015-4.436,10.693-6.27c2.753-1.349,5.437-2.506,7.838-3.36c1.865-0.653,2.145-0.362,2.253,1.238        c0.719,12.02,6.044,23.82,13.232,33.486c3.926,5.306,8.742,9.57,8.813,9.649C381.814,207.495,380.346,211.369,373.936,211.756        z"/>
					</g>
				</g>
				<g>
					<g>
						<path style="fill:#FF8EDE;" d="M400.619,199.268c-7.227-0.32-15.007-6.064-20.489-11.719c-1.985-2.03-3.586-4.366-5.341-6.98        c-4.665-6.085-7.975-14.875-8.886-21.828c-0.171-1.211,0.032-1.54,1.211-1.826c2.138-0.557,4.619-1.039,7.344-1.442        c3.598-0.551,7.586-0.943,11.601-1.069c1.975-0.091,3.952-0.084,5.891-0.042c3.23,0.072,3.651-0.271,3.196,2.822        c-1.014,6.782,0.909,15.3,3.567,21.535c1.456,3.39,2.247,4.697,5.282,9.911c1.078,1.793,1.789,1.863,2.586,3.193        C408.785,195.494,405.071,199.462,400.619,199.268z"/>
					</g>
				</g>
			</g>
			<g>
				<g>
					<g>
						<path style="fill:#FC09B2;" d="M396.26,193.393c-14.96-7.115-22.608-24.404-21.801-37.92        c3.598-0.551,7.586-0.943,11.601-1.069c0.019,0.068,0.045,0.16,0.041,0.235c2.432,16.053,2.818,20.982,12.73,35.456        l0.098,0.17C400.156,192.065,398.226,194.317,396.26,193.393z"/>
					</g>
				</g>
				<g>
					<g>
						<path style="fill:#FC09B2;" d="M367.452,205.619c-15.234-4.172-26.967-20.796-30.952-35.446        c3.261-2.259,7.015-4.436,10.693-6.27c1.513,3.942,11.036,28.183,22.107,37.957l0.108,0.117        C371.091,203.475,369.622,206.213,367.452,205.619z"/>
					</g>
				</g>
				<g>
					<g>
						<path style="fill:#FC09B2;" d="M345.52,229.278c-14.147,0.36-28.332-9.592-36.941-20.781c1.259-4.704,3.071-9.194,5.4-13.436        c5.843,6.146,12.569,21.055,32.224,30.096l0.146,0.082C348.361,226.151,347.772,229.207,345.52,229.278z"/>
					</g>
				</g>
			</g>
			<g>
				<g>
					<path style="fill:#00B0C4;" d="M460.439,176.694c1.039,4.975,0.784,6.01-3.224,9.086c-6.421,4.916-14.302,6.263-21.034,2.215       c-0.477-0.289-1.173-0.812-1.384-0.458c-0.929,1.545,10.204,7.703,22.076-0.103c0.63-0.421,1.146-1.007,1.747-1.489       c0.682-0.549,1.648-0.107,1.379,0.892c-2.976,11.125-6.802,21.81-13.383,33.175c-0.541,0.941-4.027,6.694-4.87,7.516       c-0.413,0.399-1.095,0.286-1.345-0.264c-1.664-3.697-1.747-9.991-8.141-18.364c-2.068-2.71-4.942-4.136-8.246-4.51       c-7.77-0.882-12.926,3.132-17.9,9.242c-13.344,16.376-17.27,40.854-2.964,44.278c0.593,0.152,1.211,0.205,1.806,0.343       c0.766,0.184,1.023,1.101,0.37,1.573c-2.791,2.019-14.37,6.844-27.264,8.547c-17.653,2.327-35.766-0.882-51.863-7.986       c-1.975-0.878-2.387-0.817-3.789,0.75c-12.922,14.516-12.059,34.36-27.374,45.947c-9.536,7.227-23.393-10.823-12.331-38.648       c0.734-1.864,0.029-1.043-8.11-3.87c-5.597-1.953-10.834-4.654-15.738-7.989c-26.062-17.715-14.195-39.789,15.974-25.972       c8.466,3.882,17.017,9.345,26.506,7.408c7.594-1.545,3.825-7.753,5.104-17.842c0.805-6.321,3.434,6.414,19.724,13.851       c11.33,5.174,22.548,3.876,29.854-0.599c3.478-2.118,4.939-6.959-1.108-10.79c-12.849-8.134-26.047-21.424-32.154-36.822       c-0.493-1.244-0.89-2.332-0.062-3.261c7.215-8.101,7.137-6.908,7.914-4.335c2.336,7.679,4.09,9.303,5.624,12.286       c0.172,0.336,0.308,0.72,0.543,1.012c3.427,4.047,10.926,14.895,25.725,19.598c4.715,1.5,11.238,2.259,14.93,0.995       c3.795-1.301,5.564-5.2,2.577-7.944c-11.834-10.877-19.281-25.227-21.357-37.97c-0.298-1.808-0.304-3.665-0.432-5.496       c-0.062-0.888,0.401-1.45,1.228-1.703c6.497-1.991,4.933-1.999,5.895,2.388c4.727,21.66,21.467,37.046,34.163,38.818       c6.019,0.838,10.798-4.487,7.707-9.113c-0.766-1.15-1.563-2.278-2.344-3.417c-6.189-8.514-10.082-20.685-8.755-30.959       c0.175-1.271,0.189-2.2,1.488-2.137C426.131,156.063,458.394,166.862,460.439,176.694z"/>
				</g>
			</g>
			<g style="opacity:0.25;">
				<g>
					<g>
						<path style="fill:#000E3F;" d="M282.607,268.651c0.859-2.085,0.639-1.098-8.218-4.158c-6.134-2.119-12.018-5.569-12.815-6.171        c-0.505-0.381-0.558-0.921-0.07-1.371c8.208-7.584,23.692,1.229,31.569,3.484c10.679,3.058,14.537-4.988,21.635-10.058        c5.913-4.223,11.885-6.558,19.128-5.462c10.661,1.613,30.944,13.748,57.318,2.512c0.939-0.4,1.821-1.632,2.86-1.001        c0.835,0.507,0.486,1.84,0.75,2.788c2.845,10.221,10.409,7.929,10.896,9.692c0.205,0.745-0.606,1.25-1.566,1.714        c-22.162,10.716-49.483,12.099-79.013-0.673c-1.073-0.464-1.847,0.249-2.705,1.229        c-12.612,14.396-12.186,34.111-27.163,45.792c-4.21,3.283-8.803,1.336-11.368-1.797        C276.268,295.92,278.035,279.753,282.607,268.651z"/>
					</g>
				</g>
				<g>
					<g>
						<path style="fill:#000E3F;" d="M275.988,198.146c15.996,13.035,26.496-6.906,38.263-19.677        c10.58-11.484,27.352-25.107,42.709-27.14c7.376-0.976,13.323,2.803,13.342,3.439c0.046,1.473-19.494,2.171-38.95,18.053        c-11.66,9.518-20.168,21.892-24.052,36.682c-4.974,18.94,1.156,23.445-4.625,21.721        c-24.006-7.158-38.609-30.679-33.846-41.675c0.116-0.267,0.463-0.358,0.7-0.02        C273.239,194.837,273.736,196.311,275.988,198.146z"/>
					</g>
				</g>
				<g>
					<g>
						<path style="fill:#000E3F;" d="M426.71,272.548c-3.384,2.862-8.603,3.793-8.956,3.063c-0.45-0.931,4.217-2.823,7.133-9.612        c2.274-5.295,3.213-8.82,3.072-15.409c-0.153-7.175-2.524-12.08-5.632-17.754c-2.213-4.038-12.003-12.352-12.88-20.32        c-0.072-0.65,0.043-1.22,0.502-1.697c8.145-8.456,18.12-6.253,21.935-0.898c10.895,15.292,11.284,40.132,2.342,54.668        C432.277,267.757,430.051,270.653,426.71,272.548z"/>
					</g>
				</g>
				<g>
					<g>
						<path style="fill:#000E3F;" d="M368.684,296.141c-4.033,3.246-8.688,5.253-13.683,6.632c-0.297,0.082-0.628,0.11-0.849-0.156        c-0.468-0.564,0.606-0.726,2.499-4.486c3.144-6.244,2.884-12.85-1.987-17.869c-10.369-10.685-22.645-6.507-29.932-18.059        c-0.398-0.631-0.119-1.357,0.961-1.016c0.118,0.037,28.143,13.228,56.156,7.522c5.645-1.15,7.019-1.819,6.725,0.157        c-0.647,4.355-4.612,13.239-11.638,20.566C374.484,291.99,371.824,294.286,368.684,296.141z"/>
					</g>
				</g>
				<g>
					<g>
						<path style="fill:#000E3F;" d="M455.418,200.498c0.237,3.047-10.587,23.825-13.631,26.993        c-0.41,0.427-1.088,0.337-1.355-0.185c-0.206-0.402-0.361-0.841-0.473-1.28c-0.798-3.118-1.73-6.195-2.98-9.161        c-0.368-0.872-0.306-1.593,0.14-2.386c3.721-6.633,9.628-13.916,17.226-14.436        C454.839,200.009,455.226,200.177,455.418,200.498z"/>
					</g>
				</g>
			</g>
			<g style="opacity:0.75;">
				<g>
					<g>
						<path style="fill:#FFFFFF;" d="M276.443,244.385c5.49,2.124,12.75,4.241,17.634,5.789c1.852,0.577,1.651,3.281-0.291,3.564        c-12.176,1.748-28.315-4.232-36.472-13.901c-0.617-0.725-0.528-1.814,0.198-2.431        C259.309,235.882,261.307,238.919,276.443,244.385z"/>
					</g>
				</g>
				<g>
					<g>
						<path style="fill:#FFFFFF;" d="M298.732,280.845c-5.932,11.513-7.971,15.123-7.838,14.893        c-0.949,1.637-3.467,0.943-3.44-0.955c0.179-11.177,7.684-24.81,16.748-30.969c1.465-0.995,3.316,0.601,2.535,2.2        C306.563,266.371,298.631,281.118,298.732,280.845z"/>
					</g>
				</g>
			</g>
		</g>
		<g>
			<g>
				<g>
					<path style="fill:#000E3F;" d="M458.171,170.103c-18.258-13.052-43.971-15.841-53.651-16.891       c-2.147-0.232-3.7-0.402-4.051-0.563c-0.773-0.355-1.291-1.22-2.074-2.532c-1.314-2.197-3.296-5.515-8.377-9.814       c-7.16-6.056-15.519-9.557-24.176-10.125c-0.836-0.054-1.674-0.08-2.514-0.08c-8.071,0-16.343,2.507-24.086,7.325       c-5.343,3.323-9.229,7.886-13.343,12.717c-4.447,5.218-9.043,10.614-16.01,15.215c-0.492,0.324-0.985,0.655-1.484,0.988       c-5.568,3.723-11.879,7.939-22.721,9.213c-1.973,0.23-3.875,0.635-5.651,1.2c-7.613,2.425-12.739,7.982-13.709,14.864       c-1.126,7.995,2.525,17.005,10.284,25.371c7.191,7.754,17.105,13.841,26.524,16.281c0.449,0.119,0.726,0.342,0.782,0.632       c0.074,0.373-0.219,0.845-0.78,1.258c-2.378,1.761-9.861,2.889-22.806-4.027c-8.263-4.413-16.071-6.744-22.596-6.744       c-0.08,0-0.161,0.002-0.241,0.002c-5.852,0.051-10.447,2.011-12.938,5.517c-3.327,4.679-3.403,13.658,7.327,23.561       c6.988,6.449,16.283,11.398,27.628,14.714l0.214,0.06c0.384,0.109,0.637,0.183,0.697,0.299       c0.087,0.165-0.069,0.617-0.351,1.435c-0.085,0.246-0.183,0.525-0.29,0.849c-3.62,10.82-5.003,25.675,1.971,34.917       c2.025,2.683,5.466,4.869,8.929,4.867c0.914,0,1.832-0.152,2.724-0.487c3.088-1.162,6.098-3.682,8.947-7.492       c5.441-7.28,7.966-13.774,10.406-20.053c2.013-5.182,3.915-10.075,7.32-15.188c0.08-0.121,0.136-0.261,0.19-0.398       c0.127-0.317,0.221-0.518,0.474-0.568c-0.062,0.619-0.183,1.381-0.322,2.248c-0.556,3.486-1.397,8.753-0.188,15.407       c2.447,13.461,11.28,21.434,24.236,21.876c0.362,0.014,0.724,0.018,1.088,0.018c17.385,0,39.243-13.937,45.124-37.165       c0.293-1.151,0.663-1.265,2.719-1.895c1.77-0.543,4.735-1.452,9.807-3.734c0.534-0.241,1.03-0.46,1.167-0.384       c0.127,0.076,0.165,0.561,0.21,1.124c0.597,7.537,4.599,12.659,10.706,13.7c0.773,0.132,1.551,0.197,2.333,0.197       c7.863,0,16.042-6.505,20.52-16.625c3.779-8.54,5.18-18.524,3.942-28.113c-0.275-2.132,0.226-2.856,1.884-5.251       c1.586-2.29,4.241-6.127,8.207-14.16c3.426-6.936,10.871-25.033,10.69-33.636C462.77,175.542,461.235,172.293,458.171,170.103z        M444.838,189.365c-0.063,0-0.125,0.002-0.188,0.002c-4.362,0-6.487-1.327-8.044-2.299c-0.498-0.313-0.932-0.583-1.377-0.78       c-0.512-0.232-1.113-0.078-1.497,0.38c-0.311,0.373-0.49,1.003-0.051,1.651c1.14,1.689,3.801,3.041,7.119,3.618       c5.767,1.003,12.033-0.471,16.752-3.935l0.201-0.15c0.463-0.342,0.941-0.695,1.044-0.697c0.116,0.19-0.29,1.616-0.485,2.302       c-6.082,21.382-16.292,36.577-17.163,37.158c-0.17-0.031-0.203-0.145-0.224-0.483c-0.004-0.105-0.011-0.208-0.031-0.297       c-2.78-12.833-8.433-20.779-15.916-22.374c-6.981-1.479-14.764,2.836-21.382,11.854c-4.103,5.589-9.222,14.46-10.299,24.982       c-0.409,3.978-0.556,13.657,6.876,17.637c1.291,0.693,2.507,0.876,3.396,1.01c0.467,0.072,0.95,0.143,1.048,0.273       c-0.022,0.049-0.085,0.13-0.118,0.143v0.002c-12.283,5.834-25.248,8.788-38.559,8.786c-0.518,0-1.037-0.004-1.558-0.014       c-13.159-0.226-26.338-3.311-39.169-9.168c-0.974-0.443-1.808-0.284-2.494,0.467c-6.777,7.376-9.957,15.333-13.034,23.027       c-2.127,5.327-4.141,10.359-7.24,15.072c-2.158,3.278-6.485,8.581-9.555,9.749c-3.426,1.312-6.722-0.777-8.674-3.164       c-2.666-3.262-4.179-7.85-4.496-13.635c-0.512-9.338,1.685-15.514,3.808-21.487l0.156-0.44       c0.272-0.769,0.302-1.292,0.089-1.694c-0.378-0.717-1.468-1.008-3.448-1.537c-2.648-0.704-6.65-1.772-12.536-4.672       c-15.885-7.828-21.898-17.202-22.229-23.364c-0.183-3.39,1.249-6.23,4.033-7.995c2.161-1.37,4.945-2.042,8.192-2.042       c5.924,0,13.389,2.239,21.429,6.57c4.297,2.313,15.148,7.437,23.215,4.918c5.28-1.647,5.057-5.81,4.771-11.081l-0.022-0.424       c-0.094-1.716,0.002-3.455,0.094-5.137c0.027-0.503,0.056-1.005,0.078-1.508c0.013-0.302,0.114-0.599,0.214-0.67       c0.134,0.009,0.541,0.545,0.97,1.11c1.287,1.698,3.966,5.231,9.714,9.477c6.134,4.529,13.159,7.211,20.319,7.756       c6.688,0.514,13.134-0.934,18.144-4.06c2.143-1.338,3.307-3.329,3.28-5.609c-0.031-2.487-1.499-4.95-3.741-6.272       c-11.847-6.994-27.038-22.127-31.947-35.341c-0.174-0.467-0.34-0.863-0.483-1.209c-0.972-2.324-0.972-2.324,4.342-7.448       l0.728-0.704c0.121-0.114,0.237-0.17,0.326-0.141c0.098,0.025,0.185,0.143,0.239,0.326       c4.206,14.026,14.118,25.681,27.192,31.974c8.324,4.002,16.638,5.05,22.251,2.786c1.698-0.682,3.055-2.333,3.457-4.208       c0.355-1.667-0.08-3.242-1.229-4.435c-0.201-0.21-0.507-0.489-0.894-0.845c-2.016-1.846-6.739-6.172-12.06-14.848       c-5.546-9.05-8.898-19.184-8.965-27.114c-0.009-0.943,0.027-0.992,0.963-1.307c2.277-0.767,3.316-1.106,3.656-0.923       c0.101,0.058,0.161,0.19,0.214,0.451c2.002,10.055,4.319,16.591,12.064,26.551c0.541,0.69,1.135,1.401,1.772,2.112       c12.929,14.415,24.195,14.734,28.615,11.434c2.887-2.158,3.251-5.821,0.95-9.559c-0.302-0.494-0.664-1.055-1.066-1.68       c-3.649-5.669-11.24-17.465-9.215-32.012c0.078-0.543,0.48-0.646,0.791-0.612c35.748,2.105,53.589,13.354,58.203,16.75       c2.621,1.928,3.859,4.621,3.787,8.236C459.874,184.283,451.262,189.309,444.838,189.365z M417.04,274.943       c-2.565,0-4.84-1.099-6.585-3.189c-2.514-3.003-3.519-7.555-2.628-11.879c0.033-0.163,0.083-0.342,0.134-0.534       c0.201-0.755,0.454-1.694,0.033-2.357c-0.23-0.362-0.634-0.597-1.204-0.699c-0.161-0.029-0.398-0.031-0.726-0.036       c-1.835-0.022-6.132-0.076-8.489-5.144c-2.299-4.943-1.933-12.435,1.006-20.556c2.789-7.709,7.557-15.021,12.75-19.559       c3.761-3.287,7.524-4.956,11.014-4.956c2.042,0,3.991,0.572,5.79,1.725c4.561,2.925,8.668,11.365,10.46,21.501       c1.209,6.835,2.317,20.14-3.846,32.454c-4.116,8.225-10.484,13.047-17.474,13.224       C417.196,274.941,417.118,274.943,417.04,274.943z M324.702,263.08c0.134-0.453,0.261-0.675,0.44-0.76       c0.067-0.031,0.15-0.047,0.246-0.047c0.442,0,1.204,0.324,2.496,0.874c0.331,0.141,0.697,0.297,1.104,0.467       c16.935,7.072,36.34,9.144,54.652,5.828c0.662-0.121,1.263-0.266,1.795-0.393c0.974-0.239,1.808-0.445,2.049-0.206       c0.105,0.109,0.107,0.358,0.004,0.737c-4.523,16.67-21.228,31.283-38.032,33.27c-8.885,1.03-16.125-1.403-20.92-7.099       C322.275,288.321,320.843,276.107,324.702,263.08z M304.321,228.038c0.067,1.334,0.107,2.138-0.165,2.371       c-0.13,0.107-0.369,0.114-0.758,0.036c-5.674-1.231-15.222-6.163-22.493-13.211c-6.069-5.883-10.042-12.502-11.486-19.136       c-0.999-4.592-0.206-8.838,2.295-12.277c2.947-4.056,8.138-6.733,14.245-7.347c7.973-0.8,16.031-3.922,23.947-9.282       c6.887-4.661,13.461-10.927,19.007-18.118c6.261-8.118,14.775-14.024,23.972-16.627c3.539-1.003,7.07-1.502,10.54-1.502       c6.031,0,11.881,1.506,17.282,4.487c6.514,3.595,12.029,8.757,15.532,14.536c0.074,0.121,0.15,0.286,0.096,0.38       c-0.212,0.36-1.859,0.315-4.145,0.248c-5.879-0.163-18.115-0.523-34.687,4.965c-25.949,8.598-45.6,28.633-51.285,52.288       C303.89,219.553,304.169,225.072,304.321,228.038z M334.878,172.652c6.641-4.655,11.331-7.729,20.444-11.17       c0.25-0.096,0.516-0.185,0.69-0.185c0.058,0,0.105,0.011,0.139,0.031c0.174,0.114,0.201,0.663,0.243,1.495       c0.087,1.707,0.25,4.884,1.835,10.214c3.752,12.612,11.182,24.461,20.39,32.51c0.813,0.711,1.119,1.602,0.836,2.445       c-0.509,1.519-2.775,2.567-6.06,2.798c-0.485,0.036-0.977,0.051-1.475,0.051c-13.879,0-33.015-13.134-39.082-31.871       C331.549,174.985,331.549,174.985,334.878,172.652z M394.176,157.044c-0.116,1.046-0.311,2.795-0.177,5.551       c0.456,9.316,3.654,18.33,9.501,26.792c0.241,0.348,0.509,0.695,0.793,1.061c1.22,1.573,2.48,3.198,1.622,5.11       c-0.811,1.806-2.865,2.699-5.747,2.561c-8.958-0.485-24.77-11.021-31.88-32.928c-0.552-1.707-0.871-3.528-1.18-5.289       l-0.011-0.065c-0.337-1.931-0.304-1.975,1.714-2.369c8.706-1.691,16.444-2.237,21.161-2.237c1.464,0,2.637,0.054,3.457,0.139       c0.42,0.045,0.632,0.112,0.729,0.232C394.315,155.798,394.263,156.267,394.176,157.044z M352.717,223.511       c1.788,1.173,2.97,1.948,3.607,2.905c0.688,1.035,0.905,2.018,0.637,2.923c-0.4,1.359-1.897,2.615-4.451,3.73       c-0.319,0.138-0.644,0.272-0.97,0.402c-7.437,2.923-16.066,2.545-24.296-1.073c-9.673-4.254-17.467-13.058-18.759-16.39       c-0.46-1.186-0.203-2.63,0.112-3.888c2.487-10.024,6.118-17.778,11.774-25.139c0.098-0.13,0.329-0.429,0.398-0.429       c0,0,0,0,0.002,0.002c0.136,0.016,0.465,0.742,0.883,1.665c0.572,1.258,1.528,3.367,3.211,6.523       c2.894,5.425,9.955,14.784,20.328,23.297C348.444,220.709,350.913,222.328,352.717,223.511z"/>
				</g>
			</g>
			<g>
				<g>
					<path style="fill:#000E3F;" d="M426.682,176.12c1.885,2.713,1.29,6.495-1.344,8.63c-2.986,2.421-7.261,1.871-9.431-1.202       c-2.063-2.92-1.265-7.122,1.755-9.25C420.497,172.302,424.606,173.131,426.682,176.12z"/>
				</g>
			</g>
		</g>
	</g>
	<g>
		<g>
			<g>
				<g>
					<g>
						<path style="fill:#FFCF00;" d="M141.953,167.399c-2.134,0-4.013-1.285-4.789-3.271c-1.032-2.639,0.277-5.629,2.918-6.661        L476.184,28.143c0.489-0.188,0.999-0.284,1.517-0.284c1.738,0,3.325,1.091,3.946,2.713c0.834,2.161-0.243,4.61-2.404,5.457        l-335.42,131.017C143.224,167.281,142.594,167.399,141.953,167.399z"/>
					</g>
				</g>
				<g>
					<g>
						<path style="fill:#000E3F;" d="M477.702,29.347c1.102,0,2.139,0.668,2.559,1.758c0.542,1.408-0.158,2.989-1.561,3.538        L143.284,165.661c-0.437,0.17-0.887,0.251-1.329,0.251c-1.461,0-2.841-0.883-3.405-2.326c-0.735-1.88,0.194-4,2.075-4.735        l0.018-0.007L476.718,29.531C477.042,29.407,477.375,29.347,477.702,29.347 M477.702,26.372L477.702,26.372        c-0.704,0-1.394,0.129-2.052,0.383L139.573,156.069c-1.681,0.657-2.982,1.905-3.692,3.527        c-0.711,1.622-0.747,3.424-0.103,5.074c1.002,2.562,3.427,4.218,6.176,4.218c0.827,0,1.638-0.153,2.411-0.455L479.782,37.413        c2.92-1.142,4.38-4.451,3.255-7.377C482.192,27.844,480.05,26.372,477.702,26.372L477.702,26.372z"/>
					</g>
				</g>
			</g>
			<g>
				<g>
					<g>
						<g>
							<path style="fill:#FFCF00;" d="M480.396,298.213l-9.284,11.679c-0.989,1.243,0.358,2.977,1.808,2.327         c6.636-2.976,6.959-3.435,7.929-2.589l5.21,4.549c1.197,1.045,2.991-0.221,2.408-1.699l-5.472-13.88         C482.565,297.514,481.122,297.299,480.396,298.213z"/>
						</g>
					</g>
					<g>
						<g>
							<path style="fill:#FFCF00;" d="M483.37,268.934c-0.681-7.081,4.881-13.311,12.102-13.311         c10.397,0,15.794,12.073,9.365,19.874C498.031,283.747,484.416,279.793,483.37,268.934z M492.187,265.075         c-3.595,4.365,3.037,9.65,6.545,5.392C502.279,266.164,495.764,260.734,492.187,265.075z"/>
						</g>
					</g>
				</g>
				<g>
					<g>
						<g>
							<path style="fill:#000E3F;" d="M505.294,299.462c-3.639-5.377-7.346-10.914-7.871-18.214         c7.138-1.007,12.31-7.528,11.6-14.781c-0.664-7.025-6.499-12.333-13.546-12.333c-0.435,0-0.893,0.022-1.327,0.068         c-3.639,0.344-6.888,2.083-9.221,4.897c-6.99,8.51-1.512,21.498,9.518,22.264c0.55,8.123,4.645,14.21,8.375,19.747         c4.233,6.292,7.894,11.693,5.354,18.695c-1.487,4.095-5.08,7.345-9.587,8.717c-4.554,1.35-9.336,0.618-12.86-1.991         c-4.324-3.226-6.933-9.839-4.943-14.988c4.057,3.289,4.462,4.508,6.27,4.508c2.024,0,3.617-2.074,2.792-4.119         c-5.511-12.72-4.831-15.296-7.826-15.742c-2.969-0.443-3.145,2.271-12.081,12.768c-1.969,2.54,0.748,5.893,3.592,4.622         l4.05-1.808c-1.716,6.247,1.443,13.454,6.384,17.138c2.86,2.128,6.43,3.249,10.115,3.249c1.784,0,3.592-0.274,5.354-0.8         c5.4-1.625,9.725-5.561,11.532-10.549C514.012,312.413,509.779,306.121,505.294,299.462z M484.86,268.801         c-0.572-5.881,3.707-11.075,9.565-11.647c0.365-0.023,0.709-0.046,1.052-0.046c5.422,0,10.068,4.119,10.594,9.633         c0.592,6.004-4.038,11.693-10.64,11.693C489.994,278.434,485.397,274.317,484.86,268.801z M472.276,310.812l9.29-11.67h0.046         l5.423,13.912c-0.23-0.201-5.557-4.85-5.218-4.554C479.479,306.453,477,309.205,472.276,310.812z"/>
						</g>
					</g>
					<g>
						<g>
							<path style="fill:#000E3F;" d="M495.454,262.051c-3.452,0-6.009,2.992-5.697,6.27c0.296,3.014,2.865,5.171,5.697,5.171         C503.156,273.492,502.933,262.051,495.454,262.051z M495.203,265.025h0.251c3.469,0,3.749,5.123,0.275,5.492h-0.275         C491.969,270.517,491.721,265.395,495.203,265.025z"/>
						</g>
					</g>
					<g>
						<g>
							<path style="fill:#000E3F;" d="M159.608,169.71c-0.597,0-1.157-0.362-1.388-0.95c-0.295-0.767,0.085-1.629,0.849-1.926         L462.855,49.058c0.771-0.293,1.627,0.085,1.926,0.849c0.295,0.766-0.085,1.629-0.849,1.926L160.146,169.609         C159.97,169.676,159.787,169.71,159.608,169.71z"/>
						</g>
					</g>
					<g>
						<g>
							<path style="fill:#000E3F;" d="M494.574,260.298c-0.731,0-1.367-0.538-1.47-1.283l-28.707-205.66         c-0.114-0.813,0.454-1.564,1.267-1.678c0.802-0.134,1.566,0.454,1.678,1.267l28.707,205.66         c0.114,0.813-0.454,1.564-1.267,1.678C494.712,260.293,494.643,260.298,494.574,260.298z"/>
						</g>
					</g>
				</g>
			</g>
			<g>
				<g>
					<g>
						<g>
							<path style="fill:#FC09B2;" d="M467.249,57.076L467.249,57.076c3.131-1.214,4.685-4.736,3.471-7.867l-5.596-14.435         c-1.214-3.131-4.736-4.685-7.867-3.471l0,0c-3.131,1.214-4.685,4.736-3.471,7.867l5.596,14.435         C460.596,56.735,464.118,58.29,467.249,57.076z"/>
						</g>
					</g>
					<g>
						<g>
							<path style="fill:#FC09B2;" d="M399.391,83.384L399.391,83.384c3.131-1.214,4.685-4.736,3.471-7.867l-5.596-14.435         c-1.214-3.131-4.736-4.685-7.867-3.471l0,0c-3.131,1.214-4.685,4.736-3.471,7.867l5.596,14.435         C392.738,83.044,396.26,84.598,399.391,83.384z"/>
						</g>
					</g>
					<g>
						<g>
							<path style="fill:#FC09B2;" d="M331.533,109.692L331.533,109.692c3.131-1.214,4.685-4.736,3.471-7.867l-5.596-14.434         c-1.214-3.131-4.736-4.685-7.867-3.471l0,0c-3.131,1.214-4.685,4.736-3.471,7.867l5.596,14.435         C324.879,109.352,328.402,110.906,331.533,109.692z"/>
						</g>
					</g>
					<g>
						<g>
							<path style="fill:#FC09B2;" d="M263.674,136L263.674,136c3.131-1.214,4.685-4.736,3.471-7.867l-5.596-14.435         c-1.214-3.131-4.736-4.685-7.867-3.471l0,0c-3.131,1.214-4.685,4.736-3.471,7.867l5.596,14.434         C257.021,135.66,260.544,137.214,263.674,136z"/>
						</g>
					</g>
					<g>
						<g>
							<path style="fill:#FC09B2;" d="M195.816,162.308L195.816,162.308c3.131-1.214,4.685-4.736,3.471-7.867l-5.596-14.435         c-1.214-3.131-4.736-4.685-7.867-3.471l0,0c-3.131,1.214-4.685,4.736-3.471,7.867l5.596,14.435         C189.163,161.968,192.685,163.522,195.816,162.308z"/>
						</g>
					</g>
				</g>
				<g>
					<g>
						<g>
							<path style="fill:#000E3F;" d="M465.049,58.977c-1.037,0-2.074-0.214-3.052-0.646c-1.85-0.818-3.271-2.304-4.002-4.188         l-5.595-14.435c-0.731-1.884-0.684-3.942,0.132-5.792c0.816-1.85,2.304-3.271,4.188-4.002         c1.884-0.728,3.941-0.682,5.792,0.134c1.85,0.816,3.271,2.304,4.002,4.188l5.595,14.433c1.506,3.893-0.431,8.286-4.319,9.794         C466.899,58.807,465.974,58.977,465.049,58.977z M459.456,32.377c-0.561,0-1.124,0.103-1.66,0.313         c-1.144,0.442-2.047,1.305-2.543,2.427c-0.496,1.124-0.523,2.371-0.08,3.515l5.598,14.435         c0.442,1.144,1.305,2.047,2.427,2.541c1.122,0.496,2.371,0.525,3.515,0.08c2.362-0.914,3.537-3.58,2.621-5.944l-5.595-14.431         c-0.443-1.144-1.305-2.047-2.427-2.543C460.716,32.509,460.086,32.377,459.456,32.377z"/>
						</g>
					</g>
					<g>
						<g>
							<path style="fill:#000E3F;" d="M397.193,85.287c-1.039,0-2.076-0.217-3.055-0.648c-1.85-0.816-3.271-2.304-4.002-4.188         l-5.595-14.435c-0.731-1.884-0.684-3.942,0.132-5.79c0.816-1.85,2.304-3.271,4.187-4.002         c1.888-0.731,3.942-0.684,5.792,0.132s3.271,2.304,4.002,4.188l5.595,14.435c1.506,3.89-0.431,8.283-4.319,9.792         c0,0.002,0,0.002,0,0.002C399.043,85.115,398.116,85.287,397.193,85.287z M399.392,83.385h0.022H399.392z M391.6,58.685         c-0.561,0-1.124,0.105-1.662,0.313c-1.144,0.445-2.047,1.307-2.543,2.429c-0.496,1.122-0.523,2.369-0.08,3.513l5.597,14.435         c0.443,1.144,1.305,2.047,2.429,2.543c1.117,0.491,2.366,0.523,3.513,0.083l0,0c2.362-0.918,3.537-3.584,2.621-5.944         l-5.595-14.435c-0.442-1.144-1.305-2.047-2.427-2.543C392.858,58.816,392.23,58.685,391.6,58.685z"/>
						</g>
					</g>
					<g>
						<g>
							<path style="fill:#000E3F;" d="M329.332,111.594c-1.037,0-2.074-0.214-3.052-0.648c-1.85-0.816-3.271-2.304-4.002-4.19         l-5.595-14.431c-0.729-1.886-0.682-3.942,0.132-5.792c0.818-1.85,2.304-3.271,4.188-4.002         c1.888-0.729,3.942-0.684,5.792,0.134c1.85,0.816,3.271,2.304,4.002,4.19l5.595,14.431c0.729,1.886,0.682,3.942-0.132,5.792         c-0.818,1.85-2.304,3.271-4.188,4.002C331.182,111.424,330.257,111.594,329.332,111.594z M323.739,84.994         c-0.561,0-1.122,0.103-1.66,0.313c-1.144,0.442-2.047,1.305-2.541,2.427c-0.496,1.124-0.525,2.371-0.08,3.515l5.595,14.433         c0.443,1.146,1.305,2.049,2.427,2.543c1.122,0.496,2.369,0.525,3.515,0.08c1.144-0.442,2.047-1.305,2.541-2.427         c0.496-1.124,0.525-2.371,0.08-3.515l-5.595-14.433c-0.443-1.146-1.305-2.049-2.427-2.543         C324.999,85.123,324.369,84.994,323.739,84.994z"/>
						</g>
					</g>
					<g>
						<g>
							<path style="fill:#000E3F;" d="M261.474,137.903c-1.039,0-2.074-0.217-3.052-0.648c-1.85-0.816-3.271-2.304-4.002-4.187         l-5.595-14.435c-0.729-1.886-0.682-3.942,0.134-5.79c0.816-1.85,2.302-3.271,4.185-4.002         c1.888-0.731,3.942-0.684,5.792,0.132c1.85,0.816,3.271,2.304,4.002,4.188l5.595,14.435c0.729,1.886,0.681,3.942-0.134,5.79         c-0.815,1.85-2.302,3.271-4.185,4.002C263.324,137.731,262.399,137.903,261.474,137.903z M255.883,111.301         c-0.561,0-1.124,0.105-1.663,0.313c-1.144,0.445-2.047,1.307-2.543,2.429c-0.494,1.122-0.523,2.371-0.078,3.513l5.595,14.435         c0.442,1.144,1.305,2.047,2.427,2.543c1.122,0.494,2.369,0.519,3.515,0.08c0-0.002,0-0.002,0-0.002         c1.144-0.443,2.047-1.305,2.543-2.427c0.494-1.122,0.523-2.371,0.078-3.513l-5.595-14.435         c-0.442-1.144-1.305-2.047-2.427-2.543C257.141,111.433,256.513,111.301,255.883,111.301z"/>
						</g>
					</g>
					<g>
						<g>
							<path style="fill:#000E3F;" d="M193.615,164.21c-1.037,0-2.074-0.214-3.052-0.648c-1.85-0.816-3.271-2.304-4.002-4.19         l-5.595-14.431c-1.506-3.893,0.431-8.286,4.319-9.794c1.888-0.729,3.942-0.682,5.792,0.132         c1.85,0.818,3.271,2.304,4.002,4.188l5.595,14.435c0.731,1.884,0.684,3.942-0.132,5.792c-0.816,1.85-2.304,3.271-4.188,4.002         C195.466,164.041,194.54,164.21,193.615,164.21z M188.022,137.611c-0.561,0-1.122,0.103-1.66,0.313         c-2.362,0.914-3.537,3.58-2.621,5.944l5.595,14.431c0.442,1.146,1.305,2.049,2.427,2.543c1.122,0.496,2.371,0.525,3.515,0.08         c1.144-0.442,2.047-1.305,2.543-2.427c0.496-1.124,0.523-2.371,0.08-3.515l-5.598-14.435         c-0.442-1.144-1.305-2.047-2.427-2.541C189.283,137.74,188.653,137.611,188.022,137.611z"/>
						</g>
					</g>
				</g>
			</g>
		</g>
		<g>
			<g>
				<g>
					<g>
						<path style="fill:#FF8EDE;" d="M161.065,158.631c1.823,4.703,0.889,9.828-2.062,13.539c-1.369,1.726-3.17,3.15-5.341,4.07        L43.644,223.304l-14.745,6.305c-7.149,3.046-15.41-0.416-18.224-7.674l-3.369-8.69c-1.896-4.89-0.802-10.156,2.347-13.866        c1.533-1.809,3.54-3.254,5.942-4.087l15.142-5.282l112.99-39.395c3.506-1.222,7.165-0.935,10.288,0.5        C157.144,152.565,159.73,155.189,161.065,158.631z"/>
					</g>
				</g>
				<g>
					<g>
						<path style="fill:#FC09B2;" d="M30.736,190.009l12.908,33.295l-14.745,6.305c-7.149,3.046-15.41-0.416-18.224-7.674        l-3.369-8.69c-0.158-0.409-0.294-0.807-0.394-1.219c-0.033-0.085-0.059-0.153-0.069-0.228        c-0.098-0.354-0.179-0.715-0.237-1.065c-0.077-0.401-0.137-0.81-0.173-1.207c-0.022-0.207-0.044-0.414-0.048-0.628        c-0.011-0.231-0.022-0.462-0.016-0.7c0.009-0.18,0.007-0.336,0.015-0.516c0.02-0.301,0.041-0.604,0.077-0.912        c0.02-0.204,0.039-0.407,0.081-0.6c0.034-0.268,0.074-0.519,0.131-0.776c0.045-0.135,0.067-0.281,0.096-0.41        c0.099-0.352,0.197-0.704,0.32-1.045c0.085-0.287,0.192-0.565,0.307-0.824c0.08-0.247,0.192-0.466,0.303-0.686        c0.188-0.426,0.406-0.824,0.637-1.188c0.132-0.267,0.294-0.506,0.462-0.728c0.032-0.071,0.069-0.125,0.108-0.179        c0.172-0.262,0.369-0.515,0.588-0.757c0.055-0.06,0.103-0.138,0.159-0.199c1.533-1.809,3.54-3.254,5.942-4.087L30.736,190.009        z"/>
					</g>
				</g>
				<g style="opacity:0.5;">
					<g>
						<path style="fill:#FFFFFF;" d="M40.582,193.272c17.077-7.88,49.379-18.801,69.164-22.997c1.875-0.398,2.749,2.248,1.008,3.047        c-18.194,8.351-50.621,18.907-69.224,22.815C39.769,196.506,38.948,194.025,40.582,193.272z"/>
					</g>
				</g>
				<g style="opacity:0.5;">
					<g>
						<path style="fill:#FC09B2;" d="M159.003,172.17c-1.369,1.726-3.17,3.15-5.341,4.07L43.644,223.304l-5.417-13.972        c6.027-0.886,11.949-3.457,17.623-5.303c54.557-17.819,47.952-18.63,89.579-34.768        C150.677,167.226,155.366,169.21,159.003,172.17z"/>
					</g>
				</g>
				<g style="opacity:0.25;">
					<g>
						<path style="fill:#000E3F;" d="M38.227,209.332l5.417,13.972l-14.745,6.305c-7.149,3.046-15.41-0.416-18.224-7.674        l-3.369-8.69c-0.158-0.409-0.294-0.807-0.394-1.219c-0.033-0.085-0.059-0.153-0.069-0.228        c-0.098-0.354-0.179-0.715-0.237-1.065c-0.077-0.401-0.137-0.81-0.173-1.207c-0.022-0.207-0.044-0.414-0.048-0.628        c-0.011-0.231-0.022-0.462-0.016-0.7c0.009-0.18,0.007-0.336,0.015-0.516c0.02-0.301,0.041-0.604,0.077-0.912        c0.02-0.204,0.039-0.407,0.081-0.6c0.034-0.268,0.091-0.525,0.131-0.776c0.045-0.135,0.067-0.281,0.096-0.41        c0.099-0.352,0.197-0.704,0.32-1.045c0.085-0.287,0.192-0.565,0.307-0.824c0.08-0.247,0.192-0.466,0.303-0.686        c0.188-0.426,0.406-0.824,0.637-1.188c0.132-0.267,0.294-0.506,0.462-0.728c0.032-0.071,0.069-0.125,0.108-0.179        c0.172-0.262,0.369-0.515,0.588-0.757c0.055-0.06,0.103-0.138,0.159-0.199c7.018,0.964,11.311,7.336,17.789,9.333        C31.048,209.821,34.655,209.874,38.227,209.332z"/>
					</g>
				</g>
			</g>
			<g>
				<g>
					<path style="fill:#000E3F;" d="M23.498,232.21c-2.009,0-4.015-0.402-5.926-1.209c-3.837-1.618-6.78-4.646-8.286-8.527       l-3.367-8.692c-2.02-5.207-1.023-11.094,2.599-15.367c1.765-2.078,4.042-3.645,6.589-4.529l128.131-44.675       c3.736-1.303,7.783-1.106,11.398,0.552c3.609,1.676,6.382,4.634,7.817,8.33c1.948,5.03,1.073,10.779-2.286,15.003       c-1.566,1.975-3.615,3.537-5.924,4.516L29.484,230.976C27.554,231.799,25.525,232.21,23.498,232.21z M148.25,151.333       c-1.359,0-2.719,0.228-4.033,0.684L16.084,196.694c-2.047,0.711-3.877,1.971-5.296,3.644c-2.918,3.439-3.72,8.178-2.094,12.368       l3.368,8.692c1.211,3.122,3.577,5.559,6.666,6.86c3.09,1.305,6.498,1.296,9.588-0.018l124.761-53.367       c1.884-0.798,3.484-2.018,4.76-3.629c2.706-3.401,3.412-8.029,1.841-12.075c-1.153-2.979-3.387-5.358-6.288-6.706       C151.751,151.711,150.002,151.333,148.25,151.333z"/>
				</g>
			</g>
		</g>
		<g>
			<g>
				<g>
					<g>
						<path style="fill:#FFCF00;" d="M141.233,189.429c4.135,10.666-1.155,22.655-11.821,26.79        c-6.237,2.418-12.917,1.617-18.221-1.599c-3.767-2.283-6.851-5.791-8.569-10.222c-4.135-10.666,1.154-22.654,11.821-26.79        c6.049-2.345,12.51-1.655,17.721,1.323C136.178,181.195,139.443,184.811,141.233,189.429z"/>
					</g>
				</g>
				<g>
					<g>
						<path style="fill:#FD8A02;" d="M133.003,192.619c2.372,6.117-0.671,12.981-6.788,15.352c-1.278,0.496-2.608,0.756-3.908,0.79        c-4.909,0.179-9.585-2.732-11.455-7.554c-2.371-6.117,0.665-12.998,6.782-15.369c3.766-1.46,7.815-0.874,10.918,1.216        C130.512,188.371,132.091,190.268,133.003,192.619z"/>
					</g>
				</g>
				<g style="opacity:0.5;">
					<g>
						<path style="fill:#FD8A02;" d="M141.233,189.429c4.135,10.666-1.155,22.655-11.821,26.79        c-6.237,2.418-12.917,1.617-18.221-1.599c4.121-1.049,8.075-3.033,11.116-5.858c1.3-0.034,2.63-0.294,3.908-0.79        c6.117-2.372,9.159-9.236,6.788-15.352c-0.912-2.352-2.49-4.248-4.451-5.566c0.251-1.273,0.631-2.518,1.105-3.721        c0.161-0.396,1.278-2.417,2.507-4.402C136.178,181.195,139.443,184.811,141.233,189.429z"/>
					</g>
				</g>
				<g style="opacity:0.18;">
					<g>
						<path style="fill:#000E3F;" d="M133.003,192.619c2.372,6.117-0.671,12.981-6.788,15.352c-1.278,0.496-2.608,0.756-3.908,0.79        c3.297-3.022,5.576-7.003,5.959-11.777c0.184-2.306-0.348-4.589-0.17-6.912c0.078-1.01,0.239-2.013,0.457-3.019        C130.512,188.371,132.091,190.268,133.003,192.619z"/>
					</g>
				</g>
				<g style="opacity:0.75;">
					<g>
						<path style="fill:#FFFFFF;" d="M108.418,194.488c-1.611,7.18,2.612,12.943,2.543,12.774c0.528,0.807-0.524,1.717-1.247,1.077        c-8.618-7.633-5.315-22.624,5.844-25.71c0.874-0.241,1.388,0.959,0.611,1.425        C116.168,184.053,109.936,187.343,108.418,194.488z"/>
					</g>
				</g>
			</g>
			<g>
				<g>
					<g>
						<path style="fill:#000E3F;" d="M121.898,219.124c-3.989,0-7.941-1.088-11.479-3.233c-4.223-2.561-7.399-6.348-9.184-10.956        c-2.143-5.528-2.007-11.559,0.387-16.982c2.391-5.421,6.755-9.588,12.285-11.731c6.243-2.422,13.173-1.911,18.994,1.417        c4.42,2.494,7.875,6.491,9.72,11.253l0,0c4.422,11.409-1.263,24.292-12.67,28.716        C127.333,218.621,124.609,219.124,121.898,219.124z M121.927,177.689c-2.342,0-4.695,0.433-6.945,1.307        c-4.791,1.855-8.567,5.464-10.639,10.158c-2.071,4.695-2.19,9.917-0.333,14.706c1.544,3.989,4.295,7.269,7.95,9.488        c5.144,3.117,11.302,3.658,16.913,1.484c9.879-3.83,14.802-14.985,10.972-24.864l0,0c-1.596-4.123-4.585-7.584-8.413-9.743        C128.486,178.541,125.216,177.689,121.927,177.689z"/>
					</g>
				</g>
				<g>
					<g>
						<path style="fill:#000E3F;" d="M118.155,198.371c0.808,2.083,3.151,3.117,5.234,2.309c2.083-0.807,3.117-3.151,2.309-5.233        c-0.807-2.083-3.151-3.117-5.233-2.309C118.381,193.945,117.347,196.288,118.155,198.371z"/>
					</g>
				</g>
			</g>
		</g>
	</g>
	<g>
		<g>
			<g>
				<g>
					<path style="fill:#FD8A02;" d="M397.733,364.885c1.964,2.285,6.015,5.116,9.569,14.485c0.319,0.84,0.653,1.687,1.098,2.462       c0.62,1.079,1.934,1.145,2.66,0.103c1.641-2.353,1.724-6.088,7.198-12.556c3.213-3.796,6.347-4.996,3.644-7.28       c-6.738-5.694-9.07-14.253-10.3-16.515c-0.531-0.976-1.786-1.05-2.47-0.187c-0.734,0.925-1.111,2.046-1.551,3.129       c-3.253,8.016-7.759,11.687-9.597,13.472C397.523,362.444,397.056,364.099,397.733,364.885z"/>
				</g>
			</g>
			<g>
				<g>
					<path style="fill:#FD8A02;" d="M456.458,424.66c2.262,2.63,6.922,5.878,11.021,16.683c0.367,0.967,0.752,1.943,1.264,2.836       c0.714,1.243,2.228,1.318,3.064,0.119c1.892-2.713,1.986-7.012,8.291-14.461c3.7-4.372,7.31-5.755,4.198-8.385       c-7.76-6.559-10.447-16.416-11.864-19.022c-0.612-1.125-2.057-1.21-2.845-0.215c-0.846,1.066-1.28,2.356-1.787,3.604       c-3.754,9.25-8.961,13.486-11.054,15.516C456.216,421.848,455.678,423.754,456.458,424.66z"/>
				</g>
			</g>
			<g>
				<g>
					<path style="fill:#FD8A02;" d="M346.852,438.94c0.472,0.548,0.95,1.097,1.476,1.592c7.412,6.976,9.172,15.074,10.81,17.926       c0.714,1.243,2.228,1.318,3.064,0.119c0.583-0.836,1.023-1.802,1.373-2.766c5.459-15.046,15.771-16.146,11.115-20.082       c-7.76-6.558-10.447-16.416-11.863-19.022c-0.612-1.125-2.057-1.21-2.846-0.215c-0.845,1.066-1.28,2.356-1.786,3.603       c-3.755,9.25-8.962,13.486-11.054,15.516C346.609,436.128,346.07,438.032,346.852,438.94z"/>
				</g>
			</g>
		</g>
		<g>
			<g>
				<g>
					<path style="fill:#FD8A02;" d="M104.799,52.3c1.963,2.285,6.015,5.116,9.569,14.485c0.319,0.84,0.653,1.687,1.098,2.462       c0.62,1.079,1.934,1.145,2.66,0.103c1.641-2.353,1.724-6.088,7.198-12.556c3.213-3.796,6.347-4.996,3.644-7.28       c-6.737-5.694-9.07-14.253-10.3-16.515c-0.531-0.976-1.786-1.05-2.47-0.187c-0.734,0.925-1.111,2.046-1.551,3.129       c-3.253,8.016-7.759,11.687-9.597,13.472C104.588,49.859,104.122,51.514,104.799,52.3z"/>
				</g>
			</g>
			<g>
				<g>
					<path style="fill:#FD8A02;" d="M184.55,77.565c2.262,2.63,6.922,5.878,11.021,16.683c0.367,0.967,0.752,1.943,1.264,2.836       c0.714,1.243,2.228,1.318,3.064,0.119c1.892-2.713,1.986-7.012,8.291-14.461c3.7-4.372,7.31-5.755,4.198-8.385       c-7.76-6.559-10.447-16.416-11.864-19.022c-0.612-1.125-2.057-1.21-2.845-0.215c-0.845,1.066-1.28,2.356-1.787,3.604       c-3.754,9.25-8.961,13.486-11.054,15.516C184.308,74.753,183.77,76.659,184.55,77.565z"/>
				</g>
			</g>
			<g>
				<g>
					<path style="fill:#FD8A02;" d="M45.332,121.956c0.472,0.548,0.95,1.098,1.476,1.592c7.412,6.976,9.172,15.074,10.81,17.926       c0.714,1.243,2.228,1.318,3.064,0.119c0.583-0.836,1.023-1.802,1.373-2.766c5.459-15.046,15.771-16.146,11.115-20.081       c-7.76-6.559-10.447-16.416-11.863-19.022c-0.612-1.125-2.057-1.21-2.846-0.215c-0.845,1.066-1.28,2.356-1.786,3.603       c-3.755,9.25-8.962,13.486-11.054,15.516C45.089,119.144,44.55,121.048,45.332,121.956z"/>
				</g>
			</g>
		</g>
	</g>
</g>















</svg>
